<svg width="18" height="32" viewBox="0 0 18 32" fill="none" xmlns="http://www.w3.org/2000/svg">
<path fill-rule="evenodd" clip-rule="evenodd" d="M9.69677 4.38519V0.711111C9.69677 0.414815 9.63871 0.296296 9.52258 0.177778C9.40645 0.0592593 9.23226 0 9 0C8.76774 0 8.59355 0.0592593 8.47742 0.177778C8.36129 0.296296 8.30323 0.414815 8.30323 0.711111V4.38519L7.66452 4.5037C3.36774 5.15556 0 9.06667 0 13.8074V22.5185C0 27.8519 4.00645 32 9 32C13.9935 32 18 27.8519 18 22.5185V13.8074C18 9.06667 14.6323 5.15556 10.2774 4.5037L9.69677 4.38519ZM1.33548 13.8074C1.33548 9.3037 4.70323 5.74815 9 5.74815C13.2968 5.74815 16.6645 9.3037 16.6645 13.8074V22.8148C16.6645 27.3185 13.2968 30.8741 9 30.8741C4.70323 30.8741 1.33548 27.3185 1.33548 22.8148V13.8074Z" fill="#EFEFEF"/>
<path d="M9 27C7.90909 27 7 26.0909 7 25C7 23.9091 7.90909 23 9 23C10.0909 23 11 23.9091 11 25C11 26.0909 10.0909 27 9 27ZM9 23.9091C8.39394 23.9091 7.90909 24.3939 7.90909 25C7.90909 25.6061 8.39394 26.0909 9 26.0909C9.60606 26.0909 10.0909 25.6061 10.0909 25C10.0909 24.3939 9.60606 23.9091 9 23.9091Z" fill="#FD2016"/>
</svg>
