<svg width="30" height="30" fill="none" xmlns="http://www.w3.org/2000/svg"><path d="M14.994 0C8.365 0 2.969 5.396 2.969 12.025c0 .755.069 1.516.214 2.258a11.842 11.842 0 00.887 2.774c1.295 3.05 4.144 7.735 10.396 12.754a.854.854 0 001.069 0c6.245-5.018 9.1-9.704 10.396-12.754a11.705 11.705 0 00.887-2.774c.138-.742.214-1.503.214-2.258C27.019 5.396 21.622 0 14.994 0zm10.138 13.987c0 .013-.006.026-.006.038a9.939 9.939 0 01-.057.27v.013a9.993 9.993 0 01-.698 2.05c-.006.007-.006.02-.012.026-1.176 2.786-3.755 7.037-9.365 11.673-5.61-4.636-8.189-8.887-9.365-11.673-.006-.007-.006-.02-.012-.026a10.651 10.651 0 01-.699-2.05v-.012c-.037-.145-.05-.24-.056-.27 0-.013-.006-.026-.006-.045a10.271 10.271 0 01-.19-1.962c0-5.692 4.636-10.327 10.328-10.327 5.692 0 10.327 4.635 10.327 10.327 0 .666-.063 1.327-.189 1.968z" fill="#000"/><path d="M14.994 4.522c-4.207 0-7.635 3.428-7.635 7.635 0 4.208 3.428 7.635 7.635 7.635 4.208 0 7.635-3.427 7.635-7.635 0-4.207-3.427-7.635-7.635-7.635zm0 13.572a5.944 5.944 0 01-5.937-5.937 5.948 5.948 0 015.937-5.937 5.948 5.948 0 015.937 5.937c0 3.27-2.66 5.937-5.937 5.937z" fill="#000"/></svg>4.91843 14.2956C4.8807 14.1509 4.86812 14.0566 4.86183 14.0252C4.86183 14.0126 4.85554 14 4.85554 13.9811C4.72976 13.3333 4.66686 12.6792 4.66686 12.0189C4.66686 6.32704 9.30208 1.69182 14.9939 1.69182C20.6857 1.69182 25.3209 6.32704 25.3209 12.0189C25.3209 12.6855 25.2581 13.3459 25.1323 13.9874Z" fill="black"/>
<path d="M14.9941 4.52197C10.7866 4.52197 7.35889 7.94965 7.35889 12.1572C7.35889 16.3647 10.7866 19.7924 14.9941 19.7924C19.2016 19.7924 22.6293 16.3647 22.6293 12.1572C22.6293 7.94965 19.2016 4.52197 14.9941 4.52197ZM14.9941 18.0943C11.7174 18.0943 9.057 15.4276 9.057 12.1572C9.057 8.88675 11.7237 6.22009 14.9941 6.22009C18.2645 6.22009 20.9312 8.88675 20.9312 12.1572C20.9312 15.4276 18.2708 18.0943 14.9941 18.0943Z" fill="black"/>
</svg>
