<svg width="510" height="488" fill="none" xmlns="http://www.w3.org/2000/svg"><g opacity=".85" clip-path="url(#clip0_86_465)"><path d="M178.563 262.38c-.873-12.305-1.479-40.554-2.173-55.199-7.527-99.808-83.57-121.05-129.334-24.339-33.75 70.272-54.768 167.344-44.394 236.775 4.734 29.247 9.334 67.44 39.126 68.751 21.674-.296 44.033-28.289 66.549-33.621 31.601-9.871 67.301-20.995 74.323-63.482 9.572-43.157-5.099-86.262-4.097-128.885zM55.917 434.171c-12.406 1.973-10.43-16.662-12.457-24.338a285.085 285.085 0 01-.501-56.205 8.39 8.39 0 0116.72 1.422 267.2 267.2 0 00.335 52.524c.45 9.149 7.786 24.198-4.097 26.597zm376.131-225.737C380.386 73.89 298.576 107.83 291.511 207.179c-.656 10.651-.389 26.453-1.338 37.47l-.836 17.146c1.281 44.188-14.671 88.976-3.093 133.652 8.814 39.41 43.541 50.004 74.072 59.466 25.278 5.952 48.933 41.205 75.326 31.616 20.819-8.282 25.751-40.9 29.681-67.078 8.633-62.536-4.238-138.046-33.275-211.017zm-24.83 87.15a8.466 8.466 0 01-10.199-6.022 453.963 453.963 0 00-28.676-81.128 8.408 8.408 0 014.013-11.123 8.292 8.292 0 016.398-.317 8.304 8.304 0 014.721 4.331 473.663 473.663 0 0129.763 84.056 8.396 8.396 0 01-6.02 10.203zM259.073 145.372a75.144 75.144 0 0017.139 47.673c-.669 4.266-1.087 8.698-1.421 13.214-.515 9.879-.491 26.654-1.338 37.554l-.501 10.789a123.46 123.46 0 01-38.96-34.04 124.272 124.272 0 01-39.042 34.207c-.265-8.277-.982-19.365-1.338-28.018a194.884 194.884 0 00-2.007-33.539 75.102 75.102 0 0017.306-47.84V28.364A8.385 8.385 0 01217.272 20h33.441a8.386 8.386 0 018.36 8.364v117.008z" fill="url(#paint0_linear_86_465)"/></g><defs><linearGradient id="paint0_linear_86_465" x1="329.959" y1="448.402" x2="158.229" y2="-293.937" gradientUnits="userSpaceOnUse"><stop stop-color="#C9EF9A"/><stop offset=".169" stop-color="#99DB82"/><stop offset=".275" stop-color="#67C66B"/><stop offset=".484" stop-color="#44AC5E"/><stop offset=".67" stop-color="#3C9F61"/><stop offset=".774" stop-color="#459C65"/><stop offset=".915" stop-color="#7AAB6F"/><stop offset="1" stop-color="#DCCB83"/></linearGradient><clipPath id="clip0_86_465"><path fill="#fff" d="M0 0h510v488H0z"/></clipPath></defs></svg>