<svg width="36" height="27" viewBox="0 0 36 27" fill="none" xmlns="http://www.w3.org/2000/svg">
<g clip-path="url(#clip0_414_576)">
<path d="M0.646626 11.89C2.02254 12.9105 2.54906 13.053 3.70099 14.5951C5.59179 17.1036 5.31544 18.1526 5.88268 18.6315C6.44992 19.1104 9.00104 19.4866 10.7493 17.3088C12.4976 15.131 15.2087 9.07367 18.7023 5.44496C22.1959 1.81624 23.8249 0.767253 24.8721 0.219952C25.9193 -0.327348 22.6002 -0.210476 16.0639 4.87485C11.5318 8.41235 8.31744 13.2924 8.31744 13.2924C8.31744 13.2924 7.40986 10.6244 5.38525 8.83708C3.36065 7.0498 -1.63397 10.1968 0.646626 11.89Z" fill="#C9BA70"/>
</g>
<defs>
<clipPath id="clip0_414_576">
<rect width="35" height="27" fill="white" transform="translate(0.0625)"/>
</clipPath>
</defs>
</svg>
