<svg xmlns="http://www.w3.org/2000/svg" width="32" height="32" shape-rendering="geometricPrecision"
  text-rendering="geometricPrecision" image-rendering="optimizeQuality" fill-rule="evenodd"
  clip-rule="evenodd">
  <path fill="#587c5c"
    d="M2.5-.5h5a52.565 52.565 0 014 7.5c-.94 1.944-2.273 3.61-4 5 2.5 5.167 6.333 9 11.5 11.5 1.39-1.727 3.056-3.06 5-4a80.87 80.87 0 007.5 4v5a303.438 303.438 0 00-4 3h-8c-9.667-3.667-16.333-10.333-20-20v-8a304.438 304.438 0 003-4z"
    opacity=".624" />
  <path fill="#76bb7e"
    d="M3.5.5c3.434.615 5.434 2.781 6 6.5a26.261 26.261 0 00-3 5.5c2.333 5.667 6.333 9.667 12 12 2.228-.719 4.061-2.052 5.5-4a28.83 28.83 0 006 4c.066 4.095-2.1 6.095-6.5 6-11.974-3.307-19.64-10.974-23-23 .195-2.718 1.195-5.051 3-7z" />
</svg>