<svg width="20" height="18" viewBox="0 0 20 18" fill="none" xmlns="http://www.w3.org/2000/svg">
<path d="M1 12V16C1 16.5523 1.44772 17 2 17H18C18.5523 17 19 16.5523 19 16V12" stroke="#272727" stroke-width="1.5"/>
<path d="M9.54038 11.4596C9.79422 11.7135 10.2058 11.7135 10.4596 11.4596L14.5962 7.32304C14.85 7.0692 14.85 6.65765 14.5962 6.40381C14.3424 6.14997 13.9308 6.14997 13.677 6.40381L10 10.0808L6.32305 6.40381C6.0692 6.14997 5.65765 6.14997 5.40381 6.40381C5.14997 6.65765 5.14997 7.0692 5.40381 7.32304L9.54038 11.4596ZM9.35 2.84125e-08L9.35 11L10.65 11L10.65 -2.84125e-08L9.35 2.84125e-08Z" fill="#272727"/>
</svg>
