<svg width="74" height="74" viewBox="0 0 74 74" fill="none" xmlns="http://www.w3.org/2000/svg">
<path d="M1.54702 40.7349C-0.515675 38.6722 -0.515675 35.3279 1.54702 33.2651L33.2651 1.54702C35.3279 -0.515675 38.6722 -0.515675 40.7349 1.54702L72.4529 33.2651C74.5157 35.3279 74.5157 38.6722 72.4529 40.7349L40.7349 72.4529C38.6722 74.5157 35.3279 74.5157 33.2651 72.4529L1.54702 40.7349Z" fill="#EE513B"/>
<path d="M27.2477 8L24 11.1929L32.3881 19.4392C32.0487 20.1549 31.8593 20.9531 31.8593 21.7948C31.8593 24.1845 33.3865 26.2234 35.5337 27.0197V47.1925C33.3865 47.9887 31.8593 50.0277 31.8593 52.4173C31.8593 55.5005 34.4017 58 37.5379 58C40.6741 58 43.2166 55.5005 43.2166 52.4173C43.2166 50.251 41.9614 48.3726 40.1268 47.4473V27.0473L48.1451 34.93C47.8223 35.6312 47.6427 36.4096 47.6427 37.2293C47.6427 40.3125 50.1851 42.812 53.3213 42.812C56.4576 42.812 59 40.3125 59 37.2293C59 34.1461 56.4576 31.6466 53.3213 31.6466C52.7118 31.6466 52.125 31.7409 51.5745 31.9156L42.963 23.4497C43.1278 22.9269 43.2166 22.3709 43.2166 21.7948C43.2166 18.7115 40.6741 16.2121 37.5379 16.2121C36.9519 16.2121 36.3867 16.2994 35.8546 16.4615L27.2477 8Z" fill="white"/>
</svg>
