<?xml version="1.0" encoding="utf-8"?>
<svg width="35px" height="35px" viewBox="0 0 35 35" version="1.1" xmlns:xlink="http://www.w3.org/1999/xlink" xmlns="http://www.w3.org/2000/svg">
  <path d="M17.5 0C15.2019 0 12.9262 0.463864 10.803 1.36523C8.67984 2.26648 6.75066 3.5875 5.12563 5.25292C1.84374 8.6163 0 13.178 0 17.9345C0 25.8615 5.0225 32.587 11.97 34.9722C12.845 35.1157 13.125 34.5597 13.125 34.0755L13.125 31.0445C8.2775 32.1207 7.245 28.6413 7.245 28.6413C6.44 26.5609 5.3025 26.005 5.3025 26.005C3.71 24.8931 5.425 24.9289 5.425 24.9289C7.175 25.0544 8.1025 26.7762 8.1025 26.7762C9.625 29.5022 12.1975 28.6951 13.195 28.2647C13.3525 27.099 13.8075 26.3099 14.2975 25.8615C10.4125 25.4132 6.335 23.8708 6.335 17.0378C6.335 15.047 7 13.4509 8.1375 12.1775C7.9625 11.7292 7.35 9.86394 8.3125 7.44275C8.3125 7.44275 9.7825 6.95859 13.125 9.27209C14.5075 8.87752 16.0125 8.68024 17.5 8.68024C18.9875 8.68024 20.4925 8.87752 21.875 9.27209C25.2175 6.95859 26.6875 7.44275 26.6875 7.44275C27.65 9.86394 27.0375 11.7292 26.8625 12.1775C28 13.4509 28.665 15.047 28.665 17.0378C28.665 23.8887 24.57 25.3952 20.6675 25.8435C21.2975 26.3996 21.875 27.4936 21.875 29.1614L21.875 34.0755C21.875 34.5597 22.155 35.1336 23.0475 34.9722C29.995 32.569 35 25.8615 35 17.9345C35 15.5793 34.5473 13.2472 33.6679 11.0712C32.7885 8.89537 31.4994 6.91822 29.8744 5.25292C28.2493 3.5875 26.3201 2.26648 24.197 1.36523C22.0738 0.463864 19.7981 0 17.5 0L17.5 0Z" id="Фигура" fill="#0172AA" fill-rule="evenodd" stroke="none" />
</svg>