<?xml version="1.0" encoding="UTF-8"?>
<!DOCTYPE svg PUBLIC "-//W3C//DTD SVG 1.1//EN" "http://www.w3.org/Graphics/SVG/1.1/DTD/svg11.dtd">
<svg xmlns="http://www.w3.org/2000/svg" version="1.1" width="288px" height="288px" style="shape-rendering:geometricPrecision; text-rendering:geometricPrecision; image-rendering:optimizeQuality; fill-rule:evenodd; clip-rule:evenodd" xmlns:xlink="http://www.w3.org/1999/xlink">
<g><path style="opacity:0.994" fill="#ef4746" d="M 126.5,-0.5 C 137.833,-0.5 149.167,-0.5 160.5,-0.5C 217.144,8.58097 256.644,39.581 279,92.5C 282.808,103.73 285.641,115.063 287.5,126.5C 287.5,137.833 287.5,149.167 287.5,160.5C 278.419,217.144 247.419,256.644 194.5,279C 183.27,282.808 171.937,285.641 160.5,287.5C 149.167,287.5 137.833,287.5 126.5,287.5C 69.8558,278.419 30.3558,247.419 8,194.5C 4.19244,183.27 1.35911,171.937 -0.5,160.5C -0.5,149.167 -0.5,137.833 -0.5,126.5C 8.58097,69.8558 39.581,30.3558 92.5,8C 103.73,4.19244 115.063,1.35911 126.5,-0.5 Z"/></g>
<g><path style="opacity:1" fill="#fef8f8" d="M 167.5,87.5 C 171.98,88.5206 176.647,89.1873 181.5,89.5C 184.997,88.8906 187.663,90.0573 189.5,93C 189.43,93.7648 189.097,94.2648 188.5,94.5C 178.788,97.6311 168.788,98.9644 158.5,98.5C 141.445,98.8875 124.445,98.2208 107.5,96.5C 104.579,96.7174 101.913,96.0507 99.5,94.5C 98.3552,93.2073 98.6885,92.0407 100.5,91C 104.632,89.1003 108.966,88.267 113.5,88.5C 127.862,88.3256 141.862,87.3256 155.5,85.5C 156.68,79.1026 158.18,72.7692 160,66.5C 168.126,57.868 176.46,49.5346 185,41.5C 187.373,42.424 189.206,43.924 190.5,46C 182.689,54.4791 174.856,62.9791 167,71.5C 165.513,76.7788 164.347,82.1121 163.5,87.5C 164.833,87.5 166.167,87.5 167.5,87.5 Z"/></g>
<g><path style="opacity:1" fill="#f9bcbb" d="M 155.5,85.5 C 141.862,87.3256 127.862,88.3256 113.5,88.5C 114.609,87.71 115.942,87.21 117.5,87C 130.242,86.8141 142.908,86.3141 155.5,85.5 Z"/></g>
<g><path style="opacity:1" fill="#f79998" d="M 167.5,87.5 C 172.453,87.1228 177.119,87.7895 181.5,89.5C 176.647,89.1873 171.98,88.5206 167.5,87.5 Z"/></g>
<g><path style="opacity:1" fill="#fefafa" d="M 189.5,97.5 C 187.709,115.909 185.376,134.242 182.5,152.5C 179.812,155.022 176.979,157.356 174,159.5C 173.333,158.5 173.333,157.5 174,156.5C 178.174,153.486 180.174,149.486 180,144.5C 176.285,142.867 173.118,143.534 170.5,146.5C 169.527,145.016 168.193,144.516 166.5,145C 164.111,150.891 160.111,155.391 154.5,158.5C 154.167,157.833 153.833,157.167 153.5,156.5C 157.372,146.881 161.038,137.215 164.5,127.5C 163.022,127.238 161.689,127.571 160.5,128.5C 156.54,137.547 152.873,146.714 149.5,156C 148.381,157.876 146.714,158.709 144.5,158.5C 145.421,153.401 146.754,148.401 148.5,143.5C 147.448,143.351 146.448,143.517 145.5,144C 143.714,149.452 140.714,154.118 136.5,158C 135.552,158.483 134.552,158.649 133.5,158.5C 134.539,153.422 135.872,148.422 137.5,143.5C 136.178,143.33 135.011,143.663 134,144.5C 130.248,149.99 128.915,155.99 130,162.5C 135.012,164.166 138.679,162.499 141,157.5C 141.494,159.134 141.66,160.801 141.5,162.5C 144.144,162.84 146.477,162.173 148.5,160.5C 151.76,163.059 155.094,163.059 158.5,160.5C 158.833,160.833 159.167,161.167 159.5,161.5C 157.029,165.916 155.362,170.582 154.5,175.5C 155.978,175.762 157.311,175.429 158.5,174.5C 161.265,164.97 165.598,156.303 171.5,148.5C 173.166,147.334 174.833,147.334 176.5,148.5C 174.144,151.022 171.977,153.688 170,156.5C 167.566,162.069 169.399,163.903 175.5,162C 177.754,160.623 179.92,159.123 182,157.5C 181.335,169.496 180.335,181.496 179,193.5C 178.722,194.416 178.222,195.082 177.5,195.5C 160.907,200.926 143.907,202.593 126.5,200.5C 123.495,198.723 120.162,197.723 116.5,197.5C 113.626,197.377 111.126,196.377 109,194.5C 108.166,184.158 107.333,173.825 106.5,163.5C 111.314,163.011 115.48,161.011 119,157.5C 118.084,161.015 117.584,164.682 117.5,168.5C 118.5,168.5 119.5,168.5 120.5,168.5C 123.251,159.253 125.584,149.919 127.5,140.5C 126.178,140.33 125.011,140.663 124,141.5C 122.665,148.327 119.165,153.827 113.5,158C 112.167,158.667 110.833,158.667 109.5,158C 108.596,146.774 112.263,137.108 120.5,129C 124.43,127.579 127.097,128.746 128.5,132.5C 129.325,133.386 130.325,133.719 131.5,133.5C 132.157,129.143 130.49,126.143 126.5,124.5C 125.726,123.853 124.726,123.52 123.5,123.5C 121.645,123.34 120.312,124.007 119.5,125.5C 112.27,130.259 107.436,136.925 105,145.5C 102.785,129.853 100.951,114.186 99.5,98.5C 99.56,97.9569 99.8933,97.6236 100.5,97.5C 113.592,100.891 126.925,102.224 140.5,101.5C 156.982,101.818 173.316,100.485 189.5,97.5 Z"/></g>
<g><path style="opacity:1" fill="#f37270" d="M 99.5,94.5 C 101.913,96.0507 104.579,96.7174 107.5,96.5C 111.652,97.5522 115.985,98.3855 120.5,99C 133.34,99.8267 146.007,99.66 158.5,98.5C 168.788,98.9644 178.788,97.6311 188.5,94.5C 188.389,95.1174 188.056,95.6174 187.5,96C 188.416,96.2784 189.082,96.7784 189.5,97.5C 173.316,100.485 156.982,101.818 140.5,101.5C 126.925,102.224 113.592,100.891 100.5,97.5C 99.8933,97.6236 99.56,97.9569 99.5,98.5C 98.6457,97.3684 98.6457,96.035 99.5,94.5 Z"/></g>
<g><path style="opacity:1" fill="#fac3c2" d="M 107.5,96.5 C 124.445,98.2208 141.445,98.8875 158.5,98.5C 146.007,99.66 133.34,99.8267 120.5,99C 115.985,98.3855 111.652,97.5522 107.5,96.5 Z"/></g>
<g><path style="opacity:1" fill="#f7a6a5" d="M 152.5,94.5 C 155.898,94.1796 159.232,94.513 162.5,95.5C 160.833,95.8333 159.167,96.1667 157.5,96.5C 155.36,96.4439 153.694,95.7773 152.5,94.5 Z"/></g>
<g><path style="opacity:1" fill="#f8aead" d="M 126.5,124.5 C 124.097,124.448 121.764,124.781 119.5,125.5C 120.312,124.007 121.645,123.34 123.5,123.5C 124.726,123.52 125.726,123.853 126.5,124.5 Z"/></g>
<g><path style="opacity:1" fill="#f15754" d="M 170.5,146.5 C 170.328,147.492 170.662,148.158 171.5,148.5C 165.598,156.303 161.265,164.97 158.5,174.5C 157.311,175.429 155.978,175.762 154.5,175.5C 155.362,170.582 157.029,165.916 159.5,161.5C 159.167,161.167 158.833,160.833 158.5,160.5C 155.094,163.059 151.76,163.059 148.5,160.5C 146.477,162.173 144.144,162.84 141.5,162.5C 141.66,160.801 141.494,159.134 141,157.5C 138.679,162.499 135.012,164.166 130,162.5C 128.915,155.99 130.248,149.99 134,144.5C 135.011,143.663 136.178,143.33 137.5,143.5C 135.872,148.422 134.539,153.422 133.5,158.5C 134.552,158.649 135.552,158.483 136.5,158C 140.714,154.118 143.714,149.452 145.5,144C 146.448,143.517 147.448,143.351 148.5,143.5C 146.754,148.401 145.421,153.401 144.5,158.5C 146.714,158.709 148.381,157.876 149.5,156C 152.873,146.714 156.54,137.547 160.5,128.5C 161.689,127.571 163.022,127.238 164.5,127.5C 161.038,137.215 157.372,146.881 153.5,156.5C 153.833,157.167 154.167,157.833 154.5,158.5C 160.111,155.391 164.111,150.891 166.5,145C 168.193,144.516 169.527,145.016 170.5,146.5 Z"/></g>
<g><path style="opacity:1" fill="#fefcfc" d="M 117.5,200.5 C 120.577,201.856 123.91,202.689 127.5,203C 136.343,203.824 145.01,203.657 153.5,202.5C 160.234,202.515 166.734,201.515 173,199.5C 174.07,199.528 174.903,199.861 175.5,200.5C 174.223,202.95 172.723,205.283 171,207.5C 170.407,218.838 169.74,230.171 169,241.5C 166.112,243.712 162.945,245.046 159.5,245.5C 150.533,246.383 141.533,246.716 132.5,246.5C 131.041,246.567 129.708,246.234 128.5,245.5C 126.898,243.926 124.898,243.259 122.5,243.5C 120.059,241.925 118.893,239.592 119,236.5C 118.648,226.81 117.981,217.144 117,207.5C 115.5,205.167 114,202.833 112.5,200.5C 114.167,199.334 115.834,199.334 117.5,200.5 Z"/></g>
<g><path style="opacity:1" fill="#f79897" d="M 116.5,197.5 C 120.162,197.723 123.495,198.723 126.5,200.5C 125.448,200.351 124.448,200.517 123.5,201C 133.45,202.331 143.45,202.831 153.5,202.5C 145.01,203.657 136.343,203.824 127.5,203C 123.91,202.689 120.577,201.856 117.5,200.5C 119.199,200.66 120.866,200.494 122.5,200C 120.277,199.434 118.277,198.6 116.5,197.5 Z"/></g>
<g><path style="opacity:1" fill="#f26563" d="M 177.5,195.5 C 176.976,197.306 176.309,198.972 175.5,200.5C 174.903,199.861 174.07,199.528 173,199.5C 166.734,201.515 160.234,202.515 153.5,202.5C 143.45,202.831 133.45,202.331 123.5,201C 124.448,200.517 125.448,200.351 126.5,200.5C 143.907,202.593 160.907,200.926 177.5,195.5 Z"/></g>
<g><path style="opacity:1" fill="#f9acaa" d="M 122.5,243.5 C 124.898,243.259 126.898,243.926 128.5,245.5C 126.102,245.741 124.102,245.074 122.5,243.5 Z"/></g>
<g><path style="opacity:1" fill="#f47e7d" d="M 159.5,245.5 C 159.082,246.222 158.416,246.722 157.5,247C 148.99,247.823 140.656,247.657 132.5,246.5C 141.533,246.716 150.533,246.383 159.5,245.5 Z"/></g>
</svg>
