<svg width="241" height="120" viewBox="0 0 241 120" fill="none" xmlns="http://www.w3.org/2000/svg">
<path d="M195 90C191.022 90 187.206 91.5804 184.393 94.3934C181.58 97.2064 180 101.022 180 105C180 108.978 181.58 112.794 184.393 115.607C187.206 118.42 191.022 120 195 120C198.978 120 202.794 118.42 205.607 115.607C208.42 112.794 210 108.978 210 105C210 101.022 208.42 97.2064 205.607 94.3934C202.794 91.5804 198.978 90 195 90ZM181.85 106.133H186.033C186.1 107.65 186.312 109.157 186.667 110.633H183.067C182.395 109.218 181.983 107.694 181.85 106.133ZM196.133 97.1333V91.9833C197.739 92.5937 199.059 93.7827 199.833 95.3167C200.175 95.895 200.477 96.4967 200.733 97.1167L196.133 97.1333ZM201.5 99.3833C201.887 100.855 202.117 102.363 202.183 103.883H196.133V99.3833H201.5ZM193.867 91.9833V97.1333H189.267C189.524 96.5128 189.825 95.9113 190.167 95.3333C190.937 93.7931 192.258 92.5978 193.867 91.9833ZM193.867 99.3833V103.883H187.833C187.9 102.363 188.13 100.855 188.517 99.3833H193.867ZM186.033 103.867H181.85C181.983 102.306 182.395 100.782 183.067 99.3667H186.667C186.311 100.843 186.099 102.35 186.033 103.867ZM187.833 106.133H193.867V110.633H188.517C188.13 109.162 187.901 107.653 187.833 106.133ZM193.883 112.8V117.95C192.277 117.34 190.957 116.151 190.183 114.617C189.841 114.039 189.54 113.437 189.283 112.817L193.883 112.8ZM196.133 117.95V112.883H200.733C200.476 113.504 200.175 114.105 199.833 114.683C199.059 116.217 197.739 117.406 196.133 118.017V117.95ZM196.133 110.55V106.05H202.167C202.099 107.57 201.87 109.078 201.483 110.55H196.133ZM203.983 106.05H208.167C208.033 107.611 207.621 109.135 206.95 110.55H203.333C203.683 109.1 203.895 107.622 203.967 106.133L203.983 106.05ZM203.983 103.8C203.907 102.311 203.689 100.832 203.333 99.3833H206.933C207.605 100.8 208.017 102.323 208.15 103.883L203.983 103.8ZM205.65 97.1333H202.667C202.127 95.6172 201.344 94.1987 200.35 92.9333C202.424 93.8643 204.225 95.3101 205.583 97.1333H205.65ZM189.65 92.9333C188.656 94.1987 187.873 95.6172 187.333 97.1333H184.417C185.775 95.3101 187.576 93.8643 189.65 92.9333ZM184.4 112.933H187.333C187.873 114.449 188.656 115.868 189.65 117.133C187.57 116.188 185.768 114.725 184.417 112.883L184.4 112.933ZM200.333 117.133C201.328 115.868 202.11 114.449 202.65 112.933H205.583C204.217 114.732 202.416 116.154 200.35 117.067L200.333 117.133Z" fill="#0172AA"/>
<path d="M195 30C191.022 30 187.206 31.5804 184.393 34.3934C181.58 37.2064 180 41.0218 180 45C180 48.9782 181.58 52.7936 184.393 55.6066C187.206 58.4196 191.022 60 195 60C198.978 60 202.794 58.4196 205.607 55.6066C208.42 52.7936 210 48.9782 210 45C210 41.0218 208.42 37.2064 205.607 34.3934C202.794 31.5804 198.978 30 195 30ZM181.85 46.1333H186.033C186.1 47.65 186.312 49.1567 186.667 50.6333H183.067C182.395 49.2181 181.983 47.694 181.85 46.1333ZM196.133 37.1333V31.9833C197.739 32.5937 199.059 33.7827 199.833 35.3167C200.175 35.895 200.477 36.4967 200.733 37.1167L196.133 37.1333ZM201.5 39.3833C201.887 40.855 202.117 42.3633 202.183 43.8833H196.133V39.3833H201.5ZM193.867 31.9833V37.1333H189.267C189.524 36.5128 189.825 35.9113 190.167 35.3333C190.937 33.7931 192.258 32.5978 193.867 31.9833ZM193.867 39.3833V43.8833H187.833C187.9 42.3633 188.13 40.855 188.517 39.3833H193.867ZM186.033 43.8667H181.85C181.983 42.306 182.395 40.7819 183.067 39.3667H186.667C186.311 40.8427 186.099 42.3498 186.033 43.8667ZM187.833 46.1333H193.867V50.6333H188.517C188.13 49.1618 187.901 47.6533 187.833 46.1333ZM193.883 52.8V57.95C192.277 57.3396 190.957 56.1506 190.183 54.6167C189.841 54.0387 189.54 53.4372 189.283 52.8167L193.883 52.8ZM196.133 57.95V52.8833H200.733C200.476 53.5038 200.175 54.1053 199.833 54.6833C199.059 56.2173 197.739 57.4063 196.133 58.0167V57.95ZM196.133 50.55V46.05H202.167C202.099 47.57 201.87 49.0785 201.483 50.55H196.133ZM203.983 46.05H208.167C208.033 47.6107 207.621 49.1348 206.95 50.55H203.333C203.683 49.1 203.895 47.6217 203.967 46.1333L203.983 46.05ZM203.983 43.8C203.907 42.3105 203.689 40.8317 203.333 39.3833H206.933C207.605 40.8 208.017 42.3233 208.15 43.8833L203.983 43.8ZM205.65 37.1333H202.667C202.127 35.6172 201.344 34.1987 200.35 32.9333C202.424 33.8643 204.225 35.3101 205.583 37.1333H205.65ZM189.65 32.9333C188.656 34.1987 187.873 35.6172 187.333 37.1333H184.417C185.775 35.3101 187.576 33.8643 189.65 32.9333ZM184.4 52.9333H187.333C187.873 54.4495 188.656 55.868 189.65 57.1333C187.57 56.1884 185.768 54.7249 184.417 52.8833L184.4 52.9333ZM200.333 57.1333C201.328 55.868 202.11 54.4495 202.65 52.9333H205.583C204.217 54.7322 202.416 56.1544 200.35 57.0667L200.333 57.1333Z" fill="#ACACAC"/>
<path d="M211 80.4702V87.9996C211 88.5519 211.448 88.9996 212 88.9996H239C239.552 88.9996 240 88.5519 240 87.9996V80.4702" stroke="#0172AA" stroke-width="1.5"/>
<path d="M225.04 79.2243C225.294 79.4782 225.706 79.4782 225.96 79.2243L230.096 75.0878C230.35 74.8339 230.35 74.4224 230.096 74.1685C229.842 73.9147 229.431 73.9147 229.177 74.1685L225.5 77.8455L221.823 74.1685C221.569 73.9147 221.158 73.9147 220.904 74.1685C220.65 74.4224 220.65 74.8339 220.904 75.0878L225.04 79.2243ZM224.85 60L224.85 78.7647L226.15 78.7647L226.15 60L224.85 60Z" fill="#0172AA"/>
<path d="M211 20.4702V27.9996C211 28.5519 211.448 28.9996 212 28.9996H239C239.552 28.9996 240 28.5519 240 27.9996V20.4702" stroke="#ACACAC" stroke-width="1.5"/>
<path d="M225.04 19.2243C225.294 19.4782 225.706 19.4782 225.96 19.2243L230.096 15.0878C230.35 14.8339 230.35 14.4224 230.096 14.1685C229.842 13.9147 229.431 13.9147 229.177 14.1685L225.5 17.8455L221.823 14.1685C221.569 13.9147 221.158 13.9147 220.904 14.1685C220.65 14.4224 220.65 14.8339 220.904 15.0878L225.04 19.2243ZM224.85 1.76353e-08L224.85 18.7647L226.15 18.7647L226.15 -1.76353e-08L224.85 1.76353e-08Z" fill="#ACACAC"/>
<path fill-rule="evenodd" clip-rule="evenodd" d="M225 120C233.284 120 240 113.284 240 105C240 96.7157 233.284 90 225 90C216.716 90 210 96.7157 210 105C210 113.284 216.716 120 225 120ZM227.827 101.969L229.782 103.924C228.502 106.44 226.44 108.493 223.924 109.782L221.969 107.827C221.729 107.587 221.373 107.507 221.062 107.613C220.067 107.942 218.991 108.12 217.889 108.12C217.4 108.12 217 108.52 217 109.009V112.111C217 112.6 217.4 113 217.889 113C226.236 113 233 106.236 233 97.8889C233 97.4 232.6 97 232.111 97H229C228.511 97 228.111 97.4 228.111 97.8889C228.111 99 227.933 100.067 227.604 101.062C227.507 101.373 227.578 101.72 227.827 101.969Z" fill="#0172AA"/>
<path fill-rule="evenodd" clip-rule="evenodd" d="M225 59C233.284 59 240 52.2843 240 44C240 35.7157 233.284 29 225 29C216.716 29 210 35.7157 210 44C210 52.2843 216.716 59 225 59ZM227.827 40.9689L229.782 42.9244C228.502 45.44 226.44 47.4933 223.924 48.7822L221.969 46.8267C221.729 46.5867 221.373 46.5067 221.062 46.6133C220.067 46.9422 218.991 47.12 217.889 47.12C217.4 47.12 217 47.52 217 48.0089V51.1111C217 51.6 217.4 52 217.889 52C226.236 52 233 45.2356 233 36.8889C233 36.4 232.6 36 232.111 36H229C228.511 36 228.111 36.4 228.111 36.8889C228.111 38 227.933 39.0667 227.604 40.0622C227.507 40.3733 227.578 40.72 227.827 40.9689Z" fill="#ACACAC"/>
<path d="M15 30C19.0755 30 19.584 30.015 21.183 30.09C22.7805 30.165 23.868 30.4155 24.825 30.7875C25.815 31.1685 26.649 31.6845 27.483 32.517C28.2457 33.2668 28.8359 34.1739 29.2125 35.175C29.583 36.1305 29.835 37.2195 29.91 38.817C29.9805 40.416 30 40.9245 30 45C30 49.0755 29.985 49.584 29.91 51.183C29.835 52.7805 29.583 53.868 29.2125 54.825C28.837 55.8267 28.2467 56.7339 27.483 57.483C26.7329 58.2455 25.826 58.8356 24.825 59.2125C23.8695 59.583 22.7805 59.835 21.183 59.91C19.584 59.9805 19.0755 60 15 60C10.9245 60 10.416 59.985 8.817 59.91C7.2195 59.835 6.132 59.583 5.175 59.2125C4.17349 58.8367 3.26629 58.2464 2.517 57.483C1.75411 56.7333 1.1639 55.8262 0.7875 54.825C0.4155 53.8695 0.165 52.7805 0.0899999 51.183C0.0194999 49.584 0 49.0755 0 45C0 40.9245 0.0149999 40.416 0.0899999 38.817C0.165 37.218 0.4155 36.132 0.7875 35.175C1.16285 34.1733 1.75321 33.266 2.517 32.517C3.26651 31.7538 4.17364 31.1636 5.175 30.7875C6.132 30.4155 7.218 30.165 8.817 30.09C10.416 30.0195 10.9245 30 15 30ZM15 37.5C13.0109 37.5 11.1032 38.2902 9.6967 39.6967C8.29018 41.1032 7.5 43.0109 7.5 45C7.5 46.9891 8.29018 48.8968 9.6967 50.3033C11.1032 51.7098 13.0109 52.5 15 52.5C16.9891 52.5 18.8968 51.7098 20.3033 50.3033C21.7098 48.8968 22.5 46.9891 22.5 45C22.5 43.0109 21.7098 41.1032 20.3033 39.6967C18.8968 38.2902 16.9891 37.5 15 37.5ZM24.75 37.125C24.75 36.6277 24.5525 36.1508 24.2008 35.7992C23.8492 35.4475 23.3723 35.25 22.875 35.25C22.3777 35.25 21.9008 35.4475 21.5492 35.7992C21.1975 36.1508 21 36.6277 21 37.125C21 37.6223 21.1975 38.0992 21.5492 38.4508C21.9008 38.8025 22.3777 39 22.875 39C23.3723 39 23.8492 38.8025 24.2008 38.4508C24.5525 38.0992 24.75 37.6223 24.75 37.125ZM15 40.5C16.1935 40.5 17.3381 40.9741 18.182 41.818C19.0259 42.6619 19.5 43.8065 19.5 45C19.5 46.1935 19.0259 47.3381 18.182 48.182C17.3381 49.0259 16.1935 49.5 15 49.5C13.8065 49.5 12.6619 49.0259 11.818 48.182C10.9741 47.3381 10.5 46.1935 10.5 45C10.5 43.8065 10.9741 42.6619 11.818 41.818C12.6619 40.9741 13.8065 40.5 15 40.5Z" fill="#ACACAC"/>
<path d="M15 0C13.0302 0 11.0796 0.397619 9.25975 1.17015C7.43986 1.94269 5.78628 3.07501 4.3934 4.50247C1.58035 7.38536 0 11.2954 0 15.3724C0 22.167 4.305 27.9317 10.26 29.9762C11.01 30.0992 11.25 29.6226 11.25 29.2076V26.6096C7.095 27.532 6.21 24.5497 6.21 24.5497C5.52 22.7665 4.545 22.29 4.545 22.29C3.18 21.3369 4.65 21.3676 4.65 21.3676C6.15 21.4752 6.945 22.951 6.945 22.951C8.25 25.2876 10.455 24.5958 11.31 24.2269C11.445 23.2277 11.835 22.5513 12.255 22.167C8.925 21.7827 5.43 20.4607 5.43 14.6038C5.43 12.8974 6 11.5293 6.975 10.4379C6.825 10.0536 6.3 8.45482 7.125 6.37955C7.125 6.37955 8.385 5.96449 11.25 7.94753C12.435 7.60934 13.725 7.44024 15 7.44024C16.275 7.44024 17.565 7.60934 18.75 7.94753C21.615 5.96449 22.875 6.37955 22.875 6.37955C23.7 8.45482 23.175 10.0536 23.025 10.4379C24 11.5293 24.57 12.8974 24.57 14.6038C24.57 20.476 21.06 21.7673 17.715 22.1516C18.255 22.6282 18.75 23.5659 18.75 24.9955V29.2076C18.75 29.6226 18.99 30.1145 19.755 29.9762C25.71 27.9163 30 22.167 30 15.3724C30 13.3537 29.612 11.3547 28.8582 9.48964C28.1044 7.62457 26.9995 5.92993 25.6066 4.50247C24.2137 3.07501 22.5601 1.94269 20.7403 1.17015C18.9204 0.397619 16.9698 0 15 0Z" fill="#A2A2A2"/>
<path d="M45 0C36.72 0 30 6.72 30 15C30 23.28 36.72 30 45 30C53.28 30 60 23.28 60 15C60 6.72 53.28 0 45 0ZM51.96 10.2C51.735 12.57 50.76 18.33 50.265 20.985C50.055 22.11 49.635 22.485 49.245 22.53C48.375 22.605 47.715 21.96 46.875 21.405C45.555 20.535 44.805 19.995 43.53 19.155C42.045 18.18 43.005 17.64 43.86 16.77C44.085 16.545 47.925 13.05 48 12.735C48.0104 12.6873 48.009 12.6378 47.996 12.5907C47.9829 12.5437 47.9585 12.5005 47.925 12.465C47.835 12.39 47.715 12.42 47.61 12.435C47.475 12.465 45.375 13.86 41.28 16.62C40.68 17.025 40.14 17.235 39.66 17.22C39.12 17.205 38.1 16.92 37.335 16.665C36.39 16.365 35.655 16.2 35.715 15.675C35.745 15.405 36.12 15.135 36.825 14.85C41.205 12.945 44.115 11.685 45.57 11.085C49.74 9.345 50.595 9.045 51.165 9.045C51.285 9.045 51.57 9.075 51.75 9.225C51.9 9.345 51.945 9.51 51.96 9.63C51.945 9.72 51.975 9.99 51.96 10.2Z" fill="#ACACAC"/>
<path d="M57 33H33C31.35 33 30.015 34.2375 30.015 35.75L30 52.25C30 53.7625 31.35 55 33 55H57C58.65 55 60 53.7625 60 52.25V35.75C60 34.2375 58.65 33 57 33ZM56.4 38.8438L45.795 44.9213C45.315 45.1963 44.685 45.1963 44.205 44.9213L33.6 38.8438C33.4496 38.7664 33.3179 38.6618 33.2128 38.5364C33.1078 38.411 33.0316 38.2673 32.9889 38.1141C32.9461 37.961 32.9378 37.8014 32.9642 37.6452C32.9907 37.4889 33.0515 37.3392 33.1429 37.2052C33.2343 37.0711 33.3545 36.9554 33.4961 36.8651C33.6377 36.7748 33.7978 36.7118 33.9667 36.6799C34.1357 36.648 34.3099 36.6478 34.4789 36.6794C34.6479 36.711 34.8082 36.7737 34.95 36.8637L45 42.625L55.05 36.8637C55.1918 36.7737 55.3521 36.711 55.5211 36.6794C55.6901 36.6478 55.8643 36.648 56.0333 36.6799C56.2022 36.7118 56.3623 36.7748 56.5039 36.8651C56.6455 36.9554 56.7657 37.0711 56.8571 37.2052C56.9485 37.3392 57.0093 37.4889 57.0358 37.6452C57.0622 37.8014 57.0539 37.961 57.0111 38.1141C56.9684 38.2673 56.8922 38.411 56.7872 38.5364C56.6821 38.6618 56.5504 38.7664 56.4 38.8438Z" fill="#ACACAC"/>
<path d="M60.006 30L62.034 22.548C60.6977 20.2573 59.9957 17.652 60 15C60 6.7155 66.7155 0 75 0C83.2845 0 90 6.7155 90 15C90 23.2845 83.2845 30 75 30C72.3492 30.0043 69.745 29.3027 67.455 27.9675L60.006 30ZM69.5865 7.962C69.3928 7.97402 69.2035 8.02504 69.03 8.11199C68.8673 8.20414 68.7188 8.31933 68.589 8.45399C68.409 8.62349 68.307 8.77049 68.1975 8.91299C67.6431 9.63449 67.3449 10.5201 67.35 11.43C67.353 12.165 67.545 12.8805 67.845 13.5495C68.4585 14.9025 69.468 16.335 70.8015 17.6625C71.1225 17.982 71.436 18.303 71.7735 18.6015C73.4286 20.0587 75.4009 21.1095 77.5335 21.6705L78.387 21.801C78.6645 21.816 78.942 21.795 79.221 21.7815C79.6579 21.7589 80.0844 21.6406 80.4705 21.435C80.6669 21.3338 80.8586 21.2237 81.045 21.105C81.045 21.105 81.1095 21.063 81.2325 20.97C81.435 20.82 81.5595 20.7135 81.7275 20.538C81.852 20.409 81.96 20.2575 82.0425 20.085C82.1595 19.8405 82.2765 19.374 82.3245 18.9855C82.3605 18.6885 82.35 18.5265 82.3455 18.426C82.3395 18.2655 82.206 18.099 82.0605 18.0285L81.1875 17.637C81.1875 17.637 79.8825 17.0685 79.086 16.7055C79.002 16.6689 78.912 16.648 78.8205 16.644C78.7179 16.6334 78.6142 16.645 78.5164 16.6779C78.4186 16.7107 78.329 16.7641 78.2535 16.8345V16.8315C78.246 16.8315 78.1455 16.917 77.061 18.231C76.9988 18.3146 76.913 18.3778 76.8147 18.4126C76.7164 18.4473 76.61 18.452 76.509 18.426C76.4113 18.3999 76.3155 18.3668 76.2225 18.327C76.0365 18.249 75.972 18.219 75.8445 18.1635L75.837 18.1605C74.9789 17.7858 74.1843 17.2798 73.482 16.6605C73.293 16.4955 73.1175 16.3155 72.9375 16.1415C72.3474 15.5763 71.8331 14.937 71.4075 14.2395L71.319 14.097C71.2554 14.0012 71.2041 13.8979 71.166 13.7895C71.109 13.569 71.2575 13.392 71.2575 13.392C71.2575 13.392 71.622 12.993 71.7915 12.777C71.9326 12.5975 72.0643 12.4107 72.186 12.2175C72.363 11.9325 72.4185 11.64 72.3255 11.4135C71.9055 10.3875 71.4705 9.36599 71.0235 8.35199C70.935 8.15099 70.6725 8.00699 70.434 7.97849C70.353 7.96949 70.272 7.96049 70.191 7.95449C69.9896 7.94449 69.7877 7.94799 69.5865 7.962Z" fill="#ACACAC"/>
<path d="M75 30C66.7165 30 60 36.7165 60 45C60 53.2835 66.7165 60 75 60C83.2835 60 90 53.2835 90 45C90 36.7165 83.2835 30 75 30ZM82.2087 41.3069C82.2187 41.4643 82.2187 41.6283 82.2187 41.7891C82.2187 46.7042 78.4754 52.3661 71.635 52.3661C69.5257 52.3661 67.5703 51.7533 65.923 50.6987C66.2243 50.7321 66.5123 50.7455 66.8203 50.7455C68.5614 50.7455 70.1618 50.1562 71.4375 49.1585C69.8036 49.125 68.4308 48.0536 67.9621 46.5804C68.5346 46.6641 69.0502 46.6641 69.6395 46.5134C68.7982 46.3425 68.042 45.8855 67.4994 45.2203C66.9568 44.555 66.6612 43.7223 66.6629 42.8638V42.817C67.1551 43.0949 67.7344 43.2656 68.3404 43.2891C67.8309 42.9495 67.4131 42.4895 67.124 41.9499C66.8349 41.4102 66.6834 40.8075 66.683 40.1953C66.683 39.5022 66.8638 38.8694 67.1886 38.3203C68.1224 39.4699 69.2877 40.4101 70.6087 41.0798C71.9297 41.7495 73.3768 42.1338 74.856 42.2076C74.3304 39.6797 76.2187 37.6339 78.4888 37.6339C79.5603 37.6339 80.5246 38.0826 81.2042 38.8058C82.0446 38.6484 82.8482 38.3337 83.5647 37.9118C83.2868 38.7723 82.7042 39.4989 81.9308 39.9576C82.6808 39.8772 83.404 39.6696 84.0737 39.3783C83.5681 40.1217 82.9353 40.7813 82.2087 41.3069Z" fill="#ACACAC"/>
<path d="M116.667 0C117.551 0 118.399 0.351189 119.024 0.976311C119.649 1.60143 120 2.44928 120 3.33333V26.6667C120 27.5507 119.649 28.3986 119.024 29.0237C118.399 29.6488 117.551 30 116.667 30H93.3333C92.4493 30 91.6014 29.6488 90.9763 29.0237C90.3512 28.3986 90 27.5507 90 26.6667V3.33333C90 2.44928 90.3512 1.60143 90.9763 0.976311C91.6014 0.351189 92.4493 0 93.3333 0H116.667ZM115.833 25.8333V17C115.833 15.559 115.261 14.177 114.242 13.1581C113.223 12.1391 111.841 11.5667 110.4 11.5667C108.983 11.5667 107.333 12.4333 106.533 13.7333V11.8833H101.883V25.8333H106.533V17.6167C106.533 16.3333 107.567 15.2833 108.85 15.2833C109.469 15.2833 110.062 15.5292 110.5 15.9668C110.938 16.4043 111.183 16.9978 111.183 17.6167V25.8333H115.833ZM96.4667 9.26667C97.2093 9.26667 97.9215 8.97167 98.4466 8.44657C98.9717 7.92146 99.2667 7.20927 99.2667 6.46667C99.2667 4.91667 98.0167 3.65 96.4667 3.65C95.7196 3.65 95.0032 3.94675 94.475 4.47498C93.9468 5.00321 93.65 5.71964 93.65 6.46667C93.65 8.01667 94.9167 9.26667 96.4667 9.26667ZM98.7833 25.8333V11.8833H94.1667V25.8333H98.7833Z" fill="#ACACAC"/>
<path d="M119.314 36.4348C120 38.885 120 44 120 44C120 44 120 49.115 119.314 51.5653C118.933 52.9196 117.819 53.9853 116.407 54.3455C113.844 55 105 55 105 55C105 55 96.1605 55 93.5925 54.3455C92.175 53.9798 91.062 52.9155 90.6855 51.5653C90 49.115 90 44 90 44C90 44 90 38.885 90.6855 36.4348C91.0665 35.0804 92.181 34.0147 93.5925 33.6545C96.1605 33 105 33 105 33C105 33 113.844 33 116.407 33.6545C117.825 34.0202 118.938 35.0845 119.314 36.4348ZM102 48.8125L111 44L102 39.1875V48.8125Z" fill="#ACACAC"/>
<path d="M139.609 0H130.406C122 0 120 1.9995 120 10.3905V19.5945C120 27.999 121.984 30 130.391 30H139.594C147.999 30 150 28.0155 150 19.6095V10.4055C150 1.9995 148.016 0 139.609 0ZM144.219 21.405H142.031C141.203 21.405 140.954 20.7345 139.469 19.2495C138.173 18 137.625 17.844 137.297 17.844C136.844 17.844 136.719 17.9685 136.719 18.594V20.562C136.719 21.0945 136.547 21.4065 135.156 21.4065C133.807 21.3158 132.498 20.9058 131.338 20.2103C130.178 19.5148 129.2 18.5536 128.484 17.406C126.785 15.291 125.602 12.8087 125.031 10.1565C125.031 9.828 125.156 9.531 125.781 9.531H127.968C128.53 9.531 128.733 9.7815 128.953 10.359C130.015 13.485 131.827 16.203 132.562 16.203C132.844 16.203 132.968 16.0785 132.968 15.375V12.156C132.875 10.6875 132.094 10.563 132.094 10.032C132.105 9.89194 132.169 9.7613 132.273 9.66777C132.378 9.57424 132.515 9.52518 132.656 9.531H136.094C136.563 9.531 136.719 9.765 136.719 10.3275V14.6715C136.719 15.141 136.922 15.297 137.062 15.297C137.344 15.297 137.562 15.141 138.078 14.625C139.186 13.2734 140.092 11.7676 140.766 10.155C140.835 9.9613 140.965 9.79546 141.137 9.68279C141.309 9.57012 141.513 9.51681 141.719 9.531H143.907C144.562 9.531 144.702 9.8595 144.562 10.3275C143.767 12.1101 142.782 13.8023 141.625 15.375C141.39 15.735 141.295 15.9225 141.625 16.344C141.843 16.6725 142.609 17.313 143.125 17.922C143.875 18.67 144.498 19.5353 144.969 20.484C145.156 21.093 144.843 21.405 144.219 21.405Z" fill="#ACACAC"/>
<path fill-rule="evenodd" clip-rule="evenodd" d="M156 30C152.686 30 150 32.6863 150 36V54C150 57.3137 152.686 60 156 60H174C177.314 60 180 57.3137 180 54V36C180 32.6863 177.314 30 174 30H156ZM168.334 45.4511C169.277 44.722 169.987 45.154 170.238 45.6671C170.687 46.5672 170.184 47.0083 169.044 47.7374C168.074 48.3584 166.753 48.6015 165.9 48.6825L166.609 49.4116L169.286 52.0939C169.699 52.508 169.699 53.165 169.286 53.5521L169.169 53.6961C168.756 54.1012 168.1 54.1012 167.696 53.6961L167.696 53.696C167.013 53.0119 166.034 52.0308 165.002 51.0138L162.334 53.6961C161.93 54.1012 161.265 54.1012 160.861 53.6961L160.735 53.5521C160.331 53.165 160.331 52.508 160.735 52.0939C161.395 51.4239 162.356 50.4688 163.358 49.4741L163.421 49.4116L164.139 48.6915C163.277 48.6015 161.939 48.3674 160.959 47.7374C159.819 47.0083 159.316 46.5672 159.765 45.6671C160.016 45.154 160.726 44.722 161.669 45.4511C162.954 46.4772 165.002 46.4772 165.002 46.4772C165.002 46.4772 167.05 46.4772 168.334 45.4511ZM167.247 40.5545C167.247 39.3213 166.241 38.3132 165.002 38.3132C163.762 38.3132 162.756 39.3213 162.756 40.5545C162.756 41.7966 163.762 42.7957 165.002 42.7957C166.241 42.7957 167.247 41.7966 167.247 40.5545ZM169.547 40.5545C169.547 43.0748 167.517 45.109 165.002 45.109C162.486 45.109 160.456 43.0748 160.456 40.5545C160.456 39.3465 160.935 38.188 161.788 37.3339C162.64 36.4797 163.796 35.9999 165.002 35.9999C166.207 35.9999 167.363 36.4797 168.215 37.3339C169.068 38.188 169.547 39.3465 169.547 40.5545Z" fill="#ACACAC"/>
<path fill-rule="evenodd" clip-rule="evenodd" d="M120 36C120 32.6863 122.686 30 126 30H144C147.314 30 150 32.6863 150 36V54C150 57.3137 147.314 60 144 60H126C122.686 60 120 57.3137 120 54V36ZM125.699 37.2001C125.699 36.3717 126.371 35.7001 127.199 35.7001H128.699H131.699C132.097 35.7001 132.479 35.8582 132.76 36.1395L139.5 42.8796V38.7001H139.199C138.371 38.7001 137.699 38.0286 137.699 37.2001C137.699 36.3717 138.371 35.7001 139.199 35.7001H141H142.199C143.028 35.7001 143.699 36.3717 143.699 37.2001C143.699 37.9255 143.184 38.5307 142.5 38.67V52.2001C142.5 53.0286 141.828 53.7001 141 53.7001H139.5C139.102 53.7001 138.721 53.5421 138.439 53.2608L130.199 45.0207V50.7001C131.028 50.7001 131.699 51.3717 131.699 52.2001C131.699 53.0286 131.028 53.7001 130.199 53.7001H128.699H127.199C126.371 53.7001 125.699 53.0286 125.699 52.2001C125.699 51.3717 126.371 50.7001 127.199 50.7001V38.7001C126.371 38.7001 125.699 38.0286 125.699 37.2001ZM130.199 40.778L139.5 50.0788V47.1222L131.078 38.7001H130.199V40.778Z" fill="#ACACAC"/>
<path d="M156.757 0.0168006C156.645 0.0308475 156.267 0.0800118 155.916 0.122153C154.31 0.311786 153.09 0.873664 152.039 1.89909C150.994 2.91047 150.44 4.01316 150.153 5.62855C150.055 6.17638 150.033 7.32823 150.012 14.3728C149.977 23.0749 149.998 23.8685 150.314 25.1187C150.875 27.3451 152.565 29.0729 154.759 29.6699C155.958 30 156.056 30 164.996 30C173.935 30 174.033 30 175.232 29.6699C177.343 29.094 179.004 27.4645 179.614 25.3505C179.979 24.1143 180 23.5103 180 15.0049C180 6.49946 179.979 5.89545 179.614 4.65932C179.299 3.57068 178.773 2.69274 177.953 1.89909C176.964 0.929852 175.884 0.410115 174.321 0.1362C173.725 0.0308475 172.736 0.0168006 165.311 0.00275362C160.726 -0.00426985 156.877 0.00275362 156.757 0.0168006ZM161.714 8.97875C162.107 9.09113 162.647 9.59682 162.787 9.98311C163.082 10.7416 162.773 11.6617 162.093 12.0831C161.665 12.35 161.013 12.4132 160.544 12.2306C160.158 12.0901 159.653 11.5493 159.541 11.156C159.134 9.80752 160.368 8.57139 161.714 8.97875ZM169.35 9.0841C170.458 9.653 170.647 11.0998 169.721 11.9146C169.357 12.2306 169.069 12.336 168.557 12.336C167.618 12.336 166.882 11.5985 166.882 10.6574C166.875 9.32992 168.179 8.49413 169.35 9.0841ZM158.594 15.1173C159.064 15.342 159.324 15.8828 159.218 16.4307C159.19 16.5711 159.05 16.8169 158.889 16.9996C158.545 17.3858 158.538 17.3578 159.338 17.9547C160.473 18.8046 162.037 19.4578 163.488 19.6825C164.862 19.8932 166.538 19.7457 167.87 19.2892C168.894 18.938 170.282 18.1444 170.948 17.5263L171.18 17.3086L170.934 17.0557C170.647 16.7608 170.535 16.5079 170.535 16.1567C170.535 15.5597 170.976 15.0821 171.586 15.0189C172.098 14.9698 172.351 15.1594 173.851 16.6765C175.429 18.2848 175.548 18.5026 175.239 19.1909C175.078 19.5491 174.748 19.7879 174.356 19.83C173.914 19.8862 173.627 19.7528 173.199 19.3313L172.827 18.9451L172.435 19.2962C171.874 19.8019 170.696 20.5745 169.953 20.9327C168.109 21.8177 166.482 22.1548 164.407 22.0775C161.827 21.9862 159.527 21.1153 157.508 19.4718L156.926 18.9942L156.519 19.3805C156.239 19.6544 156.035 19.7879 155.853 19.816C155.285 19.9283 154.794 19.7036 154.549 19.219C154.381 18.8889 154.374 18.6009 154.521 18.2497C154.647 17.9407 157.192 15.342 157.564 15.1454C157.872 14.9768 158.272 14.9698 158.594 15.1173Z" fill="#ACACAC"/>
<path d="M15 90C19.0755 90 19.584 90.015 21.183 90.09C22.7805 90.165 23.868 90.4155 24.825 90.7875C25.815 91.1685 26.649 91.6845 27.483 92.517C28.2457 93.2668 28.8359 94.1739 29.2125 95.175C29.583 96.1305 29.835 97.2195 29.91 98.817C29.9805 100.416 30 100.925 30 105C30 109.076 29.985 109.584 29.91 111.183C29.835 112.781 29.583 113.868 29.2125 114.825C28.837 115.827 28.2467 116.734 27.483 117.483C26.7329 118.245 25.826 118.836 24.825 119.213C23.8695 119.583 22.7805 119.835 21.183 119.91C19.584 119.981 19.0755 120 15 120C10.9245 120 10.416 119.985 8.817 119.91C7.2195 119.835 6.132 119.583 5.175 119.213C4.17349 118.837 3.26629 118.246 2.517 117.483C1.75411 116.733 1.1639 115.826 0.7875 114.825C0.4155 113.87 0.165 112.781 0.0899999 111.183C0.0194999 109.584 0 109.076 0 105C0 100.925 0.0149999 100.416 0.0899999 98.817C0.165 97.218 0.4155 96.132 0.7875 95.175C1.16285 94.1733 1.75321 93.266 2.517 92.517C3.26651 91.7538 4.17364 91.1636 5.175 90.7875C6.132 90.4155 7.218 90.165 8.817 90.09C10.416 90.0195 10.9245 90 15 90ZM15 97.5C13.0109 97.5 11.1032 98.2902 9.6967 99.6967C8.29018 101.103 7.5 103.011 7.5 105C7.5 106.989 8.29018 108.897 9.6967 110.303C11.1032 111.71 13.0109 112.5 15 112.5C16.9891 112.5 18.8968 111.71 20.3033 110.303C21.7098 108.897 22.5 106.989 22.5 105C22.5 103.011 21.7098 101.103 20.3033 99.6967C18.8968 98.2902 16.9891 97.5 15 97.5ZM24.75 97.125C24.75 96.6277 24.5525 96.1508 24.2008 95.7992C23.8492 95.4475 23.3723 95.25 22.875 95.25C22.3777 95.25 21.9008 95.4475 21.5492 95.7992C21.1975 96.1508 21 96.6277 21 97.125C21 97.6223 21.1975 98.0992 21.5492 98.4508C21.9008 98.8025 22.3777 99 22.875 99C23.3723 99 23.8492 98.8025 24.2008 98.4508C24.5525 98.0992 24.75 97.6223 24.75 97.125ZM15 100.5C16.1935 100.5 17.3381 100.974 18.182 101.818C19.0259 102.662 19.5 103.807 19.5 105C19.5 106.193 19.0259 107.338 18.182 108.182C17.3381 109.026 16.1935 109.5 15 109.5C13.8065 109.5 12.6619 109.026 11.818 108.182C10.9741 107.338 10.5 106.193 10.5 105C10.5 103.807 10.9741 102.662 11.818 101.818C12.6619 100.974 13.8065 100.5 15 100.5Z" fill="#0172AA"/>
<path d="M45 60C36.72 60 30 66.72 30 75C30 83.28 36.72 90 45 90C53.28 90 60 83.28 60 75C60 66.72 53.28 60 45 60ZM51.96 70.2C51.735 72.57 50.76 78.33 50.265 80.985C50.055 82.11 49.635 82.485 49.245 82.53C48.375 82.605 47.715 81.96 46.875 81.405C45.555 80.535 44.805 79.995 43.53 79.155C42.045 78.18 43.005 77.64 43.86 76.77C44.085 76.545 47.925 73.05 48 72.735C48.0104 72.6873 48.009 72.6378 47.996 72.5907C47.9829 72.5437 47.9585 72.5005 47.925 72.465C47.835 72.39 47.715 72.42 47.61 72.435C47.475 72.465 45.375 73.86 41.28 76.62C40.68 77.025 40.14 77.235 39.66 77.22C39.12 77.205 38.1 76.92 37.335 76.665C36.39 76.365 35.655 76.2 35.715 75.675C35.745 75.405 36.12 75.135 36.825 74.85C41.205 72.945 44.115 71.685 45.57 71.085C49.74 69.345 50.595 69.045 51.165 69.045C51.285 69.045 51.57 69.075 51.75 69.225C51.9 69.345 51.945 69.51 51.96 69.63C51.945 69.72 51.975 69.99 51.96 70.2Z" fill="#0172AA"/>
<path d="M57 94H33C31.35 94 30.015 95.2375 30.015 96.75L30 113.25C30 114.763 31.35 116 33 116H57C58.65 116 60 114.763 60 113.25V96.75C60 95.2375 58.65 94 57 94ZM56.4 99.8438L45.795 105.921C45.315 106.196 44.685 106.196 44.205 105.921L33.6 99.8438C33.4496 99.7664 33.3179 99.6618 33.2128 99.5364C33.1078 99.411 33.0316 99.2673 32.9889 99.1141C32.9461 98.961 32.9378 98.8014 32.9642 98.6452C32.9907 98.4889 33.0515 98.3392 33.1429 98.2052C33.2343 98.0711 33.3545 97.9554 33.4961 97.8651C33.6377 97.7748 33.7978 97.7118 33.9667 97.6799C34.1357 97.648 34.3099 97.6478 34.4789 97.6794C34.6479 97.711 34.8082 97.7737 34.95 97.8637L45 103.625L55.05 97.8637C55.1918 97.7737 55.3521 97.711 55.5211 97.6794C55.6901 97.6478 55.8643 97.648 56.0333 97.6799C56.2022 97.7118 56.3623 97.7748 56.5039 97.8651C56.6455 97.9554 56.7657 98.0711 56.8571 98.2052C56.9485 98.3392 57.0093 98.4889 57.0358 98.6452C57.0622 98.8014 57.0539 98.961 57.0111 99.1141C56.9684 99.2673 56.8922 99.411 56.7872 99.5364C56.6821 99.6618 56.5504 99.7664 56.4 99.8438Z" fill="#0172AA"/>
<path d="M60.006 90L62.034 82.548C60.6977 80.2573 59.9957 77.652 60 75C60 66.7155 66.7155 60 75 60C83.2845 60 90 66.7155 90 75C90 83.2845 83.2845 90 75 90C72.3492 90.0043 69.745 89.3027 67.455 87.9675L60.006 90ZM69.5865 67.962C69.3928 67.974 69.2035 68.025 69.03 68.112C68.8673 68.2041 68.7188 68.3193 68.589 68.454C68.409 68.6235 68.307 68.7705 68.1975 68.913C67.6431 69.6345 67.3449 70.5201 67.35 71.43C67.353 72.165 67.545 72.8805 67.845 73.5495C68.4585 74.9025 69.468 76.335 70.8015 77.6625C71.1225 77.982 71.436 78.303 71.7735 78.6015C73.4286 80.0587 75.4009 81.1095 77.5335 81.6705L78.387 81.801C78.6645 81.816 78.942 81.795 79.221 81.7815C79.6579 81.7589 80.0844 81.6406 80.4705 81.435C80.6669 81.3338 80.8586 81.2237 81.045 81.105C81.045 81.105 81.1095 81.063 81.2325 80.97C81.435 80.82 81.5595 80.7135 81.7275 80.538C81.852 80.409 81.96 80.2575 82.0425 80.085C82.1595 79.8405 82.2765 79.374 82.3245 78.9855C82.3605 78.6885 82.35 78.5265 82.3455 78.426C82.3395 78.2655 82.206 78.099 82.0605 78.0285L81.1875 77.637C81.1875 77.637 79.8825 77.0685 79.086 76.7055C79.002 76.6689 78.912 76.648 78.8205 76.644C78.7179 76.6334 78.6142 76.645 78.5164 76.6779C78.4186 76.7107 78.329 76.7641 78.2535 76.8345V76.8315C78.246 76.8315 78.1455 76.917 77.061 78.231C76.9988 78.3146 76.913 78.3778 76.8147 78.4126C76.7164 78.4473 76.61 78.452 76.509 78.426C76.4113 78.3999 76.3155 78.3668 76.2225 78.327C76.0365 78.249 75.972 78.219 75.8445 78.1635L75.837 78.1605C74.9789 77.7858 74.1843 77.2798 73.482 76.6605C73.293 76.4955 73.1175 76.3155 72.9375 76.1415C72.3474 75.5763 71.8331 74.937 71.4075 74.2395L71.319 74.097C71.2554 74.0012 71.2041 73.8979 71.166 73.7895C71.109 73.569 71.2575 73.392 71.2575 73.392C71.2575 73.392 71.622 72.993 71.7915 72.777C71.9326 72.5975 72.0643 72.4107 72.186 72.2175C72.363 71.9325 72.4185 71.64 72.3255 71.4135C71.9055 70.3875 71.4705 69.366 71.0235 68.352C70.935 68.151 70.6725 68.007 70.434 67.9785C70.353 67.9695 70.272 67.9605 70.191 67.9545C69.9896 67.9445 69.7877 67.948 69.5865 67.962Z" fill="#0172AA"/>
<path d="M75 90C66.7165 90 60 96.7165 60 105C60 113.283 66.7165 120 75 120C83.2835 120 90 113.283 90 105C90 96.7165 83.2835 90 75 90ZM82.2087 101.307C82.2187 101.464 82.2187 101.628 82.2187 101.789C82.2187 106.704 78.4754 112.366 71.635 112.366C69.5257 112.366 67.5703 111.753 65.923 110.699C66.2243 110.732 66.5123 110.746 66.8203 110.746C68.5614 110.746 70.1618 110.156 71.4375 109.158C69.8036 109.125 68.4308 108.054 67.9621 106.58C68.5346 106.664 69.0502 106.664 69.6395 106.513C68.7982 106.342 68.042 105.886 67.4994 105.22C66.9568 104.555 66.6612 103.722 66.6629 102.864V102.817C67.1551 103.095 67.7344 103.266 68.3404 103.289C67.8309 102.95 67.4131 102.49 67.124 101.95C66.8349 101.41 66.6834 100.808 66.683 100.195C66.683 99.5022 66.8638 98.8694 67.1886 98.3203C68.1224 99.4699 69.2877 100.41 70.6087 101.08C71.9297 101.75 73.3768 102.134 74.856 102.208C74.3304 99.6797 76.2187 97.6339 78.4888 97.6339C79.5603 97.6339 80.5246 98.0826 81.2042 98.8058C82.0446 98.6484 82.8482 98.3337 83.5647 97.9118C83.2868 98.7723 82.7042 99.4989 81.9308 99.9576C82.6808 99.8772 83.404 99.6696 84.0737 99.3783C83.5681 100.122 82.9353 100.781 82.2087 101.307Z" fill="#0172AA"/>
<path d="M116.667 60C117.551 60 118.399 60.3512 119.024 60.9763C119.649 61.6014 120 62.4493 120 63.3333V86.6667C120 87.5507 119.649 88.3986 119.024 89.0237C118.399 89.6488 117.551 90 116.667 90H93.3333C92.4493 90 91.6014 89.6488 90.9763 89.0237C90.3512 88.3986 90 87.5507 90 86.6667V63.3333C90 62.4493 90.3512 61.6014 90.9763 60.9763C91.6014 60.3512 92.4493 60 93.3333 60H116.667ZM115.833 85.8333V77C115.833 75.559 115.261 74.177 114.242 73.1581C113.223 72.1391 111.841 71.5667 110.4 71.5667C108.983 71.5667 107.333 72.4333 106.533 73.7333V71.8833H101.883V85.8333H106.533V77.6167C106.533 76.3333 107.567 75.2833 108.85 75.2833C109.469 75.2833 110.062 75.5292 110.5 75.9668C110.938 76.4043 111.183 76.9978 111.183 77.6167V85.8333H115.833ZM96.4667 69.2667C97.2093 69.2667 97.9215 68.9717 98.4466 68.4466C98.9717 67.9215 99.2667 67.2093 99.2667 66.4667C99.2667 64.9167 98.0167 63.65 96.4667 63.65C95.7196 63.65 95.0032 63.9468 94.475 64.475C93.9468 65.0032 93.65 65.7196 93.65 66.4667C93.65 68.0167 94.9167 69.2667 96.4667 69.2667ZM98.7833 85.8333V71.8833H94.1667V85.8333H98.7833Z" fill="#0172AA"/>
<path d="M119.314 97.4348C120 99.885 120 105 120 105C120 105 120 110.115 119.314 112.565C118.933 113.92 117.819 114.985 116.407 115.346C113.844 116 105 116 105 116C105 116 96.1605 116 93.5925 115.346C92.175 114.98 91.062 113.916 90.6855 112.565C90 110.115 90 105 90 105C90 105 90 99.885 90.6855 97.4348C91.0665 96.0804 92.181 95.0147 93.5925 94.6545C96.1605 94 105 94 105 94C105 94 113.844 94 116.407 94.6545C117.825 95.0202 118.938 96.0845 119.314 97.4348ZM102 109.812L111 105L102 100.188V109.812Z" fill="#0172AA"/>
<path d="M208.942 17.506C209.096 16.66 209.179 15.7952 209.179 14.9304C209.179 13.0129 208.804 11.1518 208.065 9.40343C207.352 7.71149 206.328 6.19251 205.027 4.88783C203.736 3.59076 202.206 2.55767 200.523 1.8461C198.775 1.1054 196.922 0.729414 195.009 0.729414C194.109 0.729414 193.205 0.815892 192.328 0.985086C191.113 0.339979 189.76 0.00182803 188.386 0C186.147 0 184.039 0.87605 182.457 2.46271C181.676 3.24164 181.056 4.16804 180.635 5.18836C180.213 6.20867 179.997 7.30266 180 8.40707C180 9.83582 180.368 11.242 181.054 12.4828C180.915 13.2874 180.84 14.1108 180.84 14.9304C180.84 16.848 181.215 18.7091 181.954 20.4574C182.667 22.1494 183.687 23.6684 184.988 24.9731C186.29 26.2777 187.805 27.3004 189.492 28.0148C191.24 28.7555 193.093 29.1315 195.006 29.1315C195.838 29.1315 196.671 29.0563 197.488 28.9096C198.745 29.6203 200.163 30 201.614 30C203.853 30 205.961 29.1277 207.543 27.5373C209.13 25.9506 210 23.8376 210 21.5929C210.004 20.1642 209.636 18.7542 208.942 17.506ZM205.638 25.6273C204.562 26.7101 203.14 27.2967 201.618 27.2967C200.639 27.2967 199.675 27.041 198.82 26.556L197.976 26.0785L197.02 26.2476C196.352 26.368 195.677 26.4281 195.009 26.4281C193.457 26.4281 191.96 26.1236 190.543 25.522C189.181 24.9467 187.955 24.1196 186.897 23.0593C185.85 22.0133 185.016 20.7734 184.441 19.4084C183.84 17.991 183.54 16.4908 183.54 14.9342C183.54 14.28 183.6 13.6107 183.713 12.949L183.878 12.0053L183.413 11.1668C182.944 10.323 182.697 9.37309 182.697 8.40707C182.697 6.88056 183.285 5.45557 184.362 4.37649C185.442 3.29741 186.863 2.70711 188.386 2.70711C189.32 2.70963 190.239 2.94066 191.064 3.38012L191.904 3.82379L192.834 3.64331C193.543 3.50796 194.274 3.43652 195.009 3.43652C196.562 3.43652 198.059 3.74107 199.472 4.33889C200.841 4.91791 202.064 5.74508 203.118 6.8016C204.176 7.85813 205.001 9.0876 205.578 10.4562C206.178 11.8737 206.478 13.3739 206.478 14.9304C206.478 15.6223 206.415 16.3216 206.287 17.0172L206.111 17.9759L206.583 18.8257C207.056 19.6716 207.303 20.6304 207.303 21.5967C207.303 23.127 206.715 24.5482 205.638 25.6273ZM197.68 13.2799L194.364 12.5429C193.104 12.2534 191.653 11.8737 191.653 10.6818C191.653 9.48991 192.669 8.65522 194.507 8.65522C198.209 8.65522 197.871 11.2044 199.709 11.2044C200.676 11.2044 201.524 10.6329 201.524 9.65534C201.524 7.36934 197.871 5.65108 194.773 5.65108C191.409 5.65108 187.827 7.08359 187.827 10.8961C187.827 12.7309 188.48 14.6861 192.088 15.5922L196.566 16.7126C197.92 17.0472 198.261 17.8105 198.261 18.5023C198.261 19.6491 197.125 20.7695 195.066 20.7695C191.045 20.7695 191.604 17.6676 189.451 17.6676C188.484 17.6676 187.782 18.3369 187.782 19.2881C187.782 21.1455 190.033 23.627 195.066 23.627C199.855 23.627 202.229 21.3147 202.229 18.2128C202.229 16.2163 201.31 14.092 197.68 13.2799Z" fill="#ACACAC"/>
<path d="M208.942 77.506C209.096 76.66 209.179 75.7952 209.179 74.9304C209.179 73.0129 208.804 71.1518 208.065 69.4034C207.352 67.7115 206.328 66.1925 205.027 64.8878C203.736 63.5908 202.206 62.5577 200.523 61.8461C198.775 61.1054 196.922 60.7294 195.009 60.7294C194.109 60.7294 193.205 60.8159 192.328 60.9851C191.113 60.34 189.76 60.0018 188.386 60C186.147 60 184.039 60.876 182.457 62.4627C181.676 63.2416 181.056 64.168 180.635 65.1884C180.213 66.2087 179.997 67.3027 180 68.4071C180 69.8358 180.368 71.242 181.054 72.4828C180.915 73.2874 180.84 74.1108 180.84 74.9304C180.84 76.848 181.215 78.7091 181.954 80.4574C182.667 82.1494 183.687 83.6684 184.988 84.9731C186.29 86.2777 187.805 87.3004 189.492 88.0148C191.24 88.7555 193.093 89.1315 195.006 89.1315C195.838 89.1315 196.671 89.0563 197.488 88.9096C198.745 89.6203 200.163 90 201.614 90C203.853 90 205.961 89.1277 207.543 87.5373C209.13 85.9506 210 83.8376 210 81.5929C210.004 80.1642 209.636 78.7542 208.942 77.506ZM205.638 85.6273C204.562 86.7101 203.14 87.2967 201.618 87.2967C200.639 87.2967 199.675 87.041 198.82 86.556L197.976 86.0785L197.02 86.2476C196.352 86.368 195.677 86.4281 195.009 86.4281C193.457 86.4281 191.96 86.1236 190.543 85.522C189.181 84.9467 187.955 84.1196 186.897 83.0593C185.85 82.0133 185.016 80.7734 184.441 79.4084C183.84 77.991 183.54 76.4908 183.54 74.9342C183.54 74.28 183.6 73.6107 183.713 72.949L183.878 72.0053L183.413 71.1668C182.944 70.323 182.697 69.3731 182.697 68.4071C182.697 66.8806 183.285 65.4556 184.362 64.3765C185.442 63.2974 186.863 62.7071 188.386 62.7071C189.32 62.7096 190.239 62.9407 191.064 63.3801L191.904 63.8238L192.834 63.6433C193.543 63.508 194.274 63.4365 195.009 63.4365C196.562 63.4365 198.059 63.7411 199.472 64.3389C200.841 64.9179 202.064 65.7451 203.118 66.8016C204.176 67.8581 205.001 69.0876 205.578 70.4562C206.178 71.8737 206.478 73.3739 206.478 74.9304C206.478 75.6223 206.415 76.3216 206.287 77.0172L206.111 77.9759L206.583 78.8257C207.056 79.6716 207.303 80.6304 207.303 81.5967C207.303 83.127 206.715 84.5482 205.638 85.6273ZM197.68 73.2799L194.364 72.5429C193.104 72.2534 191.653 71.8737 191.653 70.6818C191.653 69.4899 192.669 68.6552 194.507 68.6552C198.209 68.6552 197.871 71.2044 199.709 71.2044C200.676 71.2044 201.524 70.6329 201.524 69.6553C201.524 67.3693 197.871 65.6511 194.773 65.6511C191.409 65.6511 187.827 67.0836 187.827 70.8961C187.827 72.7309 188.48 74.6861 192.088 75.5922L196.566 76.7126C197.92 77.0472 198.261 77.8105 198.261 78.5023C198.261 79.6491 197.125 80.7695 195.066 80.7695C191.045 80.7695 191.604 77.6676 189.451 77.6676C188.484 77.6676 187.782 78.3369 187.782 79.2881C187.782 81.1455 190.033 83.627 195.066 83.627C199.855 83.627 202.229 81.3147 202.229 78.2128C202.229 76.2163 201.31 74.092 197.68 73.2799Z" fill="#0172AA"/>
<path d="M139.609 60H130.406C122 60 120 61.9995 120 70.3905V79.5945C120 87.999 121.984 90 130.391 90H139.594C147.999 90 150 88.0155 150 79.6095V70.4055C150 61.9995 148.016 60 139.609 60ZM144.219 81.405H142.031C141.203 81.405 140.954 80.7345 139.469 79.2495C138.173 78 137.625 77.844 137.297 77.844C136.844 77.844 136.719 77.9685 136.719 78.594V80.562C136.719 81.0945 136.547 81.4065 135.156 81.4065C133.807 81.3158 132.498 80.9058 131.338 80.2103C130.178 79.5148 129.2 78.5536 128.484 77.406C126.785 75.291 125.602 72.8087 125.031 70.1565C125.031 69.828 125.156 69.531 125.781 69.531H127.968C128.53 69.531 128.733 69.7815 128.953 70.359C130.015 73.485 131.827 76.203 132.562 76.203C132.844 76.203 132.968 76.0785 132.968 75.375V72.156C132.875 70.6875 132.094 70.563 132.094 70.032C132.105 69.8919 132.169 69.7613 132.273 69.6678C132.378 69.5742 132.515 69.5252 132.656 69.531H136.094C136.563 69.531 136.719 69.765 136.719 70.3275V74.6715C136.719 75.141 136.922 75.297 137.062 75.297C137.344 75.297 137.562 75.141 138.078 74.625C139.186 73.2734 140.092 71.7676 140.766 70.155C140.835 69.9613 140.965 69.7955 141.137 69.6828C141.309 69.5701 141.513 69.5168 141.719 69.531H143.907C144.562 69.531 144.702 69.8595 144.562 70.3275C143.767 72.1101 142.782 73.8023 141.625 75.375C141.39 75.735 141.295 75.9225 141.625 76.344C141.843 76.6725 142.609 77.313 143.125 77.922C143.875 78.67 144.498 79.5353 144.969 80.484C145.156 81.093 144.843 81.405 144.219 81.405Z" fill="#0172AA"/>
<path fill-rule="evenodd" clip-rule="evenodd" d="M156 90C152.686 90 150 92.6863 150 96V114C150 117.314 152.686 120 156 120H174C177.314 120 180 117.314 180 114V96C180 92.6863 177.314 90 174 90H156ZM168.334 105.451C169.277 104.722 169.987 105.154 170.238 105.667C170.687 106.567 170.184 107.008 169.044 107.737C168.074 108.358 166.753 108.601 165.9 108.682L166.609 109.412L169.286 112.094C169.699 112.508 169.699 113.165 169.286 113.552L169.169 113.696C168.756 114.101 168.1 114.101 167.696 113.696L167.696 113.696C167.013 113.012 166.034 112.031 165.002 111.014L162.334 113.696C161.93 114.101 161.265 114.101 160.861 113.696L160.735 113.552C160.331 113.165 160.331 112.508 160.735 112.094C161.395 111.424 162.356 110.469 163.358 109.474L163.421 109.412L164.139 108.691C163.277 108.601 161.939 108.367 160.959 107.737C159.819 107.008 159.316 106.567 159.765 105.667C160.016 105.154 160.726 104.722 161.669 105.451C162.954 106.477 165.002 106.477 165.002 106.477C165.002 106.477 167.05 106.477 168.334 105.451ZM167.247 100.554C167.247 99.3213 166.241 98.3132 165.002 98.3132C163.762 98.3132 162.756 99.3213 162.756 100.554C162.756 101.797 163.762 102.796 165.002 102.796C166.241 102.796 167.247 101.797 167.247 100.554ZM169.547 100.554C169.547 103.075 167.517 105.109 165.002 105.109C162.486 105.109 160.456 103.075 160.456 100.554C160.456 99.3465 160.935 98.188 161.788 97.3339C162.64 96.4797 163.796 95.9999 165.002 95.9999C166.207 95.9999 167.363 96.4797 168.215 97.3339C169.068 98.188 169.547 99.3465 169.547 100.554Z" fill="#0172AA"/>
<path fill-rule="evenodd" clip-rule="evenodd" d="M120 96C120 92.6863 122.686 90 126 90H144C147.314 90 150 92.6863 150 96V114C150 117.314 147.314 120 144 120H126C122.686 120 120 117.314 120 114V96ZM125.699 97.2001C125.699 96.3717 126.371 95.7001 127.199 95.7001H128.699H131.699C132.097 95.7001 132.479 95.8582 132.76 96.1395L139.5 102.88V98.7001H139.199C138.371 98.7001 137.699 98.0286 137.699 97.2001C137.699 96.3717 138.371 95.7001 139.199 95.7001H141H142.199C143.028 95.7001 143.699 96.3717 143.699 97.2001C143.699 97.9255 143.184 98.5307 142.5 98.67V112.2C142.5 113.029 141.828 113.7 141 113.7H139.5C139.102 113.7 138.721 113.542 138.439 113.261L130.199 105.021V110.7C131.028 110.7 131.699 111.372 131.699 112.2C131.699 113.029 131.028 113.7 130.199 113.7H128.699H127.199C126.371 113.7 125.699 113.029 125.699 112.2C125.699 111.372 126.371 110.7 127.199 110.7V98.7001C126.371 98.7001 125.699 98.0286 125.699 97.2001ZM130.199 100.778L139.5 110.079V107.122L131.078 98.7001H130.199V100.778Z" fill="#0172AA"/>
<path d="M156.757 60.0168C156.645 60.0308 156.267 60.08 155.916 60.1222C154.31 60.3118 153.09 60.8737 152.039 61.8991C150.994 62.9105 150.44 64.0132 150.153 65.6286C150.055 66.1764 150.033 67.3282 150.012 74.3728C149.977 83.0749 149.998 83.8685 150.314 85.1187C150.875 87.3451 152.565 89.0729 154.759 89.6699C155.958 90 156.056 90 164.996 90C173.935 90 174.033 90 175.232 89.6699C177.343 89.094 179.004 87.4645 179.614 85.3505C179.979 84.1143 180 83.5103 180 75.0049C180 66.4995 179.979 65.8954 179.614 64.6593C179.299 63.5707 178.773 62.6927 177.953 61.8991C176.964 60.9299 175.884 60.4101 174.321 60.1362C173.725 60.0308 172.736 60.0168 165.311 60.0028C160.726 59.9957 156.877 60.0028 156.757 60.0168ZM161.714 68.9788C162.107 69.0911 162.647 69.5968 162.787 69.9831C163.082 70.7416 162.773 71.6617 162.093 72.0831C161.665 72.35 161.013 72.4132 160.544 72.2306C160.158 72.0901 159.653 71.5493 159.541 71.156C159.134 69.8075 160.368 68.5714 161.714 68.9788ZM169.35 69.0841C170.458 69.653 170.647 71.0998 169.721 71.9146C169.357 72.2306 169.069 72.336 168.557 72.336C167.618 72.336 166.882 71.5985 166.882 70.6574C166.875 69.3299 168.179 68.4941 169.35 69.0841ZM158.594 75.1173C159.064 75.342 159.324 75.8828 159.218 76.4307C159.19 76.5711 159.05 76.8169 158.889 76.9996C158.545 77.3858 158.538 77.3578 159.338 77.9547C160.473 78.8046 162.037 79.4578 163.488 79.6825C164.862 79.8932 166.538 79.7457 167.87 79.2892C168.894 78.938 170.282 78.1444 170.948 77.5263L171.18 77.3086L170.934 77.0557C170.647 76.7608 170.535 76.5079 170.535 76.1567C170.535 75.5597 170.976 75.0821 171.586 75.0189C172.098 74.9698 172.351 75.1594 173.851 76.6765C175.429 78.2848 175.548 78.5026 175.239 79.1909C175.078 79.5491 174.748 79.7879 174.356 79.83C173.914 79.8862 173.627 79.7528 173.199 79.3313L172.827 78.9451L172.435 79.2962C171.874 79.8019 170.696 80.5745 169.953 80.9327C168.109 81.8177 166.482 82.1548 164.407 82.0775C161.827 81.9862 159.527 81.1153 157.508 79.4718L156.926 78.9942L156.519 79.3805C156.239 79.6544 156.035 79.7879 155.853 79.816C155.285 79.9283 154.794 79.7036 154.549 79.219C154.381 78.8889 154.374 78.6009 154.521 78.2497C154.647 77.9407 157.192 75.342 157.564 75.1454C157.872 74.9768 158.272 74.9698 158.594 75.1173Z" fill="#0172AA"/>
<path d="M15 60C13.0302 60 11.0796 60.3976 9.25975 61.1702C7.43986 61.9427 5.78628 63.075 4.3934 64.5025C1.58035 67.3854 0 71.2954 0 75.3724C0 82.167 4.305 87.9317 10.26 89.9762C11.01 90.0992 11.25 89.6226 11.25 89.2076V86.6096C7.095 87.532 6.21 84.5497 6.21 84.5497C5.52 82.7665 4.545 82.29 4.545 82.29C3.18 81.3369 4.65 81.3676 4.65 81.3676C6.15 81.4752 6.945 82.951 6.945 82.951C8.25 85.2876 10.455 84.5958 11.31 84.2269C11.445 83.2277 11.835 82.5513 12.255 82.167C8.925 81.7827 5.43 80.4607 5.43 74.6038C5.43 72.8974 6 71.5293 6.975 70.4379C6.825 70.0536 6.3 68.4548 7.125 66.3795C7.125 66.3795 8.385 65.9645 11.25 67.9475C12.435 67.6093 13.725 67.4402 15 67.4402C16.275 67.4402 17.565 67.6093 18.75 67.9475C21.615 65.9645 22.875 66.3795 22.875 66.3795C23.7 68.4548 23.175 70.0536 23.025 70.4379C24 71.5293 24.57 72.8974 24.57 74.6038C24.57 80.476 21.06 81.7673 17.715 82.1516C18.255 82.6282 18.75 83.5659 18.75 84.9955V89.2076C18.75 89.6226 18.99 90.1145 19.755 89.9762C25.71 87.9163 30 82.167 30 75.3724C30 73.3537 29.612 71.3547 28.8582 69.4896C28.1044 67.6246 26.9995 65.9299 25.6066 64.5025C24.2137 63.075 22.5601 61.9427 20.7403 61.1702C18.9204 60.3976 16.9698 60 15 60Z" fill="#0172AA"/>
</svg>
