<svg width="312" height="150" viewBox="0 0 312 150" fill="none" xmlns="http://www.w3.org/2000/svg">
<path d="M257 120C253.022 120 249.206 121.58 246.393 124.393C243.58 127.206 242 131.022 242 135C242 138.978 243.58 142.794 246.393 145.607C249.206 148.42 253.022 150 257 150C260.978 150 264.794 148.42 267.607 145.607C270.42 142.794 272 138.978 272 135C272 131.022 270.42 127.206 267.607 124.393C264.794 121.58 260.978 120 257 120ZM243.85 136.133H248.033C248.1 137.65 248.312 139.157 248.667 140.633H245.067C244.395 139.218 243.983 137.694 243.85 136.133ZM258.133 127.133V121.983C259.739 122.594 261.059 123.783 261.833 125.317C262.175 125.895 262.477 126.497 262.733 127.117L258.133 127.133ZM263.5 129.383C263.887 130.855 264.117 132.363 264.183 133.883H258.133V129.383H263.5ZM255.867 121.983V127.133H251.267C251.524 126.513 251.825 125.911 252.167 125.333C252.937 123.793 254.258 122.598 255.867 121.983ZM255.867 129.383V133.883H249.833C249.9 132.363 250.13 130.855 250.517 129.383H255.867ZM248.033 133.867H243.85C243.983 132.306 244.395 130.782 245.067 129.367H248.667C248.311 130.843 248.099 132.35 248.033 133.867ZM249.833 136.133H255.867V140.633H250.517C250.13 139.162 249.901 137.653 249.833 136.133ZM255.883 142.8V147.95C254.277 147.34 252.957 146.151 252.183 144.617C251.841 144.039 251.54 143.437 251.283 142.817L255.883 142.8ZM258.133 147.95V142.883H262.733C262.476 143.504 262.175 144.105 261.833 144.683C261.059 146.217 259.739 147.406 258.133 148.017V147.95ZM258.133 140.55V136.05H264.167C264.099 137.57 263.87 139.078 263.483 140.55H258.133ZM265.983 136.05H270.167C270.033 137.611 269.621 139.135 268.95 140.55H265.333C265.683 139.1 265.895 137.622 265.967 136.133L265.983 136.05ZM265.983 133.8C265.907 132.311 265.689 130.832 265.333 129.383H268.933C269.605 130.8 270.017 132.323 270.15 133.883L265.983 133.8ZM267.65 127.133H264.667C264.127 125.617 263.344 124.199 262.35 122.933C264.424 123.864 266.225 125.31 267.583 127.133H267.65ZM251.65 122.933C250.656 124.199 249.873 125.617 249.333 127.133H246.417C247.775 125.31 249.576 123.864 251.65 122.933ZM246.4 142.933H249.333C249.873 144.449 250.656 145.868 251.65 147.133C249.57 146.188 247.768 144.725 246.417 142.883L246.4 142.933ZM262.333 147.133C263.328 145.868 264.11 144.449 264.65 142.933H267.583C266.217 144.732 264.416 146.154 262.35 147.067L262.333 147.133Z" fill="#0172AA"/>
<path d="M257 40C253.022 40 249.206 41.5804 246.393 44.3934C243.58 47.2064 242 51.0218 242 55C242 58.9782 243.58 62.7936 246.393 65.6066C249.206 68.4196 253.022 70 257 70C260.978 70 264.794 68.4196 267.607 65.6066C270.42 62.7936 272 58.9782 272 55C272 51.0218 270.42 47.2064 267.607 44.3934C264.794 41.5804 260.978 40 257 40ZM243.85 56.1333H248.033C248.1 57.65 248.312 59.1567 248.667 60.6333H245.067C244.395 59.2181 243.983 57.694 243.85 56.1333ZM258.133 47.1333V41.9833C259.739 42.5937 261.059 43.7827 261.833 45.3167C262.175 45.895 262.477 46.4967 262.733 47.1167L258.133 47.1333ZM263.5 49.3833C263.887 50.855 264.117 52.3633 264.183 53.8833H258.133V49.3833H263.5ZM255.867 41.9833V47.1333H251.267C251.524 46.5128 251.825 45.9113 252.167 45.3333C252.937 43.7931 254.258 42.5978 255.867 41.9833ZM255.867 49.3833V53.8833H249.833C249.9 52.3633 250.13 50.855 250.517 49.3833H255.867ZM248.033 53.8667H243.85C243.983 52.306 244.395 50.7819 245.067 49.3667H248.667C248.311 50.8427 248.099 52.3498 248.033 53.8667ZM249.833 56.1333H255.867V60.6333H250.517C250.13 59.1618 249.901 57.6533 249.833 56.1333ZM255.883 62.8V67.95C254.277 67.3396 252.957 66.1506 252.183 64.6167C251.841 64.0387 251.54 63.4372 251.283 62.8167L255.883 62.8ZM258.133 67.95V62.8833H262.733C262.476 63.5038 262.175 64.1053 261.833 64.6833C261.059 66.2173 259.739 67.4063 258.133 68.0167V67.95ZM258.133 60.55V56.05H264.167C264.099 57.57 263.87 59.0785 263.483 60.55H258.133ZM265.983 56.05H270.167C270.033 57.6107 269.621 59.1348 268.95 60.55H265.333C265.683 59.1 265.895 57.6217 265.967 56.1333L265.983 56.05ZM265.983 53.8C265.907 52.3105 265.689 50.8317 265.333 49.3833H268.933C269.605 50.8 270.017 52.3233 270.15 53.8833L265.983 53.8ZM267.65 47.1333H264.667C264.127 45.6172 263.344 44.1987 262.35 42.9333C264.424 43.8643 266.225 45.3101 267.583 47.1333H267.65ZM251.65 42.9333C250.656 44.1987 249.873 45.6172 249.333 47.1333H246.417C247.775 45.3101 249.576 43.8643 251.65 42.9333ZM246.4 62.9333H249.333C249.873 64.4495 250.656 65.868 251.65 67.1333C249.57 66.1884 247.768 64.7249 246.417 62.8833L246.4 62.9333ZM262.333 67.1333C263.328 65.868 264.11 64.4495 264.65 62.9333H267.583C266.217 64.7322 264.416 66.1544 262.35 67.0667L262.333 67.1333Z" fill="#ACACAC"/>
<path d="M281 101.176V109C281 109.552 281.448 110 282 110H310C310.552 110 311 109.552 311 109V101.176" stroke="#0172AA" stroke-width="1.5"/>
<path d="M295.54 99.8714C295.794 100.125 296.206 100.125 296.46 99.8714L300.596 95.7348C300.85 95.481 300.85 95.0694 300.596 94.8156C300.342 94.5617 299.931 94.5617 299.677 94.8156L296 98.4925L292.323 94.8156C292.069 94.5617 291.658 94.5617 291.404 94.8156C291.15 95.0694 291.15 95.481 291.404 95.7348L295.54 99.8714ZM295.35 80L295.35 99.4118L296.65 99.4118L296.65 80L295.35 80Z" fill="#0172AA"/>
<path d="M281 21.1763V28.9998C281 29.5521 281.448 29.9998 282 29.9998H310C310.552 29.9998 311 29.5521 311 28.9998V21.1763" stroke="#ACACAC" stroke-width="1.5"/>
<path d="M295.54 19.8714C295.794 20.1252 296.206 20.1252 296.46 19.8714L300.596 15.7348C300.85 15.481 300.85 15.0694 300.596 14.8156C300.342 14.5617 299.931 14.5617 299.677 14.8156L296 18.4925L292.323 14.8156C292.069 14.5617 291.658 14.5617 291.404 14.8156C291.15 15.0694 291.15 15.481 291.404 15.7348L295.54 19.8714ZM295.35 1.70475e-08L295.35 19.4118L296.65 19.4118L296.65 -1.70475e-08L295.35 1.70475e-08Z" fill="#ACACAC"/>
<path fill-rule="evenodd" clip-rule="evenodd" d="M296 150C304.284 150 311 143.284 311 135C311 126.716 304.284 120 296 120C287.716 120 281 126.716 281 135C281 143.284 287.716 150 296 150ZM298.827 131.969L300.782 133.924C299.502 136.44 297.44 138.493 294.924 139.782L292.969 137.827C292.729 137.587 292.373 137.507 292.062 137.613C291.067 137.942 289.991 138.12 288.889 138.12C288.4 138.12 288 138.52 288 139.009V142.111C288 142.6 288.4 143 288.889 143C297.236 143 304 136.236 304 127.889C304 127.4 303.6 127 303.111 127H300C299.511 127 299.111 127.4 299.111 127.889C299.111 129 298.933 130.067 298.604 131.062C298.507 131.373 298.578 131.72 298.827 131.969Z" fill="#0172AA"/>
<path fill-rule="evenodd" clip-rule="evenodd" d="M296 70C304.284 70 311 63.2843 311 55C311 46.7157 304.284 40 296 40C287.716 40 281 46.7157 281 55C281 63.2843 287.716 70 296 70ZM298.827 51.9689L300.782 53.9244C299.502 56.44 297.44 58.4933 294.924 59.7822L292.969 57.8267C292.729 57.5867 292.373 57.5067 292.062 57.6133C291.067 57.9422 289.991 58.12 288.889 58.12C288.4 58.12 288 58.52 288 59.0089V62.1111C288 62.6 288.4 63 288.889 63C297.236 63 304 56.2356 304 47.8889C304 47.4 303.6 47 303.111 47H300C299.511 47 299.111 47.4 299.111 47.8889C299.111 49 298.933 50.0667 298.604 51.0622C298.507 51.3733 298.578 51.72 298.827 51.9689Z" fill="#ACACAC"/>
<path d="M15 40C19.0755 40 19.584 40.015 21.183 40.09C22.7805 40.165 23.868 40.4155 24.825 40.7875C25.815 41.1685 26.649 41.6845 27.483 42.517C28.2457 43.2668 28.8359 44.1739 29.2125 45.175C29.583 46.1305 29.835 47.2195 29.91 48.817C29.9805 50.416 30 50.9245 30 55C30 59.0755 29.985 59.584 29.91 61.183C29.835 62.7805 29.583 63.868 29.2125 64.825C28.837 65.8267 28.2467 66.7339 27.483 67.483C26.7329 68.2455 25.826 68.8356 24.825 69.2125C23.8695 69.583 22.7805 69.835 21.183 69.91C19.584 69.9805 19.0755 70 15 70C10.9245 70 10.416 69.985 8.817 69.91C7.2195 69.835 6.132 69.583 5.175 69.2125C4.17349 68.8367 3.26629 68.2464 2.517 67.483C1.75411 66.7333 1.1639 65.8262 0.7875 64.825C0.4155 63.8695 0.165 62.7805 0.0899999 61.183C0.0194999 59.584 0 59.0755 0 55C0 50.9245 0.0149999 50.416 0.0899999 48.817C0.165 47.218 0.4155 46.132 0.7875 45.175C1.16285 44.1733 1.75321 43.266 2.517 42.517C3.26651 41.7538 4.17364 41.1636 5.175 40.7875C6.132 40.4155 7.218 40.165 8.817 40.09C10.416 40.0195 10.9245 40 15 40ZM15 47.5C13.0109 47.5 11.1032 48.2902 9.6967 49.6967C8.29018 51.1032 7.5 53.0109 7.5 55C7.5 56.9891 8.29018 58.8968 9.6967 60.3033C11.1032 61.7098 13.0109 62.5 15 62.5C16.9891 62.5 18.8968 61.7098 20.3033 60.3033C21.7098 58.8968 22.5 56.9891 22.5 55C22.5 53.0109 21.7098 51.1032 20.3033 49.6967C18.8968 48.2902 16.9891 47.5 15 47.5ZM24.75 47.125C24.75 46.6277 24.5525 46.1508 24.2008 45.7992C23.8492 45.4475 23.3723 45.25 22.875 45.25C22.3777 45.25 21.9008 45.4475 21.5492 45.7992C21.1975 46.1508 21 46.6277 21 47.125C21 47.6223 21.1975 48.0992 21.5492 48.4508C21.9008 48.8025 22.3777 49 22.875 49C23.3723 49 23.8492 48.8025 24.2008 48.4508C24.5525 48.0992 24.75 47.6223 24.75 47.125ZM15 50.5C16.1935 50.5 17.3381 50.9741 18.182 51.818C19.0259 52.6619 19.5 53.8065 19.5 55C19.5 56.1935 19.0259 57.3381 18.182 58.182C17.3381 59.0259 16.1935 59.5 15 59.5C13.8065 59.5 12.6619 59.0259 11.818 58.182C10.9741 57.3381 10.5 56.1935 10.5 55C10.5 53.8065 10.9741 52.6619 11.818 51.818C12.6619 50.9741 13.8065 50.5 15 50.5Z" fill="#ACACAC"/>
<path d="M15 0C13.0302 0 11.0796 0.397619 9.25975 1.17015C7.43986 1.94269 5.78628 3.07501 4.3934 4.50247C1.58035 7.38536 0 11.2954 0 15.3724C0 22.167 4.305 27.9317 10.26 29.9762C11.01 30.0992 11.25 29.6226 11.25 29.2076V26.6096C7.095 27.532 6.21 24.5497 6.21 24.5497C5.52 22.7665 4.545 22.29 4.545 22.29C3.18 21.3369 4.65 21.3676 4.65 21.3676C6.15 21.4752 6.945 22.951 6.945 22.951C8.25 25.2876 10.455 24.5958 11.31 24.2269C11.445 23.2277 11.835 22.5513 12.255 22.167C8.925 21.7827 5.43 20.4607 5.43 14.6038C5.43 12.8974 6 11.5293 6.975 10.4379C6.825 10.0536 6.3 8.45482 7.125 6.37955C7.125 6.37955 8.385 5.96449 11.25 7.94753C12.435 7.60934 13.725 7.44024 15 7.44024C16.275 7.44024 17.565 7.60934 18.75 7.94753C21.615 5.96449 22.875 6.37955 22.875 6.37955C23.7 8.45482 23.175 10.0536 23.025 10.4379C24 11.5293 24.57 12.8974 24.57 14.6038C24.57 20.476 21.06 21.7673 17.715 22.1516C18.255 22.6282 18.75 23.5659 18.75 24.9955V29.2076C18.75 29.6226 18.99 30.1145 19.755 29.9762C25.71 27.9163 30 22.167 30 15.3724C30 13.3537 29.612 11.3547 28.8582 9.48964C28.1044 7.62457 26.9995 5.92993 25.6066 4.50247C24.2137 3.07501 22.5601 1.94269 20.7403 1.17015C18.9204 0.397619 16.9698 0 15 0Z" fill="#A2A2A2"/>
<path d="M55 0C46.72 0 40 6.72 40 15C40 23.28 46.72 30 55 30C63.28 30 70 23.28 70 15C70 6.72 63.28 0 55 0ZM61.96 10.2C61.735 12.57 60.76 18.33 60.265 20.985C60.055 22.11 59.635 22.485 59.245 22.53C58.375 22.605 57.715 21.96 56.875 21.405C55.555 20.535 54.805 19.995 53.53 19.155C52.045 18.18 53.005 17.64 53.86 16.77C54.085 16.545 57.925 13.05 58 12.735C58.0104 12.6873 58.009 12.6378 57.996 12.5907C57.9829 12.5437 57.9585 12.5005 57.925 12.465C57.835 12.39 57.715 12.42 57.61 12.435C57.475 12.465 55.375 13.86 51.28 16.62C50.68 17.025 50.14 17.235 49.66 17.22C49.12 17.205 48.1 16.92 47.335 16.665C46.39 16.365 45.655 16.2 45.715 15.675C45.745 15.405 46.12 15.135 46.825 14.85C51.205 12.945 54.115 11.685 55.57 11.085C59.74 9.345 60.595 9.045 61.165 9.045C61.285 9.045 61.57 9.075 61.75 9.225C61.9 9.345 61.945 9.51 61.96 9.63C61.945 9.72 61.975 9.99 61.96 10.2Z" fill="#ACACAC"/>
<path d="M67 44H43C41.35 44 40.015 45.2375 40.015 46.75L40 63.25C40 64.7625 41.35 66 43 66H67C68.65 66 70 64.7625 70 63.25V46.75C70 45.2375 68.65 44 67 44ZM66.4 49.8438L55.795 55.9213C55.315 56.1963 54.685 56.1963 54.205 55.9213L43.6 49.8438C43.4496 49.7664 43.3179 49.6618 43.2128 49.5364C43.1078 49.411 43.0316 49.2673 42.9889 49.1141C42.9461 48.961 42.9378 48.8014 42.9642 48.6452C42.9907 48.4889 43.0515 48.3392 43.1429 48.2052C43.2343 48.0711 43.3545 47.9554 43.4961 47.8651C43.6377 47.7748 43.7978 47.7118 43.9667 47.6799C44.1357 47.648 44.3099 47.6478 44.4789 47.6794C44.6479 47.711 44.8082 47.7737 44.95 47.8637L55 53.625L65.05 47.8637C65.1918 47.7737 65.3521 47.711 65.5211 47.6794C65.6901 47.6478 65.8643 47.648 66.0333 47.6799C66.2022 47.7118 66.3623 47.7748 66.5039 47.8651C66.6455 47.9554 66.7657 48.0711 66.8571 48.2052C66.9485 48.3392 67.0093 48.4889 67.0358 48.6452C67.0622 48.8014 67.0539 48.961 67.0111 49.1141C66.9684 49.2673 66.8922 49.411 66.7872 49.5364C66.6821 49.6618 66.5504 49.7664 66.4 49.8438Z" fill="#ACACAC"/>
<path d="M80.006 30L82.034 22.548C80.6977 20.2573 79.9957 17.652 80 15C80 6.7155 86.7155 0 95 0C103.285 0 110 6.7155 110 15C110 23.2845 103.285 30 95 30C92.3492 30.0043 89.745 29.3027 87.455 27.9675L80.006 30ZM89.5865 7.962C89.3928 7.97402 89.2035 8.02504 89.03 8.11199C88.8673 8.20414 88.7188 8.31933 88.589 8.45399C88.409 8.62349 88.307 8.77049 88.1975 8.91299C87.6431 9.63449 87.3449 10.5201 87.35 11.43C87.353 12.165 87.545 12.8805 87.845 13.5495C88.4585 14.9025 89.468 16.335 90.8015 17.6625C91.1225 17.982 91.436 18.303 91.7735 18.6015C93.4286 20.0587 95.4009 21.1095 97.5335 21.6705L98.387 21.801C98.6645 21.816 98.942 21.795 99.221 21.7815C99.6579 21.7589 100.084 21.6406 100.471 21.435C100.667 21.3338 100.859 21.2237 101.045 21.105C101.045 21.105 101.11 21.063 101.233 20.97C101.435 20.82 101.56 20.7135 101.728 20.538C101.852 20.409 101.96 20.2575 102.043 20.085C102.16 19.8405 102.277 19.374 102.325 18.9855C102.361 18.6885 102.35 18.5265 102.346 18.426C102.34 18.2655 102.206 18.099 102.061 18.0285L101.188 17.637C101.188 17.637 99.8825 17.0685 99.086 16.7055C99.002 16.6689 98.912 16.648 98.8205 16.644C98.7179 16.6334 98.6142 16.645 98.5164 16.6779C98.4186 16.7107 98.329 16.7641 98.2535 16.8345V16.8315C98.246 16.8315 98.1455 16.917 97.061 18.231C96.9988 18.3146 96.913 18.3778 96.8147 18.4126C96.7164 18.4473 96.61 18.452 96.509 18.426C96.4113 18.3999 96.3155 18.3668 96.2225 18.327C96.0365 18.249 95.972 18.219 95.8445 18.1635L95.837 18.1605C94.9789 17.7858 94.1843 17.2798 93.482 16.6605C93.293 16.4955 93.1175 16.3155 92.9375 16.1415C92.3474 15.5763 91.8331 14.937 91.4075 14.2395L91.319 14.097C91.2554 14.0012 91.2041 13.8979 91.166 13.7895C91.109 13.569 91.2575 13.392 91.2575 13.392C91.2575 13.392 91.622 12.993 91.7915 12.777C91.9326 12.5975 92.0643 12.4107 92.186 12.2175C92.363 11.9325 92.4185 11.64 92.3255 11.4135C91.9055 10.3875 91.4705 9.36599 91.0235 8.35199C90.935 8.15099 90.6725 8.00699 90.434 7.97849C90.353 7.96949 90.272 7.96049 90.191 7.95449C89.9896 7.94449 89.7877 7.94799 89.5865 7.962Z" fill="#ACACAC"/>
<path d="M95 40C86.7165 40 80 46.7165 80 55C80 63.2835 86.7165 70 95 70C103.283 70 110 63.2835 110 55C110 46.7165 103.283 40 95 40ZM102.209 51.3069C102.219 51.4643 102.219 51.6283 102.219 51.7891C102.219 56.7042 98.4754 62.3661 91.635 62.3661C89.5257 62.3661 87.5703 61.7533 85.923 60.6987C86.2243 60.7321 86.5123 60.7455 86.8203 60.7455C88.5614 60.7455 90.1618 60.1562 91.4375 59.1585C89.8036 59.125 88.4308 58.0536 87.9621 56.5804C88.5346 56.6641 89.0502 56.6641 89.6395 56.5134C88.7982 56.3425 88.042 55.8855 87.4994 55.2203C86.9568 54.555 86.6612 53.7223 86.6629 52.8638V52.817C87.1551 53.0949 87.7344 53.2656 88.3404 53.2891C87.8309 52.9495 87.4131 52.4895 87.124 51.9499C86.8349 51.4102 86.6834 50.8075 86.683 50.1953C86.683 49.5022 86.8638 48.8694 87.1886 48.3203C88.1224 49.4699 89.2877 50.4101 90.6087 51.0798C91.9297 51.7495 93.3768 52.1338 94.856 52.2076C94.3304 49.6797 96.2187 47.6339 98.4888 47.6339C99.5603 47.6339 100.525 48.0826 101.204 48.8058C102.045 48.6484 102.848 48.3337 103.565 47.9118C103.287 48.7723 102.704 49.4989 101.931 49.9576C102.681 49.8772 103.404 49.6696 104.074 49.3783C103.568 50.1217 102.935 50.7813 102.209 51.3069Z" fill="#ACACAC"/>
<path d="M146.667 0C147.551 0 148.399 0.351189 149.024 0.976311C149.649 1.60143 150 2.44928 150 3.33333V26.6667C150 27.5507 149.649 28.3986 149.024 29.0237C148.399 29.6488 147.551 30 146.667 30H123.333C122.449 30 121.601 29.6488 120.976 29.0237C120.351 28.3986 120 27.5507 120 26.6667V3.33333C120 2.44928 120.351 1.60143 120.976 0.976311C121.601 0.351189 122.449 0 123.333 0H146.667ZM145.833 25.8333V17C145.833 15.559 145.261 14.177 144.242 13.1581C143.223 12.1391 141.841 11.5667 140.4 11.5667C138.983 11.5667 137.333 12.4333 136.533 13.7333V11.8833H131.883V25.8333H136.533V17.6167C136.533 16.3333 137.567 15.2833 138.85 15.2833C139.469 15.2833 140.062 15.5292 140.5 15.9668C140.938 16.4043 141.183 16.9978 141.183 17.6167V25.8333H145.833ZM126.467 9.26667C127.209 9.26667 127.921 8.97167 128.447 8.44657C128.972 7.92146 129.267 7.20927 129.267 6.46667C129.267 4.91667 128.017 3.65 126.467 3.65C125.72 3.65 125.003 3.94675 124.475 4.47498C123.947 5.00321 123.65 5.71964 123.65 6.46667C123.65 8.01667 124.917 9.26667 126.467 9.26667ZM128.783 25.8333V11.8833H124.167V25.8333H128.783Z" fill="#ACACAC"/>
<path d="M149.314 47.4348C150 49.885 150 55 150 55C150 55 150 60.115 149.314 62.5653C148.933 63.9196 147.819 64.9853 146.407 65.3455C143.844 66 135 66 135 66C135 66 126.16 66 123.592 65.3455C122.175 64.9798 121.062 63.9155 120.686 62.5653C120 60.115 120 55 120 55C120 55 120 49.885 120.686 47.4348C121.067 46.0804 122.181 45.0147 123.592 44.6545C126.16 44 135 44 135 44C135 44 143.844 44 146.407 44.6545C147.825 45.0202 148.938 46.0845 149.314 47.4348ZM132 59.8125L141 55L132 50.1875V59.8125Z" fill="#ACACAC"/>
<path d="M179.609 0H170.406C162 0 160 1.9995 160 10.3905V19.5945C160 27.999 161.984 30 170.391 30H179.594C187.999 30 190 28.0155 190 19.6095V10.4055C190 1.9995 188.016 0 179.609 0ZM184.219 21.405H182.031C181.203 21.405 180.954 20.7345 179.469 19.2495C178.173 18 177.625 17.844 177.297 17.844C176.844 17.844 176.719 17.9685 176.719 18.594V20.562C176.719 21.0945 176.547 21.4065 175.156 21.4065C173.807 21.3158 172.498 20.9058 171.338 20.2103C170.178 19.5148 169.2 18.5536 168.484 17.406C166.785 15.291 165.602 12.8087 165.031 10.1565C165.031 9.828 165.156 9.531 165.781 9.531H167.968C168.53 9.531 168.733 9.7815 168.953 10.359C170.015 13.485 171.827 16.203 172.562 16.203C172.844 16.203 172.968 16.0785 172.968 15.375V12.156C172.875 10.6875 172.094 10.563 172.094 10.032C172.105 9.89194 172.169 9.7613 172.273 9.66777C172.378 9.57424 172.515 9.52518 172.656 9.531H176.094C176.563 9.531 176.719 9.765 176.719 10.3275V14.6715C176.719 15.141 176.922 15.297 177.062 15.297C177.344 15.297 177.562 15.141 178.078 14.625C179.186 13.2734 180.092 11.7676 180.766 10.155C180.835 9.9613 180.965 9.79546 181.137 9.68279C181.309 9.57012 181.513 9.51681 181.719 9.531H183.907C184.562 9.531 184.702 9.8595 184.562 10.3275C183.767 12.1101 182.782 13.8023 181.625 15.375C181.39 15.735 181.295 15.9225 181.625 16.344C181.843 16.6725 182.609 17.313 183.125 17.922C183.875 18.67 184.498 19.5353 184.969 20.484C185.156 21.093 184.843 21.405 184.219 21.405Z" fill="#ACACAC"/>
<path fill-rule="evenodd" clip-rule="evenodd" d="M206 40C202.686 40 200 42.6863 200 46V64C200 67.3137 202.686 70 206 70H224C227.314 70 230 67.3137 230 64V46C230 42.6863 227.314 40 224 40H206ZM218.334 55.4511C219.277 54.722 219.987 55.154 220.238 55.6671C220.687 56.5672 220.184 57.0083 219.044 57.7374C218.074 58.3584 216.753 58.6015 215.9 58.6825L216.609 59.4116L219.286 62.0939C219.699 62.508 219.699 63.165 219.286 63.5521L219.169 63.6961C218.756 64.1012 218.1 64.1012 217.696 63.6961L217.696 63.696C217.013 63.0119 216.034 62.0308 215.002 61.0138L212.334 63.6961C211.93 64.1012 211.265 64.1012 210.861 63.6961L210.735 63.5521C210.331 63.165 210.331 62.508 210.735 62.0939C211.395 61.4239 212.356 60.4688 213.358 59.4741L213.421 59.4116L214.139 58.6915C213.277 58.6015 211.939 58.3674 210.959 57.7374C209.819 57.0083 209.316 56.5672 209.765 55.6671C210.016 55.154 210.726 54.722 211.669 55.4511C212.954 56.4772 215.002 56.4772 215.002 56.4772C215.002 56.4772 217.05 56.4772 218.334 55.4511ZM217.247 50.5545C217.247 49.3213 216.241 48.3132 215.002 48.3132C213.762 48.3132 212.756 49.3213 212.756 50.5545C212.756 51.7966 213.762 52.7957 215.002 52.7957C216.241 52.7957 217.247 51.7966 217.247 50.5545ZM219.547 50.5545C219.547 53.0748 217.517 55.109 215.002 55.109C212.486 55.109 210.456 53.0748 210.456 50.5545C210.456 49.3465 210.935 48.188 211.788 47.3339C212.64 46.4797 213.796 45.9999 215.002 45.9999C216.207 45.9999 217.363 46.4797 218.215 47.3339C219.068 48.188 219.547 49.3465 219.547 50.5545Z" fill="#ACACAC"/>
<path fill-rule="evenodd" clip-rule="evenodd" d="M160 46C160 42.6863 162.686 40 166 40H184C187.314 40 190 42.6863 190 46V64C190 67.3137 187.314 70 184 70H166C162.686 70 160 67.3137 160 64V46ZM165.699 47.2001C165.699 46.3717 166.371 45.7001 167.199 45.7001H168.699H171.699C172.097 45.7001 172.479 45.8582 172.76 46.1395L179.5 52.8796V48.7001H179.199C178.371 48.7001 177.699 48.0286 177.699 47.2001C177.699 46.3717 178.371 45.7001 179.199 45.7001H181H182.199C183.028 45.7001 183.699 46.3717 183.699 47.2001C183.699 47.9255 183.184 48.5307 182.5 48.67V62.2001C182.5 63.0286 181.828 63.7001 181 63.7001H179.5C179.102 63.7001 178.721 63.5421 178.439 63.2608L170.199 55.0207V60.7001C171.028 60.7001 171.699 61.3717 171.699 62.2001C171.699 63.0286 171.028 63.7001 170.199 63.7001H168.699H167.199C166.371 63.7001 165.699 63.0286 165.699 62.2001C165.699 61.3717 166.371 60.7001 167.199 60.7001V48.7001C166.371 48.7001 165.699 48.0286 165.699 47.2001ZM170.199 50.778L179.5 60.0788V57.1222L171.078 48.7001H170.199V50.778Z" fill="#ACACAC"/>
<path d="M206.757 0.0168006C206.645 0.0308475 206.267 0.0800118 205.916 0.122153C204.31 0.311786 203.09 0.873664 202.039 1.89909C200.994 2.91047 200.44 4.01316 200.153 5.62855C200.055 6.17638 200.033 7.32823 200.012 14.3728C199.977 23.0749 199.998 23.8685 200.314 25.1187C200.875 27.3451 202.565 29.0729 204.759 29.6699C205.958 30 206.056 30 214.996 30C223.935 30 224.033 30 225.232 29.6699C227.343 29.094 229.004 27.4645 229.614 25.3505C229.979 24.1143 230 23.5103 230 15.0049C230 6.49946 229.979 5.89545 229.614 4.65932C229.299 3.57068 228.773 2.69274 227.953 1.89909C226.964 0.929852 225.884 0.410115 224.321 0.1362C223.725 0.0308475 222.736 0.0168006 215.311 0.00275362C210.726 -0.00426985 206.877 0.00275362 206.757 0.0168006ZM211.714 8.97875C212.107 9.09113 212.647 9.59682 212.787 9.98311C213.082 10.7416 212.773 11.6617 212.093 12.0831C211.665 12.35 211.013 12.4132 210.544 12.2306C210.158 12.0901 209.653 11.5493 209.541 11.156C209.134 9.80752 210.368 8.57139 211.714 8.97875ZM219.35 9.0841C220.458 9.653 220.647 11.0998 219.721 11.9146C219.357 12.2306 219.069 12.336 218.557 12.336C217.618 12.336 216.882 11.5985 216.882 10.6574C216.875 9.32992 218.179 8.49413 219.35 9.0841ZM208.594 15.1173C209.064 15.342 209.324 15.8828 209.218 16.4307C209.19 16.5711 209.05 16.8169 208.889 16.9996C208.545 17.3858 208.538 17.3578 209.338 17.9547C210.473 18.8046 212.037 19.4578 213.488 19.6825C214.862 19.8932 216.538 19.7457 217.87 19.2892C218.894 18.938 220.282 18.1444 220.948 17.5263L221.18 17.3086L220.934 17.0557C220.647 16.7608 220.535 16.5079 220.535 16.1567C220.535 15.5597 220.976 15.0821 221.586 15.0189C222.098 14.9698 222.351 15.1594 223.851 16.6765C225.429 18.2848 225.548 18.5026 225.239 19.1909C225.078 19.5491 224.748 19.7879 224.356 19.83C223.914 19.8862 223.627 19.7528 223.199 19.3313L222.827 18.9451L222.435 19.2962C221.874 19.8019 220.696 20.5745 219.953 20.9327C218.109 21.8177 216.482 22.1548 214.407 22.0775C211.827 21.9862 209.527 21.1153 207.508 19.4718L206.926 18.9942L206.519 19.3805C206.239 19.6544 206.035 19.7879 205.853 19.816C205.285 19.9283 204.794 19.7036 204.549 19.219C204.381 18.8889 204.374 18.6009 204.521 18.2497C204.647 17.9407 207.192 15.342 207.564 15.1454C207.872 14.9768 208.272 14.9698 208.594 15.1173Z" fill="#ACACAC"/>
<path d="M15 120C19.0755 120 19.584 120.015 21.183 120.09C22.7805 120.165 23.868 120.416 24.825 120.788C25.815 121.169 26.649 121.685 27.483 122.517C28.2457 123.267 28.8359 124.174 29.2125 125.175C29.583 126.131 29.835 127.22 29.91 128.817C29.9805 130.416 30 130.925 30 135C30 139.076 29.985 139.584 29.91 141.183C29.835 142.781 29.583 143.868 29.2125 144.825C28.837 145.827 28.2467 146.734 27.483 147.483C26.7329 148.245 25.826 148.836 24.825 149.213C23.8695 149.583 22.7805 149.835 21.183 149.91C19.584 149.981 19.0755 150 15 150C10.9245 150 10.416 149.985 8.817 149.91C7.2195 149.835 6.132 149.583 5.175 149.213C4.17349 148.837 3.26629 148.246 2.517 147.483C1.75411 146.733 1.1639 145.826 0.7875 144.825C0.4155 143.87 0.165 142.781 0.0899999 141.183C0.0194999 139.584 0 139.076 0 135C0 130.925 0.0149999 130.416 0.0899999 128.817C0.165 127.218 0.4155 126.132 0.7875 125.175C1.16285 124.173 1.75321 123.266 2.517 122.517C3.26651 121.754 4.17364 121.164 5.175 120.788C6.132 120.416 7.218 120.165 8.817 120.09C10.416 120.019 10.9245 120 15 120ZM15 127.5C13.0109 127.5 11.1032 128.29 9.6967 129.697C8.29018 131.103 7.5 133.011 7.5 135C7.5 136.989 8.29018 138.897 9.6967 140.303C11.1032 141.71 13.0109 142.5 15 142.5C16.9891 142.5 18.8968 141.71 20.3033 140.303C21.7098 138.897 22.5 136.989 22.5 135C22.5 133.011 21.7098 131.103 20.3033 129.697C18.8968 128.29 16.9891 127.5 15 127.5ZM24.75 127.125C24.75 126.628 24.5525 126.151 24.2008 125.799C23.8492 125.448 23.3723 125.25 22.875 125.25C22.3777 125.25 21.9008 125.448 21.5492 125.799C21.1975 126.151 21 126.628 21 127.125C21 127.622 21.1975 128.099 21.5492 128.451C21.9008 128.802 22.3777 129 22.875 129C23.3723 129 23.8492 128.802 24.2008 128.451C24.5525 128.099 24.75 127.622 24.75 127.125ZM15 130.5C16.1935 130.5 17.3381 130.974 18.182 131.818C19.0259 132.662 19.5 133.807 19.5 135C19.5 136.193 19.0259 137.338 18.182 138.182C17.3381 139.026 16.1935 139.5 15 139.5C13.8065 139.5 12.6619 139.026 11.818 138.182C10.9741 137.338 10.5 136.193 10.5 135C10.5 133.807 10.9741 132.662 11.818 131.818C12.6619 130.974 13.8065 130.5 15 130.5Z" fill="#0172AA"/>
<path d="M55 80C46.72 80 40 86.72 40 95C40 103.28 46.72 110 55 110C63.28 110 70 103.28 70 95C70 86.72 63.28 80 55 80ZM61.96 90.2C61.735 92.57 60.76 98.33 60.265 100.985C60.055 102.11 59.635 102.485 59.245 102.53C58.375 102.605 57.715 101.96 56.875 101.405C55.555 100.535 54.805 99.995 53.53 99.155C52.045 98.18 53.005 97.64 53.86 96.77C54.085 96.545 57.925 93.05 58 92.735C58.0104 92.6873 58.009 92.6378 57.996 92.5907C57.9829 92.5437 57.9585 92.5005 57.925 92.465C57.835 92.39 57.715 92.42 57.61 92.435C57.475 92.465 55.375 93.86 51.28 96.62C50.68 97.025 50.14 97.235 49.66 97.22C49.12 97.205 48.1 96.92 47.335 96.665C46.39 96.365 45.655 96.2 45.715 95.675C45.745 95.405 46.12 95.135 46.825 94.85C51.205 92.945 54.115 91.685 55.57 91.085C59.74 89.345 60.595 89.045 61.165 89.045C61.285 89.045 61.57 89.075 61.75 89.225C61.9 89.345 61.945 89.51 61.96 89.63C61.945 89.72 61.975 89.99 61.96 90.2Z" fill="#0172AA"/>
<path d="M67 124H43C41.35 124 40.015 125.237 40.015 126.75L40 143.25C40 144.763 41.35 146 43 146H67C68.65 146 70 144.763 70 143.25V126.75C70 125.237 68.65 124 67 124ZM66.4 129.844L55.795 135.921C55.315 136.196 54.685 136.196 54.205 135.921L43.6 129.844C43.4496 129.766 43.3179 129.662 43.2128 129.536C43.1078 129.411 43.0316 129.267 42.9889 129.114C42.9461 128.961 42.9378 128.801 42.9642 128.645C42.9907 128.489 43.0515 128.339 43.1429 128.205C43.2343 128.071 43.3545 127.955 43.4961 127.865C43.6377 127.775 43.7978 127.712 43.9667 127.68C44.1357 127.648 44.3099 127.648 44.4789 127.679C44.6479 127.711 44.8082 127.774 44.95 127.864L55 133.625L65.05 127.864C65.1918 127.774 65.3521 127.711 65.5211 127.679C65.6901 127.648 65.8643 127.648 66.0333 127.68C66.2022 127.712 66.3623 127.775 66.5039 127.865C66.6455 127.955 66.7657 128.071 66.8571 128.205C66.9485 128.339 67.0093 128.489 67.0358 128.645C67.0622 128.801 67.0539 128.961 67.0111 129.114C66.9684 129.267 66.8922 129.411 66.7872 129.536C66.6821 129.662 66.5504 129.766 66.4 129.844Z" fill="#0172AA"/>
<path d="M80.006 110L82.034 102.548C80.6977 100.257 79.9957 97.652 80 95C80 86.7155 86.7155 80 95 80C103.285 80 110 86.7155 110 95C110 103.284 103.285 110 95 110C92.3492 110.004 89.745 109.303 87.455 107.967L80.006 110ZM89.5865 87.962C89.3928 87.974 89.2035 88.025 89.03 88.112C88.8673 88.2041 88.7188 88.3193 88.589 88.454C88.409 88.6235 88.307 88.7705 88.1975 88.913C87.6431 89.6345 87.3449 90.5201 87.35 91.43C87.353 92.165 87.545 92.8805 87.845 93.5495C88.4585 94.9025 89.468 96.335 90.8015 97.6625C91.1225 97.982 91.436 98.303 91.7735 98.6015C93.4286 100.059 95.4009 101.11 97.5335 101.67L98.387 101.801C98.6645 101.816 98.942 101.795 99.221 101.781C99.6579 101.759 100.084 101.641 100.471 101.435C100.667 101.334 100.859 101.224 101.045 101.105C101.045 101.105 101.11 101.063 101.233 100.97C101.435 100.82 101.56 100.713 101.728 100.538C101.852 100.409 101.96 100.257 102.043 100.085C102.16 99.8405 102.277 99.374 102.325 98.9855C102.361 98.6885 102.35 98.5265 102.346 98.426C102.34 98.2655 102.206 98.099 102.061 98.0285L101.188 97.637C101.188 97.637 99.8825 97.0685 99.086 96.7055C99.002 96.6689 98.912 96.648 98.8205 96.644C98.7179 96.6334 98.6142 96.645 98.5164 96.6779C98.4186 96.7107 98.329 96.7641 98.2535 96.8345V96.8315C98.246 96.8315 98.1455 96.917 97.061 98.231C96.9988 98.3146 96.913 98.3778 96.8147 98.4126C96.7164 98.4473 96.61 98.452 96.509 98.426C96.4113 98.3999 96.3155 98.3668 96.2225 98.327C96.0365 98.249 95.972 98.219 95.8445 98.1635L95.837 98.1605C94.9789 97.7858 94.1843 97.2798 93.482 96.6605C93.293 96.4955 93.1175 96.3155 92.9375 96.1415C92.3474 95.5763 91.8331 94.937 91.4075 94.2395L91.319 94.097C91.2554 94.0012 91.2041 93.8979 91.166 93.7895C91.109 93.569 91.2575 93.392 91.2575 93.392C91.2575 93.392 91.622 92.993 91.7915 92.777C91.9326 92.5975 92.0643 92.4107 92.186 92.2175C92.363 91.9325 92.4185 91.64 92.3255 91.4135C91.9055 90.3875 91.4705 89.366 91.0235 88.352C90.935 88.151 90.6725 88.007 90.434 87.9785C90.353 87.9695 90.272 87.9605 90.191 87.9545C89.9896 87.9445 89.7877 87.948 89.5865 87.962Z" fill="#0172AA"/>
<path d="M95 120C86.7165 120 80 126.717 80 135C80 143.283 86.7165 150 95 150C103.283 150 110 143.283 110 135C110 126.717 103.283 120 95 120ZM102.209 131.307C102.219 131.464 102.219 131.628 102.219 131.789C102.219 136.704 98.4754 142.366 91.635 142.366C89.5257 142.366 87.5703 141.753 85.923 140.699C86.2243 140.732 86.5123 140.746 86.8203 140.746C88.5614 140.746 90.1618 140.156 91.4375 139.158C89.8036 139.125 88.4308 138.054 87.9621 136.58C88.5346 136.664 89.0502 136.664 89.6395 136.513C88.7982 136.342 88.042 135.886 87.4994 135.22C86.9568 134.555 86.6612 133.722 86.6629 132.864V132.817C87.1551 133.095 87.7344 133.266 88.3404 133.289C87.8309 132.95 87.4131 132.49 87.124 131.95C86.8349 131.41 86.6834 130.808 86.683 130.195C86.683 129.502 86.8638 128.869 87.1886 128.32C88.1224 129.47 89.2877 130.41 90.6087 131.08C91.9297 131.75 93.3768 132.134 94.856 132.208C94.3304 129.68 96.2187 127.634 98.4888 127.634C99.5603 127.634 100.525 128.083 101.204 128.806C102.045 128.648 102.848 128.334 103.565 127.912C103.287 128.772 102.704 129.499 101.931 129.958C102.681 129.877 103.404 129.67 104.074 129.378C103.568 130.122 102.935 130.781 102.209 131.307Z" fill="#0172AA"/>
<path d="M146.667 80C147.551 80 148.399 80.3512 149.024 80.9763C149.649 81.6014 150 82.4493 150 83.3333V106.667C150 107.551 149.649 108.399 149.024 109.024C148.399 109.649 147.551 110 146.667 110H123.333C122.449 110 121.601 109.649 120.976 109.024C120.351 108.399 120 107.551 120 106.667V83.3333C120 82.4493 120.351 81.6014 120.976 80.9763C121.601 80.3512 122.449 80 123.333 80H146.667ZM145.833 105.833V97C145.833 95.559 145.261 94.177 144.242 93.1581C143.223 92.1391 141.841 91.5667 140.4 91.5667C138.983 91.5667 137.333 92.4333 136.533 93.7333V91.8833H131.883V105.833H136.533V97.6167C136.533 96.3333 137.567 95.2833 138.85 95.2833C139.469 95.2833 140.062 95.5292 140.5 95.9668C140.938 96.4043 141.183 96.9978 141.183 97.6167V105.833H145.833ZM126.467 89.2667C127.209 89.2667 127.921 88.9717 128.447 88.4466C128.972 87.9215 129.267 87.2093 129.267 86.4667C129.267 84.9167 128.017 83.65 126.467 83.65C125.72 83.65 125.003 83.9468 124.475 84.475C123.947 85.0032 123.65 85.7196 123.65 86.4667C123.65 88.0167 124.917 89.2667 126.467 89.2667ZM128.783 105.833V91.8833H124.167V105.833H128.783Z" fill="#0172AA"/>
<path d="M149.314 127.435C150 129.885 150 135 150 135C150 135 150 140.115 149.314 142.565C148.933 143.92 147.819 144.985 146.407 145.346C143.844 146 135 146 135 146C135 146 126.16 146 123.592 145.346C122.175 144.98 121.062 143.916 120.686 142.565C120 140.115 120 135 120 135C120 135 120 129.885 120.686 127.435C121.067 126.08 122.181 125.015 123.592 124.654C126.16 124 135 124 135 124C135 124 143.844 124 146.407 124.654C147.825 125.02 148.938 126.085 149.314 127.435ZM132 139.812L141 135L132 130.188V139.812Z" fill="#0172AA"/>
<path d="M270.942 17.506C271.096 16.66 271.179 15.7952 271.179 14.9304C271.179 13.0129 270.804 11.1518 270.065 9.40343C269.352 7.71149 268.328 6.19251 267.027 4.88783C265.736 3.59076 264.206 2.55767 262.523 1.8461C260.775 1.1054 258.922 0.729414 257.009 0.729414C256.109 0.729414 255.205 0.815892 254.328 0.985086C253.113 0.339979 251.76 0.00182803 250.386 0C248.147 0 246.039 0.87605 244.457 2.46271C243.676 3.24164 243.056 4.16804 242.635 5.18836C242.213 6.20867 241.997 7.30266 242 8.40707C242 9.83582 242.368 11.242 243.054 12.4828C242.915 13.2874 242.84 14.1108 242.84 14.9304C242.84 16.848 243.215 18.7091 243.954 20.4574C244.667 22.1494 245.687 23.6684 246.988 24.9731C248.29 26.2777 249.805 27.3004 251.492 28.0148C253.24 28.7555 255.093 29.1315 257.006 29.1315C257.838 29.1315 258.671 29.0563 259.488 28.9096C260.745 29.6203 262.163 30 263.614 30C265.853 30 267.961 29.1277 269.543 27.5373C271.13 25.9506 272 23.8376 272 21.5929C272.004 20.1642 271.636 18.7542 270.942 17.506ZM267.638 25.6273C266.562 26.7101 265.14 27.2967 263.618 27.2967C262.639 27.2967 261.675 27.041 260.82 26.556L259.976 26.0785L259.02 26.2476C258.352 26.368 257.677 26.4281 257.009 26.4281C255.457 26.4281 253.96 26.1236 252.543 25.522C251.181 24.9467 249.955 24.1196 248.897 23.0593C247.85 22.0133 247.016 20.7734 246.441 19.4084C245.84 17.991 245.54 16.4908 245.54 14.9342C245.54 14.28 245.6 13.6107 245.713 12.949L245.878 12.0053L245.413 11.1668C244.944 10.323 244.697 9.37309 244.697 8.40707C244.697 6.88056 245.285 5.45557 246.362 4.37649C247.442 3.29741 248.863 2.70711 250.386 2.70711C251.32 2.70963 252.239 2.94066 253.064 3.38012L253.904 3.82379L254.834 3.64331C255.543 3.50796 256.274 3.43652 257.009 3.43652C258.562 3.43652 260.059 3.74107 261.472 4.33889C262.841 4.91791 264.064 5.74508 265.118 6.8016C266.176 7.85813 267.001 9.0876 267.578 10.4562C268.178 11.8737 268.478 13.3739 268.478 14.9304C268.478 15.6223 268.415 16.3216 268.287 17.0172L268.111 17.9759L268.583 18.8257C269.056 19.6716 269.303 20.6304 269.303 21.5967C269.303 23.127 268.715 24.5482 267.638 25.6273ZM259.68 13.2799L256.364 12.5429C255.104 12.2534 253.653 11.8737 253.653 10.6818C253.653 9.48991 254.669 8.65522 256.507 8.65522C260.209 8.65522 259.871 11.2044 261.709 11.2044C262.676 11.2044 263.524 10.6329 263.524 9.65534C263.524 7.36934 259.871 5.65108 256.773 5.65108C253.409 5.65108 249.827 7.08359 249.827 10.8961C249.827 12.7309 250.48 14.6861 254.088 15.5922L258.566 16.7126C259.92 17.0472 260.261 17.8105 260.261 18.5023C260.261 19.6491 259.125 20.7695 257.066 20.7695C253.045 20.7695 253.604 17.6676 251.451 17.6676C250.484 17.6676 249.782 18.3369 249.782 19.2881C249.782 21.1455 252.033 23.627 257.066 23.627C261.855 23.627 264.229 21.3147 264.229 18.2128C264.229 16.2163 263.31 14.092 259.68 13.2799Z" fill="#ACACAC"/>
<path d="M270.942 97.506C271.096 96.66 271.179 95.7952 271.179 94.9304C271.179 93.0129 270.804 91.1518 270.065 89.4034C269.352 87.7115 268.328 86.1925 267.027 84.8878C265.736 83.5908 264.206 82.5577 262.523 81.8461C260.775 81.1054 258.922 80.7294 257.009 80.7294C256.109 80.7294 255.205 80.8159 254.328 80.9851C253.113 80.34 251.76 80.0018 250.386 80C248.147 80 246.039 80.876 244.457 82.4627C243.676 83.2416 243.056 84.168 242.635 85.1884C242.213 86.2087 241.997 87.3027 242 88.4071C242 89.8358 242.368 91.242 243.054 92.4828C242.915 93.2874 242.84 94.1108 242.84 94.9304C242.84 96.848 243.215 98.7091 243.954 100.457C244.667 102.149 245.687 103.668 246.988 104.973C248.29 106.278 249.805 107.3 251.492 108.015C253.24 108.755 255.093 109.131 257.006 109.131C257.838 109.131 258.671 109.056 259.488 108.91C260.745 109.62 262.163 110 263.614 110C265.853 110 267.961 109.128 269.543 107.537C271.13 105.951 272 103.838 272 101.593C272.004 100.164 271.636 98.7542 270.942 97.506ZM267.638 105.627C266.562 106.71 265.14 107.297 263.618 107.297C262.639 107.297 261.675 107.041 260.82 106.556L259.976 106.078L259.02 106.248C258.352 106.368 257.677 106.428 257.009 106.428C255.457 106.428 253.96 106.124 252.543 105.522C251.181 104.947 249.955 104.12 248.897 103.059C247.85 102.013 247.016 100.773 246.441 99.4084C245.84 97.991 245.54 96.4908 245.54 94.9342C245.54 94.28 245.6 93.6107 245.713 92.949L245.878 92.0053L245.413 91.1668C244.944 90.323 244.697 89.3731 244.697 88.4071C244.697 86.8806 245.285 85.4556 246.362 84.3765C247.442 83.2974 248.863 82.7071 250.386 82.7071C251.32 82.7096 252.239 82.9407 253.064 83.3801L253.904 83.8238L254.834 83.6433C255.543 83.508 256.274 83.4365 257.009 83.4365C258.562 83.4365 260.059 83.7411 261.472 84.3389C262.841 84.9179 264.064 85.7451 265.118 86.8016C266.176 87.8581 267.001 89.0876 267.578 90.4562C268.178 91.8737 268.478 93.3739 268.478 94.9304C268.478 95.6223 268.415 96.3216 268.287 97.0172L268.111 97.9759L268.583 98.8257C269.056 99.6716 269.303 100.63 269.303 101.597C269.303 103.127 268.715 104.548 267.638 105.627ZM259.68 93.2799L256.364 92.5429C255.104 92.2534 253.653 91.8737 253.653 90.6818C253.653 89.4899 254.669 88.6552 256.507 88.6552C260.209 88.6552 259.871 91.2044 261.709 91.2044C262.676 91.2044 263.524 90.6329 263.524 89.6553C263.524 87.3693 259.871 85.6511 256.773 85.6511C253.409 85.6511 249.827 87.0836 249.827 90.8961C249.827 92.7309 250.48 94.6861 254.088 95.5922L258.566 96.7126C259.92 97.0472 260.261 97.8105 260.261 98.5023C260.261 99.6491 259.125 100.77 257.066 100.77C253.045 100.77 253.604 97.6676 251.451 97.6676C250.484 97.6676 249.782 98.3369 249.782 99.2881C249.782 101.146 252.033 103.627 257.066 103.627C261.855 103.627 264.229 101.315 264.229 98.2128C264.229 96.2163 263.31 94.092 259.68 93.2799Z" fill="#0172AA"/>
<path d="M179.609 80H170.406C162 80 160 81.9995 160 90.3905V99.5945C160 107.999 161.984 110 170.391 110H179.594C187.999 110 190 108.016 190 99.6095V90.4055C190 81.9995 188.016 80 179.609 80ZM184.219 101.405H182.031C181.203 101.405 180.954 100.735 179.469 99.2495C178.173 98 177.625 97.844 177.297 97.844C176.844 97.844 176.719 97.9685 176.719 98.594V100.562C176.719 101.095 176.547 101.406 175.156 101.406C173.807 101.316 172.498 100.906 171.338 100.21C170.178 99.5148 169.2 98.5536 168.484 97.406C166.785 95.291 165.602 92.8087 165.031 90.1565C165.031 89.828 165.156 89.531 165.781 89.531H167.968C168.53 89.531 168.733 89.7815 168.953 90.359C170.015 93.485 171.827 96.203 172.562 96.203C172.844 96.203 172.968 96.0785 172.968 95.375V92.156C172.875 90.6875 172.094 90.563 172.094 90.032C172.105 89.8919 172.169 89.7613 172.273 89.6678C172.378 89.5742 172.515 89.5252 172.656 89.531H176.094C176.563 89.531 176.719 89.765 176.719 90.3275V94.6715C176.719 95.141 176.922 95.297 177.062 95.297C177.344 95.297 177.562 95.141 178.078 94.625C179.186 93.2734 180.092 91.7676 180.766 90.155C180.835 89.9613 180.965 89.7955 181.137 89.6828C181.309 89.5701 181.513 89.5168 181.719 89.531H183.907C184.562 89.531 184.702 89.8595 184.562 90.3275C183.767 92.1101 182.782 93.8023 181.625 95.375C181.39 95.735 181.295 95.9225 181.625 96.344C181.843 96.6725 182.609 97.313 183.125 97.922C183.875 98.67 184.498 99.5353 184.969 100.484C185.156 101.093 184.843 101.405 184.219 101.405Z" fill="#0172AA"/>
<path fill-rule="evenodd" clip-rule="evenodd" d="M206 120C202.686 120 200 122.686 200 126V144C200 147.314 202.686 150 206 150H224C227.314 150 230 147.314 230 144V126C230 122.686 227.314 120 224 120H206ZM218.334 135.451C219.277 134.722 219.987 135.154 220.238 135.667C220.687 136.567 220.184 137.008 219.044 137.737C218.074 138.358 216.753 138.601 215.9 138.682L216.609 139.412L219.286 142.094C219.699 142.508 219.699 143.165 219.286 143.552L219.169 143.696C218.756 144.101 218.1 144.101 217.696 143.696L217.696 143.696C217.013 143.012 216.034 142.031 215.002 141.014L212.334 143.696C211.93 144.101 211.265 144.101 210.861 143.696L210.735 143.552C210.331 143.165 210.331 142.508 210.735 142.094C211.395 141.424 212.356 140.469 213.358 139.474L213.421 139.412L214.139 138.691C213.277 138.601 211.939 138.367 210.959 137.737C209.819 137.008 209.316 136.567 209.765 135.667C210.016 135.154 210.726 134.722 211.669 135.451C212.954 136.477 215.002 136.477 215.002 136.477C215.002 136.477 217.05 136.477 218.334 135.451ZM217.247 130.554C217.247 129.321 216.241 128.313 215.002 128.313C213.762 128.313 212.756 129.321 212.756 130.554C212.756 131.797 213.762 132.796 215.002 132.796C216.241 132.796 217.247 131.797 217.247 130.554ZM219.547 130.554C219.547 133.075 217.517 135.109 215.002 135.109C212.486 135.109 210.456 133.075 210.456 130.554C210.456 129.347 210.935 128.188 211.788 127.334C212.64 126.48 213.796 126 215.002 126C216.207 126 217.363 126.48 218.215 127.334C219.068 128.188 219.547 129.347 219.547 130.554Z" fill="#0172AA"/>
<path fill-rule="evenodd" clip-rule="evenodd" d="M160 126C160 122.686 162.686 120 166 120H184C187.314 120 190 122.686 190 126V144C190 147.314 187.314 150 184 150H166C162.686 150 160 147.314 160 144V126ZM165.699 127.2C165.699 126.372 166.371 125.7 167.199 125.7H168.699H171.699C172.097 125.7 172.479 125.858 172.76 126.139L179.5 132.88V128.7H179.199C178.371 128.7 177.699 128.029 177.699 127.2C177.699 126.372 178.371 125.7 179.199 125.7H181H182.199C183.028 125.7 183.699 126.372 183.699 127.2C183.699 127.926 183.184 128.531 182.5 128.67V142.2C182.5 143.029 181.828 143.7 181 143.7H179.5C179.102 143.7 178.721 143.542 178.439 143.261L170.199 135.021V140.7C171.028 140.7 171.699 141.372 171.699 142.2C171.699 143.029 171.028 143.7 170.199 143.7H168.699H167.199C166.371 143.7 165.699 143.029 165.699 142.2C165.699 141.372 166.371 140.7 167.199 140.7V128.7C166.371 128.7 165.699 128.029 165.699 127.2ZM170.199 130.778L179.5 140.079V137.122L171.078 128.7H170.199V130.778Z" fill="#0172AA"/>
<path d="M206.757 80.0168C206.645 80.0308 206.267 80.08 205.916 80.1222C204.31 80.3118 203.09 80.8737 202.039 81.8991C200.994 82.9105 200.44 84.0132 200.153 85.6286C200.055 86.1764 200.033 87.3282 200.012 94.3728C199.977 103.075 199.998 103.869 200.314 105.119C200.875 107.345 202.565 109.073 204.759 109.67C205.958 110 206.056 110 214.996 110C223.935 110 224.033 110 225.232 109.67C227.343 109.094 229.004 107.465 229.614 105.35C229.979 104.114 230 103.51 230 95.0049C230 86.4995 229.979 85.8954 229.614 84.6593C229.299 83.5707 228.773 82.6927 227.953 81.8991C226.964 80.9299 225.884 80.4101 224.321 80.1362C223.725 80.0308 222.736 80.0168 215.311 80.0028C210.726 79.9957 206.877 80.0028 206.757 80.0168ZM211.714 88.9788C212.107 89.0911 212.647 89.5968 212.787 89.9831C213.082 90.7416 212.773 91.6617 212.093 92.0831C211.665 92.35 211.013 92.4132 210.544 92.2306C210.158 92.0901 209.653 91.5493 209.541 91.156C209.134 89.8075 210.368 88.5714 211.714 88.9788ZM219.35 89.0841C220.458 89.653 220.647 91.0998 219.721 91.9146C219.357 92.2306 219.069 92.336 218.557 92.336C217.618 92.336 216.882 91.5985 216.882 90.6574C216.875 89.3299 218.179 88.4941 219.35 89.0841ZM208.594 95.1173C209.064 95.342 209.324 95.8828 209.218 96.4307C209.19 96.5711 209.05 96.8169 208.889 96.9996C208.545 97.3858 208.538 97.3578 209.338 97.9547C210.473 98.8046 212.037 99.4578 213.488 99.6825C214.862 99.8932 216.538 99.7457 217.87 99.2892C218.894 98.938 220.282 98.1444 220.948 97.5263L221.18 97.3086L220.934 97.0557C220.647 96.7608 220.535 96.5079 220.535 96.1567C220.535 95.5597 220.976 95.0821 221.586 95.0189C222.098 94.9698 222.351 95.1594 223.851 96.6765C225.429 98.2848 225.548 98.5026 225.239 99.1909C225.078 99.5491 224.748 99.7879 224.356 99.83C223.914 99.8862 223.627 99.7528 223.199 99.3313L222.827 98.9451L222.435 99.2962C221.874 99.8019 220.696 100.575 219.953 100.933C218.109 101.818 216.482 102.155 214.407 102.078C211.827 101.986 209.527 101.115 207.508 99.4718L206.926 98.9942L206.519 99.3805C206.239 99.6544 206.035 99.7879 205.853 99.816C205.285 99.9283 204.794 99.7036 204.549 99.219C204.381 98.8889 204.374 98.6009 204.521 98.2497C204.647 97.9407 207.192 95.342 207.564 95.1454C207.872 94.9768 208.272 94.9698 208.594 95.1173Z" fill="#0172AA"/>
<path d="M15 80C13.0302 80 11.0796 80.3976 9.25975 81.1702C7.43986 81.9427 5.78628 83.075 4.3934 84.5025C1.58035 87.3854 0 91.2954 0 95.3724C0 102.167 4.305 107.932 10.26 109.976C11.01 110.099 11.25 109.623 11.25 109.208V106.61C7.095 107.532 6.21 104.55 6.21 104.55C5.52 102.767 4.545 102.29 4.545 102.29C3.18 101.337 4.65 101.368 4.65 101.368C6.15 101.475 6.945 102.951 6.945 102.951C8.25 105.288 10.455 104.596 11.31 104.227C11.445 103.228 11.835 102.551 12.255 102.167C8.925 101.783 5.43 100.461 5.43 94.6038C5.43 92.8974 6 91.5293 6.975 90.4379C6.825 90.0536 6.3 88.4548 7.125 86.3795C7.125 86.3795 8.385 85.9645 11.25 87.9475C12.435 87.6093 13.725 87.4402 15 87.4402C16.275 87.4402 17.565 87.6093 18.75 87.9475C21.615 85.9645 22.875 86.3795 22.875 86.3795C23.7 88.4548 23.175 90.0536 23.025 90.4379C24 91.5293 24.57 92.8974 24.57 94.6038C24.57 100.476 21.06 101.767 17.715 102.152C18.255 102.628 18.75 103.566 18.75 104.996V109.208C18.75 109.623 18.99 110.115 19.755 109.976C25.71 107.916 30 102.167 30 95.3724C30 93.3537 29.612 91.3547 28.8582 89.4896C28.1044 87.6246 26.9995 85.9299 25.6066 84.5025C24.2137 83.075 22.5601 81.9427 20.7403 81.1702C18.9204 80.3976 16.9698 80 15 80Z" fill="#A2A2A2"/>
<path d="M15 80C13.0302 80 11.0796 80.3976 9.25975 81.1702C7.43986 81.9427 5.78628 83.075 4.3934 84.5025C1.58035 87.3854 0 91.2954 0 95.3724C0 102.167 4.305 107.932 10.26 109.976C11.01 110.099 11.25 109.623 11.25 109.208V106.61C7.095 107.532 6.21 104.55 6.21 104.55C5.52 102.767 4.545 102.29 4.545 102.29C3.18 101.337 4.65 101.368 4.65 101.368C6.15 101.475 6.945 102.951 6.945 102.951C8.25 105.288 10.455 104.596 11.31 104.227C11.445 103.228 11.835 102.551 12.255 102.167C8.925 101.783 5.43 100.461 5.43 94.6038C5.43 92.8974 6 91.5293 6.975 90.4379C6.825 90.0536 6.3 88.4548 7.125 86.3795C7.125 86.3795 8.385 85.9645 11.25 87.9475C12.435 87.6093 13.725 87.4402 15 87.4402C16.275 87.4402 17.565 87.6093 18.75 87.9475C21.615 85.9645 22.875 86.3795 22.875 86.3795C23.7 88.4548 23.175 90.0536 23.025 90.4379C24 91.5293 24.57 92.8974 24.57 94.6038C24.57 100.476 21.06 101.767 17.715 102.152C18.255 102.628 18.75 103.566 18.75 104.996V109.208C18.75 109.623 18.99 110.115 19.755 109.976C25.71 107.916 30 102.167 30 95.3724C30 93.3537 29.612 91.3547 28.8582 89.4896C28.1044 87.6246 26.9995 85.9299 25.6066 84.5025C24.2137 83.075 22.5601 81.9427 20.7403 81.1702C18.9204 80.3976 16.9698 80 15 80Z" fill="#0172AA"/>
</svg>
