<svg width="77" height="74" viewBox="0 0 77 74" fill="none" xmlns="http://www.w3.org/2000/svg">
<path d="M29.5773 3.6004C19.3021 2.16211 9.66543 9.01851 8.01365 18.9429L3.47898 46.1884C1.8272 56.1128 8.79474 65.2937 19.0699 66.732L47.2781 70.6805C57.5532 72.1188 67.19 65.2621 68.8417 55.3377L73.3764 28.0922C75.0282 18.1678 68.0606 8.98719 57.7855 7.54891L29.5773 3.6004Z" fill="white"/>
<path d="M26.3373 9C16.748 9 9 16.3667 9 25.4844L9 50.5154C9 59.633 16.748 67 26.3373 67L52.6627 67C62.252 67 70 59.633 70 50.5154V25.4844C70 16.3667 62.252 9 52.6627 9L26.3373 9Z" fill="#0172AA"/>
<path d="M57.921 44.3044L51.4983 21.6682C51.4983 21.6682 51.0247 19.9979 49.2118 20L21.418 20.0281C21.418 20.0281 19.6051 20.0295 20.079 21.7002L26.1113 42.9611C28.8343 37.4529 31.9028 31.2658 32.1283 30.8099L32.2894 30.4854L40.6093 30.478L40.2101 31.2693C37.9301 35.7892 34.9652 41.7263 32.8822 46L56.5816 45.9765C56.5816 45.9765 58.3949 45.974 57.921 44.3044Z" fill="white"/>
<path d="M38.895 32L33.2623 32.0053C29.8102 39.039 23.4847 51.9467 23.2315 52.54C22.6265 53.9569 23.3629 54.7447 23.676 55H45L44.2883 53.3013H30.9505C30.9338 53.302 30.9099 53.3031 30.8807 53.3031C30.1261 53.3031 29.3631 52.8774 29.36 51.9262C29.3593 51.7038 29.3585 51.3679 34.3513 41.1878C36.2151 37.3888 38.0971 33.6029 38.895 32Z" fill="white"/>
</svg>
