<svg width="35" height="25" viewBox="0 0 35 25" fill="none" xmlns="http://www.w3.org/2000/svg">
<path d="M31.5 0H3.5C1.575 0 0.0175 1.40625 0.0175 3.125L0 21.875C0 23.5938 1.575 25 3.5 25H31.5C33.425 25 35 23.5938 35 21.875V3.125C35 1.40625 33.425 0 31.5 0ZM30.8 6.64062L18.4275 13.5469C17.8675 13.8594 17.1325 13.8594 16.5725 13.5469L4.2 6.64062C4.02452 6.55267 3.87086 6.43385 3.74831 6.29133C3.62575 6.14882 3.53686 5.98559 3.48701 5.81152C3.43716 5.63744 3.42738 5.45615 3.45827 5.2786C3.48917 5.10106 3.56009 4.93096 3.66674 4.7786C3.7734 4.62623 3.91357 4.49477 4.07877 4.39218C4.24397 4.28959 4.43077 4.21799 4.62787 4.18172C4.82496 4.14545 5.02825 4.14526 5.22542 4.18117C5.4226 4.21708 5.60956 4.28833 5.775 4.39062L17.5 10.9375L29.225 4.39062C29.3904 4.28833 29.5774 4.21708 29.7746 4.18117C29.9718 4.14526 30.175 4.14545 30.3721 4.18172C30.5692 4.21799 30.756 4.28959 30.9212 4.39218C31.0864 4.49477 31.2266 4.62623 31.3333 4.7786C31.4399 4.93096 31.5108 5.10106 31.5417 5.2786C31.5726 5.45615 31.5628 5.63744 31.513 5.81152C31.4631 5.98559 31.3743 6.14882 31.2517 6.29133C31.1291 6.43385 30.9755 6.55267 30.8 6.64062Z" fill="#0172AA"/>
</svg>
