<svg width="58" height="48" viewBox="0 0 58 48" fill="none" xmlns="http://www.w3.org/2000/svg">
<path d="M10.4502 38.0909H37.402C38.7496 38.0909 39.8522 37 39.8522 35.6667C39.8522 34.3333 38.7496 33.2424 37.402 33.2424H10.4502C9.10258 33.2424 8 34.3333 8 35.6667C8 37 9.10258 38.0909 10.4502 38.0909ZM10.4502 25.9697H30.0515C31.3991 25.9697 32.5017 24.8788 32.5017 23.5455C32.5017 22.2121 31.3991 21.1212 30.0515 21.1212H10.4502C9.10258 21.1212 8 22.2121 8 23.5455C8 24.8788 9.10258 25.9697 10.4502 25.9697ZM8 11.4242C8 12.7576 9.10258 13.8485 10.4502 13.8485H37.402C38.7496 13.8485 39.8522 12.7576 39.8522 11.4242C39.8522 10.0909 38.7496 9 37.402 9H10.4502C9.10258 9 8 10.0909 8 11.4242ZM50.3879 30.5273L43.3315 23.5455L50.3879 16.5636C50.6148 16.3392 50.7947 16.0727 50.9175 15.7795C51.0403 15.4863 51.1034 15.172 51.1034 14.8545C51.1034 14.5371 51.0403 14.2228 50.9175 13.9296C50.7947 13.6363 50.6148 13.3699 50.3879 13.1455C50.1611 12.921 49.8918 12.743 49.5954 12.6215C49.299 12.5 48.9814 12.4375 48.6606 12.4375C48.3398 12.4375 48.0221 12.5 47.7257 12.6215C47.4294 12.743 47.16 12.921 46.9332 13.1455L38.1371 21.8485C37.91 22.0728 37.7298 22.3392 37.6068 22.6324C37.4838 22.9257 37.4206 23.2401 37.4206 23.5576C37.4206 23.8751 37.4838 24.1895 37.6068 24.4827C37.7298 24.776 37.91 25.0424 38.1371 25.2667L46.9332 33.9697C47.8888 34.9152 49.4324 34.9152 50.3879 33.9697C51.319 33.0242 51.3435 31.4727 50.3879 30.5273Z" fill="#0172AA"/>
<rect x="2" y="2" width="54" height="44" rx="13" stroke="#0172AA" stroke-width="4"/>
</svg>
