<svg width="55" height="73" viewBox="0 0 55 73" fill="none" xmlns="http://www.w3.org/2000/svg">
<path d="M23.138 72.9532C16.2669 72.4606 9.47584 70.7407 5.31093 68.4381C2.93859 67.1266 1.1312 65.5148 0.421974 64.0783L0 63.2235V36.4138V9.60408L0.333905 8.92983C1.82607 5.91703 6.58826 3.20098 13.236 1.57131C15.4926 1.01808 18.7503 0.467146 21.408 0.18933C24.1218 -0.0944298 31.3151 -0.0512577 34.0222 0.265456C41.217 1.1061 47.3395 2.98809 51.1124 5.51899C52.5675 6.49499 54.0605 8.0567 54.5663 9.13167L55 10.0533L54.9629 36.7819L54.9258 63.5107L54.5776 64.214C54.3862 64.6008 53.8079 65.3619 53.2925 65.9051C50.1552 69.2125 43.4257 71.6591 34.5989 72.7016C32.7998 72.9141 24.9838 73.0855 23.138 72.9532ZM35.8002 49.9809C35.7737 49.9123 34.7466 49.0023 33.5176 47.9585C32.2886 46.9147 31.2301 46.0117 31.1654 45.9517C31.1007 45.8917 31.3278 45.6795 31.67 45.48C32.0123 45.2805 32.6679 44.7255 33.1271 44.2466C34.4698 42.8464 35.1034 41.1167 35.1034 38.851C35.1034 36.6206 34.4201 34.821 33.0515 33.4472C31.6723 32.0625 30.0886 31.4676 27.7823 31.4676C24.2274 31.4676 21.4972 33.5304 20.6258 36.8749C20.326 38.0252 20.3276 40.3497 20.6289 41.3698C21.4147 44.0304 23.555 45.9628 26.2188 46.4166C27.1202 46.5702 27.2422 46.6363 27.8568 47.3045C28.222 47.7016 28.9715 48.4943 29.5223 49.0659L30.5237 50.1054H33.186C34.6502 50.1054 35.8266 50.0494 35.8002 49.9809ZM26.6702 42.5678C26.0293 42.2354 25.787 41.9775 25.4215 41.2386C25.1392 40.6679 25.091 40.3433 25.0878 38.9944C25.0847 37.6238 25.1285 37.3276 25.4233 36.7325C25.9055 35.7586 26.57 35.2975 27.598 35.2236C29.0289 35.1203 29.8548 35.8188 30.2877 37.4971C30.8184 39.5549 30.2348 41.7426 28.9614 42.4687C28.2934 42.8496 27.2969 42.8927 26.6702 42.5678ZM14.8699 46.3874C17.6611 45.861 19.2456 44.2467 19.2456 41.9293C19.2456 39.8735 18.2226 38.6755 15.3954 37.4204C13.777 36.7018 13.1908 36.2508 13.1908 35.7239C13.1908 35.2871 13.7471 34.8085 14.3947 34.6883C15.0271 34.5709 16.7042 34.8605 17.6946 35.2584L18.5248 35.5919V33.7645V31.9369L17.6237 31.7381C17.0669 31.6152 15.8968 31.5415 14.5603 31.5453C12.6672 31.5453 12.2966 31.5911 11.5841 31.8725C9.50319 32.6941 8.51572 34.0936 8.53151 36.1988C8.54629 38.1696 9.59173 39.3989 12.1936 40.5048C13.7288 41.1573 14.3441 41.6542 14.3441 42.2414C14.3441 43.4892 12.2535 43.6427 10.0401 42.5575C9.43397 42.2603 8.88936 41.993 8.82989 41.9634C8.77043 41.9337 8.72179 42.7874 8.72179 43.8605C8.72179 45.8027 8.72387 45.812 9.07746 45.9459C10.409 46.4494 13.352 46.6737 14.8699 46.3874ZM46.7805 44.5857V42.937H44.2577H41.7348V37.274V31.611H39.5003H37.2658V38.9227V46.2344H42.0231H46.7805V44.5857ZM31.211 15.6935C35.6514 15.3872 38.9799 14.8089 41.9089 13.835C44.8269 12.8647 46.5506 11.6907 46.9362 10.4109C47.0847 9.91775 47.074 9.73069 46.8665 9.18997C45.9355 6.76586 40.7352 4.9034 32.7887 4.14827C29.3895 3.8252 23.2076 3.92993 19.9666 4.36532C15.0212 5.02982 11.0078 6.26412 9.22326 7.66936C5.61334 10.5122 9.43084 13.6389 18.3086 15.1106C22.1579 15.7487 27.145 15.974 31.211 15.6935Z" fill="#00BCF2"/>
</svg>
