<svg xmlns="http://www.w3.org/2000/svg" width="512" height="512" viewBox="0 0 512 512" version="1.1"><path d="M 107.450 0.929 C 106.927 1.439, 105.150 2.058, 103.500 2.303 C 101.850 2.549, 102.750 2.568, 105.500 2.346 C 108.250 2.125, 117.700 1.670, 126.500 1.337 C 135.300 1.003, 142.687 0.566, 142.917 0.365 C 143.146 0.164, 135.473 0, 125.867 0 C 116.260 0, 107.973 0.418, 107.450 0.929 M 366.083 0.365 C 366.313 0.566, 374.600 1.002, 384.500 1.333 C 394.400 1.665, 406.962 2.625, 412.416 3.468 C 417.870 4.311, 422.512 4.821, 422.731 4.602 C 422.951 4.382, 419.839 3.708, 415.815 3.103 C 411.792 2.497, 406.581 1.552, 404.236 1.001 C 400.365 0.092, 365.102 -0.495, 366.083 0.365 M 83.469 5.457 C 68.863 9.175, 56.141 15.497, 42.871 25.632 C 37.841 29.473, 26.718 41.191, 23.061 46.500 C 22.303 47.600, 23.632 46.250, 26.013 43.500 C 44.596 22.042, 64.340 10.248, 90.500 4.981 C 95.630 3.948, 97.995 3.166, 96 3.163 C 94.075 3.160, 88.436 4.192, 83.469 5.457 M 426 6 C 429.419 7.095, 432.048 7.095, 429.500 6 C 428.400 5.527, 426.600 5.154, 425.500 5.170 C 423.892 5.194, 423.990 5.356, 426 6 M 450.551 14.796 C 471.319 25.823, 486.618 41.105, 497.178 61.369 C 499.795 66.391, 501.951 70.121, 501.968 69.659 C 502.041 67.730, 492.644 51.017, 488.104 45 C 482.714 37.857, 471.878 27.337, 464.631 22.211 C 459.211 18.378, 445.956 11.023, 444.500 11.040 C 443.950 11.047, 446.673 12.737, 450.551 14.796 M 228.500 46.563 C 214.283 48.491, 205.418 50.564, 189.990 55.570 C 122.323 77.525, 69.110 134.530, 51.525 203.900 C 46.582 223.401, 45.604 232.033, 45.624 256 C 45.643 279.981, 46.654 288.881, 51.551 308.202 C 70.310 382.204, 129.796 441.690, 203.798 460.449 C 223.322 465.398, 232.015 466.387, 256 466.387 C 279.985 466.387, 288.678 465.398, 308.202 460.449 C 360.909 447.088, 407.695 412.394, 436.249 365.495 C 457.673 330.305, 468.120 290.290, 466.662 249 C 465.537 217.150, 459.245 191.708, 445.519 163.500 C 414.469 99.691, 353.244 55.709, 282.699 46.535 C 268.374 44.672, 242.340 44.685, 228.500 46.563 M 18.440 53.094 C 17.019 55.346, 16.017 57.350, 16.214 57.547 C 16.411 57.744, 17.782 55.902, 19.261 53.453 C 22.638 47.863, 21.936 47.557, 18.440 53.094 M 11.951 65.097 C 10.801 67.350, 10.032 69.365, 10.242 69.575 C 10.451 69.785, 11.602 67.941, 12.798 65.478 C 15.524 59.869, 14.787 59.537, 11.951 65.097 M 228 68.624 C 205.630 71.986, 179.875 81.063, 160.747 92.326 C 139.784 104.670, 117.830 124.281, 104.019 143 L 97.747 151.500 104.624 151.839 C 108.406 152.025, 122.075 151.599, 135 150.892 C 165.172 149.242, 163.895 149.176, 166.779 152.529 C 168.641 154.694, 169.045 156.023, 168.568 158.410 C 167.438 164.059, 165.523 164.971, 152.148 166.229 C 144.367 166.961, 140.078 167.764, 140.336 168.439 C 140.558 169.023, 155.986 214.837, 174.620 270.249 C 193.254 325.661, 208.725 370.987, 209 370.974 C 209.275 370.961, 218.679 343.294, 229.899 309.493 L 250.297 248.035 235.548 207.647 L 220.798 167.259 212.149 166.578 C 196.959 165.383, 194 163.850, 194 157.177 C 194 153.120, 196.954 149.745, 200.568 149.672 C 202.181 149.640, 214.480 150.223, 227.899 150.967 C 248.016 152.083, 256.617 152.098, 276.899 151.050 C 290.430 150.352, 301.786 149.610, 302.135 149.402 C 303.405 148.646, 309.068 151.258, 310.021 153.039 C 311.762 156.293, 311.136 160.524, 308.554 162.949 C 306.460 164.917, 304.403 165.398, 294.217 166.303 L 282.325 167.360 309.072 246.930 C 323.783 290.694, 339.123 336.288, 343.160 348.252 C 348.235 363.293, 350.731 369.463, 351.250 368.252 C 351.995 366.513, 372.649 298.251, 377.967 279.954 C 388.454 243.871, 385.402 222.800, 364.685 188.258 C 351.959 167.041, 349.518 160.180, 350.212 147.591 C 351.143 130.728, 362.122 118.184, 377.687 116.204 L 383.500 115.465 375.500 109.065 C 348.087 87.136, 316.900 73.493, 282.872 68.545 C 269.593 66.615, 241.098 66.656, 228 68.624 M 3.600 91.678 C 1.595 101.261, 0.021 118.032, 0.151 128.424 L 0.302 140.500 1.084 125 C 1.514 116.475, 2.539 105.006, 3.363 99.513 C 4.767 90.139, 4.911 85.414, 3.600 91.678 M 509.666 105.500 C 510.005 108.800, 510.596 118.025, 510.980 126 L 511.677 140.500 511.777 126.500 C 511.839 117.795, 511.342 110.042, 510.463 106 L 509.050 99.500 509.666 105.500 M 423.404 184.620 C 423.293 205.353, 420.942 219.164, 414.148 239 C 411.981 245.325, 397.106 288.257, 381.092 334.404 C 365.078 380.552, 352.175 418.508, 352.418 418.752 C 352.662 418.995, 357.505 416.012, 363.181 412.123 C 425.638 369.320, 456.349 294.094, 441.911 219.276 C 439.362 206.066, 433.643 188.483, 427.876 176.120 L 423.500 166.740 423.404 184.620 M 79.209 187.658 C 52.262 257.926, 69.043 337.019, 122.150 390.052 C 133.296 401.183, 148.940 413.262, 161.196 420.202 C 173.859 427.371, 173.382 427.564, 169.521 416.834 C 165.992 407.028, 136.078 325.038, 107.010 245.500 C 97.563 219.650, 88.459 194.675, 86.780 190 C 85.101 185.325, 83.387 181.121, 82.972 180.658 C 82.556 180.195, 80.863 183.345, 79.209 187.658 M 248.235 305.102 C 242.111 322.921, 229.428 359.773, 220.050 386.996 C 210.673 414.218, 203 436.818, 203 437.218 C 203 438.179, 211.501 440.541, 221.818 442.447 C 250.039 447.661, 283.361 445.806, 310.568 437.508 C 318.176 435.187, 318.931 434.739, 318.037 433.070 C 317.491 432.049, 315.288 426.328, 313.143 420.357 C 310.997 414.385, 298.559 380.250, 285.503 344.500 C 272.447 308.750, 261.225 277.971, 260.567 276.102 C 259.401 272.793, 259.077 273.554, 248.235 305.102 M 0.219 387 C 0.164 394.123, 0.725 402.511, 1.522 406.500 L 2.921 413.500 2.328 407.500 C 2.001 404.200, 1.415 395.425, 1.025 388 L 0.316 374.500 0.219 387 M 511.212 383.500 C 511.088 388.450, 510.753 395.650, 510.468 399.500 C 510.066 404.925, 510.186 405.958, 511.002 404.089 C 511.624 402.664, 511.929 396.125, 511.747 388.089 C 511.516 377.908, 511.382 376.757, 511.212 383.500 M 499.275 447.022 C 498.118 449.760, 497.384 452, 497.642 452 C 498.318 452, 502.245 442.911, 501.773 442.439 C 501.556 442.222, 500.432 444.285, 499.275 447.022 M 490.505 462.250 C 488.986 464.587, 487.014 467.426, 486.122 468.558 C 485.230 469.690, 486.003 469.015, 487.840 467.058 C 490.877 463.823, 494.618 458, 493.659 458 C 493.443 458, 492.023 459.913, 490.505 462.250 M 477.469 478.250 L 471.500 484.500 477.750 478.531 C 483.556 472.987, 484.458 472, 483.719 472 C 483.564 472, 480.751 474.813, 477.469 478.250 M 33.500 478 C 36.209 480.750, 38.650 483, 38.925 483 C 39.200 483, 37.209 480.750, 34.500 478 C 31.791 475.250, 29.350 473, 29.075 473 C 28.800 473, 30.791 475.250, 33.500 478 M 48.370 490.353 C 51.059 492.614, 60.165 498.065, 58.938 496.678 C 58.629 496.328, 55.479 494.219, 51.938 491.990 C 48.397 489.762, 46.792 489.025, 48.370 490.353 M 68 501.500 C 69.375 502.286, 70.950 502.929, 71.500 502.929 C 72.050 502.929, 71.375 502.286, 70 501.500 C 68.625 500.714, 67.050 500.071, 66.500 500.071 C 65.950 500.071, 66.625 500.714, 68 501.500 M 90 508 C 91.375 508.440, 93.625 508.792, 95 508.782 C 97.246 508.765, 97.195 508.686, 94.500 508 C 92.850 507.580, 90.600 507.228, 89.500 507.218 C 87.933 507.203, 88.041 507.373, 90 508 M 410 509.127 C 407.525 509.626, 398.525 510.410, 390 510.868 L 374.500 511.703 388.174 511.851 C 400.557 511.986, 404.974 511.535, 416 509.009 C 421.034 507.855, 415.793 507.958, 410 509.127 M 105 510.500 C 109.144 511.260, 118.317 511.831, 125.500 511.777 L 138.500 511.680 124.500 510.989 C 116.800 510.609, 107.575 510.034, 104 509.712 L 97.500 509.126 105 510.500" stroke="none" fill="#f9fbfb" fill-rule="evenodd"/><path d="M 142.937 0.343 C 142.697 0.554, 135.075 1.005, 126 1.344 C 99.205 2.345, 80.284 5.963, 65.417 12.927 C 36.835 26.316, 14.367 52.676, 6.966 81.500 C 0.758 105.683, 0.025 124.343, 0.037 258 C 0.050 390.829, 0.672 406.214, 7.035 431.138 C 14.478 460.288, 38.762 488.010, 67.811 500.516 C 76.422 504.223, 93.684 508.330, 108 510.077 C 121.325 511.703, 354.702 512.551, 384 511.080 C 405.649 509.993, 417.068 508.507, 431.144 504.946 C 460.235 497.585, 488.475 472.813, 500.484 444.121 C 506.666 429.350, 511 404.702, 511 384.315 C 511 379.257, 511.450 374.840, 512 374.500 C 512.657 374.094, 513 333.637, 513 256.382 C 513 178.303, 512.664 139.089, 512 139.500 C 511.358 139.897, 511 136.425, 511 129.803 C 511 116.324, 508.603 96.191, 505.497 83.575 C 499.868 60.713, 485.998 39.708, 467.064 25.369 C 450.576 12.883, 431.885 5.735, 408.828 3.097 C 403.698 2.511, 397.475 1.750, 395 1.408 C 390.177 0.741, 143.669 -0.300, 142.937 0.343 M 228.500 46.563 C 214.283 48.491, 205.418 50.564, 189.990 55.570 C 122.323 77.525, 69.110 134.530, 51.525 203.900 C 46.582 223.401, 45.604 232.033, 45.624 256 C 45.643 279.981, 46.654 288.881, 51.551 308.202 C 70.310 382.204, 129.796 441.690, 203.798 460.449 C 223.322 465.398, 232.015 466.387, 256 466.387 C 279.985 466.387, 288.678 465.398, 308.202 460.449 C 360.909 447.088, 407.695 412.394, 436.249 365.495 C 457.673 330.305, 468.120 290.290, 466.662 249 C 465.537 217.150, 459.245 191.708, 445.519 163.500 C 414.469 99.691, 353.244 55.709, 282.699 46.535 C 268.374 44.672, 242.340 44.685, 228.500 46.563 M 228 68.624 C 205.630 71.986, 179.875 81.063, 160.747 92.326 C 139.784 104.670, 117.830 124.281, 104.019 143 L 97.747 151.500 104.624 151.839 C 108.406 152.025, 122.075 151.599, 135 150.892 C 165.172 149.242, 163.895 149.176, 166.779 152.529 C 168.641 154.694, 169.045 156.023, 168.568 158.410 C 167.438 164.059, 165.523 164.971, 152.148 166.229 C 144.367 166.961, 140.078 167.764, 140.336 168.439 C 140.558 169.023, 155.986 214.837, 174.620 270.249 C 193.254 325.661, 208.725 370.987, 209 370.974 C 209.275 370.961, 218.679 343.294, 229.899 309.493 L 250.297 248.035 235.548 207.647 L 220.798 167.259 212.149 166.578 C 196.959 165.383, 194 163.850, 194 157.177 C 194 153.120, 196.954 149.745, 200.568 149.672 C 202.181 149.640, 214.480 150.223, 227.899 150.967 C 248.016 152.083, 256.617 152.098, 276.899 151.050 C 290.430 150.352, 301.786 149.610, 302.135 149.402 C 303.405 148.646, 309.068 151.258, 310.021 153.039 C 311.762 156.293, 311.136 160.524, 308.554 162.949 C 306.460 164.917, 304.403 165.398, 294.217 166.303 L 282.325 167.360 309.072 246.930 C 323.783 290.694, 339.123 336.288, 343.160 348.252 C 348.235 363.293, 350.731 369.463, 351.250 368.252 C 351.995 366.513, 372.649 298.251, 377.967 279.954 C 388.454 243.871, 385.402 222.800, 364.685 188.258 C 351.959 167.041, 349.518 160.180, 350.212 147.591 C 351.143 130.728, 362.122 118.184, 377.687 116.204 L 383.500 115.465 375.500 109.065 C 348.087 87.136, 316.900 73.493, 282.872 68.545 C 269.593 66.615, 241.098 66.656, 228 68.624 M 0.484 257.500 C 0.484 322.400, 0.604 348.803, 0.750 316.173 C 0.896 283.543, 0.896 230.443, 0.750 198.173 C 0.603 165.903, 0.484 192.600, 0.484 257.500 M 423.404 184.620 C 423.293 205.353, 420.942 219.164, 414.148 239 C 411.981 245.325, 397.106 288.257, 381.092 334.404 C 365.078 380.552, 352.175 418.508, 352.418 418.752 C 352.662 418.995, 357.505 416.012, 363.181 412.123 C 425.638 369.320, 456.349 294.094, 441.911 219.276 C 439.362 206.066, 433.643 188.483, 427.876 176.120 L 423.500 166.740 423.404 184.620 M 79.209 187.658 C 52.262 257.926, 69.043 337.019, 122.150 390.052 C 133.296 401.183, 148.940 413.262, 161.196 420.202 C 173.859 427.371, 173.382 427.564, 169.521 416.834 C 165.992 407.028, 136.078 325.038, 107.010 245.500 C 97.563 219.650, 88.459 194.675, 86.780 190 C 85.101 185.325, 83.387 181.121, 82.972 180.658 C 82.556 180.195, 80.863 183.345, 79.209 187.658 M 248.235 305.102 C 242.111 322.921, 229.428 359.773, 220.050 386.996 C 210.673 414.218, 203 436.818, 203 437.218 C 203 438.179, 211.501 440.541, 221.818 442.447 C 250.039 447.661, 283.361 445.806, 310.568 437.508 C 318.176 435.187, 318.931 434.739, 318.037 433.070 C 317.491 432.049, 315.288 426.328, 313.143 420.357 C 310.997 414.385, 298.559 380.250, 285.503 344.500 C 272.447 308.750, 261.225 277.971, 260.567 276.102 C 259.401 272.793, 259.077 273.554, 248.235 305.102" stroke="none" fill="#38aacf" fill-rule="evenodd"/></svg>