<?xml version="1.0" encoding="utf-8"?>
<svg width="635.1294px" height="480px" viewBox="0 0 635.1294 480" version="1.1" xmlns:xlink="http://www.w3.org/1999/xlink" xmlns="http://www.w3.org/2000/svg">
  <defs>
    <path d="M0.129395 0L635.129 0L635.129 480L0.129395 480L0.129395 0Z" id="path_1" />
    <clipPath id="mask_1">
      <use xlink:href="#path_1" />
    </clipPath>
  </defs>
  <g id="screenshots__fully_custom_img">
    <path d="M0.129395 0L635.129 0L635.129 480L0.129395 480L0.129395 0Z" id="Фон" fill="#FFFFFF" fill-opacity="0" fill-rule="evenodd" stroke="none" />
    <path d="M-3.8147e-06 77L-3.8147e-06 47C-3.8147e-06 38.7157 2.92893 31.6447 8.78679 25.7868C14.6447 19.9289 21.7157 17 30 17L570 17C578.284 17 585.355 19.9289 591.213 25.7868C597.071 31.6447 600 38.7157 600 47L600 397C600 405.284 597.071 412.355 591.213 418.213C585.355 424.071 578.284 427 570 427L30 427C21.7157 427 14.6447 424.071 8.78679 418.213C2.92893 412.355 -3.8147e-06 405.284 -3.8147e-06 397L-3.8147e-06 77Z" id="Group" fill="#FFFFFF" fill-rule="evenodd" stroke="none" />
    <path d="M99.0004 89L100 89L100 360L99.0004 360L99.0004 89Z" id="Прямоугольник" fill="#EEEEF7" fill-rule="evenodd" stroke="none" />
    <path d="M162 89L163 89L163 360L162 360L162 89Z" id="Прямоугольник" fill="#EEEEF7" fill-rule="evenodd" stroke="none" />
    <path d="M225 89L226 89L226 360L225 360L225 89Z" id="Прямоугольник" fill="#EEEEF7" fill-rule="evenodd" stroke="none" />
    <path d="M288 89L289 89L289 360L288 360L288 89Z" id="Прямоугольник" fill="#EEEEF7" fill-rule="evenodd" stroke="none" />
    <path d="M351 89L352 89L352 360L351 360L351 89Z" id="Прямоугольник" fill="#EEEEF7" fill-rule="evenodd" stroke="none" />
    <path d="M414 89L415 89L415 360L414 360L414 89Z" id="Прямоугольник" fill="#EEEEF7" fill-rule="evenodd" stroke="none" />
    <path d="M477 89L478 89L478 360L477 360L477 89Z" id="Прямоугольник" fill="#EEEEF7" fill-rule="evenodd" stroke="none" />
    <path d="M540 89L541 89L541 360L540 360L540 89Z" id="Прямоугольник" fill="#EEEEF7" fill-rule="evenodd" stroke="none" />
    <path d="M59.7637 109.939L58.8965 109.717L59.3242 105.469L63.7012 105.469L63.7012 106.471L60.2441 106.471L59.9863 108.791C60.1426 108.701 60.3398 108.617 60.5781 108.539C60.8203 108.461 61.0977 108.422 61.4102 108.422C61.8047 108.422 62.1582 108.49 62.4707 108.627C62.7832 108.76 63.0488 108.951 63.2676 109.201C63.4902 109.451 63.6602 109.752 63.7773 110.104C63.8945 110.455 63.9531 110.848 63.9531 111.281C63.9531 111.691 63.8965 112.068 63.7832 112.412C63.6738 112.756 63.5078 113.057 63.2852 113.314C63.0625 113.568 62.7813 113.766 62.4414 113.906C62.1055 114.047 61.709 114.117 61.252 114.117C60.9082 114.117 60.582 114.07 60.2734 113.977C59.9688 113.879 59.6953 113.732 59.4531 113.537C59.2148 113.338 59.0195 113.092 58.8672 112.799C58.7188 112.502 58.625 112.154 58.5859 111.756L59.6172 111.756C59.6641 112.076 59.7578 112.346 59.8984 112.564C60.0391 112.783 60.2227 112.949 60.4492 113.062C60.6797 113.172 60.9473 113.227 61.252 113.227C61.5098 113.227 61.7383 113.182 61.9375 113.092C62.1367 113.002 62.3047 112.873 62.4414 112.705C62.5781 112.537 62.6816 112.334 62.752 112.096C62.8262 111.857 62.8633 111.59 62.8633 111.293C62.8633 111.023 62.8262 110.773 62.752 110.543C62.6777 110.312 62.5664 110.111 62.418 109.939C62.2734 109.768 62.0957 109.635 61.8848 109.541C61.6738 109.443 61.4316 109.395 61.1582 109.395C60.7949 109.395 60.5195 109.443 60.332 109.541C60.1484 109.639 59.959 109.771 59.7637 109.939L59.7637 109.939ZM70.9084 111.129L70.9084 112.02L64.7444 112.02L64.7444 111.381L68.5644 105.469L69.4494 105.469L68.5004 107.18L65.9744 111.129L70.9084 111.129L70.9084 111.129ZM69.7184 105.469L69.7184 114L68.6344 114L68.6344 105.469L69.7184 105.469L69.7184 105.469ZM74.2654 109.928L74.2654 110.928L71.4064 110.928L71.4064 109.928L74.2654 109.928L74.2654 109.928ZM79.3694 105.457L79.4624 105.457L79.4624 106.377L79.3694 106.377C78.7954 106.377 78.3144 106.471 77.9274 106.658C77.5414 106.842 77.2344 107.09 77.0074 107.402C76.7814 107.711 76.6174 108.059 76.5154 108.445C76.4184 108.832 76.3694 109.225 76.3694 109.623L76.3694 110.877C76.3694 111.256 76.4144 111.592 76.5044 111.885C76.5934 112.174 76.7164 112.418 76.8734 112.617C77.0294 112.816 77.2054 112.967 77.4004 113.068C77.5994 113.17 77.8064 113.221 78.0214 113.221C78.2714 113.221 78.4944 113.174 78.6894 113.08C78.8844 112.982 79.0484 112.848 79.1814 112.676C79.3184 112.5 79.4214 112.293 79.4924 112.055C79.5624 111.816 79.5974 111.555 79.5974 111.27C79.5974 111.016 79.5664 110.771 79.5044 110.537C79.4414 110.299 79.3454 110.088 79.2164 109.904C79.0874 109.717 78.9254 109.57 78.7304 109.465C78.5394 109.355 78.3104 109.301 78.0454 109.301C77.7444 109.301 77.4624 109.375 77.2014 109.523C76.9434 109.668 76.7304 109.859 76.5624 110.098C76.3984 110.332 76.3044 110.588 76.2814 110.865L75.7074 110.859C75.7614 110.422 75.8634 110.049 76.0114 109.74C76.1644 109.428 76.3514 109.174 76.5744 108.979C76.8004 108.779 77.0524 108.635 77.3304 108.545C77.6114 108.451 77.9084 108.404 78.2204 108.404C78.6464 108.404 79.0134 108.484 79.3224 108.645C79.6304 108.805 79.8844 109.02 80.0844 109.289C80.2834 109.555 80.4294 109.855 80.5234 110.191C80.6214 110.523 80.6704 110.865 80.6704 111.217C80.6704 111.619 80.6134 111.996 80.5004 112.348C80.3864 112.699 80.2164 113.008 79.9904 113.273C79.7674 113.539 79.4924 113.746 79.1644 113.895C78.8364 114.043 78.4554 114.117 78.0214 114.117C77.5604 114.117 77.1584 114.023 76.8144 113.836C76.4704 113.645 76.1854 113.391 75.9594 113.074C75.7324 112.758 75.5624 112.406 75.4494 112.02C75.3364 111.633 75.2794 111.24 75.2794 110.842L75.2794 110.332C75.2794 109.73 75.3394 109.141 75.4614 108.562C75.5824 107.984 75.7914 107.461 76.0874 106.992C76.3884 106.523 76.8044 106.15 77.3364 105.873C77.8674 105.596 78.5454 105.457 79.3694 105.457L79.3694 105.457ZM83.3304 109.939L82.4624 109.717L82.8904 105.469L87.2674 105.469L87.2674 106.471L83.8104 106.471L83.5524 108.791C83.7094 108.701 83.9064 108.617 84.1444 108.539C84.3864 108.461 84.6644 108.422 84.9764 108.422C85.3714 108.422 85.7244 108.49 86.0374 108.627C86.3494 108.76 86.6154 108.951 86.8344 109.201C87.0564 109.451 87.2264 109.752 87.3434 110.104C87.4614 110.455 87.5194 110.848 87.5194 111.281C87.5194 111.691 87.4624 112.068 87.3494 112.412C87.2404 112.756 87.0744 113.057 86.8514 113.314C86.6294 113.568 86.3474 113.766 86.0074 113.906C85.6714 114.047 85.2754 114.117 84.8184 114.117C84.4744 114.117 84.1484 114.07 83.8394 113.977C83.5354 113.879 83.2614 113.732 83.0194 113.537C82.7814 113.338 82.5864 113.092 82.4334 112.799C82.2854 112.502 82.1914 112.154 82.1524 111.756L83.1834 111.756C83.2304 112.076 83.3244 112.346 83.4644 112.564C83.6054 112.783 83.7894 112.949 84.0154 113.062C84.2464 113.172 84.5134 113.227 84.8184 113.227C85.0764 113.227 85.3044 113.182 85.5044 113.092C85.7034 113.002 85.8714 112.873 86.0074 112.705C86.1444 112.537 86.2484 112.334 86.3184 112.096C86.3924 111.857 86.4294 111.59 86.4294 111.293C86.4294 111.023 86.3924 110.773 86.3184 110.543C86.2444 110.312 86.1324 110.111 85.9844 109.939C85.8394 109.768 85.6624 109.635 85.4514 109.541C85.2404 109.443 84.9984 109.395 84.7244 109.395C84.3614 109.395 84.0864 109.443 83.8984 109.541C83.7144 109.639 83.5254 109.771 83.3304 109.939L83.3304 109.939Z" id="Фигура" fill="#8794BA" fill-rule="evenodd" stroke="none" />
    <path d="M64.1584 167.129L64.1584 168.02L57.9941 168.02L57.9941 167.381L61.8145 161.469L62.6992 161.469L61.75 163.18L59.2246 167.129L64.1584 167.129L64.1584 167.129ZM62.9688 161.469L62.9688 170L61.8848 170L61.8848 161.469L62.9688 161.469L62.9688 161.469ZM66.5134 165.939L65.6464 165.717L66.0744 161.469L70.4514 161.469L70.4514 162.471L66.9944 162.471L66.7364 164.791C66.8924 164.701 67.0894 164.617 67.3284 164.539C67.5704 164.461 67.8474 164.422 68.1604 164.422C68.5544 164.422 68.9084 164.49 69.2204 164.627C69.5334 164.76 69.7984 164.951 70.0174 165.201C70.2404 165.451 70.4104 165.752 70.5274 166.104C70.6444 166.455 70.7034 166.848 70.7034 167.281C70.7034 167.691 70.6464 168.068 70.5334 168.412C70.4234 168.756 70.2574 169.057 70.0354 169.314C69.8124 169.568 69.5314 169.766 69.1914 169.906C68.8554 170.047 68.4594 170.117 68.0024 170.117C67.6584 170.117 67.3324 170.07 67.0234 169.977C66.7184 169.879 66.4454 169.732 66.2034 169.537C65.9644 169.338 65.7694 169.092 65.6174 168.799C65.4684 168.502 65.3754 168.154 65.3364 167.756L66.3674 167.756C66.4144 168.076 66.5074 168.346 66.6484 168.564C66.7894 168.783 66.9724 168.949 67.1994 169.062C67.4294 169.172 67.6974 169.227 68.0024 169.227C68.2594 169.227 68.4884 169.182 68.6874 169.092C68.8864 169.002 69.0544 168.873 69.1914 168.705C69.3284 168.537 69.4314 168.334 69.5024 168.096C69.5764 167.857 69.6134 167.59 69.6134 167.293C69.6134 167.023 69.5764 166.773 69.5024 166.543C69.4274 166.312 69.3164 166.111 69.1684 165.939C69.0234 165.768 68.8454 165.635 68.6344 165.541C68.4234 165.443 68.1814 165.395 67.9084 165.395C67.5454 165.395 67.2694 165.443 67.0824 165.541C66.8984 165.639 66.7094 165.771 66.5134 165.939L66.5134 165.939ZM74.2654 165.928L74.2654 166.928L71.4064 166.928L71.4064 165.928L74.2654 165.928L74.2654 165.928ZM76.5804 165.939L75.7124 165.717L76.1404 161.469L80.5174 161.469L80.5174 162.471L77.0604 162.471L76.8024 164.791C76.9594 164.701 77.1564 164.617 77.3944 164.539C77.6364 164.461 77.9144 164.422 78.2264 164.422C78.6214 164.422 78.9744 164.49 79.2874 164.627C79.5994 164.76 79.8654 164.951 80.0844 165.201C80.3064 165.451 80.4764 165.752 80.5934 166.104C80.7114 166.455 80.7694 166.848 80.7694 167.281C80.7694 167.691 80.7124 168.068 80.5994 168.412C80.4904 168.756 80.3244 169.057 80.1014 169.314C79.8794 169.568 79.5974 169.766 79.2574 169.906C78.9214 170.047 78.5254 170.117 78.0684 170.117C77.7244 170.117 77.3984 170.07 77.0894 169.977C76.7854 169.879 76.5114 169.732 76.2694 169.537C76.0314 169.338 75.8364 169.092 75.6834 168.799C75.5354 168.502 75.4414 168.154 75.4024 167.756L76.4334 167.756C76.4804 168.076 76.5744 168.346 76.7144 168.564C76.8554 168.783 77.0394 168.949 77.2654 169.062C77.4964 169.172 77.7634 169.227 78.0684 169.227C78.3264 169.227 78.5544 169.182 78.7544 169.092C78.9534 169.002 79.1214 168.873 79.2574 168.705C79.3944 168.537 79.4984 168.334 79.5684 168.096C79.6424 167.857 79.6794 167.59 79.6794 167.293C79.6794 167.023 79.6424 166.773 79.5684 166.543C79.4944 166.312 79.3824 166.111 79.2344 165.939C79.0894 165.768 78.9124 165.635 78.7014 165.541C78.4904 165.443 78.2484 165.395 77.9744 165.395C77.6114 165.395 77.3364 165.443 77.1484 165.541C76.9644 165.639 76.7754 165.771 76.5804 165.939L76.5804 165.939ZM87.7244 167.129L87.7244 168.02L81.5604 168.02L81.5604 167.381L85.3804 161.469L86.2654 161.469L85.3164 163.18L82.7914 167.129L87.7244 167.129L87.7244 167.129ZM86.5354 161.469L86.5354 170L85.4514 170L85.4514 161.469L86.5354 161.469L86.5354 161.469Z" id="Фигура" fill="#8794BA" fill-rule="evenodd" stroke="none" />
    <path d="M59.9746 221.201L60.7481 221.201C61.127 221.201 61.4395 221.139 61.6856 221.014C61.9356 220.885 62.1211 220.711 62.2422 220.492C62.3672 220.27 62.4297 220.02 62.4297 219.742C62.4297 219.414 62.375 219.139 62.2656 218.916C62.1563 218.693 61.9922 218.525 61.7734 218.412C61.5547 218.299 61.2773 218.242 60.9414 218.242C60.6367 218.242 60.3672 218.303 60.1328 218.424C59.9023 218.541 59.7207 218.709 59.5879 218.928C59.459 219.146 59.3945 219.404 59.3945 219.701L58.3106 219.701C58.3106 219.268 58.4199 218.873 58.6387 218.518C58.8574 218.162 59.1641 217.879 59.5586 217.668C59.957 217.457 60.418 217.352 60.9414 217.352C61.457 217.352 61.9082 217.443 62.2949 217.627C62.6816 217.807 62.9824 218.076 63.1973 218.436C63.4121 218.791 63.5195 219.234 63.5195 219.766C63.5195 219.98 63.4688 220.211 63.3672 220.457C63.2695 220.699 63.1152 220.926 62.9043 221.137C62.6973 221.348 62.4277 221.521 62.0957 221.658C61.7637 221.791 61.3652 221.857 60.9004 221.857L59.9746 221.857L59.9746 221.201L59.9746 221.201ZM59.9746 222.092L59.9746 221.441L60.9004 221.441C61.4434 221.441 61.8926 221.506 62.2481 221.635C62.6035 221.764 62.8828 221.936 63.0859 222.15C63.293 222.365 63.4375 222.602 63.5195 222.859C63.6055 223.113 63.6484 223.367 63.6484 223.621C63.6484 224.02 63.5801 224.373 63.4434 224.682C63.3106 224.99 63.1211 225.252 62.875 225.467C62.6328 225.682 62.3477 225.844 62.0195 225.953C61.6914 226.062 61.334 226.117 60.9473 226.117C60.5762 226.117 60.2266 226.064 59.8984 225.959C59.5742 225.854 59.2871 225.701 59.0371 225.502C58.7871 225.299 58.5918 225.051 58.4512 224.758C58.3106 224.461 58.2402 224.123 58.2402 223.744L59.3242 223.744C59.3242 224.041 59.3887 224.301 59.5176 224.523C59.6504 224.746 59.8379 224.92 60.0801 225.045C60.3262 225.166 60.6152 225.227 60.9473 225.227C61.2793 225.227 61.5645 225.17 61.8027 225.057C62.0449 224.939 62.2305 224.764 62.3594 224.529C62.4922 224.295 62.5586 224 62.5586 223.645C62.5586 223.289 62.4844 222.998 62.3359 222.771C62.1875 222.541 61.9766 222.371 61.7031 222.262C61.4336 222.148 61.1152 222.092 60.7481 222.092L59.9746 222.092L59.9746 222.092ZM66.5134 221.939L65.6464 221.717L66.0744 217.469L70.4514 217.469L70.4514 218.471L66.9944 218.471L66.7364 220.791C66.8924 220.701 67.0894 220.617 67.3284 220.539C67.5704 220.461 67.8474 220.422 68.1604 220.422C68.5544 220.422 68.9084 220.49 69.2204 220.627C69.5334 220.76 69.7984 220.951 70.0174 221.201C70.2404 221.451 70.4104 221.752 70.5274 222.104C70.6444 222.455 70.7034 222.848 70.7034 223.281C70.7034 223.691 70.6464 224.068 70.5334 224.412C70.4234 224.756 70.2574 225.057 70.0354 225.314C69.8124 225.568 69.5314 225.766 69.1914 225.906C68.8554 226.047 68.4594 226.117 68.0024 226.117C67.6584 226.117 67.3324 226.07 67.0234 225.977C66.7184 225.879 66.4454 225.732 66.2034 225.537C65.9644 225.338 65.7694 225.092 65.6174 224.799C65.4684 224.502 65.3754 224.154 65.3364 223.756L66.3674 223.756C66.4144 224.076 66.5074 224.346 66.6484 224.564C66.7894 224.783 66.9724 224.949 67.1994 225.062C67.4294 225.172 67.6974 225.227 68.0024 225.227C68.2594 225.227 68.4884 225.182 68.6874 225.092C68.8864 225.002 69.0544 224.873 69.1914 224.705C69.3284 224.537 69.4314 224.334 69.5024 224.096C69.5764 223.857 69.6134 223.59 69.6134 223.293C69.6134 223.023 69.5764 222.773 69.5024 222.543C69.4274 222.312 69.3164 222.111 69.1684 221.939C69.0234 221.768 68.8454 221.635 68.6344 221.541C68.4234 221.443 68.1814 221.395 67.9084 221.395C67.5454 221.395 67.2694 221.443 67.0824 221.541C66.8984 221.639 66.7094 221.771 66.5134 221.939L66.5134 221.939ZM74.2654 221.928L74.2654 222.928L71.4064 222.928L71.4064 221.928L74.2654 221.928L74.2654 221.928ZM80.9744 223.129L80.9744 224.02L74.8104 224.02L74.8104 223.381L78.6304 217.469L79.5154 217.469L78.5664 219.18L76.0414 223.129L80.9744 223.129L80.9744 223.129ZM79.7854 217.469L79.7854 226L78.7014 226L78.7014 217.469L79.7854 217.469L79.7854 217.469ZM87.7244 223.129L87.7244 224.02L81.5604 224.02L81.5604 223.381L85.3804 217.469L86.2654 217.469L85.3164 219.18L82.7914 223.129L87.7244 223.129L87.7244 223.129ZM86.5354 217.469L86.5354 226L85.4514 226L85.4514 217.469L86.5354 217.469L86.5354 217.469Z" id="Фигура" fill="#8794BA" fill-rule="evenodd" stroke="none" />
    <path d="M63.9824 281.109L63.9824 282L58.3984 282L58.3984 281.221L61.1934 278.109C61.5371 277.727 61.8027 277.402 61.9902 277.137C62.1816 276.867 62.3145 276.627 62.3887 276.416C62.4668 276.201 62.5059 275.982 62.5059 275.76C62.5059 275.479 62.4473 275.225 62.3301 274.998C62.2168 274.768 62.0488 274.584 61.8262 274.447C61.6035 274.311 61.334 274.242 61.0176 274.242C60.6387 274.242 60.3223 274.316 60.0684 274.465C59.8184 274.609 59.6309 274.812 59.5059 275.074C59.3809 275.336 59.3184 275.637 59.3184 275.977L58.2344 275.977C58.2344 275.496 58.3398 275.057 58.5508 274.658C58.7617 274.26 59.0742 273.943 59.4883 273.709C59.9023 273.471 60.4121 273.352 61.0176 273.352C61.5566 273.352 62.0176 273.447 62.4004 273.639C62.7832 273.826 63.0762 274.092 63.2793 274.436C63.4863 274.775 63.5898 275.174 63.5898 275.631C63.5898 275.881 63.5469 276.135 63.4609 276.393C63.3789 276.646 63.2637 276.9 63.1152 277.154C62.9707 277.408 62.8008 277.658 62.6055 277.904C62.4141 278.15 62.209 278.393 61.9902 278.631L59.7051 281.109L63.9824 281.109L63.9824 281.109ZM66.5134 277.939L65.6464 277.717L66.0744 273.469L70.4514 273.469L70.4514 274.471L66.9944 274.471L66.7364 276.791C66.8924 276.701 67.0894 276.617 67.3284 276.539C67.5704 276.461 67.8474 276.422 68.1604 276.422C68.5544 276.422 68.9084 276.49 69.2204 276.627C69.5334 276.76 69.7984 276.951 70.0174 277.201C70.2404 277.451 70.4104 277.752 70.5274 278.104C70.6444 278.455 70.7034 278.848 70.7034 279.281C70.7034 279.691 70.6464 280.068 70.5334 280.412C70.4234 280.756 70.2574 281.057 70.0354 281.314C69.8124 281.568 69.5314 281.766 69.1914 281.906C68.8554 282.047 68.4594 282.117 68.0024 282.117C67.6584 282.117 67.3324 282.07 67.0234 281.977C66.7184 281.879 66.4454 281.732 66.2034 281.537C65.9644 281.338 65.7694 281.092 65.6174 280.799C65.4684 280.502 65.3754 280.154 65.3364 279.756L66.3674 279.756C66.4144 280.076 66.5074 280.346 66.6484 280.564C66.7894 280.783 66.9724 280.949 67.1994 281.062C67.4294 281.172 67.6974 281.227 68.0024 281.227C68.2594 281.227 68.4884 281.182 68.6874 281.092C68.8864 281.002 69.0544 280.873 69.1914 280.705C69.3284 280.537 69.4314 280.334 69.5024 280.096C69.5764 279.857 69.6134 279.59 69.6134 279.293C69.6134 279.023 69.5764 278.773 69.5024 278.543C69.4274 278.312 69.3164 278.111 69.1684 277.939C69.0234 277.768 68.8454 277.635 68.6344 277.541C68.4234 277.443 68.1814 277.395 67.9084 277.395C67.5454 277.395 67.2694 277.443 67.0824 277.541C66.8984 277.639 66.7094 277.771 66.5134 277.939L66.5134 277.939ZM74.2654 277.928L74.2654 278.928L71.4064 278.928L71.4064 277.928L74.2654 277.928L74.2654 277.928ZM76.7914 277.201L77.5644 277.201C77.9434 277.201 78.2554 277.139 78.5024 277.014C78.7524 276.885 78.9374 276.711 79.0584 276.492C79.1834 276.27 79.2464 276.02 79.2464 275.742C79.2464 275.414 79.1914 275.139 79.0824 274.916C78.9724 274.693 78.8084 274.525 78.5894 274.412C78.3714 274.299 78.0934 274.242 77.7574 274.242C77.4534 274.242 77.1834 274.303 76.9494 274.424C76.7184 274.541 76.5374 274.709 76.4044 274.928C76.2754 275.146 76.2114 275.404 76.2114 275.701L75.1274 275.701C75.1274 275.268 75.2364 274.873 75.4554 274.518C75.6734 274.162 75.9804 273.879 76.3754 273.668C76.7734 273.457 77.2344 273.352 77.7574 273.352C78.2734 273.352 78.7244 273.443 79.1114 273.627C79.4984 273.807 79.7984 274.076 80.0134 274.436C80.2284 274.791 80.3364 275.234 80.3364 275.766C80.3364 275.98 80.2854 276.211 80.1834 276.457C80.0864 276.699 79.9314 276.926 79.7204 277.137C79.5134 277.348 79.2444 277.521 78.9124 277.658C78.5804 277.791 78.1814 277.857 77.7164 277.857L76.7914 277.857L76.7914 277.201L76.7914 277.201ZM76.7914 278.092L76.7914 277.441L77.7164 277.441C78.2594 277.441 78.7094 277.506 79.0644 277.635C79.4204 277.764 79.6994 277.936 79.9024 278.15C80.1094 278.365 80.2544 278.602 80.3364 278.859C80.4214 279.113 80.4644 279.367 80.4644 279.621C80.4644 280.02 80.3964 280.373 80.2594 280.682C80.1274 280.99 79.9374 281.252 79.6914 281.467C79.4494 281.682 79.1644 281.844 78.8364 281.953C78.5074 282.062 78.1504 282.117 77.7634 282.117C77.3924 282.117 77.0434 282.064 76.7144 281.959C76.3904 281.854 76.1034 281.701 75.8534 281.502C75.6034 281.299 75.4084 281.051 75.2674 280.758C75.1274 280.461 75.0564 280.123 75.0564 279.744L76.1404 279.744C76.1404 280.041 76.2054 280.301 76.3344 280.523C76.4664 280.746 76.6544 280.92 76.8964 281.045C77.1424 281.166 77.4314 281.227 77.7634 281.227C78.0954 281.227 78.3804 281.17 78.6194 281.057C78.8614 280.939 79.0464 280.764 79.1754 280.529C79.3084 280.295 79.3754 280 79.3754 279.645C79.3754 279.289 79.3004 278.998 79.1524 278.771C79.0044 278.541 78.7934 278.371 78.5194 278.262C78.2504 278.148 77.9314 278.092 77.5644 278.092L76.7914 278.092L76.7914 278.092ZM87.7244 279.129L87.7244 280.02L81.5604 280.02L81.5604 279.381L85.3804 273.469L86.2654 273.469L85.3164 275.18L82.7914 279.129L87.7244 279.129L87.7244 279.129ZM86.5354 273.469L86.5354 282L85.4514 282L85.4514 273.469L86.5354 273.469L86.5354 273.469Z" id="Фигура" fill="#8794BA" fill-rule="evenodd" stroke="none" />
    <path d="M61.9551 329.422L61.9551 338L60.8711 338L60.8711 330.775L58.6856 331.572L58.6856 330.594L61.7852 329.422L61.9551 329.422L61.9551 329.422ZM70.5214 335.691C70.5214 336.211 70.4004 336.652 70.1584 337.016C69.9204 337.375 69.5954 337.648 69.1854 337.836C68.7794 338.023 68.3204 338.117 67.8084 338.117C67.2964 338.117 66.8364 338.023 66.4254 337.836C66.0154 337.648 65.6914 337.375 65.4534 337.016C65.2144 336.652 65.0954 336.211 65.0954 335.691C65.0954 335.352 65.1604 335.041 65.2894 334.76C65.4214 334.475 65.6074 334.227 65.8454 334.016C66.0874 333.805 66.3734 333.643 66.7014 333.529C67.0334 333.412 67.3984 333.354 67.7964 333.354C68.3204 333.354 68.7874 333.455 69.1974 333.658C69.6074 333.857 69.9294 334.133 70.1644 334.484C70.4024 334.836 70.5214 335.238 70.5214 335.691L70.5214 335.691ZM69.4314 335.668C69.4314 335.352 69.3634 335.072 69.2264 334.83C69.0894 334.584 68.8984 334.393 68.6524 334.256C68.4064 334.119 68.1214 334.051 67.7964 334.051C67.4644 334.051 67.1774 334.119 66.9354 334.256C66.6974 334.393 66.5114 334.584 66.3794 334.83C66.2464 335.072 66.1794 335.352 66.1794 335.668C66.1794 335.996 66.2444 336.277 66.3734 336.512C66.5054 336.742 66.6934 336.92 66.9354 337.045C67.1814 337.166 67.4724 337.227 67.8084 337.227C68.1444 337.227 68.4334 337.166 68.6754 337.045C68.9184 336.92 69.1034 336.742 69.2324 336.512C69.3654 336.277 69.4314 335.996 69.4314 335.668L69.4314 335.668ZM70.3224 331.689C70.3224 332.104 70.2124 332.477 69.9944 332.809C69.7754 333.141 69.4764 333.402 69.0974 333.594C68.7184 333.785 68.2894 333.881 67.8084 333.881C67.3204 333.881 66.8844 333.785 66.5024 333.594C66.1234 333.402 65.8264 333.141 65.6114 332.809C65.3964 332.477 65.2894 332.104 65.2894 331.689C65.2894 331.193 65.3964 330.771 65.6114 330.424C65.8304 330.076 66.1294 329.811 66.5074 329.627C66.8864 329.443 67.3184 329.352 67.8024 329.352C68.2914 329.352 68.7244 329.443 69.1034 329.627C69.4824 329.811 69.7794 330.076 69.9944 330.424C70.2124 330.771 70.3224 331.193 70.3224 331.689L70.3224 331.689ZM69.2384 331.707C69.2384 331.422 69.1774 331.17 69.0564 330.951C68.9354 330.732 68.7674 330.561 68.5524 330.436C68.3374 330.307 68.0874 330.242 67.8024 330.242C67.5174 330.242 67.2674 330.303 67.0524 330.424C66.8414 330.541 66.6754 330.709 66.5544 330.928C66.4374 331.146 66.3794 331.406 66.3794 331.707C66.3794 332 66.4374 332.256 66.5544 332.475C66.6754 332.693 66.8434 332.863 67.0584 332.984C67.2734 333.105 67.5234 333.166 67.8084 333.166C68.0934 333.166 68.3414 333.105 68.5524 332.984C68.7674 332.863 68.9354 332.693 69.0564 332.475C69.1774 332.256 69.2384 332 69.2384 331.707L69.2384 331.707ZM74.2654 333.928L74.2654 334.928L71.4064 334.928L71.4064 333.928L74.2654 333.928L74.2654 333.928ZM80.7984 337.109L80.7984 338L75.2144 338L75.2144 337.221L78.0094 334.109C78.3534 333.727 78.6194 333.402 78.8064 333.137C78.9984 332.867 79.1304 332.627 79.2054 332.416C79.2834 332.201 79.3224 331.982 79.3224 331.76C79.3224 331.479 79.2634 331.225 79.1464 330.998C79.0334 330.768 78.8654 330.584 78.6424 330.447C78.4204 330.311 78.1504 330.242 77.8344 330.242C77.4554 330.242 77.1384 330.316 76.8844 330.465C76.6344 330.609 76.4474 330.812 76.3224 331.074C76.1974 331.336 76.1344 331.637 76.1344 331.977L75.0504 331.977C75.0504 331.496 75.1564 331.057 75.3674 330.658C75.5784 330.26 75.8904 329.943 76.3044 329.709C76.7184 329.471 77.2284 329.352 77.8344 329.352C78.3734 329.352 78.8344 329.447 79.2164 329.639C79.5994 329.826 79.8924 330.092 80.0954 330.436C80.3024 330.775 80.4064 331.174 80.4064 331.631C80.4064 331.881 80.3634 332.135 80.2774 332.393C80.1954 332.646 80.0804 332.9 79.9314 333.154C79.7874 333.408 79.6174 333.658 79.4214 333.904C79.2304 334.15 79.0254 334.393 78.8064 334.631L76.5214 337.109L80.7984 337.109L80.7984 337.109ZM87.7244 335.129L87.7244 336.02L81.5604 336.02L81.5604 335.381L85.3804 329.469L86.2654 329.469L85.3164 331.18L82.7914 335.129L87.7244 335.129L87.7244 335.129ZM86.5354 329.469L86.5354 338L85.4514 338L85.4514 329.469L86.5354 329.469L86.5354 329.469Z" id="Фигура" fill="#8794BA" fill-rule="evenodd" stroke="none" />
    <path d="M99.0004 96L355.5 96C358.537 96 361 98.4624 361 101.5C361 104.538 358.537 107 355.5 107L99.0004 107L99.0004 96L99.0004 96Z" id="Фигура" fill="#EF2A82" stroke="none" />
    <path d="M99.0004 153L268.5 153C271.537 153 274 155.462 274 158.5C274 161.538 271.537 164 268.5 164L99.0004 164L99.0004 153L99.0004 153Z" id="Фигура" fill="#EF2A82" stroke="none" />
    <path d="M99.0004 210L109.5 210C112.537 210 115 212.462 115 215.5C115 218.538 112.537 221 109.5 221L99.0004 221L99.0004 210L99.0004 210Z" id="Фигура" fill="#EF2A82" stroke="none" />
    <path d="M99.0004 267L141.5 267C144.537 267 147 269.462 147 272.5C147 275.538 144.537 278 141.5 278L99.0004 278L99.0004 267L99.0004 267Z" id="Фигура" fill="#EF2A82" stroke="none" />
    <path d="M99.0004 324L301.5 324C304.537 324 307 326.462 307 329.5C307 332.538 304.537 335 301.5 335L99.0004 335L99.0004 324L99.0004 324Z" id="Фигура" fill="#EF2A82" stroke="none" />
    <path d="M99.0004 110L241.5 110C244.537 110 247 112.462 247 115.5C247 118.538 244.537 121 241.5 121L99.0004 121L99.0004 110L99.0004 110Z" id="Фигура" fill="#0088F0" stroke="none" />
    <path d="M99.0004 167L301.5 167C304.537 167 307 169.462 307 172.5C307 175.538 304.537 178 301.5 178L99.0004 178L99.0004 167L99.0004 167Z" id="Фигура" fill="#0088F0" stroke="none" />
    <path d="M99.0004 224L141.5 224C144.537 224 147 226.462 147 229.5C147 232.538 144.537 235 141.5 235L99.0004 235L99.0004 224L99.0004 224Z" id="Фигура" fill="#0088F0" stroke="none" />
    <path d="M99.0004 281L432.5 281C435.537 281 438 283.462 438 286.5C438 289.538 435.537 292 432.5 292L99.0004 292L99.0004 281L99.0004 281Z" id="Фигура" fill="#0088F0" stroke="none" />
    <path d="M99.0004 338L489.5 338C492.537 338 495 340.462 495 343.5C495 346.538 492.537 349 489.5 349L99.0004 349L99.0004 338L99.0004 338Z" id="Фигура" fill="#0088F0" stroke="none" />
  </g>
</svg>