<?xml version="1.0" encoding="utf-8"?>
<svg width="335.122px" height="229.1667px" viewBox="0 0 335.122 229.1667" version="1.1" xmlns:xlink="http://www.w3.org/1999/xlink" xmlns="http://www.w3.org/2000/svg">
  <defs>
    <path d="M0.0610046 0.166702L335.061 0.166702L335.061 229.167L0.0610046 229.167L0.0610046 0.166702Z" id="path_1" />
    <clipPath id="mask_1">
      <use xlink:href="#path_1" />
    </clipPath>
  </defs>
  <g id="screenshots__dashboard_mobile_img">
    <path d="M0.0610046 0.166702L335.061 0.166702L335.061 229.167L0.0610046 229.167L0.0610046 0.166702Z" id="Фон" fill="#FFFFFF" fill-opacity="0" fill-rule="evenodd" stroke="none" />
    <path d="M3.8147e-06 33.5122L3.8147e-06 16.7561C3.8147e-06 12.129 1.63592 8.17958 4.90775 4.90775C8.17958 1.63592 12.129 1.90735e-06 16.7561 1.90735e-06L318.366 1.90735e-06C322.993 1.90735e-06 326.942 1.63592 330.214 4.90775C333.486 8.17958 335.122 12.129 335.122 16.7561L335.122 212.244C335.122 216.871 333.486 220.82 330.214 224.092C326.942 227.364 322.993 229 318.366 229L16.7561 229C12.129 229 8.17958 227.364 4.90775 224.092C1.63592 220.82 3.8147e-06 216.871 3.8147e-06 212.244L3.8147e-06 33.5122Z" id="Group" fill="#FFFFFF" fill-rule="evenodd" stroke="none" />
    <path d="M39.0976 56.9707L75.961 56.9707L75.961 86.0146L39.0976 86.0146L39.0976 56.9707Z" id="Прямоугольник" fill="#FFFFFF" fill-rule="evenodd" stroke="none" />
    <path d="M75.9609 56.9707L112.824 56.9707L112.824 86.0146L75.9609 86.0146L75.9609 56.9707Z" id="Прямоугольник" fill="#FFFFFF" fill-rule="evenodd" stroke="none" />
    <path d="M93.5 68.6746L93.5 73.4658L92.894 73.4658L92.894 69.4306L91.674 69.8756L91.674 69.3291L93.405 68.6746L93.5 68.6746L93.5 68.6746Z" id="Фигура" fill="#172755" stroke="none" />
    <path d="M112.824 56.9707L149.687 56.9707L149.687 86.0146L112.824 86.0146L112.824 56.9707Z" id="Прямоугольник" fill="#FFFFFF" fill-rule="evenodd" stroke="none" />
    <path d="M131.495 72.9683L131.495 73.4658L128.376 73.4658L128.376 73.0305L129.938 71.2927C130.13 71.0789 130.278 70.8978 130.383 70.7495C130.49 70.5989 130.564 70.4647 130.605 70.3469C130.649 70.2269 130.671 70.1047 130.671 69.9804C130.671 69.8233 130.638 69.6815 130.572 69.5549C130.509 69.4262 130.415 69.3237 130.291 69.2473C130.167 69.1709 130.016 69.1327 129.839 69.1327C129.628 69.1327 129.451 69.1742 129.309 69.2571C129.17 69.3378 129.065 69.4513 128.995 69.5975C128.925 69.7436 128.89 69.9116 128.89 70.1015L128.285 70.1015C128.285 69.8331 128.344 69.5877 128.462 69.3651C128.579 69.1426 128.754 68.9658 128.985 68.8349C129.216 68.7018 129.501 68.6353 129.839 68.6353C130.14 68.6353 130.398 68.6888 130.612 68.7957C130.826 68.9004 130.989 69.0488 131.103 69.2407C131.218 69.4306 131.276 69.6531 131.276 69.9084C131.276 70.048 131.252 70.1898 131.204 70.3338C131.158 70.4756 131.094 70.6175 131.011 70.7593C130.93 70.9011 130.835 71.0407 130.726 71.1782C130.619 71.3156 130.505 71.4509 130.383 71.584L129.106 72.9683L131.495 72.9683L131.495 72.9683Z" id="Фигура" fill="#172755" stroke="none" />
    <path d="M149.688 56.9707L186.551 56.9707L186.551 86.0146L149.688 86.0146L149.688 56.9707Z" id="Прямоугольник" fill="#FFFFFF" fill-rule="evenodd" stroke="none" />
    <path d="M166.121 70.7855L166.553 70.7855C166.764 70.7855 166.939 70.7505 167.076 70.6807C167.216 70.6087 167.319 70.5116 167.387 70.3895C167.457 70.2651 167.492 70.1255 167.492 69.9706C167.492 69.7873 167.461 69.6335 167.4 69.5091C167.339 69.3847 167.247 69.2909 167.125 69.2277C167.003 69.1644 166.848 69.1327 166.661 69.1327C166.49 69.1327 166.34 69.1666 166.209 69.2342C166.08 69.2997 165.979 69.3935 165.905 69.5157C165.833 69.6378 165.797 69.7818 165.797 69.9476L165.191 69.9476C165.191 69.7055 165.252 69.4851 165.374 69.2866C165.497 69.088 165.668 68.9298 165.888 68.812C166.111 68.6942 166.368 68.6353 166.661 68.6353C166.949 68.6353 167.201 68.6866 167.417 68.7891C167.633 68.8895 167.801 69.04 167.921 69.2407C168.041 69.4393 168.101 69.6869 168.101 69.9836C168.101 70.1036 168.072 70.2324 168.015 70.3698C167.961 70.5051 167.875 70.6316 167.757 70.7495C167.641 70.8673 167.491 70.9644 167.305 71.0407C167.12 71.1149 166.897 71.152 166.638 71.152L166.121 71.152L166.121 70.7855L166.121 70.7855ZM166.121 71.2829L166.121 70.9196L166.638 70.9196C166.941 70.9196 167.192 70.9556 167.39 71.0276C167.589 71.0996 167.745 71.1956 167.858 71.3156C167.974 71.4356 168.055 71.5676 168.101 71.7116C168.149 71.8534 168.173 71.9953 168.173 72.1371C168.173 72.3596 168.134 72.5571 168.058 72.7294C167.984 72.9018 167.878 73.048 167.741 73.168C167.605 73.288 167.446 73.3785 167.263 73.4396C167.079 73.5007 166.88 73.5312 166.664 73.5312C166.457 73.5312 166.261 73.5018 166.078 73.4429C165.897 73.384 165.737 73.2989 165.597 73.1876C165.457 73.0741 165.348 72.9356 165.27 72.772C165.191 72.6061 165.152 72.4174 165.152 72.2058L165.757 72.2058C165.757 72.3716 165.793 72.5167 165.865 72.6411C165.94 72.7654 166.044 72.8625 166.18 72.9323C166.317 73 166.478 73.0338 166.664 73.0338C166.849 73.0338 167.009 73.0021 167.142 72.9389C167.277 72.8734 167.381 72.7752 167.453 72.6443C167.527 72.5134 167.564 72.3487 167.564 72.1502C167.564 71.9516 167.522 71.7891 167.439 71.6625C167.357 71.5338 167.239 71.4389 167.086 71.3778C166.935 71.3145 166.758 71.2829 166.553 71.2829L166.121 71.2829L166.121 71.2829Z" id="Фигура" fill="#172755" fill-rule="evenodd" stroke="none" />
    <path d="M186.551 56.9707L223.414 56.9707L223.414 86.0146L186.551 86.0146L186.551 56.9707Z" id="Прямоугольник" fill="#FFFFFF" fill-rule="evenodd" stroke="none" />
    <path d="M205.321 71.8622L205.321 72.3596L201.878 72.3596L201.878 72.0029L204.011 68.7008L204.506 68.7008L203.975 69.6564L202.565 71.8622L205.321 71.8622L205.321 71.8622ZM205.051 68.7008L205.051 73.4658L204.051 73.4658L204.051 68.7008L205.051 68.7008L205.051 68.7008Z" id="Фигура" fill="#172755" fill-rule="evenodd" stroke="none" />
    <path d="M223.415 56.9707L260.278 56.9707L260.278 86.0146L223.415 86.0146L223.415 56.9707Z" id="Прямоугольник" fill="#FFFFFF" fill-rule="evenodd" stroke="none" />
    <path d="M239.729 71.1978L239.245 71.0734L239.484 68.7008L241.929 68.7008L241.929 69.2604L239.998 69.2604L239.854 70.5564C239.941 70.5062 240.051 70.4593 240.184 70.4156C240.32 70.372 240.474 70.3502 240.649 70.3502C240.869 70.3502 241.067 70.3884 241.241 70.4647C241.416 70.5389 241.564 70.6458 241.686 70.7855C241.811 70.9251 241.906 71.0931 241.971 71.2894C242.037 71.4858 242.069 71.7051 242.069 71.9473C242.069 72.1763 242.038 72.3869 241.974 72.5789C241.913 72.7709 241.821 72.9389 241.696 73.0829C241.572 73.2247 241.415 73.3349 241.225 73.4134C241.037 73.492 240.816 73.5312 240.561 73.5312C240.369 73.5312 240.186 73.505 240.014 73.4527C239.844 73.3981 239.691 73.3163 239.556 73.2072C239.423 73.096 239.314 72.9585 239.229 72.7949C239.146 72.6291 239.093 72.4349 239.072 72.2123L239.648 72.2123C239.674 72.3912 239.726 72.5418 239.805 72.664C239.883 72.7861 239.986 72.8789 240.112 72.9421C240.241 73.0032 240.39 73.0338 240.561 73.0338C240.705 73.0338 240.832 73.0087 240.944 72.9585C241.055 72.9083 241.149 72.8363 241.225 72.7425C241.301 72.6487 241.359 72.5352 241.398 72.4022C241.44 72.2691 241.461 72.1196 241.461 71.9538C241.461 71.8033 241.44 71.6636 241.398 71.5349C241.357 71.4062 241.295 71.2938 241.212 71.1978C241.131 71.1018 241.032 71.0276 240.914 70.9753C240.796 70.9207 240.661 70.8934 240.508 70.8934C240.305 70.8934 240.152 70.9207 240.047 70.9753C239.944 71.0298 239.838 71.104 239.729 71.1978L239.729 71.1978Z" id="Фигура" fill="#172755" stroke="none" />
    <path d="M260.278 56.9707L297.141 56.9707L297.141 86.0146L260.278 86.0146L260.278 56.9707Z" id="Прямоугольник" fill="#FFFFFF" fill-rule="evenodd" stroke="none" />
    <path d="M278.15 68.6942L278.203 68.6942L278.203 69.208L278.15 69.208C277.83 69.208 277.561 69.2604 277.345 69.3651C277.129 69.4677 276.958 69.6062 276.832 69.7807C276.705 69.9531 276.613 70.1473 276.557 70.3633C276.502 70.5793 276.475 70.7985 276.475 71.0211L276.475 71.7214C276.475 71.9331 276.5 72.1207 276.55 72.2843C276.6 72.4458 276.669 72.5821 276.756 72.6934C276.844 72.8047 276.942 72.8887 277.051 72.9454C277.162 73.0021 277.278 73.0305 277.398 73.0305C277.537 73.0305 277.662 73.0043 277.771 72.952C277.88 72.8974 277.972 72.8221 278.046 72.7261C278.122 72.628 278.18 72.5123 278.219 72.3792C278.258 72.2462 278.278 72.1 278.278 71.9407C278.278 71.7989 278.261 71.6625 278.226 71.5316C278.191 71.3985 278.137 71.2807 278.065 71.1782C277.993 71.0734 277.903 70.9916 277.794 70.9327C277.687 70.8716 277.559 70.8411 277.411 70.8411C277.243 70.8411 277.086 70.8825 276.94 70.9654C276.796 71.0462 276.677 71.1531 276.583 71.2862C276.491 71.4171 276.439 71.56 276.426 71.7149L276.105 71.7116C276.136 71.4673 276.192 71.2589 276.275 71.0865C276.36 70.912 276.465 70.7702 276.589 70.6611C276.716 70.5498 276.857 70.4691 277.012 70.4189C277.169 70.3665 277.334 70.3404 277.509 70.3404C277.747 70.3404 277.952 70.3851 278.124 70.4745C278.297 70.564 278.438 70.684 278.55 70.8345C278.661 70.9829 278.743 71.1509 278.795 71.3385C278.85 71.524 278.877 71.7149 278.877 71.9113C278.877 72.136 278.845 72.3465 278.782 72.5429C278.719 72.7392 278.624 72.9116 278.497 73.06C278.373 73.2083 278.219 73.324 278.036 73.4069C277.853 73.4898 277.64 73.5312 277.398 73.5312C277.14 73.5312 276.916 73.4789 276.724 73.3741C276.532 73.2672 276.372 73.1254 276.246 72.9487C276.119 72.772 276.024 72.5756 275.961 72.3596C275.898 72.1436 275.866 71.9243 275.866 71.7018L275.866 71.4171C275.866 71.0811 275.9 70.7516 275.968 70.4287C276.035 70.1058 276.152 69.8135 276.318 69.5517C276.486 69.2898 276.718 69.0815 277.015 68.9266C277.312 68.7717 277.69 68.6942 278.15 68.6942L278.15 68.6942Z" id="Фигура" fill="#172755" stroke="none" />
    <path d="M39.0976 86.0147L75.961 86.0147L75.961 115.059L39.0976 115.059L39.0976 86.0147Z" id="Прямоугольник" fill="#FFFFFF" fill-rule="evenodd" stroke="none" />
    <path d="M57.7262 97.7447L57.7262 98.0847L55.7528 102.51L55.1146 102.51L57.0848 98.2417L54.5059 98.2417L54.5059 97.7447L57.7262 97.7447L57.7262 97.7447Z" id="Фигура" fill="#172755" stroke="none" />
    <path d="M75.9609 86.0147L112.824 86.0147L112.824 115.059L75.9609 115.059L75.9609 86.0147Z" id="Прямоугольник" fill="#FFFFFF" fill-rule="evenodd" stroke="none" />
    <path d="M83.2225 100.258C83.2225 94.2425 88.0988 89.3662 94.114 89.3662C100.129 89.3662 105.006 94.2425 105.006 100.258C105.006 106.273 100.129 111.149 94.114 111.149C88.0988 111.149 83.2225 106.273 83.2225 100.258Z" id="Круг" fill="#0088F0" fill-rule="evenodd" stroke="none" />
    <path d="M94.514 101.221C94.514 101.511 94.447 101.757 94.311 101.96C94.178 102.161 93.997 102.314 93.768 102.418C93.541 102.523 93.285 102.575 92.999 102.575C92.713 102.575 92.456 102.523 92.227 102.418C91.998 102.314 91.816 102.161 91.683 101.96C91.55 101.757 91.484 101.511 91.484 101.221C91.484 101.031 91.52 100.857 91.592 100.7C91.666 100.541 91.77 100.402 91.903 100.285C92.038 100.167 92.197 100.076 92.38 100.013C92.566 99.9477 92.77 99.9147 92.992 99.9147C93.285 99.9147 93.546 99.9717 93.775 100.085C94.004 100.196 94.184 100.35 94.315 100.546C94.448 100.743 94.514 100.967 94.514 101.221L94.514 101.221ZM93.906 101.207C93.906 101.031 93.867 100.875 93.791 100.74C93.715 100.602 93.608 100.495 93.47 100.419C93.333 100.342 93.174 100.304 92.992 100.304C92.807 100.304 92.647 100.342 92.511 100.419C92.378 100.495 92.275 100.602 92.2 100.74C92.126 100.875 92.089 101.031 92.089 101.207C92.089 101.391 92.125 101.548 92.197 101.679C92.271 101.807 92.376 101.907 92.511 101.977C92.649 102.044 92.811 102.078 92.999 102.078C93.187 102.078 93.348 102.044 93.483 101.977C93.619 101.907 93.722 101.807 93.794 101.679C93.868 101.548 93.906 101.391 93.906 101.207L93.906 101.207ZM94.403 98.9847C94.403 99.2167 94.342 99.4247 94.22 99.6097C94.098 99.7957 93.931 99.9417 93.719 100.049C93.507 100.156 93.267 100.209 92.999 100.209C92.726 100.209 92.483 100.156 92.269 100.049C92.058 99.9417 91.892 99.7957 91.772 99.6097C91.652 99.4247 91.592 99.2167 91.592 98.9847C91.592 98.7077 91.652 98.4727 91.772 98.2777C91.894 98.0837 92.061 97.9357 92.272 97.8327C92.484 97.7307 92.725 97.6797 92.996 97.6797C93.268 97.6797 93.511 97.7307 93.722 97.8327C93.934 97.9357 94.1 98.0837 94.22 98.2777C94.342 98.4727 94.403 98.7077 94.403 98.9847L94.403 98.9847ZM93.798 98.9947C93.798 98.8357 93.764 98.6947 93.696 98.5727C93.628 98.4507 93.535 98.3547 93.415 98.2847C93.295 98.2127 93.155 98.1767 92.996 98.1767C92.836 98.1767 92.697 98.2107 92.577 98.2777C92.459 98.3437 92.366 98.4377 92.299 98.5597C92.233 98.6817 92.2 98.8267 92.2 98.9947C92.2 99.1587 92.233 99.3017 92.299 99.4237C92.366 99.5457 92.46 99.6407 92.58 99.7087C92.7 99.7757 92.84 99.8097 92.999 99.8097C93.158 99.8097 93.297 99.7757 93.415 99.7087C93.535 99.6407 93.628 99.5457 93.696 99.4237C93.764 99.3017 93.798 99.1587 93.798 98.9947L93.798 98.9947Z" id="Фигура" fill="#EEEEF7" fill-rule="evenodd" stroke="none" />
    <path d="M112.824 86.0147L149.687 86.0147L149.687 115.059L112.824 115.059L112.824 86.0147Z" id="Прямоугольник" fill="#FFFFFF" fill-rule="evenodd" stroke="none" />
    <path d="M120.085 100.258C120.085 94.2425 124.961 89.3662 130.976 89.3662C136.991 89.3662 141.868 94.2425 141.868 100.258C141.868 106.273 136.991 111.149 130.976 111.149C124.961 111.149 120.085 106.273 120.085 100.258Z" id="Круг" fill="#0088F0" fill-rule="evenodd" stroke="none" />
    <path d="M128.975 102.003L129.038 102.003C129.387 102.003 129.67 101.954 129.888 101.855C130.107 101.757 130.275 101.625 130.392 101.459C130.51 101.294 130.591 101.107 130.635 100.9C130.678 100.69 130.7 100.476 130.7 100.255L130.7 99.5247C130.7 99.3087 130.675 99.1167 130.625 98.9487C130.577 98.7807 130.509 98.6407 130.422 98.5267C130.337 98.4137 130.24 98.3277 130.131 98.2687C130.022 98.2097 129.906 98.1797 129.784 98.1797C129.644 98.1797 129.519 98.2087 129.407 98.2647C129.298 98.3197 129.206 98.3967 129.129 98.4977C129.055 98.5977 128.998 98.7157 128.959 98.8507C128.92 98.9857 128.9 99.1337 128.9 99.2927C128.9 99.4347 128.918 99.5717 128.952 99.7047C128.987 99.8377 129.041 99.9577 129.113 100.065C129.185 100.172 129.274 100.257 129.381 100.321C129.49 100.382 129.618 100.412 129.764 100.412C129.899 100.412 130.026 100.386 130.144 100.334C130.264 100.279 130.37 100.206 130.461 100.114C130.555 100.021 130.629 99.9147 130.684 99.7967C130.74 99.6787 130.773 99.5557 130.782 99.4267L131.07 99.4267C131.07 99.6077 131.034 99.7867 130.962 99.9637C130.892 100.138 130.794 100.298 130.667 100.442C130.541 100.586 130.392 100.701 130.222 100.789C130.052 100.874 129.867 100.916 129.666 100.916C129.43 100.916 129.226 100.87 129.054 100.779C128.882 100.687 128.74 100.565 128.628 100.412C128.519 100.26 128.438 100.089 128.383 99.9017C128.331 99.7117 128.304 99.5197 128.304 99.3257C128.304 99.0987 128.336 98.8857 128.399 98.6877C128.463 98.4887 128.556 98.3137 128.681 98.1637C128.805 98.0107 128.959 97.8917 129.142 97.8067C129.328 97.7217 129.542 97.6797 129.784 97.6797C130.056 97.6797 130.289 97.7337 130.481 97.8427C130.673 97.9517 130.829 98.0977 130.949 98.2817C131.071 98.4647 131.16 98.6707 131.217 98.8997C131.274 99.1287 131.302 99.3647 131.302 99.6067L131.302 99.8257C131.302 100.073 131.286 100.324 131.253 100.579C131.223 100.832 131.163 101.074 131.073 101.306C130.986 101.537 130.858 101.744 130.69 101.927C130.522 102.109 130.303 102.253 130.032 102.359C129.764 102.464 129.432 102.517 129.038 102.517L128.975 102.517L128.975 102.003L128.975 102.003Z" id="Фигура" fill="#EEEEF7" stroke="none" />
    <path d="M149.688 86.0147L186.551 86.0147L186.551 115.059L149.688 115.059L149.688 86.0147Z" id="Прямоугольник" fill="#FFFFFF" fill-rule="evenodd" stroke="none" />
    <path d="M156.95 100.258C156.95 94.2425 161.826 89.3662 167.841 89.3662C173.856 89.3662 178.733 94.2425 178.733 100.258C178.733 106.273 173.856 111.149 167.841 111.149C161.826 111.149 156.95 106.273 156.95 100.258Z" id="Круг" fill="#0088F0" fill-rule="evenodd" stroke="none" />
    <path d="M165.107 97.7187L165.107 102.51L164.502 102.51L164.502 98.4747L163.281 98.9197L163.281 98.3727L165.012 97.7187L165.107 97.7187L165.107 97.7187ZM169.879 99.7477L169.879 100.474C169.879 100.865 169.844 101.194 169.774 101.463C169.704 101.731 169.604 101.947 169.473 102.111C169.342 102.274 169.184 102.393 168.999 102.467C168.815 102.539 168.608 102.575 168.377 102.575C168.193 102.575 168.024 102.553 167.869 102.507C167.715 102.461 167.575 102.388 167.451 102.287C167.328 102.185 167.224 102.052 167.136 101.888C167.049 101.725 166.983 101.526 166.937 101.293C166.891 101.059 166.868 100.786 166.868 100.474L166.868 99.7477C166.868 99.3567 166.903 99.0297 166.973 98.7657C167.045 98.5017 167.146 98.2897 167.277 98.1307C167.408 97.9697 167.565 97.8537 167.748 97.7837C167.934 97.7137 168.141 97.6797 168.37 97.6797C168.556 97.6797 168.726 97.7017 168.881 97.7477C169.038 97.7917 169.177 97.8627 169.3 97.9607C169.422 98.0567 169.525 98.1857 169.611 98.3467C169.698 98.5057 169.764 98.7017 169.81 98.9327C169.856 99.1637 169.879 99.4357 169.879 99.7477L169.879 99.7477ZM169.27 100.573L169.27 99.6457C169.27 99.4327 169.257 99.2447 169.231 99.0837C169.207 98.9197 169.171 98.7797 169.123 98.6647C169.075 98.5487 169.014 98.4547 168.94 98.3827C168.868 98.3107 168.784 98.2587 168.688 98.2257C168.594 98.1907 168.488 98.1737 168.37 98.1737C168.226 98.1737 168.099 98.2007 167.987 98.2557C167.876 98.3077 167.782 98.3917 167.706 98.5077C167.632 98.6227 167.575 98.7747 167.536 98.9617C167.496 99.1497 167.477 99.3777 167.477 99.6457L167.477 100.573C167.477 100.786 167.489 100.975 167.513 101.139C167.539 101.302 167.577 101.444 167.627 101.564C167.677 101.682 167.739 101.779 167.811 101.855C167.883 101.932 167.965 101.989 168.059 102.026C168.155 102.061 168.261 102.078 168.377 102.078C168.525 102.078 168.655 102.05 168.766 101.993C168.877 101.936 168.97 101.848 169.044 101.728C169.121 101.606 169.177 101.45 169.215 101.26C169.252 101.068 169.27 100.839 169.27 100.573L169.27 100.573Z" id="Фигура" fill="#EEEEF7" fill-rule="evenodd" stroke="none" />
    <path d="M186.551 86.0147L223.414 86.0147L223.414 115.059L186.551 115.059L186.551 86.0147Z" id="Прямоугольник" fill="#FFFFFF" fill-rule="evenodd" stroke="none" />
    <path d="M201.971 97.7187L201.971 102.51L201.365 102.51L201.365 98.4747L200.144 98.9197L200.144 98.3727L201.876 97.7187L201.971 97.7187L201.971 97.7187ZM205.741 97.7187L205.741 102.51L205.135 102.51L205.135 98.4747L203.915 98.9197L203.915 98.3727L205.646 97.7187L205.741 97.7187L205.741 97.7187Z" id="Фигура" fill="#172755" fill-rule="evenodd" stroke="none" />
    <path d="M223.415 86.0147L260.278 86.0147L260.278 115.059L223.415 115.059L223.415 86.0147Z" id="Прямоугольник" fill="#FFFFFF" fill-rule="evenodd" stroke="none" />
    <path d="M238.834 97.7187L238.834 102.51L238.229 102.51L238.229 98.4747L237.008 98.9197L237.008 98.3727L238.739 97.7187L238.834 97.7187L238.834 97.7187ZM243.737 102.013L243.737 102.51L240.618 102.51L240.618 102.075L242.179 100.337C242.371 100.123 242.519 99.9417 242.624 99.7937C242.731 99.6427 242.805 99.5087 242.847 99.3907C242.89 99.2707 242.912 99.1487 242.912 99.0247C242.912 98.8677 242.879 98.7257 242.814 98.5987C242.751 98.4697 242.657 98.3677 242.532 98.2917C242.408 98.2147 242.258 98.1767 242.081 98.1767C241.869 98.1767 241.693 98.2177 241.551 98.3007C241.411 98.3817 241.306 98.4957 241.237 98.6417C241.167 98.7877 241.132 98.9557 241.132 99.1457L240.526 99.1457C240.526 98.8767 240.585 98.6317 240.703 98.4087C240.821 98.1867 240.995 98.0097 241.227 97.8787C241.458 97.7457 241.743 97.6797 242.081 97.6797C242.382 97.6797 242.639 97.7327 242.853 97.8397C243.067 97.9447 243.231 98.0927 243.344 98.2847C243.46 98.4747 243.518 98.6967 243.518 98.9527C243.518 99.0917 243.494 99.2337 243.446 99.3777C243.4 99.5197 243.335 99.6617 243.252 99.8037C243.172 99.9447 243.077 100.085 242.968 100.222C242.861 100.36 242.746 100.495 242.624 100.628L241.348 102.013L243.737 102.013L243.737 102.013Z" id="Фигура" fill="#172755" fill-rule="evenodd" stroke="none" />
    <path d="M260.278 86.0147L297.141 86.0147L297.141 115.059L260.278 115.059L260.278 86.0147Z" id="Прямоугольник" fill="#FFFFFF" fill-rule="evenodd" stroke="none" />
    <path d="M275.697 97.7187L275.697 102.51L275.092 102.51L275.092 98.4747L273.871 98.9197L273.871 98.3727L275.602 97.7187L275.697 97.7187L275.697 97.7187ZM278.361 99.8297L278.793 99.8297C279.005 99.8297 279.179 99.7947 279.317 99.7247C279.456 99.6527 279.56 99.5557 279.628 99.4337C279.697 99.3087 279.732 99.1697 279.732 99.0147C279.732 98.8317 279.702 98.6777 279.641 98.5527C279.58 98.4287 279.488 98.3347 279.366 98.2717C279.244 98.2087 279.089 98.1767 278.901 98.1767C278.731 98.1767 278.58 98.2107 278.449 98.2777C278.321 98.3437 278.219 98.4377 278.145 98.5597C278.073 98.6817 278.037 98.8257 278.037 98.9917L277.432 98.9917C277.432 98.7497 277.493 98.5287 277.615 98.3307C277.737 98.1317 277.908 97.9737 278.129 97.8557C278.351 97.7377 278.609 97.6797 278.901 97.6797C279.189 97.6797 279.441 97.7307 279.657 97.8327C279.873 97.9337 280.041 98.0837 280.161 98.2847C280.281 98.4837 280.341 98.7307 280.341 99.0277C280.341 99.1477 280.313 99.2767 280.256 99.4137C280.201 99.5487 280.115 99.6757 279.997 99.7937C279.882 99.9117 279.731 100.009 279.546 100.085C279.36 100.159 279.138 100.196 278.878 100.196L278.361 100.196L278.361 99.8297L278.361 99.8297ZM278.361 100.327L278.361 99.9637L278.878 99.9637C279.181 99.9637 279.432 99.9997 279.631 100.072C279.829 100.144 279.985 100.24 280.099 100.36C280.215 100.48 280.295 100.612 280.341 100.756C280.389 100.898 280.413 101.039 280.413 101.181C280.413 101.404 280.375 101.601 280.299 101.774C280.224 101.946 280.119 102.092 279.981 102.212C279.846 102.332 279.687 102.423 279.503 102.484C279.32 102.545 279.12 102.575 278.904 102.575C278.697 102.575 278.502 102.546 278.319 102.487C278.137 102.428 277.977 102.343 277.837 102.232C277.698 102.118 277.589 101.98 277.51 101.816C277.432 101.65 277.392 101.462 277.392 101.25L277.998 101.25C277.998 101.416 278.034 101.561 278.106 101.685C278.18 101.81 278.285 101.907 278.42 101.977C278.557 102.044 278.719 102.078 278.904 102.078C279.09 102.078 279.249 102.046 279.382 101.983C279.517 101.918 279.621 101.819 279.693 101.689C279.767 101.558 279.804 101.393 279.804 101.194C279.804 100.996 279.763 100.833 279.68 100.707C279.597 100.578 279.479 100.483 279.327 100.422C279.176 100.359 278.998 100.327 278.793 100.327L278.361 100.327L278.361 100.327Z" id="Фигура" fill="#172755" fill-rule="evenodd" stroke="none" />
    <path d="M39.0976 115.059L75.961 115.059L75.961 144.103L39.0976 144.103L39.0976 115.059Z" id="Прямоугольник" fill="#FFFFFF" fill-rule="evenodd" stroke="none" />
    <path d="M54.517 126.763L54.517 131.554L53.9115 131.554L53.9115 127.519L52.6908 127.964L52.6908 127.417L54.4221 126.763L54.517 126.763L54.517 126.763ZM59.5176 129.95L59.5176 130.448L56.0748 130.448L56.0748 130.091L58.2086 126.789L58.7027 126.789L58.1726 127.745L56.762 129.95L59.5176 129.95L59.5176 129.95ZM59.2478 126.789L59.2478 131.554L58.2478 131.554L58.2478 126.789L59.2478 126.789L59.2478 126.789Z" id="Фигура" fill="#172755" fill-rule="evenodd" stroke="none" />
    <path d="M75.9609 115.059L112.824 115.059L112.824 144.103L75.9609 144.103L75.9609 115.059Z" id="Прямоугольник" fill="#FFFFFF" fill-rule="evenodd" stroke="none" />
    <path d="M91.38 126.763L91.38 131.554L90.775 131.554L90.775 127.519L89.554 127.964L89.554 127.417L91.285 126.763L91.38 126.763L91.38 126.763ZM93.926 129.286L93.442 129.162L93.681 126.789L96.126 126.789L96.126 127.349L94.195 127.349L94.051 128.645C94.138 128.594 94.248 128.547 94.381 128.504C94.517 128.46 94.671 128.438 94.846 128.438C95.066 128.438 95.264 128.477 95.438 128.553C95.613 128.627 95.761 128.734 95.883 128.874C96.008 129.013 96.103 129.181 96.168 129.378C96.234 129.574 96.266 129.793 96.266 130.035C96.266 130.265 96.235 130.475 96.171 130.667C96.11 130.859 96.018 131.027 95.893 131.171C95.769 131.313 95.612 131.423 95.422 131.502C95.234 131.58 95.013 131.619 94.758 131.619C94.566 131.619 94.383 131.593 94.211 131.541C94.041 131.486 93.888 131.405 93.753 131.295C93.62 131.184 93.511 131.047 93.426 130.883C93.343 130.717 93.29 130.523 93.269 130.301L93.845 130.301C93.871 130.479 93.923 130.63 94.002 130.752C94.08 130.874 94.183 130.967 94.309 131.03C94.438 131.091 94.587 131.122 94.758 131.122C94.902 131.122 95.029 131.097 95.141 131.047C95.252 130.997 95.346 130.925 95.422 130.831C95.498 130.737 95.556 130.623 95.595 130.49C95.637 130.357 95.658 130.208 95.658 130.042C95.658 129.891 95.637 129.752 95.595 129.623C95.554 129.494 95.492 129.382 95.409 129.286C95.328 129.19 95.229 129.116 95.111 129.063C94.993 129.009 94.858 128.982 94.705 128.982C94.502 128.982 94.349 129.009 94.244 129.063C94.141 129.118 94.036 129.192 93.926 129.286L93.926 129.286Z" id="Фигура" fill="#172755" fill-rule="evenodd" stroke="none" />
    <path d="M112.824 115.059L149.687 115.059L149.687 144.103L112.824 144.103L112.824 115.059Z" id="Прямоугольник" fill="#FFFFFF" fill-rule="evenodd" stroke="none" />
    <path d="M128.244 126.763L128.244 131.554L127.638 131.554L127.638 127.519L126.417 127.964L126.417 127.417L128.149 126.763L128.244 126.763L128.244 126.763ZM132.347 126.782L132.4 126.782L132.4 127.296L132.347 127.296C132.027 127.296 131.758 127.349 131.542 127.453C131.326 127.556 131.155 127.694 131.029 127.869C130.902 128.041 130.81 128.235 130.754 128.451C130.699 128.667 130.672 128.887 130.672 129.109L130.672 129.81C130.672 130.021 130.697 130.209 130.747 130.373C130.797 130.534 130.866 130.67 130.953 130.782C131.041 130.893 131.139 130.977 131.248 131.034C131.359 131.09 131.475 131.119 131.595 131.119C131.734 131.119 131.859 131.093 131.968 131.04C132.077 130.986 132.169 130.91 132.243 130.814C132.319 130.716 132.377 130.601 132.416 130.467C132.455 130.334 132.475 130.188 132.475 130.029C132.475 129.887 132.458 129.751 132.423 129.62C132.388 129.487 132.334 129.369 132.262 129.266C132.19 129.162 132.1 129.08 131.991 129.021C131.884 128.96 131.756 128.929 131.608 128.929C131.44 128.929 131.283 128.971 131.137 129.054C130.993 129.134 130.874 129.241 130.78 129.374C130.688 129.505 130.636 129.648 130.623 129.803L130.302 129.8C130.333 129.555 130.389 129.347 130.472 129.175C130.557 129 130.662 128.858 130.786 128.749C130.913 128.638 131.054 128.557 131.209 128.507C131.366 128.455 131.532 128.429 131.706 128.429C131.944 128.429 132.149 128.473 132.321 128.563C132.494 128.652 132.635 128.772 132.747 128.923C132.858 129.071 132.94 129.239 132.992 129.427C133.047 129.612 133.074 129.803 133.074 129.999C133.074 130.224 133.042 130.435 132.979 130.631C132.916 130.827 132.821 131 132.694 131.148C132.57 131.297 132.416 131.412 132.233 131.495C132.05 131.578 131.837 131.619 131.595 131.619C131.337 131.619 131.113 131.567 130.921 131.462C130.729 131.355 130.569 131.214 130.443 131.037C130.316 130.86 130.221 130.664 130.158 130.448C130.095 130.232 130.063 130.013 130.063 129.79L130.063 129.505C130.063 129.169 130.097 128.84 130.165 128.517C130.232 128.194 130.349 127.902 130.515 127.64C130.683 127.378 130.915 127.17 131.212 127.015C131.509 126.86 131.887 126.782 132.347 126.782L132.347 126.782Z" id="Фигура" fill="#172755" fill-rule="evenodd" stroke="none" />
    <path d="M149.688 115.059L186.551 115.059L186.551 144.103L149.688 144.103L149.688 115.059Z" id="Прямоугольник" fill="#FFFFFF" fill-rule="evenodd" stroke="none" />
    <path d="M165.107 126.763L165.107 131.554L164.502 131.554L164.502 127.519L163.281 127.964L163.281 127.417L165.012 126.763L165.107 126.763L165.107 126.763ZM169.967 126.789L169.967 127.129L167.994 131.554L167.356 131.554L169.326 127.286L166.747 127.286L166.747 126.789L169.967 126.789L169.967 126.789Z" id="Фигура" fill="#172755" fill-rule="evenodd" stroke="none" />
    <path d="M186.551 115.059L223.414 115.059L223.414 144.103L186.551 144.103L186.551 115.059Z" id="Прямоугольник" fill="#FFFFFF" fill-rule="evenodd" stroke="none" />
    <path d="M193.812 129.302C193.812 123.286 198.688 118.41 204.703 118.41C210.718 118.41 215.595 123.286 215.595 129.302C215.595 135.317 210.718 140.193 204.703 140.193C198.688 140.193 193.812 135.317 193.812 129.302Z" id="Круг" fill="#EF2A82" fill-rule="evenodd" stroke="none" />
    <path d="M201.971 126.763L201.971 131.554L201.365 131.554L201.365 127.519L200.144 127.964L200.144 127.417L201.876 126.763L201.971 126.763L201.971 126.763ZM206.755 130.265C206.755 130.555 206.688 130.801 206.552 131.004C206.419 131.205 206.238 131.358 206.009 131.462C205.782 131.567 205.526 131.619 205.24 131.619C204.954 131.619 204.697 131.567 204.468 131.462C204.239 131.358 204.057 131.205 203.924 131.004C203.791 130.801 203.725 130.555 203.725 130.265C203.725 130.075 203.761 129.901 203.833 129.744C203.907 129.585 204.011 129.446 204.144 129.329C204.279 129.211 204.438 129.12 204.621 129.057C204.807 128.991 205.011 128.959 205.233 128.959C205.526 128.959 205.787 129.015 206.016 129.129C206.245 129.24 206.425 129.394 206.556 129.59C206.689 129.787 206.755 130.011 206.755 130.265L206.755 130.265ZM206.147 130.251C206.147 130.075 206.108 129.919 206.032 129.783C205.956 129.646 205.849 129.539 205.711 129.463C205.574 129.386 205.415 129.348 205.233 129.348C205.048 129.348 204.888 129.386 204.752 129.463C204.619 129.539 204.516 129.646 204.441 129.783C204.367 129.919 204.33 130.075 204.33 130.251C204.33 130.435 204.366 130.592 204.438 130.723C204.512 130.851 204.617 130.951 204.752 131.021C204.89 131.088 205.052 131.122 205.24 131.122C205.428 131.122 205.589 131.088 205.724 131.021C205.86 130.951 205.963 130.851 206.035 130.723C206.109 130.592 206.147 130.435 206.147 130.251L206.147 130.251ZM206.644 128.029C206.644 128.261 206.583 128.469 206.461 128.654C206.339 128.84 206.172 128.986 205.96 129.093C205.748 129.2 205.508 129.253 205.24 129.253C204.967 129.253 204.724 129.2 204.51 129.093C204.299 128.986 204.133 128.84 204.013 128.654C203.893 128.469 203.833 128.261 203.833 128.029C203.833 127.752 203.893 127.517 204.013 127.322C204.135 127.128 204.302 126.98 204.513 126.877C204.725 126.775 204.966 126.723 205.237 126.723C205.509 126.723 205.752 126.775 205.963 126.877C206.175 126.98 206.341 127.128 206.461 127.322C206.583 127.517 206.644 127.752 206.644 128.029L206.644 128.029ZM206.039 128.039C206.039 127.88 206.005 127.739 205.937 127.617C205.869 127.495 205.776 127.399 205.656 127.329C205.536 127.257 205.396 127.221 205.237 127.221C205.077 127.221 204.938 127.255 204.818 127.322C204.7 127.388 204.607 127.482 204.54 127.604C204.474 127.726 204.441 127.871 204.441 128.039C204.441 128.203 204.474 128.346 204.54 128.468C204.607 128.59 204.701 128.685 204.821 128.753C204.941 128.82 205.081 128.854 205.24 128.854C205.399 128.854 205.538 128.82 205.656 128.753C205.776 128.685 205.869 128.59 205.937 128.468C206.005 128.346 206.039 128.203 206.039 128.039L206.039 128.039Z" id="Фигура" fill="#EEEEF7" fill-rule="evenodd" stroke="none" />
    <path d="M223.415 115.059L260.278 115.059L260.278 144.103L223.415 144.103L223.415 115.059Z" id="Прямоугольник" fill="#FFFFFF" fill-rule="evenodd" stroke="none" />
    <path d="M238.834 126.763L238.834 131.554L238.229 131.554L238.229 127.519L237.008 127.964L237.008 127.417L238.739 126.763L238.834 126.763L238.834 126.763ZM241.217 131.047L241.279 131.047C241.628 131.047 241.912 130.998 242.13 130.899C242.348 130.801 242.516 130.669 242.634 130.503C242.752 130.338 242.832 130.151 242.876 129.944C242.92 129.734 242.942 129.519 242.942 129.299L242.942 128.569C242.942 128.353 242.916 128.161 242.866 127.993C242.818 127.825 242.751 127.685 242.663 127.571C242.578 127.458 242.481 127.371 242.372 127.313C242.263 127.254 242.147 127.224 242.025 127.224C241.886 127.224 241.76 127.253 241.649 127.309C241.54 127.364 241.447 127.441 241.371 127.542C241.297 127.642 241.24 127.76 241.201 127.895C241.161 128.03 241.142 128.178 241.142 128.337C241.142 128.479 241.159 128.616 241.194 128.749C241.229 128.882 241.282 129.002 241.354 129.109C241.426 129.216 241.516 129.301 241.623 129.365C241.732 129.426 241.859 129.456 242.006 129.456C242.141 129.456 242.267 129.43 242.385 129.378C242.505 129.323 242.611 129.25 242.703 129.158C242.796 129.065 242.871 128.959 242.925 128.841C242.982 128.723 243.015 128.6 243.023 128.471L243.311 128.471C243.311 128.652 243.275 128.831 243.203 129.008C243.134 129.182 243.035 129.342 242.909 129.486C242.782 129.63 242.634 129.745 242.464 129.833C242.294 129.918 242.108 129.96 241.907 129.96C241.672 129.96 241.468 129.914 241.295 129.823C241.123 129.731 240.981 129.609 240.87 129.456C240.761 129.303 240.679 129.133 240.625 128.946C240.572 128.756 240.546 128.564 240.546 128.37C240.546 128.143 240.578 127.93 240.641 127.731C240.704 127.533 240.798 127.358 240.922 127.208C241.047 127.055 241.201 126.936 241.384 126.851C241.569 126.766 241.783 126.723 242.025 126.723C242.298 126.723 242.53 126.778 242.722 126.887C242.914 126.996 243.07 127.142 243.19 127.326C243.312 127.509 243.402 127.715 243.459 127.944C243.515 128.173 243.544 128.409 243.544 128.651L243.544 128.87C243.544 129.117 243.527 129.368 243.495 129.623C243.464 129.876 243.404 130.118 243.315 130.35C243.227 130.581 243.1 130.788 242.932 130.971C242.764 131.153 242.544 131.297 242.274 131.403C242.006 131.508 241.674 131.561 241.279 131.561L241.217 131.561L241.217 131.047L241.217 131.047Z" id="Фигура" fill="#172755" fill-rule="evenodd" stroke="none" />
    <path d="M260.278 115.059L297.141 115.059L297.141 144.103L260.278 144.103L260.278 115.059Z" id="Прямоугольник" fill="#FFFFFF" fill-rule="evenodd" stroke="none" />
    <path d="M276.83 131.057L276.83 131.554L273.711 131.554L273.711 131.119L275.272 129.381C275.464 129.167 275.612 128.986 275.717 128.838C275.824 128.687 275.898 128.553 275.939 128.435C275.983 128.315 276.005 128.193 276.005 128.069C276.005 127.911 275.972 127.77 275.907 127.643C275.843 127.514 275.75 127.412 275.625 127.335C275.501 127.259 275.35 127.221 275.174 127.221C274.962 127.221 274.785 127.262 274.643 127.345C274.504 127.426 274.399 127.539 274.329 127.686C274.259 127.832 274.224 128 274.224 128.19L273.619 128.19C273.619 127.921 273.678 127.676 273.796 127.453C273.914 127.231 274.088 127.054 274.319 126.923C274.551 126.79 274.835 126.723 275.174 126.723C275.475 126.723 275.732 126.777 275.946 126.884C276.16 126.989 276.323 127.137 276.437 127.329C276.552 127.519 276.61 127.741 276.61 127.997C276.61 128.136 276.586 128.278 276.538 128.422C276.492 128.564 276.428 128.706 276.345 128.847C276.264 128.989 276.17 129.129 276.06 129.266C275.954 129.404 275.839 129.539 275.717 129.672L274.44 131.057L276.83 131.057L276.83 131.057ZM280.469 128.792L280.469 129.518C280.469 129.909 280.434 130.238 280.364 130.507C280.294 130.775 280.194 130.991 280.063 131.155C279.932 131.318 279.774 131.437 279.588 131.511C279.405 131.583 279.198 131.619 278.967 131.619C278.783 131.619 278.614 131.597 278.459 131.551C278.304 131.505 278.165 131.432 278.04 131.331C277.918 131.229 277.813 131.096 277.726 130.932C277.639 130.769 277.572 130.57 277.527 130.337C277.481 130.103 277.458 129.83 277.458 129.518L277.458 128.792C277.458 128.401 277.493 128.074 277.563 127.81C277.635 127.546 277.736 127.334 277.867 127.175C277.998 127.014 278.155 126.898 278.338 126.828C278.524 126.758 278.731 126.723 278.96 126.723C279.145 126.723 279.316 126.746 279.471 126.792C279.628 126.836 279.767 126.907 279.889 127.005C280.012 127.101 280.115 127.23 280.2 127.391C280.288 127.55 280.354 127.746 280.4 127.977C280.446 128.208 280.469 128.48 280.469 128.792L280.469 128.792ZM279.86 129.617L279.86 128.69C279.86 128.477 279.847 128.289 279.821 128.127C279.797 127.964 279.761 127.824 279.713 127.709C279.665 127.593 279.604 127.499 279.529 127.427C279.457 127.355 279.373 127.303 279.277 127.27C279.184 127.235 279.078 127.218 278.96 127.218C278.816 127.218 278.688 127.245 278.577 127.299C278.466 127.352 278.372 127.436 278.296 127.551C278.221 127.667 278.165 127.819 278.125 128.006C278.086 128.194 278.067 128.422 278.067 128.69L278.067 129.617C278.067 129.83 278.079 130.019 278.103 130.183C278.129 130.346 278.167 130.488 278.217 130.608C278.267 130.726 278.328 130.823 278.4 130.899C278.472 130.976 278.555 131.033 278.649 131.07C278.745 131.105 278.851 131.122 278.967 131.122C279.115 131.122 279.245 131.094 279.356 131.037C279.467 130.98 279.56 130.892 279.634 130.772C279.711 130.65 279.767 130.494 279.804 130.304C279.841 130.112 279.86 129.883 279.86 129.617L279.86 129.617Z" id="Фигура" fill="#172755" fill-rule="evenodd" stroke="none" />
    <path d="M39.0976 144.103L75.961 144.103L75.961 173.147L39.0976 173.147L39.0976 144.103Z" id="Прямоугольник" fill="#FFFFFF" fill-rule="evenodd" stroke="none" />
    <path d="M55.6493 160.1L55.6493 160.598L52.5305 160.598L52.5305 160.163L54.0915 158.425C54.2835 158.211 54.4319 158.03 54.5366 157.881C54.6435 157.731 54.7177 157.597 54.7592 157.479C54.8028 157.359 54.8246 157.237 54.8246 157.112C54.8246 156.955 54.7919 156.813 54.7264 156.687C54.6632 156.558 54.5694 156.456 54.445 156.379C54.3206 156.303 54.1701 156.265 53.9934 156.265C53.7817 156.265 53.605 156.306 53.4632 156.389C53.3236 156.47 53.2188 156.583 53.149 156.729C53.0792 156.876 53.0443 157.044 53.0443 157.233L52.4388 157.233C52.4388 156.965 52.4977 156.72 52.6156 156.497C52.7334 156.275 52.9079 156.098 53.1392 155.967C53.3705 155.834 53.6552 155.767 53.9934 155.767C54.2944 155.767 54.5519 155.821 54.7657 155.928C54.9795 156.032 55.1432 156.181 55.2566 156.373C55.3722 156.563 55.4301 156.785 55.4301 157.04C55.4301 157.18 55.4061 157.322 55.3581 157.466C55.3123 157.608 55.2479 157.749 55.165 157.891C55.0843 158.033 54.9893 158.173 54.8803 158.31C54.7733 158.448 54.6588 158.583 54.5366 158.716L53.2603 160.1L55.6493 160.1L55.6493 160.1ZM58.2871 155.807L58.2871 160.598L57.6817 160.598L57.6817 156.563L56.461 157.008L56.461 156.461L58.1922 155.807L58.2871 155.807L58.2871 155.807Z" id="Фигура" fill="#172755" fill-rule="evenodd" stroke="none" />
    <path d="M75.9609 144.103L112.824 144.103L112.824 173.147L75.9609 173.147L75.9609 144.103Z" id="Прямоугольник" fill="#FFFFFF" fill-rule="evenodd" stroke="none" />
    <path d="M92.513 160.1L92.513 160.598L89.394 160.598L89.394 160.163L90.955 158.425C91.147 158.211 91.295 158.03 91.4 157.881C91.507 157.731 91.581 157.597 91.622 157.479C91.666 157.359 91.688 157.237 91.688 157.112C91.688 156.955 91.655 156.813 91.59 156.687C91.526 156.558 91.433 156.456 91.308 156.379C91.184 156.303 91.033 156.265 90.857 156.265C90.645 156.265 90.468 156.306 90.326 156.389C90.187 156.47 90.082 156.583 90.012 156.729C89.942 156.876 89.908 157.044 89.908 157.233L89.302 157.233C89.302 156.965 89.361 156.72 89.479 156.497C89.597 156.275 89.771 156.098 90.002 155.967C90.234 155.834 90.518 155.767 90.857 155.767C91.158 155.767 91.415 155.821 91.629 155.928C91.843 156.032 92.006 156.181 92.12 156.373C92.236 156.563 92.293 156.785 92.293 157.04C92.293 157.18 92.269 157.322 92.221 157.466C92.176 157.608 92.111 157.749 92.028 157.891C91.948 158.033 91.853 158.173 91.744 158.31C91.637 158.448 91.522 158.583 91.4 158.716L90.124 160.1L92.513 160.1L92.513 160.1ZM96.283 160.1L96.283 160.598L93.164 160.598L93.164 160.163L94.725 158.425C94.917 158.211 95.065 158.03 95.17 157.881C95.277 157.731 95.351 157.597 95.393 157.479C95.436 157.359 95.458 157.237 95.458 157.112C95.458 156.955 95.425 156.813 95.36 156.687C95.297 156.558 95.203 156.456 95.078 156.379C94.954 156.303 94.803 156.265 94.627 156.265C94.415 156.265 94.238 156.306 94.097 156.389C93.957 156.47 93.852 156.583 93.782 156.729C93.713 156.876 93.678 157.044 93.678 157.233L93.072 157.233C93.072 156.965 93.131 156.72 93.249 156.497C93.367 156.275 93.541 156.098 93.773 155.967C94.004 155.834 94.289 155.767 94.627 155.767C94.928 155.767 95.185 155.821 95.399 155.928C95.613 156.032 95.777 156.181 95.89 156.373C96.006 156.563 96.063 156.785 96.063 157.04C96.063 157.18 96.039 157.322 95.991 157.466C95.946 157.608 95.881 157.749 95.798 157.891C95.718 158.033 95.623 158.173 95.514 158.31C95.407 158.448 95.292 158.583 95.17 158.716L93.894 160.1L96.283 160.1L96.283 160.1Z" id="Фигура" fill="#172755" fill-rule="evenodd" stroke="none" />
    <path d="M112.824 144.103L149.687 144.103L149.687 173.147L112.824 173.147L112.824 144.103Z" id="Прямоугольник" fill="#FFFFFF" fill-rule="evenodd" stroke="none" />
    <path d="M129.376 160.1L129.376 160.598L126.257 160.598L126.257 160.163L127.818 158.425C128.01 158.211 128.158 158.03 128.263 157.881C128.37 157.731 128.444 157.597 128.486 157.479C128.529 157.359 128.551 157.237 128.551 157.112C128.551 156.955 128.518 156.813 128.453 156.687C128.39 156.558 128.296 156.456 128.172 156.379C128.047 156.303 127.897 156.265 127.72 156.265C127.508 156.265 127.332 156.306 127.19 156.389C127.05 156.47 126.945 156.583 126.876 156.729C126.806 156.876 126.771 157.044 126.771 157.233L126.165 157.233C126.165 156.965 126.224 156.72 126.342 156.497C126.46 156.275 126.634 156.098 126.866 155.967C127.097 155.834 127.382 155.767 127.72 155.767C128.021 155.767 128.278 155.821 128.492 155.928C128.706 156.032 128.87 156.181 128.983 156.373C129.099 156.563 129.157 156.785 129.157 157.04C129.157 157.18 129.133 157.322 129.085 157.466C129.039 157.608 128.974 157.749 128.892 157.891C128.811 158.033 128.716 158.173 128.607 158.31C128.5 158.448 128.385 158.583 128.263 158.716L126.987 160.1L129.376 160.1L129.376 160.1ZM130.908 157.917L131.34 157.917C131.551 157.917 131.726 157.883 131.863 157.813C132.003 157.741 132.106 157.644 132.174 157.521C132.244 157.397 132.279 157.257 132.279 157.103C132.279 156.919 132.248 156.765 132.187 156.641C132.126 156.517 132.034 156.423 131.912 156.36C131.79 156.296 131.635 156.265 131.448 156.265C131.277 156.265 131.127 156.299 130.996 156.366C130.867 156.432 130.766 156.525 130.692 156.648C130.62 156.77 130.584 156.914 130.584 157.08L129.978 157.08C129.978 156.837 130.039 156.617 130.161 156.419C130.284 156.22 130.455 156.062 130.675 155.944C130.898 155.826 131.155 155.767 131.448 155.767C131.735 155.767 131.987 155.819 132.203 155.921C132.419 156.021 132.587 156.172 132.707 156.373C132.827 156.571 132.887 156.819 132.887 157.116C132.887 157.236 132.859 157.364 132.802 157.502C132.748 157.637 132.662 157.764 132.544 157.881C132.428 157.999 132.278 158.096 132.092 158.173C131.907 158.247 131.684 158.284 131.425 158.284L130.908 158.284L130.908 157.917L130.908 157.917ZM130.908 158.415L130.908 158.052L131.425 158.052C131.728 158.052 131.979 158.088 132.177 158.16C132.376 158.232 132.532 158.328 132.645 158.448C132.761 158.568 132.842 158.7 132.887 158.844C132.935 158.985 132.959 159.127 132.959 159.269C132.959 159.492 132.921 159.689 132.845 159.861C132.771 160.034 132.665 160.18 132.527 160.3C132.392 160.42 132.233 160.511 132.05 160.572C131.866 160.633 131.667 160.663 131.451 160.663C131.244 160.663 131.048 160.634 130.865 160.575C130.684 160.516 130.524 160.431 130.384 160.32C130.244 160.206 130.135 160.068 130.057 159.904C129.978 159.738 129.939 159.549 129.939 159.338L130.544 159.338C130.544 159.504 130.58 159.649 130.652 159.773C130.726 159.897 130.831 159.995 130.966 160.064C131.104 160.132 131.265 160.166 131.451 160.166C131.636 160.166 131.795 160.134 131.929 160.071C132.064 160.005 132.167 159.907 132.239 159.776C132.314 159.645 132.351 159.481 132.351 159.282C132.351 159.084 132.309 158.921 132.226 158.795C132.143 158.666 132.026 158.571 131.873 158.51C131.722 158.447 131.545 158.415 131.34 158.415L130.908 158.415L130.908 158.415Z" id="Фигура" fill="#172755" fill-rule="evenodd" stroke="none" />
    <path d="M149.688 144.103L186.551 144.103L186.551 173.147L149.688 173.147L149.688 144.103Z" id="Прямоугольник" fill="#FFFFFF" fill-rule="evenodd" stroke="none" />
    <path d="M166.24 160.1L166.24 160.598L163.121 160.598L163.121 160.163L164.682 158.425C164.874 158.211 165.022 158.03 165.127 157.881C165.234 157.731 165.308 157.597 165.35 157.479C165.393 157.359 165.415 157.237 165.415 157.112C165.415 156.955 165.382 156.813 165.317 156.687C165.254 156.558 165.16 156.456 165.035 156.379C164.911 156.303 164.76 156.265 164.584 156.265C164.372 156.265 164.195 156.306 164.054 156.389C163.914 156.47 163.809 156.583 163.739 156.729C163.67 156.876 163.635 157.044 163.635 157.233L163.029 157.233C163.029 156.965 163.088 156.72 163.206 156.497C163.324 156.275 163.498 156.098 163.73 155.967C163.961 155.834 164.246 155.767 164.584 155.767C164.885 155.767 165.142 155.821 165.356 155.928C165.57 156.032 165.733 156.181 165.847 156.373C165.963 156.563 166.02 156.785 166.02 157.04C166.02 157.18 165.996 157.322 165.948 157.466C165.903 157.608 165.838 157.749 165.755 157.891C165.675 158.033 165.58 158.173 165.471 158.31C165.364 158.448 165.249 158.583 165.127 158.716L163.851 160.1L166.24 160.1L166.24 160.1ZM170.108 158.994L170.108 159.492L166.665 159.492L166.665 159.135L168.799 155.833L169.293 155.833L168.763 156.788L167.352 158.994L170.108 158.994L170.108 158.994ZM169.838 155.833L169.838 160.598L168.838 160.598L168.838 155.833L169.838 155.833L169.838 155.833Z" id="Фигура" fill="#172755" fill-rule="evenodd" stroke="none" />
    <path d="M186.551 144.103L223.414 144.103L223.414 173.147L186.551 173.147L186.551 144.103Z" id="Прямоугольник" fill="#FFFFFF" fill-rule="evenodd" stroke="none" />
    <path d="M203.103 160.1L203.103 160.598L199.984 160.598L199.984 160.163L201.545 158.425C201.737 158.211 201.886 158.03 201.99 157.881C202.097 157.731 202.171 157.597 202.213 157.479C202.256 157.359 202.278 157.237 202.278 157.112C202.278 156.955 202.246 156.813 202.18 156.687C202.117 156.558 202.023 156.456 201.899 156.379C201.774 156.303 201.624 156.265 201.447 156.265C201.235 156.265 201.059 156.306 200.917 156.389C200.777 156.47 200.672 156.583 200.603 156.729C200.533 156.876 200.498 157.044 200.498 157.233L199.892 157.233C199.892 156.965 199.951 156.72 200.069 156.497C200.187 156.275 200.362 156.098 200.593 155.967C200.824 155.834 201.109 155.767 201.447 155.767C201.748 155.767 202.006 155.821 202.219 155.928C202.433 156.032 202.597 156.181 202.71 156.373C202.826 156.563 202.884 156.785 202.884 157.04C202.884 157.18 202.86 157.322 202.812 157.466C202.766 157.608 202.702 157.749 202.619 157.891C202.538 158.033 202.443 158.173 202.334 158.31C202.227 158.448 202.112 158.583 201.99 158.716L200.714 160.1L203.103 160.1L203.103 160.1ZM204.517 158.33L204.032 158.205L204.271 155.833L206.716 155.833L206.716 156.392L204.785 156.392L204.641 157.688C204.728 157.638 204.839 157.591 204.972 157.548C205.107 157.504 205.262 157.482 205.436 157.482C205.657 157.482 205.854 157.52 206.029 157.597C206.203 157.671 206.352 157.778 206.474 157.917C206.598 158.057 206.693 158.225 206.759 158.421C206.824 158.618 206.857 158.837 206.857 159.079C206.857 159.308 206.825 159.519 206.762 159.711C206.701 159.903 206.608 160.071 206.484 160.215C206.359 160.357 206.202 160.467 206.012 160.545C205.825 160.624 205.603 160.663 205.348 160.663C205.156 160.663 204.974 160.637 204.801 160.585C204.631 160.53 204.479 160.448 204.343 160.339C204.21 160.228 204.101 160.091 204.016 159.927C203.933 159.761 203.881 159.567 203.859 159.344L204.435 159.344C204.461 159.523 204.513 159.674 204.592 159.796C204.671 159.918 204.773 160.011 204.9 160.074C205.028 160.135 205.178 160.166 205.348 160.166C205.492 160.166 205.62 160.141 205.731 160.091C205.842 160.04 205.936 159.968 206.012 159.875C206.089 159.781 206.147 159.667 206.186 159.534C206.227 159.401 206.248 159.252 206.248 159.086C206.248 158.935 206.227 158.796 206.186 158.667C206.144 158.538 206.082 158.426 205.999 158.33C205.919 158.234 205.819 158.16 205.701 158.107C205.584 158.053 205.448 158.025 205.296 158.025C205.093 158.025 204.939 158.053 204.834 158.107C204.732 158.162 204.626 158.236 204.517 158.33L204.517 158.33Z" id="Фигура" fill="#172755" fill-rule="evenodd" stroke="none" />
    <path d="M223.415 144.103L260.278 144.103L260.278 173.147L223.415 173.147L223.415 144.103Z" id="Прямоугольник" fill="#FFFFFF" fill-rule="evenodd" stroke="none" />
    <path d="M239.967 160.1L239.967 160.598L236.848 160.598L236.848 160.163L238.409 158.425C238.601 158.211 238.749 158.03 238.854 157.881C238.961 157.731 239.035 157.597 239.077 157.479C239.12 157.359 239.142 157.237 239.142 157.112C239.142 156.955 239.109 156.813 239.044 156.687C238.981 156.558 238.887 156.456 238.762 156.379C238.638 156.303 238.487 156.265 238.311 156.265C238.099 156.265 237.922 156.306 237.781 156.389C237.641 156.47 237.536 156.583 237.466 156.729C237.397 156.876 237.362 157.044 237.362 157.233L236.756 157.233C236.756 156.965 236.815 156.72 236.933 156.497C237.051 156.275 237.225 156.098 237.457 155.967C237.688 155.834 237.973 155.767 238.311 155.767C238.612 155.767 238.869 155.821 239.083 155.928C239.297 156.032 239.461 156.181 239.574 156.373C239.69 156.563 239.747 156.785 239.747 157.04C239.747 157.18 239.723 157.322 239.675 157.466C239.63 157.608 239.565 157.749 239.482 157.891C239.402 158.033 239.307 158.173 239.198 158.31C239.091 158.448 238.976 158.583 238.854 158.716L237.578 160.1L239.967 160.1L239.967 160.1ZM242.938 155.826L242.991 155.826L242.991 156.34L242.938 156.34C242.618 156.34 242.349 156.392 242.133 156.497C241.917 156.6 241.746 156.738 241.619 156.913C241.493 157.085 241.401 157.279 241.345 157.495C241.29 157.711 241.263 157.931 241.263 158.153L241.263 158.853C241.263 159.065 241.288 159.253 241.338 159.416C241.388 159.578 241.457 159.714 241.544 159.825C241.631 159.937 241.73 160.021 241.839 160.077C241.95 160.134 242.066 160.163 242.186 160.163C242.325 160.163 242.45 160.136 242.559 160.084C242.668 160.029 242.759 159.954 242.834 159.858C242.91 159.76 242.968 159.644 243.007 159.511C243.046 159.378 243.066 159.232 243.066 159.073C243.066 158.931 243.048 158.795 243.014 158.664C242.979 158.531 242.925 158.413 242.853 158.31C242.781 158.205 242.691 158.124 242.582 158.065C242.475 158.004 242.347 157.973 242.199 157.973C242.031 157.973 241.874 158.015 241.727 158.097C241.583 158.178 241.465 158.285 241.371 158.418C241.279 158.549 241.227 158.692 241.214 158.847L240.893 158.844C240.923 158.599 240.98 158.391 241.063 158.219C241.148 158.044 241.253 157.902 241.377 157.793C241.504 157.682 241.645 157.601 241.799 157.551C241.957 157.499 242.122 157.472 242.297 157.472C242.535 157.472 242.74 157.517 242.912 157.607C243.084 157.696 243.226 157.816 243.338 157.967C243.449 158.115 243.531 158.283 243.583 158.471C243.638 158.656 243.665 158.847 243.665 159.043C243.665 159.268 243.633 159.479 243.57 159.675C243.507 159.871 243.412 160.044 243.285 160.192C243.161 160.34 243.007 160.456 242.824 160.539C242.64 160.622 242.428 160.663 242.186 160.663C241.928 160.663 241.703 160.611 241.511 160.506C241.319 160.399 241.16 160.257 241.034 160.081C240.907 159.904 240.812 159.708 240.749 159.492C240.686 159.276 240.654 159.056 240.654 158.834L240.654 158.549C240.654 158.213 240.688 157.884 240.755 157.561C240.823 157.238 240.94 156.945 241.106 156.684C241.274 156.422 241.506 156.213 241.803 156.059C242.099 155.904 242.478 155.826 242.938 155.826L242.938 155.826Z" id="Фигура" fill="#172755" fill-rule="evenodd" stroke="none" />
    <path d="M260.278 144.103L297.141 144.103L297.141 173.147L260.278 173.147L260.278 144.103Z" id="Прямоугольник" fill="#FFFFFF" fill-rule="evenodd" stroke="none" />
    <path d="M276.83 160.1L276.83 160.598L273.711 160.598L273.711 160.163L275.272 158.425C275.464 158.211 275.612 158.03 275.717 157.881C275.824 157.731 275.898 157.597 275.939 157.479C275.983 157.359 276.005 157.237 276.005 157.112C276.005 156.955 275.972 156.813 275.907 156.687C275.843 156.558 275.75 156.456 275.625 156.379C275.501 156.303 275.35 156.265 275.174 156.265C274.962 156.265 274.785 156.306 274.643 156.389C274.504 156.47 274.399 156.583 274.329 156.729C274.259 156.876 274.224 157.044 274.224 157.233L273.619 157.233C273.619 156.965 273.678 156.72 273.796 156.497C273.914 156.275 274.088 156.098 274.319 155.967C274.551 155.834 274.835 155.767 275.174 155.767C275.475 155.767 275.732 155.821 275.946 155.928C276.16 156.032 276.323 156.181 276.437 156.373C276.552 156.563 276.61 156.785 276.61 157.04C276.61 157.18 276.586 157.322 276.538 157.466C276.492 157.608 276.428 157.749 276.345 157.891C276.264 158.033 276.17 158.173 276.06 158.31C275.954 158.448 275.839 158.583 275.717 158.716L274.44 160.1L276.83 160.1L276.83 160.1ZM280.557 155.833L280.557 156.173L278.584 160.598L277.945 160.598L279.916 156.33L277.337 156.33L277.337 155.833L280.557 155.833L280.557 155.833Z" id="Фигура" fill="#172755" fill-rule="evenodd" stroke="none" />
    <path d="M39.0976 173.147L75.961 173.147L75.961 202.191L39.0976 202.191L39.0976 173.147Z" id="Прямоугольник" fill="#FFFFFF" fill-rule="evenodd" stroke="none" />
    <path d="M55.6493 189.144L55.6493 189.642L52.5305 189.642L52.5305 189.206L54.0915 187.469C54.2835 187.255 54.4319 187.074 54.5366 186.925C54.6435 186.775 54.7177 186.641 54.7592 186.523C54.8028 186.403 54.8246 186.281 54.8246 186.156C54.8246 185.999 54.7919 185.857 54.7264 185.731C54.6632 185.602 54.5694 185.5 54.445 185.423C54.3206 185.347 54.1701 185.309 53.9934 185.309C53.7817 185.309 53.605 185.35 53.4632 185.433C53.3236 185.514 53.2188 185.627 53.149 185.773C53.0792 185.92 53.0443 186.088 53.0443 186.277L52.4388 186.277C52.4388 186.009 52.4977 185.764 52.6156 185.541C52.7334 185.319 52.9079 185.142 53.1392 185.011C53.3705 184.878 53.6552 184.811 53.9934 184.811C54.2944 184.811 54.5519 184.865 54.7657 184.972C54.9795 185.076 55.1432 185.225 55.2566 185.417C55.3722 185.607 55.4301 185.829 55.4301 186.084C55.4301 186.224 55.4061 186.366 55.3581 186.51C55.3123 186.652 55.2479 186.793 55.165 186.935C55.0843 187.077 54.9893 187.217 54.8803 187.354C54.7733 187.492 54.6588 187.627 54.5366 187.76L53.2603 189.144L55.6493 189.144L55.6493 189.144ZM59.3016 188.352C59.3016 188.642 59.234 188.889 59.0987 189.092C58.9656 189.293 58.7846 189.445 58.5555 189.55C58.3286 189.655 58.0722 189.707 57.7864 189.707C57.5006 189.707 57.2431 189.655 57.014 189.55C56.785 189.445 56.6039 189.293 56.4708 189.092C56.3377 188.889 56.2711 188.642 56.2711 188.352C56.2711 188.162 56.3071 187.989 56.3791 187.832C56.4533 187.673 56.557 187.534 56.69 187.416C56.8253 187.298 56.9846 187.208 57.1679 187.145C57.3533 187.079 57.5573 187.046 57.7798 187.046C58.0722 187.046 58.3329 187.103 58.562 187.217C58.7911 187.328 58.9711 187.482 59.102 187.678C59.2351 187.874 59.3016 188.099 59.3016 188.352L59.3016 188.352ZM58.6929 188.339C58.6929 188.162 58.6547 188.006 58.5784 187.871C58.502 187.734 58.3951 187.627 58.2577 187.55C58.1202 187.474 57.9609 187.436 57.7798 187.436C57.5944 187.436 57.434 187.474 57.2988 187.55C57.1657 187.627 57.062 187.734 56.9879 187.871C56.9137 188.006 56.8766 188.162 56.8766 188.339C56.8766 188.522 56.9126 188.68 56.9846 188.81C57.0588 188.939 57.1635 189.038 57.2988 189.108C57.4362 189.176 57.5988 189.21 57.7864 189.21C57.974 189.21 58.1355 189.176 58.2707 189.108C58.406 189.038 58.5097 188.939 58.5817 188.81C58.6558 188.68 58.6929 188.522 58.6929 188.339L58.6929 188.339ZM59.1904 186.117C59.1904 186.348 59.1293 186.557 59.0071 186.742C58.8849 186.928 58.718 187.074 58.5064 187.181C58.2947 187.288 58.0548 187.341 57.7864 187.341C57.5137 187.341 57.2704 187.288 57.0566 187.181C56.845 187.074 56.6791 186.928 56.5591 186.742C56.4391 186.557 56.3791 186.348 56.3791 186.117C56.3791 185.84 56.4391 185.604 56.5591 185.41C56.6813 185.216 56.8482 185.068 57.0599 184.965C57.2715 184.863 57.5126 184.811 57.7831 184.811C58.0558 184.811 58.298 184.863 58.5097 184.965C58.7213 185.068 58.8871 185.216 59.0071 185.41C59.1293 185.604 59.1904 185.84 59.1904 186.117L59.1904 186.117ZM58.5849 186.127C58.5849 185.968 58.5511 185.827 58.4835 185.705C58.4158 185.583 58.322 185.487 58.202 185.417C58.082 185.345 57.9424 185.309 57.7831 185.309C57.6239 185.309 57.4842 185.343 57.3642 185.41C57.2464 185.476 57.1537 185.569 57.086 185.692C57.0206 185.814 56.9879 185.959 56.9879 186.127C56.9879 186.291 57.0206 186.433 57.086 186.556C57.1537 186.678 57.2475 186.773 57.3675 186.84C57.4875 186.908 57.6271 186.942 57.7864 186.942C57.9457 186.942 58.0842 186.908 58.202 186.84C58.322 186.773 58.4158 186.678 58.4835 186.556C58.5511 186.433 58.5849 186.291 58.5849 186.127L58.5849 186.127Z" id="Фигура" fill="#172755" fill-rule="evenodd" stroke="none" />
    <path d="M75.9609 173.147L112.824 173.147L112.824 202.191L75.9609 202.191L75.9609 173.147Z" id="Прямоугольник" fill="#FFFFFF" fill-rule="evenodd" stroke="none" />
    <path d="M92.513 189.144L92.513 189.642L89.394 189.642L89.394 189.206L90.955 187.469C91.147 187.255 91.295 187.074 91.4 186.925C91.507 186.775 91.581 186.641 91.622 186.523C91.666 186.403 91.688 186.281 91.688 186.156C91.688 185.999 91.655 185.857 91.59 185.731C91.526 185.602 91.433 185.5 91.308 185.423C91.184 185.347 91.033 185.309 90.857 185.309C90.645 185.309 90.468 185.35 90.326 185.433C90.187 185.514 90.082 185.627 90.012 185.773C89.942 185.92 89.908 186.088 89.908 186.277L89.302 186.277C89.302 186.009 89.361 185.764 89.479 185.541C89.597 185.319 89.771 185.142 90.002 185.011C90.234 184.878 90.518 184.811 90.857 184.811C91.158 184.811 91.415 184.865 91.629 184.972C91.843 185.076 92.006 185.225 92.12 185.417C92.236 185.607 92.293 185.829 92.293 186.084C92.293 186.224 92.269 186.366 92.221 186.51C92.176 186.652 92.111 186.793 92.028 186.935C91.948 187.077 91.853 187.217 91.744 187.354C91.637 187.492 91.522 187.627 91.4 187.76L90.124 189.144L92.513 189.144L92.513 189.144ZM93.763 189.134L93.825 189.134C94.174 189.134 94.458 189.085 94.676 188.987C94.894 188.889 95.062 188.757 95.18 188.591C95.298 188.425 95.378 188.239 95.422 188.032C95.466 187.822 95.487 187.607 95.487 187.387L95.487 186.657C95.487 186.441 95.462 186.249 95.412 186.081C95.364 185.913 95.297 185.772 95.209 185.659C95.124 185.545 95.027 185.459 94.918 185.4C94.809 185.341 94.693 185.312 94.571 185.312C94.431 185.312 94.306 185.34 94.195 185.397C94.086 185.452 93.993 185.529 93.917 185.629C93.842 185.73 93.786 185.848 93.746 185.983C93.707 186.118 93.688 186.265 93.688 186.425C93.688 186.567 93.705 186.704 93.74 186.837C93.775 186.97 93.828 187.09 93.9 187.197C93.972 187.304 94.062 187.389 94.169 187.452C94.278 187.513 94.405 187.544 94.551 187.544C94.687 187.544 94.813 187.518 94.931 187.465C95.051 187.411 95.157 187.338 95.249 187.246C95.342 187.152 95.417 187.046 95.471 186.929C95.528 186.811 95.561 186.688 95.569 186.559L95.857 186.559C95.857 186.74 95.821 186.919 95.749 187.096C95.679 187.27 95.581 187.429 95.455 187.573C95.328 187.717 95.18 187.833 95.01 187.92C94.839 188.005 94.654 188.048 94.453 188.048C94.218 188.048 94.014 188.002 93.841 187.91C93.669 187.819 93.527 187.697 93.416 187.544C93.307 187.391 93.225 187.221 93.17 187.033C93.118 186.844 93.092 186.652 93.092 186.457C93.092 186.231 93.124 186.018 93.187 185.819C93.25 185.621 93.344 185.446 93.468 185.296C93.593 185.143 93.746 185.024 93.93 184.939C94.115 184.854 94.329 184.811 94.571 184.811C94.844 184.811 95.076 184.866 95.268 184.975C95.46 185.084 95.616 185.23 95.736 185.413C95.858 185.597 95.948 185.803 96.005 186.032C96.061 186.261 96.09 186.497 96.09 186.739L96.09 186.958C96.09 187.205 96.073 187.456 96.041 187.711C96.01 187.964 95.95 188.206 95.861 188.437C95.773 188.669 95.646 188.876 95.478 189.059C95.31 189.24 95.09 189.384 94.82 189.491C94.551 189.596 94.22 189.648 93.825 189.648L93.763 189.648L93.763 189.134L93.763 189.134Z" id="Фигура" fill="#172755" fill-rule="evenodd" stroke="none" />
    <path d="M112.824 173.147L149.687 173.147L149.687 202.191L112.824 202.191L112.824 173.147Z" id="Прямоугольник" fill="#FFFFFF" fill-rule="evenodd" stroke="none" />
    <path d="M127.137 186.961L127.569 186.961C127.781 186.961 127.956 186.927 128.093 186.857C128.233 186.785 128.336 186.688 128.404 186.565C128.474 186.441 128.509 186.301 128.509 186.147C128.509 185.963 128.478 185.809 128.417 185.685C128.356 185.561 128.264 185.467 128.142 185.404C128.02 185.34 127.865 185.309 127.677 185.309C127.507 185.309 127.357 185.343 127.226 185.41C127.097 185.476 126.996 185.569 126.921 185.692C126.849 185.814 126.813 185.958 126.813 186.124L126.208 186.124C126.208 185.881 126.269 185.661 126.391 185.463C126.513 185.264 126.685 185.106 126.905 184.988C127.128 184.87 127.385 184.811 127.677 184.811C127.965 184.811 128.217 184.863 128.433 184.965C128.649 185.065 128.817 185.216 128.937 185.417C129.057 185.615 129.117 185.863 129.117 186.16C129.117 186.28 129.089 186.408 129.032 186.546C128.978 186.681 128.892 186.808 128.774 186.925C128.658 187.043 128.508 187.14 128.322 187.217C128.137 187.291 127.914 187.328 127.654 187.328L127.137 187.328L127.137 186.961L127.137 186.961ZM127.137 187.459L127.137 187.096L127.654 187.096C127.958 187.096 128.209 187.132 128.407 187.204C128.606 187.276 128.762 187.372 128.875 187.492C128.991 187.612 129.072 187.744 129.117 187.888C129.165 188.029 129.189 188.171 129.189 188.313C129.189 188.536 129.151 188.733 129.075 188.905C129.001 189.078 128.895 189.224 128.757 189.344C128.622 189.464 128.463 189.554 128.28 189.616C128.096 189.677 127.897 189.707 127.681 189.707C127.473 189.707 127.278 189.678 127.095 189.619C126.914 189.56 126.753 189.475 126.614 189.364C126.474 189.25 126.365 189.112 126.286 188.948C126.208 188.782 126.169 188.593 126.169 188.382L126.774 188.382C126.774 188.548 126.81 188.693 126.882 188.817C126.956 188.941 127.061 189.038 127.196 189.108C127.334 189.176 127.495 189.21 127.681 189.21C127.866 189.21 128.025 189.178 128.158 189.115C128.294 189.049 128.397 188.951 128.469 188.82C128.544 188.689 128.581 188.525 128.581 188.326C128.581 188.128 128.539 187.965 128.456 187.838C128.373 187.71 128.256 187.615 128.103 187.554C127.952 187.49 127.774 187.459 127.569 187.459L127.137 187.459L127.137 187.459ZM133.015 186.88L133.015 187.606C133.015 187.997 132.98 188.326 132.91 188.594C132.841 188.863 132.74 189.079 132.609 189.242C132.478 189.406 132.32 189.525 132.135 189.599C131.951 189.671 131.744 189.707 131.513 189.707C131.33 189.707 131.161 189.684 131.006 189.638C130.851 189.593 130.711 189.52 130.587 189.419C130.465 189.317 130.36 189.184 130.273 189.02C130.185 188.856 130.119 188.658 130.073 188.424C130.027 188.191 130.004 187.918 130.004 187.606L130.004 186.88C130.004 186.489 130.039 186.162 130.109 185.898C130.181 185.634 130.282 185.422 130.413 185.263C130.544 185.101 130.701 184.986 130.885 184.916C131.07 184.846 131.277 184.811 131.506 184.811C131.692 184.811 131.862 184.834 132.017 184.88C132.174 184.924 132.314 184.995 132.436 185.093C132.558 185.189 132.662 185.317 132.747 185.479C132.834 185.638 132.901 185.833 132.946 186.065C132.992 186.296 133.015 186.568 133.015 186.88L133.015 186.88ZM132.406 187.704L132.406 186.778C132.406 186.564 132.393 186.377 132.367 186.215C132.343 186.052 132.307 185.912 132.259 185.796C132.211 185.681 132.15 185.587 132.076 185.515C132.004 185.443 131.92 185.391 131.824 185.358C131.73 185.323 131.624 185.305 131.506 185.305C131.362 185.305 131.235 185.333 131.124 185.387C131.012 185.44 130.918 185.524 130.842 185.639C130.768 185.755 130.711 185.907 130.672 186.094C130.633 186.282 130.613 186.51 130.613 186.778L130.613 187.704C130.613 187.918 130.625 188.107 130.649 188.27C130.675 188.434 130.713 188.576 130.764 188.696C130.814 188.814 130.875 188.911 130.947 188.987C131.019 189.064 131.102 189.12 131.196 189.157C131.292 189.192 131.397 189.21 131.513 189.21C131.661 189.21 131.791 189.181 131.902 189.125C132.014 189.068 132.106 188.98 132.181 188.86C132.257 188.737 132.314 188.581 132.351 188.392C132.388 188.2 132.406 187.97 132.406 187.704L132.406 187.704Z" id="Фигура" fill="#172755" fill-rule="evenodd" stroke="none" />
    <path d="M149.688 173.147L186.551 173.147L186.551 202.191L149.688 202.191L149.688 173.147Z" id="Прямоугольник" fill="#FFFFFF" fill-rule="evenodd" stroke="none" />
    <path d="M164.001 186.961L164.433 186.961C164.645 186.961 164.819 186.927 164.957 186.857C165.096 186.785 165.2 186.688 165.268 186.565C165.338 186.441 165.372 186.301 165.372 186.147C165.372 185.963 165.342 185.809 165.281 185.685C165.22 185.561 165.128 185.467 165.006 185.404C164.884 185.34 164.729 185.309 164.541 185.309C164.371 185.309 164.22 185.343 164.09 185.41C163.961 185.476 163.859 185.569 163.785 185.692C163.713 185.814 163.677 185.958 163.677 186.124L163.072 186.124C163.072 185.881 163.133 185.661 163.255 185.463C163.377 185.264 163.548 185.106 163.769 184.988C163.991 184.87 164.249 184.811 164.541 184.811C164.829 184.811 165.081 184.863 165.297 184.965C165.513 185.065 165.681 185.216 165.801 185.417C165.921 185.615 165.981 185.863 165.981 186.16C165.981 186.28 165.953 186.408 165.896 186.546C165.841 186.681 165.755 186.808 165.637 186.925C165.522 187.043 165.371 187.14 165.186 187.217C165 187.291 164.778 187.328 164.518 187.328L164.001 187.328L164.001 186.961L164.001 186.961ZM164.001 187.459L164.001 187.096L164.518 187.096C164.822 187.096 165.072 187.132 165.271 187.204C165.469 187.276 165.625 187.372 165.739 187.492C165.855 187.612 165.935 187.744 165.981 187.888C166.029 188.029 166.053 188.171 166.053 188.313C166.053 188.536 166.015 188.733 165.939 188.905C165.864 189.078 165.759 189.224 165.621 189.344C165.486 189.464 165.327 189.554 165.143 189.616C164.96 189.677 164.76 189.707 164.544 189.707C164.337 189.707 164.142 189.678 163.959 189.619C163.778 189.56 163.617 189.475 163.478 189.364C163.338 189.25 163.229 189.112 163.15 188.948C163.072 188.782 163.032 188.593 163.032 188.382L163.638 188.382C163.638 188.548 163.674 188.693 163.746 188.817C163.82 188.941 163.925 189.038 164.06 189.108C164.198 189.176 164.359 189.21 164.544 189.21C164.73 189.21 164.889 189.178 165.022 189.115C165.158 189.049 165.261 188.951 165.333 188.82C165.407 188.689 165.444 188.525 165.444 188.326C165.444 188.128 165.403 187.965 165.32 187.838C165.237 187.71 165.119 187.615 164.967 187.554C164.816 187.49 164.638 187.459 164.433 187.459L164.001 187.459L164.001 187.459ZM168.877 184.851L168.877 189.642L168.272 189.642L168.272 185.607L167.051 186.052L167.051 185.505L168.783 184.851L168.877 184.851L168.877 184.851Z" id="Фигура" fill="#172755" fill-rule="evenodd" stroke="none" />
    <path d="M186.551 173.147L223.414 173.147L223.414 202.191L186.551 202.191L186.551 173.147Z" id="Прямоугольник" fill="#FFFFFF" fill-rule="evenodd" stroke="none" />
    <path d="M223.415 173.147L260.278 173.147L260.278 202.191L223.415 202.191L223.415 173.147Z" id="Прямоугольник" fill="#FFFFFF" fill-rule="evenodd" stroke="none" />
    <path d="M260.278 173.147L297.141 173.147L297.141 202.191L260.278 202.191L260.278 173.147Z" id="Прямоугольник" fill="#FFFFFF" fill-rule="evenodd" stroke="none" />
    <path d="M48.7201 34.0715L49.3321 34.0715L50.8932 37.9562L52.451 34.0715L53.0662 34.0715L51.1288 38.8365L50.651 38.8365L48.7201 34.0715L48.7201 34.0715ZM48.5205 34.0715L49.38 34.0715L49.5205 36.9776L49.5205 38.8365L48.5205 38.8365L48.5205 34.0715L48.5205 34.0715ZM52.7749 34.0715L53.6342 34.0715L53.6342 38.8365L52.6342 38.8365L52.6342 36.9776L52.7749 34.0715L52.7749 34.0715ZM58.0407 36.3034L58.0407 36.6045C58.0407 36.9623 57.996 37.2831 57.9065 37.5667C57.8171 37.8503 57.6883 38.0914 57.5203 38.29C57.3523 38.4885 57.1505 38.6401 56.9149 38.7449C56.6814 38.8496 56.4196 38.902 56.1295 38.902C55.848 38.902 55.5895 38.8496 55.3538 38.7449C55.1204 38.6401 54.9175 38.4885 54.7451 38.29C54.5749 38.0914 54.4429 37.8503 54.3491 37.5667C54.2553 37.2831 54.2084 36.9623 54.2084 36.6045L54.2084 36.3034C54.2084 35.9456 54.2542 35.626 54.3458 35.3446C54.4397 35.0609 54.5717 34.8198 54.7418 34.6213C54.912 34.4206 55.1138 34.2678 55.3473 34.1631C55.5829 34.0584 55.8415 34.006 56.1229 34.006C56.4131 34.006 56.6749 34.0584 56.9084 34.1631C57.144 34.2678 57.3458 34.4206 57.5138 34.6213C57.684 34.8198 57.8138 35.0609 57.9032 35.3446C57.9949 35.626 58.0407 35.9456 58.0407 36.3034L58.0407 36.3034ZM57.4156 36.6045L57.4156 36.2969C57.4156 36.0133 57.3862 35.7624 57.3273 35.5442C57.2705 35.326 57.1865 35.1427 57.0753 34.9944C56.964 34.846 56.8276 34.7337 56.6662 34.6573C56.5069 34.5809 56.3258 34.5427 56.1229 34.5427C55.9266 34.5427 55.7487 34.5809 55.5895 34.6573C55.4324 34.7337 55.2971 34.846 55.1837 34.9944C55.0724 35.1427 54.9862 35.326 54.9251 35.5442C54.864 35.7624 54.8335 36.0133 54.8335 36.2969L54.8335 36.6045C54.8335 36.8903 54.864 37.1434 54.9251 37.3638C54.9862 37.582 55.0735 37.7663 55.1869 37.9169C55.3026 38.0652 55.4389 38.1776 55.596 38.254C55.7553 38.3303 55.9331 38.3685 56.1295 38.3685C56.3345 38.3685 56.5167 38.3303 56.676 38.254C56.8353 38.1776 56.9694 38.0652 57.0785 37.9169C57.1898 37.7663 57.2738 37.582 57.3305 37.3638C57.3873 37.1434 57.4156 36.8903 57.4156 36.6045L57.4156 36.6045ZM62.6519 34.0715L62.6519 38.8365L62.017 38.8365L59.6181 35.1613L59.6181 38.8365L58.9865 38.8365L58.9865 34.0715L59.6181 34.0715L62.0268 37.7565L62.0268 34.0715L62.6519 34.0715L62.6519 34.0715Z" id="Фигура" fill="#8794BA" fill-rule="evenodd" stroke="none" />
    <path d="M90.246 34.0715L90.246 38.8365L89.246 38.8365L89.246 34.0715L90.246 34.0715L90.246 34.0715ZM91.4 34.0715L91.4 35.0715L87.718 35.0715L87.718 34.0715L91.4 34.0715L91.4 34.0715ZM94.833 34.0715L95.461 34.0715L95.461 37.2951C95.461 37.6529 95.382 37.9507 95.222 38.1885C95.063 38.4263 94.851 38.6052 94.587 38.7252C94.326 38.843 94.041 38.902 93.733 38.902C93.41 38.902 93.118 38.843 92.856 38.7252C92.597 38.6052 92.39 38.4263 92.238 38.1885C92.087 37.9507 92.012 37.6529 92.012 37.2951L92.012 34.0715L92.637 34.0715L92.637 37.2951C92.637 37.5438 92.683 37.7489 92.774 37.9103C92.866 38.0718 92.994 38.1918 93.157 38.2703C93.323 38.3489 93.515 38.3881 93.733 38.3881C93.954 38.3881 94.146 38.3489 94.309 38.2703C94.475 38.1918 94.604 38.0718 94.695 37.9103C94.787 37.7489 94.833 37.5438 94.833 37.2951L94.833 34.0715L94.833 34.0715ZM99.48 38.3227L99.48 39.3227L96.957 39.3227L96.957 38.3227L99.48 38.3227L99.48 38.3227ZM97.453 34.0715L97.453 38.8365L96.453 38.8365L96.453 34.0715L97.453 34.0715L97.453 34.0715ZM99.146 36.1202L99.146 37.1202L96.957 37.1202L96.957 36.1202L99.146 36.1202L99.146 36.1202ZM99.447 34.0715L99.447 35.0715L96.957 35.0715L96.957 34.0715L99.447 34.0715L99.447 34.0715Z" id="Фигура" fill="#8794BA" fill-rule="evenodd" stroke="none" />
    <path d="M125.106 37.3965L126.051 34.0715L126.51 34.0715L126.245 35.3642L125.227 38.8365L124.772 38.8365L125.106 37.3965L125.106 37.3965ZM124.127 34.0715L124.88 37.3311L125.106 38.8365L124.654 38.8365L123.499 34.0715L124.127 34.0715L124.127 34.0715ZM127.734 37.3278L128.47 34.0715L129.102 34.0715L127.95 38.8365L127.498 38.8365L127.734 37.3278L127.734 37.3278ZM126.578 34.0715L127.498 37.3965L127.832 38.8365L127.377 38.8365L126.395 35.3642L126.127 34.0715L126.578 34.0715L126.578 34.0715ZM132.829 38.3227L132.829 39.3227L130.306 39.3227L130.306 38.3227L132.829 38.3227L132.829 38.3227ZM130.802 34.0715L130.802 38.8365L129.802 38.8365L129.802 34.0715L130.802 34.0715L130.802 34.0715ZM132.495 36.1202L132.495 37.1202L130.306 37.1202L130.306 36.1202L132.495 36.1202L132.495 36.1202ZM132.796 34.0715L132.796 35.0715L130.306 35.0715L130.306 34.0715L132.796 34.0715L132.796 34.0715ZM134.901 38.8365L133.906 38.8365L133.912 38.3227L134.901 38.3227C135.241 38.3227 135.525 38.2518 135.752 38.11C135.979 37.966 136.149 37.7652 136.262 37.5078C136.378 37.2482 136.436 36.9449 136.436 36.598L136.436 36.3067C136.436 36.034 136.403 35.7918 136.337 35.5802C136.272 35.3664 136.176 35.1864 136.049 35.0402C135.923 34.8918 135.768 34.7795 135.585 34.7031C135.404 34.6267 135.195 34.5886 134.96 34.5886L133.886 34.5886L133.886 34.0715L134.96 34.0715C135.272 34.0715 135.556 34.1238 135.814 34.2286C136.071 34.3311 136.293 34.4806 136.478 34.6769C136.666 34.8711 136.81 35.1067 136.91 35.3838C137.011 35.6587 137.061 35.9685 137.061 36.3133L137.061 36.598C137.061 36.9427 137.011 37.2536 136.91 37.5307C136.81 37.8056 136.665 38.0401 136.475 38.2343C136.287 38.4285 136.06 38.578 135.794 38.6827C135.53 38.7852 135.232 38.8365 134.901 38.8365L134.901 38.8365ZM134.611 34.0715L134.611 38.8365L133.611 38.8365L133.611 34.0715L134.611 34.0715L134.611 34.0715Z" id="Фигура" fill="#8794BA" fill-rule="evenodd" stroke="none" />
    <path d="M162.427 34.0715L162.427 38.8365L161.427 38.8365L161.427 34.0715L162.427 34.0715L162.427 34.0715ZM163.58 34.0715L163.58 35.0715L159.898 35.0715L159.898 34.0715L163.58 34.0715L163.58 34.0715ZM167.399 36.1202L167.399 37.1202L164.821 37.1202L164.821 36.1202L167.399 36.1202L167.399 36.1202ZM165.287 34.0715L165.287 38.8365L164.287 38.8365L164.287 34.0715L165.287 34.0715L165.287 34.0715ZM168.321 34.0715L168.321 38.8365L167.321 38.8365L167.321 34.0715L168.321 34.0715L168.321 34.0715ZM171.798 34.0715L172.426 34.0715L172.426 37.2951C172.426 37.6529 172.347 37.9507 172.187 38.1885C172.028 38.4263 171.816 38.6052 171.552 38.7252C171.291 38.843 171.006 38.902 170.698 38.902C170.375 38.902 170.083 38.843 169.821 38.7252C169.562 38.6052 169.355 38.4263 169.203 38.1885C169.052 37.9507 168.977 37.6529 168.977 37.2951L168.977 34.0715L169.602 34.0715L169.602 37.2951C169.602 37.5438 169.648 37.7489 169.739 37.9103C169.831 38.0718 169.959 38.1918 170.122 38.2703C170.288 38.3489 170.48 38.3881 170.698 38.3881C170.919 38.3881 171.111 38.3489 171.274 38.2703C171.44 38.1918 171.569 38.0718 171.66 37.9103C171.752 37.7489 171.798 37.5438 171.798 37.2951L171.798 34.0715L171.798 34.0715Z" id="Фигура" fill="#8794BA" fill-rule="evenodd" stroke="none" />
    <path d="M200.561 34.0715L200.561 38.8365L199.561 38.8365L199.561 34.0715L200.561 34.0715L200.561 34.0715ZM202.189 36.2151L202.189 37.2151L200.056 37.2151L200.056 36.2151L202.189 36.2151L202.189 36.2151ZM202.513 34.0715L202.513 35.0715L200.056 35.0715L200.056 34.0715L202.513 34.0715L202.513 34.0715ZM203.266 34.0715L204.844 34.0715C205.201 34.0715 205.504 34.126 205.75 34.2351C205.999 34.3442 206.188 34.5057 206.316 34.7195C206.447 34.9311 206.513 35.1918 206.513 35.5016C206.513 35.7198 206.468 35.9195 206.378 36.1005C206.291 36.2794 206.165 36.4322 205.999 36.5587C205.835 36.6831 205.639 36.7758 205.41 36.8369L205.233 36.9056L203.75 36.9056L203.744 36.3918L204.863 36.3918C205.09 36.3918 205.279 36.3525 205.429 36.274C205.58 36.1933 205.693 36.0853 205.77 35.95C205.846 35.8147 205.884 35.6653 205.884 35.5016C205.884 35.3184 205.848 35.158 205.776 35.0206C205.704 34.8831 205.591 34.7773 205.436 34.7031C205.283 34.6267 205.086 34.5886 204.844 34.5886L203.898 34.5886L203.898 38.8365L203.266 38.8365L203.266 34.0715L203.266 34.0715ZM206.051 38.8365L204.893 36.6765L205.55 36.6733L206.725 38.7972L206.725 38.8365L206.051 38.8365L206.051 38.8365ZM208.442 34.0715L208.442 38.8365L207.442 38.8365L207.442 34.0715L208.442 34.0715L208.442 34.0715Z" id="Фигура" fill="#8794BA" fill-rule="evenodd" stroke="none" />
    <path d="M237.715 37.6322C237.715 37.5209 237.698 37.4227 237.663 37.3376C237.63 37.2503 237.571 37.1718 237.486 37.102C237.403 37.0322 237.288 36.9656 237.139 36.9023C236.993 36.8391 236.808 36.7747 236.583 36.7093C236.347 36.6394 236.135 36.562 235.945 36.4769C235.755 36.3896 235.592 36.2904 235.457 36.1791C235.322 36.0678 235.218 35.9402 235.146 35.7962C235.074 35.6522 235.038 35.4875 235.038 35.302C235.038 35.1166 235.076 34.9453 235.153 34.7882C235.229 34.6311 235.338 34.4948 235.48 34.3791C235.624 34.2613 235.795 34.1697 235.994 34.1042C236.192 34.0388 236.414 34.006 236.658 34.006C237.016 34.006 237.319 34.0748 237.568 34.2122C237.819 34.3475 238.01 34.5253 238.141 34.7457C238.272 34.9638 238.337 35.1973 238.337 35.446L237.709 35.446C237.709 35.2671 237.671 35.1089 237.594 34.9715C237.518 34.8318 237.402 34.7227 237.247 34.6442C237.092 34.5635 236.896 34.5231 236.658 34.5231C236.433 34.5231 236.248 34.5569 236.102 34.6246C235.956 34.6922 235.847 34.7838 235.775 34.8995C235.705 35.0151 235.67 35.1471 235.67 35.2955C235.67 35.3958 235.691 35.4875 235.732 35.5704C235.776 35.6511 235.842 35.7264 235.932 35.7962C236.023 35.866 236.139 35.9304 236.279 35.9893C236.42 36.0482 236.589 36.1049 236.786 36.1595C237.056 36.2358 237.29 36.3209 237.486 36.4147C237.683 36.5085 237.844 36.6144 237.971 36.7322C238.099 36.8478 238.194 36.9798 238.255 37.1282C238.319 37.2743 238.35 37.4402 238.35 37.6256C238.35 37.8198 238.311 37.9954 238.232 38.1525C238.154 38.3096 238.041 38.4438 237.895 38.555C237.749 38.6663 237.573 38.7525 237.368 38.8136C237.165 38.8725 236.939 38.902 236.688 38.902C236.467 38.902 236.25 38.8714 236.036 38.8103C235.825 38.7492 235.632 38.6576 235.457 38.5354C235.285 38.4132 235.146 38.2627 235.042 38.0838C234.939 37.9027 234.888 37.6932 234.888 37.4554L235.516 37.4554C235.516 37.6191 235.548 37.7598 235.611 37.8776C235.674 37.9932 235.76 38.0892 235.869 38.1656C235.981 38.242 236.106 38.2987 236.246 38.3358C236.388 38.3707 236.535 38.3881 236.688 38.3881C236.908 38.3881 237.095 38.3576 237.247 38.2965C237.4 38.2354 237.516 38.1481 237.594 38.0347C237.675 37.9212 237.715 37.7871 237.715 37.6322L237.715 37.6322ZM240.919 34.4937L239.342 38.8365L238.697 38.8365L240.513 34.0715L240.929 34.0715L240.919 34.4937L240.919 34.4937ZM242.241 38.8365L240.661 34.4937L240.651 34.0715L241.066 34.0715L242.889 38.8365L242.241 38.8365L242.241 38.8365ZM242.16 37.0725L242.16 38.0725L239.483 38.0725L239.483 37.0725L242.16 37.0725L242.16 37.0725ZM245.241 34.0715L245.241 38.8365L244.241 38.8365L244.241 34.0715L245.241 34.0715L245.241 34.0715ZM246.394 34.0715L246.394 35.0715L242.713 35.0715L242.713 34.0715L246.394 34.0715L246.394 34.0715Z" id="Фигура" fill="#8794BA" fill-rule="evenodd" stroke="none" />
    <path d="M273.428 37.6322C273.428 37.5209 273.41 37.4227 273.375 37.3376C273.343 37.2503 273.284 37.1718 273.199 37.102C273.116 37.0322 273 36.9656 272.852 36.9023C272.705 36.8391 272.52 36.7747 272.295 36.7093C272.06 36.6394 271.847 36.562 271.657 36.4769C271.467 36.3896 271.305 36.2904 271.169 36.1791C271.034 36.0678 270.931 35.9402 270.859 35.7962C270.787 35.6522 270.751 35.4875 270.751 35.302C270.751 35.1166 270.789 34.9453 270.865 34.7882C270.941 34.6311 271.051 34.4948 271.192 34.3791C271.336 34.2613 271.508 34.1697 271.706 34.1042C271.905 34.0388 272.126 34.006 272.371 34.006C272.728 34.006 273.032 34.0748 273.28 34.2122C273.531 34.3475 273.722 34.5253 273.853 34.7457C273.984 34.9638 274.049 35.1973 274.049 35.446L273.421 35.446C273.421 35.2671 273.383 35.1089 273.307 34.9715C273.23 34.8318 273.115 34.7227 272.96 34.6442C272.805 34.5635 272.608 34.5231 272.371 34.5231C272.146 34.5231 271.96 34.5569 271.814 34.6246C271.668 34.6922 271.559 34.7838 271.487 34.8995C271.417 35.0151 271.382 35.1471 271.382 35.2955C271.382 35.3958 271.403 35.4875 271.444 35.5704C271.488 35.6511 271.555 35.7264 271.644 35.7962C271.736 35.866 271.851 35.9304 271.991 35.9893C272.133 36.0482 272.302 36.1049 272.498 36.1595C272.769 36.2358 273.002 36.3209 273.199 36.4147C273.395 36.5085 273.556 36.6144 273.683 36.7322C273.812 36.8478 273.907 36.9798 273.968 37.1282C274.031 37.2743 274.063 37.4402 274.063 37.6256C274.063 37.8198 274.023 37.9954 273.945 38.1525C273.866 38.3096 273.754 38.4438 273.608 38.555C273.461 38.6663 273.286 38.7525 273.081 38.8136C272.878 38.8725 272.651 38.902 272.4 38.902C272.18 38.902 271.963 38.8714 271.749 38.8103C271.537 38.7492 271.344 38.6576 271.169 38.5354C270.997 38.4132 270.859 38.2627 270.754 38.0838C270.651 37.9027 270.6 37.6932 270.6 37.4554L271.228 37.4554C271.228 37.6191 271.26 37.7598 271.323 37.8776C271.387 37.9932 271.473 38.0892 271.582 38.1656C271.693 38.242 271.819 38.2987 271.958 38.3358C272.1 38.3707 272.247 38.3881 272.4 38.3881C272.62 38.3881 272.807 38.3576 272.96 38.2965C273.112 38.2354 273.228 38.1481 273.307 38.0347C273.387 37.9212 273.428 37.7871 273.428 37.6322L273.428 37.6322ZM277.594 34.0715L278.222 34.0715L278.222 37.2951C278.222 37.6529 278.142 37.9507 277.983 38.1885C277.824 38.4263 277.612 38.6052 277.348 38.7252C277.086 38.843 276.802 38.902 276.494 38.902C276.171 38.902 275.879 38.843 275.617 38.7252C275.357 38.6052 275.151 38.4263 274.998 38.1885C274.848 37.9507 274.773 37.6529 274.773 37.2951L274.773 34.0715L275.398 34.0715L275.398 37.2951C275.398 37.5438 275.444 37.7489 275.535 37.9103C275.627 38.0718 275.754 38.1918 275.918 38.2703C276.084 38.3489 276.276 38.3881 276.494 38.3881C276.714 38.3881 276.906 38.3489 277.07 38.2703C277.236 38.1918 277.365 38.0718 277.456 37.9103C277.548 37.7489 277.594 37.5438 277.594 37.2951L277.594 34.0715L277.594 34.0715ZM282.879 34.0715L282.879 38.8365L282.244 38.8365L279.845 35.1613L279.845 38.8365L279.214 38.8365L279.214 34.0715L279.845 34.0715L282.254 37.7565L282.254 34.0715L282.879 34.0715L282.879 34.0715Z" id="Фигура" fill="#8794BA" fill-rule="evenodd" stroke="none" />
  </g>
</svg>