<?xml version="1.0" encoding="utf-8"?>
<svg width="335px" height="229px" viewBox="0 0 335 229" version="1.1" xmlns:xlink="http://www.w3.org/1999/xlink" xmlns="http://www.w3.org/2000/svg">
  <defs>
    <path d="M0 0L335 0L335 229L0 229L0 0Z" id="path_1" />
    <clipPath id="mask_1">
      <use xlink:href="#path_1" />
    </clipPath>
  </defs>
  <g id="screenshots__automated_mobile_img">
    <path d="M0 0L335 0L335 229L0 229L0 0Z" id="Фон" fill="#FFFFFF" fill-opacity="0" fill-rule="evenodd" stroke="none" />
    <path d="M0 33.5L0 16.75C0 12.1246 1.63532 8.1766 4.90596 4.90596C8.1766 1.63532 12.1246 0 16.75 0L318.25 0C322.875 0 326.823 1.63532 330.094 4.90596C333.365 8.1766 335 12.1246 335 16.75L335 212.167C335 216.792 333.365 220.74 330.094 224.011C326.823 227.282 322.875 228.917 318.25 228.917L16.75 228.917C12.1246 228.917 8.1766 227.282 4.90596 224.011C1.63532 220.74 0 216.792 0 212.167L0 33.5Z" id="Group" fill="#FFFFFF" fill-rule="evenodd" stroke="none" />
    <path d="M61.9831 78.2098L122.833 43.078L183.683 78.2098L183.683 148.473L122.833 183.605L61.9831 148.473L61.9831 78.2098L61.9831 78.2098Z" id="Фигура" fill="none" stroke="#EEEEF7" stroke-width="1.11667" />
    <path d="M83.259 90.493L122.833 67.6447L162.408 90.493L162.408 136.19L122.833 159.039L83.259 136.19L83.259 90.493L83.259 90.493Z" id="Фигура" fill="none" stroke="#EEEEF7" stroke-width="1.11667" />
    <path d="M90.681 94.925L123.036 68.2795L168.661 86.204L171.928 140.925L123.026 169.995L87.143 132.48L90.681 94.925L90.681 94.925Z" id="Фигура" fill="none" stroke="#0088F0" stroke-width="2.23333" />
    <path d="M76.2247 86.761L122.477 61.2142L148.092 99.364L164.955 137.908L122.987 137.908L93.683 129.722L76.2247 86.761L76.2247 86.761Z" id="Фигура" fill="none" stroke="#EF2A82" stroke-width="2.23333" />
    <path d="M109.369 105.568L122.833 97.795L136.297 105.568L136.297 121.115L122.833 128.889L109.369 121.115L109.369 105.568L109.369 105.568Z" id="Фигура" fill="none" stroke="#EEEEF7" stroke-width="1.11667" />
    <path d="M257.128 76.9631L258.547 76.9631C259.242 76.9631 259.815 76.8484 260.266 76.6191C260.725 76.3826 261.066 76.0638 261.288 75.6624C261.517 75.254 261.632 74.7953 261.632 74.2866C261.632 73.6846 261.531 73.1794 261.331 72.7709C261.13 72.3625 260.829 72.0543 260.428 71.8465C260.026 71.6387 259.518 71.5348 258.901 71.5348C258.342 71.5348 257.848 71.6458 257.418 71.868C256.995 72.083 256.662 72.3911 256.418 72.7924C256.182 73.1937 256.064 73.6667 256.064 74.2113L254.075 74.2113C254.075 73.4159 254.276 72.6921 254.677 72.04C255.078 71.3879 255.641 70.8683 256.365 70.4814C257.095 70.0944 257.941 69.9009 258.901 69.9009C259.847 69.9009 260.675 70.0693 261.384 70.4061C262.094 70.7357 262.646 71.2302 263.04 71.8895C263.434 72.5416 263.631 73.355 263.631 74.3296C263.631 74.7237 263.538 75.1465 263.351 75.598C263.172 76.0423 262.889 76.4579 262.502 76.8449C262.123 77.2318 261.628 77.5507 261.019 77.8015C260.41 78.0452 259.679 78.167 258.826 78.167L257.128 78.167L257.128 76.9631L257.128 76.9631ZM257.128 78.597L257.128 77.4038L258.826 77.4038C259.822 77.4038 260.646 77.5221 261.298 77.7585C261.951 77.995 262.463 78.3103 262.836 78.7045C263.215 79.0986 263.48 79.5321 263.631 80.0051C263.789 80.4709 263.867 80.9367 263.867 81.4025C263.867 82.1334 263.742 82.782 263.491 83.348C263.248 83.914 262.9 84.394 262.449 84.788C262.004 85.183 261.481 85.48 260.879 85.681C260.277 85.881 259.622 85.982 258.912 85.982C258.231 85.982 257.59 85.885 256.988 85.691C256.393 85.498 255.866 85.218 255.408 84.853C254.949 84.48 254.591 84.025 254.333 83.488C254.075 82.9432 253.946 82.3233 253.946 81.6282L255.935 81.6282C255.935 82.1729 256.053 82.6494 256.289 83.058C256.533 83.466 256.877 83.785 257.321 84.015C257.773 84.237 258.303 84.348 258.912 84.348C259.521 84.348 260.044 84.244 260.481 84.036C260.926 83.821 261.266 83.499 261.503 83.069C261.746 82.6387 261.868 82.0976 261.868 81.4455C261.868 80.7934 261.732 80.2595 261.46 79.8439C261.187 79.4211 260.8 79.1093 260.299 78.9087C259.804 78.7009 259.22 78.597 258.547 78.597L257.128 78.597L257.128 78.597ZM277.186 80.4996L277.186 82.1334L265.878 82.1334L265.878 80.9618L272.886 70.1159L274.509 70.1159L272.768 73.2546L268.135 80.4996L277.186 80.4996L277.186 80.4996ZM275.004 70.1159L275.004 85.767L273.015 85.767L273.015 70.1159L275.004 70.1159L275.004 70.1159ZM278.82 73.9533L278.82 73.1256C278.82 72.5309 278.949 71.9898 279.207 71.5025C279.464 71.0152 279.834 70.6247 280.314 70.3309C280.794 70.0371 281.364 69.8901 282.023 69.8901C282.696 69.8901 283.27 70.0371 283.743 70.3309C284.223 70.6247 284.592 71.0152 284.85 71.5025C285.108 71.9898 285.237 72.5309 285.237 73.1256L285.237 73.9533C285.237 74.5338 285.108 75.0677 284.85 75.555C284.599 76.0423 284.234 76.4328 283.753 76.7266C283.28 77.0204 282.711 77.1673 282.044 77.1673C281.378 77.1673 280.801 77.0204 280.314 76.7266C279.834 76.4328 279.464 76.0423 279.207 75.555C278.949 75.0677 278.82 74.5338 278.82 73.9533L278.82 73.9533ZM280.314 73.1256L280.314 73.9533C280.314 74.283 280.375 74.5947 280.496 74.8885C280.625 75.1823 280.819 75.4224 281.077 75.6087C281.335 75.7879 281.657 75.8774 282.044 75.8774C282.431 75.8774 282.75 75.7879 283.001 75.6087C283.252 75.4224 283.438 75.1823 283.56 74.8885C283.682 74.5947 283.743 74.283 283.743 73.9533L283.743 73.1256C283.743 72.7888 283.678 72.4735 283.549 72.1797C283.427 71.8787 283.237 71.6387 282.979 71.4595C282.729 71.2732 282.41 71.18 282.023 71.18C281.643 71.18 281.324 71.2732 281.066 71.4595C280.815 71.6387 280.625 71.8787 280.496 72.1797C280.375 72.4735 280.314 72.7888 280.314 73.1256L280.314 73.1256ZM286.441 82.7676L286.441 81.9292C286.441 81.3416 286.57 80.8041 286.828 80.3168C287.086 79.8295 287.455 79.439 287.935 79.1452C288.415 78.8514 288.985 78.7045 289.644 78.7045C290.318 78.7045 290.891 78.8514 291.364 79.1452C291.844 79.439 292.213 79.8295 292.471 80.3168C292.729 80.8041 292.858 81.3416 292.858 81.9292L292.858 82.7676C292.858 83.355 292.729 83.893 292.471 84.38C292.22 84.867 291.855 85.258 291.375 85.552C290.902 85.845 290.332 85.992 289.665 85.992C288.999 85.992 288.426 85.845 287.946 85.552C287.465 85.258 287.093 84.867 286.828 84.38C286.57 83.893 286.441 83.355 286.441 82.7676L286.441 82.7676ZM287.935 81.9292L287.935 82.7676C287.935 83.097 287.996 83.413 288.118 83.714C288.247 84.007 288.44 84.247 288.698 84.434C288.956 84.613 289.278 84.702 289.665 84.702C290.052 84.702 290.371 84.613 290.622 84.434C290.88 84.247 291.07 84.007 291.192 83.714C291.314 83.42 291.375 83.104 291.375 82.7676L291.375 81.9292C291.375 81.5924 291.31 81.2771 291.181 80.9833C291.059 80.6895 290.869 80.453 290.611 80.2738C290.361 80.0875 290.038 79.9944 289.644 79.9944C289.264 79.9944 288.945 80.0875 288.687 80.2738C288.436 80.453 288.247 80.6895 288.118 80.9833C287.996 81.2771 287.935 81.5924 287.935 81.9292L287.935 81.9292ZM290.138 72.341L282.496 84.574L281.378 83.864L289.02 71.6315L290.138 72.341L290.138 72.341Z" id="Фигура" fill="#EF2A82" fill-rule="evenodd" stroke="none" />
    <path d="M253.376 99.412L253.376 99.3C253.376 98.917 253.432 98.562 253.543 98.235C253.654 97.904 253.815 97.618 254.024 97.376C254.233 97.131 254.487 96.941 254.785 96.807C255.082 96.669 255.416 96.601 255.786 96.601C256.159 96.601 256.494 96.669 256.792 96.807C257.093 96.941 257.348 97.131 257.557 97.376C257.77 97.618 257.932 97.904 258.043 98.235C258.154 98.562 258.21 98.917 258.21 99.3L258.21 99.412C258.21 99.795 258.154 100.15 258.043 100.477C257.932 100.804 257.77 101.091 257.557 101.336C257.348 101.578 257.094 101.768 256.797 101.905C256.502 102.039 256.168 102.106 255.796 102.106C255.423 102.106 255.087 102.039 254.79 101.905C254.492 101.768 254.237 101.578 254.024 101.336C253.815 101.091 253.654 100.804 253.543 100.477C253.432 100.15 253.376 99.795 253.376 99.412L253.376 99.412ZM254.284 99.3L254.284 99.412C254.284 99.677 254.315 99.928 254.377 100.163C254.44 100.395 254.533 100.602 254.657 100.782C254.785 100.961 254.943 101.104 255.133 101.208C255.323 101.31 255.544 101.361 255.796 101.361C256.044 101.361 256.262 101.31 256.448 101.208C256.638 101.104 256.795 100.961 256.919 100.782C257.044 100.602 257.137 100.395 257.199 100.163C257.264 99.928 257.297 99.677 257.297 99.412L257.297 99.3C257.297 99.038 257.264 98.791 257.199 98.559C257.137 98.323 257.042 98.115 256.914 97.935C256.79 97.752 256.633 97.608 256.443 97.503C256.257 97.399 256.038 97.346 255.786 97.346C255.537 97.346 255.318 97.399 255.128 97.503C254.942 97.608 254.785 97.752 254.657 97.935C254.533 98.115 254.44 98.323 254.377 98.559C254.315 98.791 254.284 99.038 254.284 99.3L254.284 99.3ZM260.343 97.719L260.343 104.05L259.343 104.05L259.343 96.699L260.258 96.699L260.343 97.719L260.343 97.719ZM263.834 99.309L263.834 99.412C263.834 99.798 263.788 100.157 263.696 100.487C263.605 100.814 263.47 101.099 263.294 101.341C263.12 101.583 262.906 101.771 262.651 101.905C262.396 102.039 262.103 102.106 261.773 102.106C261.436 102.106 261.138 102.051 260.879 101.94C260.621 101.828 260.402 101.666 260.222 101.454C260.042 101.241 259.898 100.986 259.79 100.688C259.685 100.391 259.613 100.055 259.574 99.682L259.574 99.133C259.613 98.74 259.687 98.388 259.795 98.078C259.903 97.767 260.045 97.502 260.222 97.283C260.402 97.06 260.619 96.892 260.875 96.777C261.13 96.659 261.424 96.601 261.758 96.601C262.092 96.601 262.388 96.666 262.646 96.797C262.904 96.924 263.122 97.108 263.299 97.346C263.475 97.585 263.608 97.872 263.696 98.205C263.788 98.536 263.834 98.904 263.834 99.309L263.834 99.309ZM262.921 99.412L262.921 99.309C262.921 99.044 262.893 98.796 262.837 98.563C262.782 98.328 262.695 98.122 262.577 97.945C262.463 97.765 262.316 97.625 262.136 97.523C261.956 97.418 261.741 97.366 261.493 97.366C261.264 97.366 261.064 97.405 260.894 97.484C260.727 97.562 260.585 97.669 260.467 97.803C260.349 97.934 260.253 98.084 260.178 98.254C260.106 98.421 260.052 98.595 260.016 98.774L260.016 100.045C260.081 100.274 260.173 100.49 260.291 100.693C260.408 100.893 260.565 101.055 260.762 101.179C260.958 101.3 261.205 101.361 261.503 101.361C261.748 101.361 261.959 101.31 262.136 101.208C262.316 101.104 262.463 100.961 262.577 100.782C262.695 100.602 262.782 100.395 262.837 100.163C262.893 99.928 262.921 99.677 262.921 99.412L262.921 99.412ZM267.215 96.699L267.215 97.699L264.344 97.699L264.344 96.699L267.215 96.699L267.215 96.699ZM265.316 95.408L266.223 95.408L266.223 100.693C266.223 100.873 266.251 101.009 266.307 101.1C266.362 101.192 266.434 101.253 266.523 101.282C266.611 101.312 266.706 101.326 266.807 101.326C266.883 101.326 266.961 101.32 267.043 101.307C267.128 101.29 267.192 101.277 267.234 101.267L267.239 102.008C267.167 102.031 267.072 102.052 266.955 102.072C266.84 102.095 266.701 102.106 266.537 102.106C266.315 102.106 266.111 102.062 265.924 101.974C265.738 101.886 265.589 101.738 265.477 101.532C265.37 101.323 265.316 101.042 265.316 100.688L265.316 95.408L265.316 95.408ZM269.353 96.699L269.353 102.008L268.353 102.008L268.353 96.699L269.353 96.699L269.353 96.699ZM268.284 95.29C268.284 95.143 268.329 95.019 268.417 94.917C268.509 94.816 268.643 94.765 268.819 94.765C268.993 94.765 269.125 94.816 269.217 94.917C269.312 95.019 269.359 95.143 269.359 95.29C269.359 95.431 269.312 95.552 269.217 95.653C269.125 95.752 268.993 95.801 268.819 95.801C268.643 95.801 268.509 95.752 268.417 95.653C268.329 95.552 268.284 95.431 268.284 95.29L268.284 95.29ZM270.483 99.412L270.483 99.3C270.483 98.917 270.538 98.562 270.65 98.235C270.761 97.904 270.921 97.618 271.131 97.376C271.34 97.131 271.594 96.941 271.891 96.807C272.189 96.669 272.523 96.601 272.892 96.601C273.265 96.601 273.601 96.669 273.898 96.807C274.199 96.941 274.454 97.131 274.664 97.376C274.876 97.618 275.038 97.904 275.15 98.235C275.261 98.562 275.316 98.917 275.316 99.3L275.316 99.412C275.316 99.795 275.261 100.15 275.15 100.477C275.038 100.804 274.876 101.091 274.664 101.336C274.454 101.578 274.201 101.768 273.903 101.905C273.609 102.039 273.275 102.106 272.902 102.106C272.529 102.106 272.194 102.039 271.896 101.905C271.598 101.768 271.343 101.578 271.131 101.336C270.921 101.091 270.761 100.804 270.65 100.477C270.538 100.15 270.483 99.795 270.483 99.412L270.483 99.412ZM271.391 99.3L271.391 99.412C271.391 99.677 271.422 99.928 271.484 100.163C271.546 100.395 271.639 100.602 271.764 100.782C271.891 100.961 272.05 101.104 272.24 101.208C272.429 101.31 272.65 101.361 272.902 101.361C273.151 101.361 273.368 101.31 273.555 101.208C273.745 101.104 273.902 100.961 274.026 100.782C274.15 100.602 274.243 100.395 274.306 100.163C274.371 99.928 274.404 99.677 274.404 99.412L274.404 99.3C274.404 99.038 274.371 98.791 274.306 98.559C274.243 98.323 274.149 98.115 274.021 97.935C273.897 97.752 273.74 97.608 273.55 97.503C273.363 97.399 273.144 97.346 272.892 97.346C272.644 97.346 272.424 97.399 272.235 97.503C272.048 97.608 271.891 97.752 271.764 97.935C271.639 98.115 271.546 98.323 271.484 98.559C271.422 98.791 271.391 99.038 271.391 99.3L271.391 99.3ZM277.455 97.832L277.455 102.008L276.455 102.008L276.455 96.699L277.401 96.699L277.455 97.832L277.455 97.832ZM277.147 99.152L276.769 99.138C276.772 98.774 276.826 98.439 276.931 98.132C277.036 97.821 277.183 97.551 277.373 97.322C277.562 97.093 277.788 96.916 278.05 96.792C278.315 96.664 278.608 96.601 278.928 96.601C279.19 96.601 279.425 96.637 279.635 96.709C279.844 96.777 280.023 96.888 280.17 97.042C280.32 97.196 280.435 97.396 280.513 97.641C280.592 97.883 280.631 98.179 280.631 98.529L280.631 102.008L279.718 102.008L279.718 98.519C279.718 98.241 279.677 98.019 279.596 97.852C279.514 97.682 279.394 97.559 279.237 97.484C279.08 97.405 278.887 97.366 278.658 97.366C278.433 97.366 278.226 97.414 278.04 97.508C277.857 97.603 277.698 97.734 277.564 97.901C277.433 98.068 277.33 98.259 277.255 98.475C277.183 98.688 277.147 98.914 277.147 99.152L277.147 99.152ZM287.388 94.824L287.388 102.008L286.48 102.008L286.48 95.958L284.65 96.625L284.65 95.806L287.246 94.824L287.388 94.824L287.388 94.824Z" id="Фигура" fill="#8794BA" fill-rule="evenodd" stroke="none" />
    <path d="M264.48 146.666L264.48 148.3L254.236 148.3L254.236 146.87L259.364 141.163C259.994 140.46 260.481 139.865 260.825 139.378C261.177 138.884 261.42 138.443 261.556 138.056C261.7 137.662 261.771 137.261 261.771 136.852C261.771 136.336 261.664 135.87 261.449 135.455C261.241 135.032 260.933 134.695 260.524 134.444C260.116 134.194 259.622 134.068 259.041 134.068C258.346 134.068 257.766 134.204 257.3 134.477C256.841 134.742 256.497 135.114 256.268 135.594C256.038 136.075 255.924 136.626 255.924 137.25L253.935 137.25C253.935 136.368 254.129 135.562 254.516 134.831C254.903 134.1 255.476 133.52 256.236 133.09C256.995 132.653 257.93 132.434 259.041 132.434C260.03 132.434 260.876 132.61 261.578 132.961C262.28 133.305 262.818 133.792 263.19 134.423C263.57 135.046 263.76 135.777 263.76 136.616C263.76 137.074 263.681 137.54 263.523 138.013C263.373 138.479 263.162 138.945 262.889 139.41C262.624 139.876 262.312 140.335 261.954 140.786C261.603 141.238 261.227 141.682 260.825 142.119L256.633 146.666L264.48 146.666L264.48 146.666ZM268.586 146.634L268.791 146.634C269.937 146.634 270.869 146.473 271.585 146.15C272.302 145.828 272.854 145.394 273.241 144.85C273.628 144.305 273.893 143.692 274.036 143.011C274.179 142.323 274.251 141.618 274.251 140.894L274.251 138.497C274.251 137.787 274.169 137.157 274.004 136.605C273.846 136.053 273.624 135.591 273.337 135.218C273.058 134.846 272.739 134.563 272.381 134.369C272.022 134.176 271.643 134.079 271.241 134.079C270.783 134.079 270.371 134.172 270.005 134.358C269.647 134.537 269.342 134.792 269.092 135.122C268.848 135.451 268.662 135.838 268.533 136.282C268.404 136.727 268.339 137.21 268.339 137.734C268.339 138.199 268.396 138.651 268.511 139.088C268.626 139.525 268.801 139.919 269.038 140.27C269.274 140.622 269.568 140.901 269.919 141.109C270.278 141.309 270.697 141.41 271.177 141.41C271.621 141.41 272.037 141.324 272.424 141.152C272.818 140.973 273.165 140.733 273.466 140.432C273.775 140.123 274.018 139.776 274.197 139.389C274.384 139.002 274.491 138.597 274.52 138.174L275.466 138.174C275.466 138.769 275.348 139.357 275.111 139.937C274.882 140.51 274.559 141.034 274.144 141.507C273.728 141.979 273.241 142.359 272.682 142.646C272.123 142.925 271.514 143.065 270.854 143.065C270.08 143.065 269.41 142.915 268.844 142.614C268.278 142.313 267.812 141.911 267.447 141.41C267.089 140.908 266.82 140.349 266.641 139.733C266.469 139.109 266.383 138.479 266.383 137.841C266.383 137.096 266.487 136.397 266.694 135.745C266.902 135.093 267.21 134.52 267.619 134.025C268.027 133.523 268.533 133.133 269.135 132.853C269.744 132.574 270.446 132.434 271.241 132.434C272.137 132.434 272.9 132.613 273.531 132.972C274.162 133.33 274.674 133.81 275.068 134.412C275.469 135.014 275.763 135.691 275.95 136.444C276.136 137.196 276.229 137.97 276.229 138.765L276.229 139.486C276.229 140.295 276.175 141.12 276.068 141.958C275.967 142.789 275.77 143.585 275.477 144.344C275.19 145.104 274.771 145.785 274.219 146.387C273.667 146.981 272.947 147.454 272.058 147.806C271.177 148.149 270.088 148.321 268.791 148.321L268.586 148.321L268.586 146.634L268.586 146.634ZM278.82 136.487L278.82 135.659C278.82 135.064 278.949 134.523 279.207 134.036C279.464 133.549 279.834 133.158 280.314 132.864C280.794 132.57 281.364 132.423 282.023 132.423C282.696 132.423 283.27 132.57 283.743 132.864C284.223 133.158 284.592 133.549 284.85 134.036C285.108 134.523 285.237 135.064 285.237 135.659L285.237 136.487C285.237 137.067 285.108 137.601 284.85 138.088C284.599 138.576 284.234 138.966 283.753 139.26C283.28 139.554 282.711 139.701 282.044 139.701C281.378 139.701 280.801 139.554 280.314 139.26C279.834 138.966 279.464 138.576 279.207 138.088C278.949 137.601 278.82 137.067 278.82 136.487L278.82 136.487ZM280.314 135.659L280.314 136.487C280.314 136.816 280.375 137.128 280.496 137.422C280.625 137.716 280.819 137.956 281.077 138.142C281.335 138.321 281.657 138.411 282.044 138.411C282.431 138.411 282.75 138.321 283.001 138.142C283.252 137.956 283.438 137.716 283.56 137.422C283.682 137.128 283.743 136.816 283.743 136.487L283.743 135.659C283.743 135.322 283.678 135.007 283.549 134.713C283.427 134.412 283.237 134.172 282.979 133.993C282.729 133.807 282.41 133.713 282.023 133.713C281.643 133.713 281.324 133.807 281.066 133.993C280.815 134.172 280.625 134.412 280.496 134.713C280.375 135.007 280.314 135.322 280.314 135.659L280.314 135.659ZM286.441 145.301L286.441 144.463C286.441 143.875 286.57 143.337 286.828 142.85C287.086 142.363 287.455 141.972 287.935 141.679C288.415 141.385 288.985 141.238 289.644 141.238C290.318 141.238 290.891 141.385 291.364 141.679C291.844 141.972 292.213 142.363 292.471 142.85C292.729 143.337 292.858 143.875 292.858 144.463L292.858 145.301C292.858 145.889 292.729 146.426 292.471 146.913C292.22 147.401 291.855 147.791 291.375 148.085C290.902 148.379 290.332 148.526 289.665 148.526C288.999 148.526 288.426 148.379 287.946 148.085C287.465 147.791 287.093 147.401 286.828 146.913C286.57 146.426 286.441 145.889 286.441 145.301L286.441 145.301ZM287.935 144.463L287.935 145.301C287.935 145.631 287.996 145.946 288.118 146.247C288.247 146.541 288.44 146.781 288.698 146.967C288.956 147.146 289.278 147.236 289.665 147.236C290.052 147.236 290.371 147.146 290.622 146.967C290.88 146.781 291.07 146.541 291.192 146.247C291.314 145.953 291.375 145.638 291.375 145.301L291.375 144.463C291.375 144.126 291.31 143.81 291.181 143.517C291.059 143.223 290.869 142.986 290.611 142.807C290.361 142.621 290.038 142.528 289.644 142.528C289.264 142.528 288.945 142.621 288.687 142.807C288.436 142.986 288.247 143.223 288.118 143.517C287.996 143.81 287.935 144.126 287.935 144.463L287.935 144.463ZM290.138 134.874L282.496 147.107L281.378 146.397L289.02 134.165L290.138 134.874L290.138 134.874Z" id="Фигура" fill="#0088F0" fill-rule="evenodd" stroke="none" />
    <path d="M253.376 161.946L253.376 161.833C253.376 161.45 253.432 161.095 253.543 160.768C253.654 160.438 253.815 160.151 254.024 159.909C254.233 159.664 254.487 159.474 254.785 159.34C255.082 159.203 255.416 159.134 255.786 159.134C256.159 159.134 256.494 159.203 256.792 159.34C257.093 159.474 257.348 159.664 257.557 159.909C257.77 160.151 257.932 160.438 258.043 160.768C258.154 161.095 258.21 161.45 258.21 161.833L258.21 161.946C258.21 162.328 258.154 162.683 258.043 163.011C257.932 163.338 257.77 163.624 257.557 163.869C257.348 164.111 257.094 164.301 256.797 164.439C256.502 164.573 256.168 164.64 255.796 164.64C255.423 164.64 255.087 164.573 254.79 164.439C254.492 164.301 254.237 164.111 254.024 163.869C253.815 163.624 253.654 163.338 253.543 163.011C253.432 162.683 253.376 162.328 253.376 161.946L253.376 161.946ZM254.284 161.833L254.284 161.946C254.284 162.211 254.315 162.461 254.377 162.697C254.44 162.929 254.533 163.135 254.657 163.315C254.785 163.495 254.943 163.637 255.133 163.742C255.323 163.843 255.544 163.894 255.796 163.894C256.044 163.894 256.262 163.843 256.448 163.742C256.638 163.637 256.795 163.495 256.919 163.315C257.044 163.135 257.137 162.929 257.199 162.697C257.264 162.461 257.297 162.211 257.297 161.946L257.297 161.833C257.297 161.571 257.264 161.324 257.199 161.092C257.137 160.856 257.042 160.649 256.914 160.469C256.79 160.285 256.633 160.142 256.443 160.037C256.257 159.932 256.038 159.88 255.786 159.88C255.537 159.88 255.318 159.932 255.128 160.037C254.942 160.142 254.785 160.285 254.657 160.469C254.533 160.649 254.44 160.856 254.377 161.092C254.315 161.324 254.284 161.571 254.284 161.833L254.284 161.833ZM260.343 160.253L260.343 166.583L259.343 166.583L259.343 159.232L260.258 159.232L260.343 160.253L260.343 160.253ZM263.834 161.843L263.834 161.946C263.834 162.332 263.788 162.69 263.696 163.02C263.605 163.348 263.47 163.632 263.294 163.874C263.12 164.116 262.906 164.304 262.651 164.439C262.396 164.573 262.103 164.64 261.773 164.64C261.436 164.64 261.138 164.584 260.879 164.473C260.621 164.362 260.402 164.2 260.222 163.987C260.042 163.774 259.898 163.519 259.79 163.222C259.685 162.924 259.613 162.589 259.574 162.216L259.574 161.666C259.613 161.273 259.687 160.922 259.795 160.611C259.903 160.3 260.045 160.035 260.222 159.816C260.402 159.594 260.619 159.425 260.875 159.311C261.13 159.193 261.424 159.134 261.758 159.134C262.092 159.134 262.388 159.199 262.646 159.33C262.904 159.458 263.122 159.641 263.299 159.88C263.475 160.119 263.608 160.405 263.696 160.739C263.788 161.069 263.834 161.437 263.834 161.843L263.834 161.843ZM262.921 161.946L262.921 161.843C262.921 161.578 262.893 161.329 262.837 161.097C262.782 160.861 262.695 160.655 262.577 160.478C262.463 160.299 262.316 160.158 262.136 160.056C261.956 159.952 261.741 159.899 261.493 159.899C261.264 159.899 261.064 159.939 260.894 160.017C260.727 160.096 260.585 160.202 260.467 160.336C260.349 160.467 260.253 160.618 260.178 160.788C260.106 160.954 260.052 161.128 260.016 161.308L260.016 162.579C260.081 162.808 260.173 163.024 260.291 163.227C260.408 163.426 260.565 163.588 260.762 163.712C260.958 163.833 261.205 163.894 261.503 163.894C261.748 163.894 261.959 163.843 262.136 163.742C262.316 163.637 262.463 163.495 262.577 163.315C262.695 163.135 262.782 162.929 262.837 162.697C262.893 162.461 262.921 162.211 262.921 161.946L262.921 161.946ZM267.215 159.232L267.215 160.232L264.344 160.232L264.344 159.232L267.215 159.232L267.215 159.232ZM265.316 157.941L266.223 157.941L266.223 163.227C266.223 163.406 266.251 163.542 266.307 163.634C266.362 163.725 266.434 163.786 266.523 163.815C266.611 163.845 266.706 163.86 266.807 163.86C266.883 163.86 266.961 163.853 267.043 163.84C267.128 163.824 267.192 163.81 267.234 163.801L267.239 164.542C267.167 164.565 267.072 164.586 266.955 164.605C266.84 164.628 266.701 164.64 266.537 164.64C266.315 164.64 266.111 164.596 265.924 164.507C265.738 164.419 265.589 164.272 265.477 164.066C265.37 163.856 265.316 163.575 265.316 163.222L265.316 157.941L265.316 157.941ZM269.353 159.232L269.353 164.542L268.353 164.542L268.353 159.232L269.353 159.232L269.353 159.232ZM268.284 157.824C268.284 157.676 268.329 157.552 268.417 157.451C268.509 157.349 268.643 157.299 268.819 157.299C268.993 157.299 269.125 157.349 269.217 157.451C269.312 157.552 269.359 157.676 269.359 157.824C269.359 157.964 269.312 158.085 269.217 158.187C269.125 158.285 268.993 158.334 268.819 158.334C268.643 158.334 268.509 158.285 268.417 158.187C268.329 158.085 268.284 157.964 268.284 157.824L268.284 157.824ZM270.483 161.946L270.483 161.833C270.483 161.45 270.538 161.095 270.65 160.768C270.761 160.438 270.921 160.151 271.131 159.909C271.34 159.664 271.594 159.474 271.891 159.34C272.189 159.203 272.523 159.134 272.892 159.134C273.265 159.134 273.601 159.203 273.898 159.34C274.199 159.474 274.454 159.664 274.664 159.909C274.876 160.151 275.038 160.438 275.15 160.768C275.261 161.095 275.316 161.45 275.316 161.833L275.316 161.946C275.316 162.328 275.261 162.683 275.15 163.011C275.038 163.338 274.876 163.624 274.664 163.869C274.454 164.111 274.201 164.301 273.903 164.439C273.609 164.573 273.275 164.64 272.902 164.64C272.529 164.64 272.194 164.573 271.896 164.439C271.598 164.301 271.343 164.111 271.131 163.869C270.921 163.624 270.761 163.338 270.65 163.011C270.538 162.683 270.483 162.328 270.483 161.946L270.483 161.946ZM271.391 161.833L271.391 161.946C271.391 162.211 271.422 162.461 271.484 162.697C271.546 162.929 271.639 163.135 271.764 163.315C271.891 163.495 272.05 163.637 272.24 163.742C272.429 163.843 272.65 163.894 272.902 163.894C273.151 163.894 273.368 163.843 273.555 163.742C273.745 163.637 273.902 163.495 274.026 163.315C274.15 163.135 274.243 162.929 274.306 162.697C274.371 162.461 274.404 162.211 274.404 161.946L274.404 161.833C274.404 161.571 274.371 161.324 274.306 161.092C274.243 160.856 274.149 160.649 274.021 160.469C273.897 160.285 273.74 160.142 273.55 160.037C273.363 159.932 273.144 159.88 272.892 159.88C272.644 159.88 272.424 159.932 272.235 160.037C272.048 160.142 271.891 160.285 271.764 160.469C271.639 160.649 271.546 160.856 271.484 161.092C271.422 161.324 271.391 161.571 271.391 161.833L271.391 161.833ZM277.455 160.366L277.455 164.542L276.455 164.542L276.455 159.232L277.401 159.232L277.455 160.366L277.455 160.366ZM277.147 161.686L276.769 161.671C276.772 161.308 276.826 160.972 276.931 160.665C277.036 160.354 277.183 160.084 277.373 159.855C277.562 159.626 277.788 159.45 278.05 159.325C278.315 159.198 278.608 159.134 278.928 159.134C279.19 159.134 279.425 159.17 279.635 159.242C279.844 159.311 280.023 159.422 280.17 159.576C280.32 159.729 280.435 159.929 280.513 160.174C280.592 160.416 280.631 160.712 280.631 161.062L280.631 164.542L279.718 164.542L279.718 161.053C279.718 160.775 279.677 160.552 279.596 160.385C279.514 160.215 279.394 160.092 279.237 160.017C279.08 159.939 278.887 159.899 278.658 159.899C278.433 159.899 278.226 159.947 278.04 160.042C277.857 160.137 277.698 160.267 277.564 160.434C277.433 160.601 277.33 160.793 277.255 161.008C277.183 161.221 277.147 161.447 277.147 161.686L277.147 161.686ZM289.086 163.796L289.086 164.542L284.41 164.542L284.41 163.889L286.75 161.283C287.038 160.963 287.261 160.691 287.418 160.469C287.578 160.243 287.689 160.042 287.751 159.865C287.817 159.685 287.85 159.502 287.85 159.315C287.85 159.08 287.8 158.867 287.702 158.678C287.607 158.485 287.467 158.331 287.28 158.216C287.094 158.102 286.868 158.044 286.603 158.044C286.286 158.044 286.021 158.107 285.808 158.231C285.599 158.352 285.442 158.522 285.337 158.741C285.232 158.961 285.18 159.212 285.18 159.497L284.272 159.497C284.272 159.095 284.36 158.727 284.537 158.393C284.714 158.059 284.976 157.794 285.322 157.598C285.669 157.398 286.096 157.299 286.603 157.299C287.055 157.299 287.441 157.379 287.761 157.539C288.082 157.696 288.327 157.919 288.497 158.206C288.671 158.491 288.757 158.825 288.757 159.208C288.757 159.417 288.721 159.63 288.649 159.845C288.581 160.058 288.484 160.271 288.36 160.483C288.239 160.696 288.097 160.905 287.933 161.112C287.773 161.318 287.601 161.52 287.418 161.72L285.504 163.796L289.086 163.796L289.086 163.796Z" id="Фигура" fill="#8794BA" fill-rule="evenodd" stroke="none" />
    <path d="M116.88 30.6856L116.88 35.475L116.275 35.475L116.275 31.4413L115.055 31.8862L115.055 31.3398L116.785 30.6856L116.88 30.6856L116.88 30.6856ZM121.663 34.186C121.663 34.4761 121.595 34.7226 121.46 34.9254C121.327 35.126 121.146 35.2787 120.917 35.3834C120.69 35.4881 120.434 35.5404 120.148 35.5404C119.863 35.5404 119.605 35.4881 119.376 35.3834C119.147 35.2787 118.966 35.126 118.833 34.9254C118.7 34.7226 118.634 34.4761 118.634 34.186C118.634 33.9963 118.67 33.8229 118.742 33.6659C118.816 33.5067 118.919 33.3682 119.052 33.2504C119.188 33.1326 119.347 33.0421 119.53 32.9789C119.715 32.9134 119.919 32.8807 120.142 32.8807C120.434 32.8807 120.695 32.9374 120.924 33.0508C121.153 33.1621 121.333 33.3158 121.463 33.5121C121.596 33.7084 121.663 33.933 121.663 34.186L121.663 34.186ZM121.054 34.173C121.054 33.9963 121.016 33.8404 120.94 33.7051C120.864 33.5677 120.757 33.4609 120.619 33.3845C120.482 33.3082 120.323 33.27 120.142 33.27C119.956 33.27 119.796 33.3082 119.661 33.3845C119.528 33.4609 119.424 33.5677 119.35 33.7051C119.276 33.8404 119.239 33.9963 119.239 34.173C119.239 34.3562 119.275 34.5132 119.347 34.644C119.421 34.7727 119.526 34.872 119.661 34.9418C119.798 35.0094 119.961 35.0432 120.148 35.0432C120.336 35.0432 120.497 35.0094 120.632 34.9418C120.768 34.872 120.871 34.7727 120.943 34.644C121.017 34.5132 121.054 34.3562 121.054 34.173L121.054 34.173ZM121.552 31.9516C121.552 32.1828 121.491 32.3911 121.369 32.5765C121.246 32.7619 121.08 32.908 120.868 33.0148C120.656 33.1217 120.417 33.1752 120.148 33.1752C119.876 33.1752 119.632 33.1217 119.419 33.0148C119.207 32.908 119.041 32.7619 118.921 32.5765C118.802 32.3911 118.742 32.1828 118.742 31.9516C118.742 31.6746 118.802 31.4391 118.921 31.245C119.044 31.0509 119.21 30.9026 119.422 30.8001C119.634 30.6975 119.875 30.6463 120.145 30.6463C120.418 30.6463 120.66 30.6975 120.871 30.8001C121.083 30.9026 121.249 31.0509 121.369 31.245C121.491 31.4391 121.552 31.6746 121.552 31.9516L121.552 31.9516ZM120.947 31.9614C120.947 31.8022 120.913 31.6615 120.845 31.5394C120.778 31.4173 120.684 31.3213 120.564 31.2515C120.444 31.1795 120.304 31.1436 120.145 31.1436C119.986 31.1436 119.846 31.1774 119.726 31.245C119.608 31.3104 119.516 31.4042 119.448 31.5263C119.383 31.6485 119.35 31.7935 119.35 31.9614C119.35 32.125 119.383 32.2679 119.448 32.39C119.516 32.5121 119.61 32.607 119.73 32.6746C119.849 32.7422 119.989 32.776 120.148 32.776C120.308 32.776 120.446 32.7422 120.564 32.6746C120.684 32.607 120.778 32.5121 120.845 32.39C120.913 32.2679 120.947 32.125 120.947 31.9614L120.947 31.9614ZM123.753 33.2013L123.753 34.2013L122.157 34.2013L122.157 33.2013L123.753 33.2013L123.753 33.2013ZM127.401 34.9777L127.401 35.475L124.283 35.475L124.283 35.0399L125.844 33.3027C126.036 33.089 126.184 32.908 126.289 32.7597C126.396 32.6092 126.47 32.4751 126.511 32.3573C126.555 32.2373 126.577 32.1152 126.577 31.9909C126.577 31.8338 126.544 31.6921 126.479 31.5656C126.415 31.4369 126.322 31.3344 126.197 31.2581C126.073 31.1817 125.922 31.1436 125.746 31.1436C125.534 31.1436 125.358 31.185 125.216 31.2679C125.076 31.3486 124.972 31.462 124.902 31.6081C124.832 31.7542 124.797 31.9222 124.797 32.1119L124.192 32.1119C124.192 31.8437 124.251 31.5983 124.369 31.3758C124.486 31.1534 124.661 30.9767 124.892 30.8459C125.123 30.7128 125.408 30.6463 125.746 30.6463C126.047 30.6463 126.304 30.6997 126.518 30.8066C126.732 30.9113 126.895 31.0596 127.009 31.2515C127.124 31.4413 127.182 31.6637 127.182 31.9189C127.182 32.0585 127.158 32.2003 127.11 32.3442C127.064 32.486 127 32.6277 126.917 32.7695C126.836 32.9113 126.741 33.0508 126.632 33.1882C126.526 33.3256 126.411 33.4609 126.289 33.5939L125.013 34.9777L127.401 34.9777L127.401 34.9777ZM131.268 33.872L131.268 34.3692L127.826 34.3692L127.826 34.0127L129.959 30.7117L130.453 30.7117L129.923 31.667L128.513 33.872L131.268 33.872L131.268 33.872ZM130.999 30.7117L130.999 35.475L129.999 35.475L129.999 30.7117L130.999 30.7117L130.999 30.7117Z" id="Фигура" fill="#8794BA" fill-rule="evenodd" stroke="none" />
    <path d="M196.737 78.5277L196.737 79.025L193.619 79.025L193.619 78.5899L195.179 76.8527C195.371 76.639 195.52 76.458 195.624 76.3097C195.731 76.1592 195.805 76.025 195.847 75.9073C195.89 75.7873 195.912 75.6652 195.912 75.5409C195.912 75.3838 195.879 75.2421 195.814 75.1156C195.751 74.9869 195.657 74.8844 195.533 74.8081C195.408 74.7317 195.258 74.6935 195.081 74.6935C194.87 74.6935 194.693 74.735 194.551 74.8179C194.412 74.8986 194.307 75.012 194.237 75.1581C194.167 75.3042 194.133 75.4722 194.133 75.6619L193.527 75.6619C193.527 75.3936 193.586 75.1483 193.704 74.9258C193.822 74.7034 193.996 74.5267 194.227 74.3958C194.459 74.2628 194.743 74.1963 195.081 74.1963C195.382 74.1963 195.64 74.2497 195.853 74.3566C196.067 74.4613 196.231 74.6096 196.344 74.8015C196.46 74.9913 196.517 75.2137 196.517 75.4689C196.517 75.6085 196.493 75.7502 196.445 75.8942C196.4 76.0359 196.335 76.1777 196.252 76.3195C196.172 76.4612 196.077 76.6008 195.968 76.7382C195.861 76.8756 195.746 77.0109 195.624 77.1439L194.348 78.5277L196.737 78.5277L196.737 78.5277ZM198.15 76.7579L197.666 76.6335L197.905 74.2617L200.348 74.2617L200.348 74.8211L198.418 74.8211L198.274 76.1166C198.361 76.0665 198.472 76.0196 198.605 75.976C198.74 75.9324 198.895 75.9105 199.069 75.9105C199.289 75.9105 199.487 75.9487 199.661 76.025C199.836 76.0992 199.984 76.2061 200.106 76.3456C200.231 76.4852 200.325 76.6532 200.391 76.8495C200.456 77.0457 200.489 77.2649 200.489 77.507C200.489 77.736 200.457 77.9465 200.394 78.1384C200.333 78.3303 200.24 78.4983 200.116 78.6422C199.992 78.784 199.835 78.8941 199.645 78.9727C199.457 79.0512 199.236 79.0904 198.981 79.0904C198.789 79.0904 198.607 79.0643 198.435 79.0119C198.264 78.9574 198.112 78.8756 197.977 78.7665C197.843 78.6553 197.734 78.5179 197.649 78.3543C197.566 78.1886 197.514 77.9945 197.492 77.772L198.068 77.772C198.094 77.9509 198.147 78.1013 198.225 78.2235C198.304 78.3456 198.406 78.4383 198.533 78.5016C198.661 78.5626 198.811 78.5932 198.981 78.5932C199.125 78.5932 199.252 78.5681 199.364 78.5179C199.475 78.4678 199.569 78.3958 199.645 78.302C199.721 78.2082 199.779 78.0948 199.818 77.9618C199.86 77.8287 199.881 77.6793 199.881 77.5136C199.881 77.3631 199.86 77.2235 199.818 77.0948C199.777 76.9661 199.715 76.8538 199.632 76.7579C199.551 76.6619 199.452 76.5877 199.334 76.5354C199.216 76.4809 199.081 76.4536 198.929 76.4536C198.726 76.4536 198.572 76.4809 198.467 76.5354C198.365 76.5899 198.259 76.6641 198.15 76.7579L198.15 76.7579ZM202.478 76.7513L202.478 77.7513L200.882 77.7513L200.882 76.7513L202.478 76.7513L202.478 76.7513ZM203.888 76.3456L204.32 76.3456C204.531 76.3456 204.706 76.3108 204.843 76.241C204.983 76.169 205.087 76.0719 205.154 75.9498C205.224 75.8255 205.259 75.6859 205.259 75.531C205.259 75.3478 205.228 75.1941 205.167 75.0698C205.106 74.9455 205.015 74.8517 204.892 74.7884C204.77 74.7252 204.615 74.6935 204.428 74.6935C204.258 74.6935 204.107 74.7274 203.976 74.795C203.848 74.8604 203.746 74.9542 203.672 75.0763C203.6 75.1984 203.564 75.3424 203.564 75.5081L202.959 75.5081C202.959 75.2661 203.02 75.0458 203.142 74.8473C203.264 74.6488 203.436 74.4907 203.656 74.3729C203.878 74.2552 204.136 74.1963 204.428 74.1963C204.716 74.1963 204.968 74.2475 205.184 74.35C205.4 74.4504 205.567 74.6009 205.687 74.8015C205.807 75 205.867 75.2475 205.867 75.5441C205.867 75.6641 205.839 75.7928 205.782 75.9302C205.728 76.0654 205.642 76.1919 205.524 76.3097C205.408 76.4274 205.258 76.5245 205.072 76.6008C204.887 76.675 204.665 76.7121 204.405 76.7121L203.888 76.7121L203.888 76.3456L203.888 76.3456ZM203.888 76.8429L203.888 76.4798L204.405 76.4798C204.708 76.4798 204.959 76.5158 205.157 76.5877C205.356 76.6597 205.512 76.7557 205.625 76.8756C205.741 76.9956 205.822 77.1275 205.867 77.2715C205.915 77.4132 205.939 77.555 205.939 77.6968C205.939 77.9192 205.901 78.1166 205.825 78.2889C205.751 78.4612 205.645 78.6073 205.507 78.7273C205.372 78.8472 205.213 78.9378 205.03 78.9988C204.847 79.0599 204.647 79.0904 204.431 79.0904C204.224 79.0904 204.029 79.061 203.846 79.0021C203.665 78.9432 203.504 78.8581 203.365 78.7469C203.225 78.6335 203.116 78.495 203.037 78.3314C202.959 78.1657 202.92 77.977 202.92 77.7655L203.525 77.7655C203.525 77.9312 203.561 78.0763 203.633 78.2006C203.707 78.3249 203.812 78.422 203.947 78.4917C204.084 78.5594 204.246 78.5932 204.431 78.5932C204.617 78.5932 204.776 78.5615 204.909 78.4983C205.044 78.4329 205.148 78.3347 205.22 78.2039C205.294 78.073 205.331 77.9083 205.331 77.7099C205.331 77.5114 205.289 77.3489 205.206 77.2224C205.124 77.0937 205.006 76.9989 204.853 76.9378C204.703 76.8745 204.525 76.8429 204.32 76.8429L203.888 76.8429L203.888 76.8429ZM209.993 77.422L209.993 77.9192L206.551 77.9192L206.551 77.5626L208.684 74.2617L209.178 74.2617L208.648 75.217L207.238 77.422L209.993 77.422L209.993 77.422ZM209.723 74.2617L209.723 79.025L208.723 79.025L208.723 74.2617L209.723 74.2617L209.723 74.2617Z" id="Фигура" fill="#8794BA" fill-rule="evenodd" stroke="none" />
    <path d="M194.499 149.487L194.931 149.487C195.142 149.487 195.317 149.452 195.454 149.383C195.594 149.311 195.697 149.214 195.765 149.091C195.835 148.967 195.87 148.828 195.87 148.673C195.87 148.49 195.839 148.336 195.778 148.211C195.717 148.087 195.625 147.993 195.503 147.93C195.381 147.867 195.226 147.835 195.039 147.835C194.869 147.835 194.718 147.869 194.587 147.937C194.459 148.002 194.357 148.096 194.283 148.218C194.211 148.34 194.175 148.484 194.175 148.65L193.57 148.65C193.57 148.408 193.631 148.187 193.753 147.989C193.875 147.791 194.046 147.632 194.267 147.515C194.489 147.397 194.746 147.338 195.039 147.338C195.327 147.338 195.579 147.389 195.794 147.492C196.01 147.592 196.178 147.743 196.298 147.943C196.418 148.142 196.478 148.389 196.478 148.686C196.478 148.806 196.45 148.934 196.393 149.072C196.339 149.207 196.252 149.334 196.135 149.451C196.019 149.569 195.869 149.666 195.683 149.742C195.498 149.817 195.275 149.854 195.016 149.854L194.499 149.854L194.499 149.487L194.499 149.487ZM194.499 149.985L194.499 149.621L195.016 149.621C195.319 149.621 195.57 149.657 195.768 149.729C195.967 149.801 196.123 149.897 196.236 150.017C196.352 150.137 196.432 150.269 196.478 150.413C196.526 150.555 196.55 150.697 196.55 150.838C196.55 151.061 196.512 151.258 196.436 151.431C196.361 151.603 196.256 151.749 196.118 151.869C195.983 151.989 195.824 152.079 195.641 152.14C195.457 152.202 195.258 152.232 195.042 152.232C194.835 152.232 194.64 152.203 194.456 152.144C194.275 152.085 194.115 152 193.975 151.889C193.836 151.775 193.727 151.637 193.648 151.473C193.57 151.307 193.531 151.119 193.531 150.907L194.136 150.907C194.136 151.073 194.172 151.218 194.244 151.342C194.318 151.467 194.423 151.564 194.558 151.633C194.695 151.701 194.857 151.735 195.042 151.735C195.227 151.735 195.387 151.703 195.52 151.64C195.655 151.575 195.758 151.476 195.83 151.346C195.905 151.215 195.942 151.05 195.942 150.852C195.942 150.653 195.9 150.491 195.817 150.364C195.734 150.235 195.617 150.141 195.464 150.079C195.314 150.016 195.136 149.985 194.931 149.985L194.499 149.985L194.499 149.985ZM198.15 149.9L197.666 149.775L197.905 147.403L200.348 147.403L200.348 147.963L198.418 147.963L198.274 149.258C198.361 149.208 198.472 149.161 198.605 149.118C198.74 149.074 198.895 149.052 199.069 149.052C199.289 149.052 199.487 149.09 199.661 149.167C199.836 149.241 199.984 149.348 200.106 149.487C200.231 149.627 200.325 149.795 200.391 149.991C200.456 150.187 200.489 150.407 200.489 150.649C200.489 150.878 200.457 151.088 200.394 151.28C200.333 151.472 200.24 151.64 200.116 151.784C199.992 151.926 199.835 152.036 199.645 152.114C199.457 152.193 199.236 152.232 198.981 152.232C198.789 152.232 198.607 152.206 198.435 152.154C198.264 152.099 198.112 152.017 197.977 151.908C197.843 151.797 197.734 151.66 197.649 151.496C197.566 151.33 197.514 151.136 197.492 150.914L198.068 150.914C198.094 151.093 198.147 151.243 198.225 151.365C198.304 151.487 198.406 151.58 198.533 151.643C198.661 151.704 198.811 151.735 198.981 151.735C199.125 151.735 199.252 151.71 199.364 151.66C199.475 151.609 199.569 151.537 199.645 151.444C199.721 151.35 199.779 151.236 199.818 151.103C199.86 150.97 199.881 150.821 199.881 150.655C199.881 150.505 199.86 150.365 199.818 150.236C199.777 150.108 199.715 149.995 199.632 149.9C199.551 149.804 199.452 149.729 199.334 149.677C199.216 149.623 199.081 149.595 198.929 149.595C198.726 149.595 198.572 149.623 198.467 149.677C198.365 149.732 198.259 149.806 198.15 149.9L198.15 149.9ZM202.478 149.893L202.478 150.893L200.882 150.893L200.882 149.893L202.478 149.893L202.478 149.893ZM206.224 150.564L206.224 151.061L202.782 151.061L202.782 150.704L204.915 147.403L205.409 147.403L204.879 148.359L203.469 150.564L206.224 150.564L206.224 150.564ZM205.955 147.403L205.955 152.167L204.955 152.167L204.955 147.403L205.955 147.403L205.955 147.403ZM209.993 150.564L209.993 151.061L206.551 151.061L206.551 150.704L208.684 147.403L209.178 147.403L208.648 148.359L207.238 150.564L209.993 150.564L209.993 150.564ZM209.723 147.403L209.723 152.167L208.723 152.167L208.723 147.403L209.723 147.403L209.723 147.403Z" id="Фигура" fill="#8794BA" fill-rule="evenodd" stroke="none" />
    <path d="M118.11 198.022L118.11 198.519L114.669 198.519L114.669 198.163L116.802 194.862L117.296 194.862L116.766 195.817L115.356 198.022L118.11 198.022L118.11 198.022ZM117.841 194.862L117.841 199.625L116.841 199.625L116.841 194.862L117.841 194.862L117.841 194.862ZM119.425 197.358L118.941 197.234L119.18 194.862L121.624 194.862L121.624 195.421L119.694 195.421L119.55 196.717C119.637 196.666 119.747 196.62 119.88 196.576C120.015 196.532 120.17 196.511 120.345 196.511C120.565 196.511 120.762 196.549 120.937 196.625C121.111 196.699 121.26 196.806 121.382 196.946C121.506 197.085 121.601 197.253 121.666 197.449C121.732 197.646 121.764 197.865 121.764 198.107C121.764 198.336 121.733 198.547 121.67 198.738C121.608 198.93 121.516 199.098 121.391 199.242C121.267 199.384 121.11 199.494 120.92 199.573C120.733 199.651 120.511 199.69 120.256 199.69C120.064 199.69 119.882 199.664 119.71 199.612C119.54 199.557 119.387 199.476 119.252 199.367C119.119 199.255 119.01 199.118 118.925 198.954C118.842 198.789 118.79 198.594 118.768 198.372L119.344 198.372C119.37 198.551 119.422 198.701 119.501 198.823C119.579 198.946 119.682 199.038 119.808 199.102C119.937 199.163 120.086 199.193 120.256 199.193C120.4 199.193 120.528 199.168 120.639 199.118C120.75 199.068 120.844 198.996 120.92 198.902C120.997 198.808 121.054 198.695 121.094 198.562C121.135 198.429 121.156 198.279 121.156 198.114C121.156 197.963 121.135 197.824 121.094 197.695C121.052 197.566 120.99 197.454 120.907 197.358C120.827 197.262 120.727 197.188 120.61 197.135C120.492 197.081 120.357 197.054 120.204 197.054C120.001 197.054 119.847 197.081 119.743 197.135C119.64 197.19 119.534 197.264 119.425 197.358L119.425 197.358ZM123.753 197.351L123.753 198.351L122.157 198.351L122.157 197.351L123.753 197.351L123.753 197.351ZM125.046 197.358L124.562 197.234L124.8 194.862L127.244 194.862L127.244 195.421L125.314 195.421L125.17 196.717C125.257 196.666 125.367 196.62 125.5 196.576C125.636 196.532 125.791 196.511 125.965 196.511C126.185 196.511 126.383 196.549 126.557 196.625C126.732 196.699 126.88 196.806 127.002 196.946C127.126 197.085 127.221 197.253 127.287 197.449C127.352 197.646 127.385 197.865 127.385 198.107C127.385 198.336 127.353 198.547 127.29 198.738C127.229 198.93 127.136 199.098 127.012 199.242C126.888 199.384 126.731 199.494 126.541 199.573C126.353 199.651 126.132 199.69 125.877 199.69C125.685 199.69 125.503 199.664 125.33 199.612C125.16 199.557 125.008 199.476 124.872 199.367C124.739 199.255 124.63 199.118 124.545 198.954C124.462 198.789 124.41 198.594 124.388 198.372L124.964 198.372C124.99 198.551 125.042 198.701 125.121 198.823C125.199 198.946 125.302 199.038 125.428 199.102C125.557 199.163 125.707 199.193 125.877 199.193C126.021 199.193 126.148 199.168 126.259 199.118C126.371 199.068 126.464 198.996 126.541 198.902C126.617 198.808 126.675 198.695 126.714 198.562C126.756 198.429 126.776 198.279 126.776 198.114C126.776 197.963 126.756 197.824 126.714 197.695C126.673 197.566 126.611 197.454 126.528 197.358C126.447 197.262 126.348 197.188 126.23 197.135C126.112 197.081 125.977 197.054 125.824 197.054C125.621 197.054 125.468 197.081 125.363 197.135C125.261 197.19 125.155 197.264 125.046 197.358L125.046 197.358ZM131.268 198.022L131.268 198.519L127.826 198.519L127.826 198.163L129.959 194.862L130.453 194.862L129.923 195.817L128.513 198.022L131.268 198.022L131.268 198.022ZM130.999 194.862L130.999 199.625L129.999 199.625L129.999 194.862L130.999 194.862L130.999 194.862Z" id="Фигура" fill="#8794BA" fill-rule="evenodd" stroke="none" />
    <path d="M36.9314 149.9L36.4473 149.775L36.6861 147.403L39.1299 147.403L39.1299 147.963L37.1997 147.963L37.0558 149.258C37.143 149.208 37.2531 149.161 37.3862 149.118C37.5214 149.074 37.6763 149.052 37.8507 149.052C38.071 149.052 38.2684 149.09 38.4429 149.167C38.6173 149.241 38.7657 149.348 38.8878 149.487C39.0121 149.627 39.107 149.795 39.1724 149.991C39.2378 150.187 39.2706 150.407 39.2706 150.649C39.2706 150.878 39.2389 151.088 39.1757 151.28C39.1146 151.472 39.0219 151.64 38.8976 151.784C38.7733 151.926 38.6163 152.036 38.4265 152.114C38.2389 152.193 38.0176 152.232 37.7624 152.232C37.5705 152.232 37.3884 152.206 37.2161 152.154C37.0459 152.099 36.8933 152.017 36.7581 151.908C36.625 151.797 36.516 151.66 36.4309 151.496C36.348 151.33 36.2957 151.136 36.2739 150.914L36.8497 150.914C36.8758 151.093 36.9282 151.243 37.0067 151.365C37.0852 151.487 37.1877 151.58 37.3142 151.643C37.4429 151.704 37.5923 151.735 37.7624 151.735C37.9063 151.735 38.0339 151.71 38.1452 151.66C38.2564 151.609 38.3502 151.537 38.4265 151.444C38.5028 151.35 38.5606 151.236 38.5999 151.103C38.6413 150.97 38.6621 150.821 38.6621 150.655C38.6621 150.505 38.6413 150.365 38.5999 150.236C38.5585 150.108 38.4963 149.995 38.4134 149.9C38.3327 149.804 38.2335 149.729 38.1157 149.677C37.9979 149.623 37.8627 149.595 37.7101 149.595C37.5072 149.595 37.3535 149.623 37.2488 149.677C37.1463 149.732 37.0405 149.806 36.9314 149.9L36.9314 149.9ZM40.7002 149.9L40.216 149.775L40.4548 147.403L42.8986 147.403L42.8986 147.963L40.9685 147.963L40.8245 149.258C40.9118 149.208 41.0219 149.161 41.1549 149.118C41.2902 149.074 41.445 149.052 41.6195 149.052C41.8398 149.052 42.0371 149.09 42.2116 149.167C42.3861 149.241 42.5344 149.348 42.6565 149.487C42.7809 149.627 42.8757 149.795 42.9412 149.991C43.0066 150.187 43.0393 150.407 43.0393 150.649C43.0393 150.878 43.0077 151.088 42.9444 151.28C42.8834 151.472 42.7907 151.64 42.6664 151.784C42.542 151.926 42.385 152.036 42.1953 152.114C42.0077 152.193 41.7863 152.232 41.5312 152.232C41.3392 152.232 41.1571 152.206 40.9848 152.154C40.8147 152.099 40.662 152.017 40.5268 151.908C40.3938 151.797 40.2847 151.66 40.1997 151.496C40.1168 151.33 40.0644 151.136 40.0426 150.914L40.6184 150.914C40.6446 151.093 40.6969 151.243 40.7754 151.365C40.854 151.487 40.9565 151.58 41.083 151.643C41.2116 151.704 41.361 151.735 41.5312 151.735C41.6751 151.735 41.8027 151.71 41.9139 151.66C42.0251 151.609 42.1189 151.537 42.1953 151.444C42.2716 151.35 42.3294 151.236 42.3687 151.103C42.4101 150.97 42.4308 150.821 42.4308 150.655C42.4308 150.505 42.4101 150.365 42.3687 150.236C42.3272 150.108 42.2651 149.995 42.1822 149.9C42.1015 149.804 42.0022 149.729 41.8845 149.677C41.7667 149.623 41.6315 149.595 41.4788 149.595C41.276 149.595 41.1222 149.623 41.0175 149.677C40.915 149.732 40.8092 149.806 40.7002 149.9L40.7002 149.9ZM45.0284 149.893L45.0284 150.893L43.4319 150.893L43.4319 149.893L45.0284 149.893L45.0284 149.893ZM47.8778 147.397L47.9302 147.397L47.9302 147.91L47.8778 147.91C47.5572 147.91 47.289 147.963 47.073 148.067C46.8571 148.17 46.6859 148.308 46.5594 148.483C46.4329 148.655 46.3413 148.849 46.2846 149.065C46.2301 149.281 46.2028 149.5 46.2028 149.723L46.2028 150.423C46.2028 150.635 46.2279 150.822 46.2781 150.986C46.3282 151.147 46.3969 151.283 46.4842 151.395C46.5714 151.506 46.6696 151.59 46.7786 151.646C46.8898 151.703 47.0054 151.732 47.1254 151.732C47.265 151.732 47.3893 151.705 47.4983 151.653C47.6074 151.599 47.699 151.523 47.7731 151.427C47.8495 151.329 47.9073 151.214 47.9465 151.081C47.9858 150.947 48.0054 150.801 48.0054 150.642C48.0054 150.5 47.988 150.364 47.9531 150.233C47.9182 150.1 47.8647 149.982 47.7928 149.88C47.7208 149.775 47.6303 149.693 47.5212 149.635C47.4144 149.573 47.2868 149.543 47.1385 149.543C46.9705 149.543 46.8135 149.584 46.6674 149.667C46.5234 149.748 46.4046 149.855 46.3108 149.988C46.2192 150.119 46.1668 150.262 46.1538 150.416L45.8332 150.413C45.8637 150.169 45.9204 149.961 46.0033 149.788C46.0883 149.614 46.193 149.472 46.3173 149.363C46.4438 149.252 46.5845 149.171 46.7394 149.121C46.8964 149.069 47.0621 149.042 47.2366 149.042C47.4743 149.042 47.6794 149.087 47.8517 149.177C48.024 149.266 48.1657 149.386 48.277 149.536C48.3882 149.685 48.47 149.853 48.5223 150.04C48.5768 150.226 48.6041 150.416 48.6041 150.613C48.6041 150.837 48.5725 151.048 48.5092 151.244C48.446 151.44 48.3511 151.613 48.2246 151.761C48.1003 151.909 47.9465 152.025 47.7633 152.108C47.5801 152.191 47.3675 152.232 47.1254 152.232C46.868 152.232 46.6434 152.18 46.4515 152.075C46.2595 151.968 46.1003 151.826 45.9738 151.65C45.8473 151.473 45.7525 151.277 45.6892 151.061C45.626 150.845 45.5943 150.626 45.5943 150.403L45.5943 150.119C45.5943 149.783 45.6281 149.454 45.6958 149.131C45.7634 148.808 45.88 148.516 46.0458 148.254C46.2137 147.992 46.446 147.784 46.7426 147.629C47.0392 147.474 47.4176 147.397 47.8778 147.397L47.8778 147.397ZM52.543 150.564L52.543 151.061L49.1014 151.061L49.1014 150.704L51.2344 147.403L51.7284 147.403L51.1984 148.359L49.7884 150.564L52.543 150.564L52.543 150.564ZM52.2736 147.403L52.2736 152.167L51.2736 152.167L51.2736 147.403L52.2736 147.403L52.2736 147.403Z" id="Фигура" fill="#8794BA" fill-rule="evenodd" stroke="none" />
    <path d="M40.574 74.2552L40.6264 74.2552L40.6264 74.7688L40.574 74.7688C40.2534 74.7688 39.9852 74.8211 39.7692 74.9258C39.5533 75.0283 39.3821 75.1668 39.2556 75.3413C39.1291 75.5136 39.0375 75.7077 38.9808 75.9236C38.9263 76.1395 38.899 76.3587 38.899 76.5812L38.899 77.2813C38.899 77.4928 38.9241 77.6804 38.9743 77.844C39.0244 78.0054 39.0931 78.1417 39.1804 78.2529C39.2676 78.3642 39.3658 78.4481 39.4748 78.5048C39.586 78.5615 39.7016 78.5899 39.8216 78.5899C39.9612 78.5899 40.0855 78.5637 40.1945 78.5114C40.3036 78.4568 40.3952 78.3816 40.4693 78.2856C40.5457 78.1875 40.6035 78.0719 40.6427 77.9389C40.682 77.8058 40.7016 77.6597 40.7016 77.5005C40.7016 77.3587 40.6842 77.2224 40.6493 77.0915C40.6144 76.9585 40.5609 76.8407 40.489 76.7382C40.417 76.6335 40.3265 76.5518 40.2174 76.4929C40.1106 76.4318 39.983 76.4013 39.8347 76.4013C39.6667 76.4013 39.5097 76.4427 39.3636 76.5256C39.2196 76.6063 39.1008 76.7131 39.007 76.8462C38.9154 76.977 38.863 77.1199 38.85 77.2747L38.5293 77.2715C38.5599 77.0272 38.6166 76.8189 38.6995 76.6466C38.7845 76.4721 38.8892 76.3304 39.0135 76.2213C39.14 76.1101 39.2807 76.0294 39.4355 75.9792C39.5926 75.9269 39.7583 75.9007 39.9328 75.9007C40.1705 75.9007 40.3756 75.9454 40.5479 76.0349C40.7201 76.1243 40.8619 76.2442 40.9731 76.3947C41.0844 76.543 41.1662 76.711 41.2185 76.8985C41.273 77.0839 41.3003 77.2747 41.3003 77.471C41.3003 77.6957 41.2687 77.9061 41.2054 78.1024C41.1422 78.2987 41.0473 78.471 40.9208 78.6193C40.7965 78.7676 40.6427 78.8832 40.4595 78.9661C40.2763 79.049 40.0637 79.0904 39.8216 79.0904C39.5642 79.0904 39.3396 79.0381 39.1477 78.9334C38.9557 78.8265 38.7965 78.6848 38.67 78.5081C38.5435 78.3314 38.4486 78.1352 38.3854 77.9192C38.3222 77.7033 38.2905 77.4841 38.2905 77.2617L38.2905 76.977C38.2905 76.6412 38.3243 76.3118 38.3919 75.9891C38.4596 75.6663 38.5762 75.374 38.742 75.1123C38.9099 74.8506 39.1422 74.6423 39.4388 74.4874C39.7354 74.3326 40.1138 74.2552 40.574 74.2552L40.574 74.2552ZM42.7855 76.7579L42.3014 76.6335L42.5402 74.2617L44.984 74.2617L44.984 74.8211L43.0538 74.8211L42.9099 76.1166C42.9971 76.0665 43.1072 76.0196 43.2403 75.976C43.3755 75.9324 43.5304 75.9105 43.7048 75.9105C43.9251 75.9105 44.1225 75.9487 44.297 76.025C44.4715 76.0992 44.6198 76.2061 44.7419 76.3456C44.8662 76.4852 44.9611 76.6532 45.0265 76.8495C45.0919 77.0457 45.1247 77.2649 45.1247 77.507C45.1247 77.736 45.093 77.9465 45.0298 78.1384C44.9687 78.3303 44.876 78.4983 44.7517 78.6422C44.6274 78.784 44.4704 78.8941 44.2806 78.9727C44.0931 79.0512 43.8717 79.0904 43.6165 79.0904C43.4246 79.0904 43.2425 79.0643 43.0702 79.0119C42.9 78.9574 42.7474 78.8756 42.6122 78.7665C42.4791 78.6553 42.3701 78.5179 42.285 78.3543C42.2021 78.1886 42.1498 77.9945 42.128 77.772L42.7038 77.772C42.7299 77.9509 42.7823 78.1013 42.8608 78.2235C42.9393 78.3456 43.0418 78.4383 43.1683 78.5016C43.297 78.5626 43.4464 78.5932 43.6165 78.5932C43.7604 78.5932 43.888 78.5681 43.9993 78.5179C44.1105 78.4678 44.2043 78.3958 44.2806 78.302C44.357 78.2082 44.4147 78.0948 44.454 77.9618C44.4954 77.8287 44.5162 77.6793 44.5162 77.5136C44.5162 77.3631 44.4954 77.2235 44.454 77.0948C44.4126 76.9661 44.3504 76.8538 44.2675 76.7579C44.1868 76.6619 44.0876 76.5877 43.9698 76.5354C43.8521 76.4809 43.7168 76.4536 43.5642 76.4536C43.3613 76.4536 43.2076 76.4809 43.1029 76.5354C43.0004 76.5899 42.8946 76.6641 42.7855 76.7579L42.7855 76.7579ZM48.913 76.47L48.913 77.47L45.6481 77.47L45.6481 76.47L48.913 76.47L48.913 76.47ZM47.9796 75.0796L47.9796 78.5474L46.9796 78.5474L46.9796 75.0796L47.9796 75.0796L47.9796 75.0796Z" id="Фигура" fill="#8794BA" fill-rule="evenodd" stroke="none" />
  </g>
</svg>