<?xml version="1.0" encoding="utf-8"?>
<svg width="335px" height="229px" viewBox="0 0 335 229" version="1.1" xmlns:xlink="http://www.w3.org/1999/xlink" xmlns="http://www.w3.org/2000/svg">
  <defs>
    <path d="M0 0L335 0L335 229L0 229L0 0Z" id="path_1" />
    <clipPath id="mask_1">
      <use xlink:href="#path_1" />
    </clipPath>
  </defs>
  <g id="screenshots__fully_custom_mobile_img">
    <path d="M0 0L335 0L335 229L0 229L0 0Z" id="Фон" fill="#FFFFFF" fill-opacity="0" fill-rule="evenodd" stroke="none" />
    <g clip-path="url(#mask_1)">
      <path d="M0 33.4167L0 16.6667C0 12.0413 1.63532 8.0933 4.90596 4.82266C8.1766 1.55202 12.1246 -0.0832996 16.75 -0.0832996L318.25 -0.0832996C322.875 -0.0832996 326.823 1.55202 330.094 4.82266C333.365 8.0933 335 12.0413 335 16.6667L335 212.084C335 216.709 333.365 220.657 330.094 223.928C326.823 227.198 322.875 228.834 318.25 228.834L16.75 228.834C12.1246 228.834 8.1766 227.198 4.90596 223.928C1.63532 220.657 0 216.709 0 212.084L0 33.4167Z" id="Group" fill="#FFFFFF" fill-rule="evenodd" stroke="none" />
      <path d="M55.2749 40.1167L55.8332 40.1167L55.8332 191.425L55.2749 191.425L55.2749 40.1167Z" id="Прямоугольник" fill="#EEEEF7" fill-rule="evenodd" stroke="none" />
      <path d="M90.45 40.1167L91.0083 40.1167L91.0083 191.425L90.45 191.425L90.45 40.1167Z" id="Прямоугольник" fill="#EEEEF7" fill-rule="evenodd" stroke="none" />
      <path d="M125.625 40.1167L126.183 40.1167L126.183 191.425L125.625 191.425L125.625 40.1167Z" id="Прямоугольник" fill="#EEEEF7" fill-rule="evenodd" stroke="none" />
      <path d="M160.8 40.1167L161.358 40.1167L161.358 191.425L160.8 191.425L160.8 40.1167Z" id="Прямоугольник" fill="#EEEEF7" fill-rule="evenodd" stroke="none" />
      <path d="M195.975 40.1167L196.533 40.1167L196.533 191.425L195.975 191.425L195.975 40.1167Z" id="Прямоугольник" fill="#EEEEF7" fill-rule="evenodd" stroke="none" />
      <path d="M231.15 40.1167L231.708 40.1167L231.708 191.425L231.15 191.425L231.15 40.1167Z" id="Прямоугольник" fill="#EEEEF7" fill-rule="evenodd" stroke="none" />
      <path d="M266.325 40.1167L266.883 40.1167L266.883 191.425L266.325 191.425L266.325 40.1167Z" id="Прямоугольник" fill="#EEEEF7" fill-rule="evenodd" stroke="none" />
      <path d="M301.5 40.1167L302.058 40.1167L302.058 191.425L301.5 191.425L301.5 40.1167Z" id="Прямоугольник" fill="#EEEEF7" fill-rule="evenodd" stroke="none" />
      <path d="M33.0599 51.5496L32.5757 51.4253L32.8146 49.0534L35.2584 49.0534L35.2584 49.6129L33.3282 49.6129L33.1842 50.9084C33.2715 50.8582 33.3816 50.8113 33.5146 50.7677C33.6499 50.7241 33.8047 50.7023 33.9792 50.7023C34.1995 50.7023 34.3969 50.7404 34.5713 50.8168C34.7458 50.8909 34.8941 50.9978 35.0163 51.1374C35.1406 51.2769 35.2355 51.4449 35.3009 51.6412C35.3663 51.8375 35.399 52.0567 35.399 52.2987C35.399 52.5277 35.3674 52.7382 35.3042 52.9301C35.2431 53.1221 35.1504 53.29 35.0261 53.4339C34.9018 53.5757 34.7447 53.6859 34.555 53.7644C34.3674 53.8429 34.146 53.8821 33.8909 53.8821C33.6989 53.8821 33.5168 53.856 33.3445 53.8036C33.1744 53.7491 33.0217 53.6673 32.8865 53.5583C32.7535 53.447 32.6444 53.3096 32.5594 53.1461C32.4765 52.9803 32.4242 52.7862 32.4023 52.5637L32.9781 52.5637C33.0043 52.7426 33.0566 52.8931 33.1352 53.0152C33.2137 53.1373 33.3162 53.23 33.4427 53.2933C33.5714 53.3543 33.7208 53.3849 33.8909 53.3849C34.0348 53.3849 34.1624 53.3598 34.2736 53.3096C34.3849 53.2595 34.4786 53.1875 34.555 53.0937C34.6313 52.9999 34.6891 52.8865 34.7284 52.7535C34.7698 52.6204 34.7905 52.471 34.7905 52.3053C34.7905 52.1548 34.7698 52.0152 34.7284 51.8865C34.6869 51.7579 34.6248 51.6455 34.5419 51.5496C34.4612 51.4536 34.362 51.3795 34.2442 51.3271C34.1264 51.2726 33.9912 51.2453 33.8385 51.2453C33.6357 51.2453 33.4819 51.2726 33.3772 51.3271C33.2747 51.3816 33.169 51.4558 33.0599 51.5496L33.0599 51.5496ZM39.2823 52.2137L39.2823 52.7109L35.8407 52.7109L35.8407 52.3544L37.9737 49.0534L38.4677 49.0534L37.9377 50.0087L36.5277 52.2137L39.2823 52.2137L39.2823 52.2137ZM39.0129 49.0534L39.0129 53.8167L38.0129 53.8167L38.0129 49.0534L39.0129 49.0534L39.0129 49.0534ZM41.1568 51.543L41.1568 52.543L39.5604 52.543L39.5604 51.543L41.1568 51.543L41.1568 51.543ZM44.0063 49.0469L44.0586 49.0469L44.0586 49.5605L44.0063 49.5605C43.6857 49.5605 43.4174 49.6129 43.2015 49.7175C42.9856 49.82 42.8144 49.9585 42.6879 50.133C42.5614 50.3053 42.4698 50.4994 42.4131 50.7153C42.3586 50.9313 42.3313 51.1505 42.3313 51.3729L42.3313 52.073C42.3313 52.2846 42.3564 52.4721 42.4065 52.6357C42.4567 52.7971 42.5254 52.9334 42.6126 53.0446C42.6999 53.1559 42.798 53.2398 42.9071 53.2965C43.0183 53.3533 43.1339 53.3816 43.2539 53.3816C43.3934 53.3816 43.5178 53.3554 43.6268 53.3031C43.7359 53.2486 43.8275 53.1733 43.9016 53.0774C43.9779 52.9792 44.0357 52.8636 44.075 52.7306C44.1143 52.5975 44.1339 52.4514 44.1339 52.2922C44.1339 52.1504 44.1164 52.0141 44.0815 51.8833C44.0466 51.7502 43.9932 51.6325 43.9212 51.5299C43.8493 51.4253 43.7588 51.3435 43.6497 51.2846C43.5428 51.2235 43.4153 51.193 43.2669 51.193C43.099 51.193 42.942 51.2344 42.7959 51.3173C42.6519 51.398 42.533 51.5049 42.4393 51.6379C42.3477 51.7688 42.2953 51.9116 42.2822 52.0665L41.9616 52.0632C41.9922 51.8189 42.0489 51.6106 42.1317 51.4383C42.2168 51.2639 42.3215 51.1221 42.4458 51.013C42.5723 50.9018 42.713 50.8211 42.8678 50.771C43.0249 50.7186 43.1906 50.6924 43.3651 50.6924C43.6028 50.6924 43.8078 50.7372 43.9801 50.8266C44.1524 50.916 44.2942 51.0359 44.4054 51.1864C44.5167 51.3347 44.5984 51.5027 44.6508 51.6902C44.7053 51.8756 44.7326 52.0665 44.7326 52.2628C44.7326 52.4874 44.7009 52.6979 44.6377 52.8942C44.5744 53.0904 44.4796 53.2627 44.3531 53.411C44.2288 53.5594 44.075 53.6749 43.8918 53.7578C43.7086 53.8407 43.4959 53.8821 43.2539 53.8821C42.9965 53.8821 42.7719 53.8298 42.5799 53.7251C42.388 53.6182 42.2288 53.4765 42.1023 53.2998C41.9758 53.1232 41.8809 52.9269 41.8177 52.7109C41.7544 52.495 41.7228 52.2758 41.7228 52.0534L41.7228 51.7688C41.7228 51.4329 41.7566 51.1036 41.8242 50.7808C41.8918 50.458 42.0085 50.1657 42.1743 49.904C42.3422 49.6423 42.5745 49.434 42.8711 49.2792C43.1677 49.1243 43.5461 49.0469 44.0063 49.0469L44.0063 49.0469ZM46.2178 51.5496L45.7336 51.4253L45.9725 49.0534L48.4163 49.0534L48.4163 49.6129L46.4861 49.6129L46.3421 50.9084C46.4294 50.8582 46.5395 50.8113 46.6726 50.7677C46.8078 50.7241 46.9626 50.7023 47.1371 50.7023C47.3574 50.7023 47.5548 50.7404 47.7292 50.8168C47.9037 50.8909 48.052 50.9978 48.1742 51.1374C48.2985 51.2769 48.3934 51.4449 48.4588 51.6412C48.5242 51.8375 48.5569 52.0567 48.5569 52.2987C48.5569 52.5277 48.5253 52.7382 48.4621 52.9301C48.401 53.1221 48.3083 53.29 48.184 53.4339C48.0597 53.5757 47.9026 53.6859 47.7129 53.7644C47.5253 53.8429 47.304 53.8821 47.0488 53.8821C46.8569 53.8821 46.6747 53.856 46.5024 53.8036C46.3323 53.7491 46.1797 53.6673 46.0444 53.5583C45.9114 53.447 45.8023 53.3096 45.7173 53.1461C45.6344 52.9803 45.5821 52.7862 45.5603 52.5637L46.136 52.5637C46.1622 52.7426 46.2146 52.8931 46.2931 53.0152C46.3716 53.1373 46.4741 53.23 46.6006 53.2933C46.7293 53.3543 46.8787 53.3849 47.0488 53.3849C47.1927 53.3849 47.3203 53.3598 47.4315 53.3096C47.5428 53.2595 47.6366 53.1875 47.7129 53.0937C47.7892 52.9999 47.847 52.8865 47.8863 52.7535C47.9277 52.6204 47.9484 52.471 47.9484 52.3053C47.9484 52.1548 47.9277 52.0152 47.8863 51.8865C47.8448 51.7579 47.7827 51.6455 47.6998 51.5496C47.6191 51.4536 47.5199 51.3795 47.4021 51.3271C47.2843 51.2726 47.1491 51.2453 46.9964 51.2453C46.7936 51.2453 46.6398 51.2726 46.5352 51.3271C46.4327 51.3816 46.3269 51.4558 46.2178 51.5496L46.2178 51.5496Z" id="Фигура" fill="#8794BA" fill-rule="evenodd" stroke="none" />
      <path d="M35.5135 83.48L35.5135 83.978L32.0719 83.978L32.0719 83.621L34.2049 80.3201L34.6989 80.3201L34.1689 81.2754L32.7589 83.48L35.5135 83.48L35.5135 83.48ZM35.2442 80.3201L35.2442 85.083L34.2442 85.083L34.2442 80.3201L35.2442 80.3201L35.2442 80.3201ZM36.8287 82.816L36.3445 82.692L36.5833 80.3201L39.0271 80.3201L39.0271 80.8795L37.0969 80.8795L36.953 82.175C37.0402 82.125 37.1504 82.078 37.2834 82.034C37.4186 81.9907 37.5735 81.9689 37.748 81.9689C37.9682 81.9689 38.1656 82.007 38.3401 82.083C38.5146 82.158 38.6629 82.264 38.785 82.404C38.9093 82.544 39.0042 82.712 39.0696 82.908C39.1351 83.104 39.1678 83.323 39.1678 83.565C39.1678 83.794 39.1361 84.005 39.0729 84.197C39.0118 84.389 38.9191 84.557 38.7948 84.701C38.6705 84.842 38.5135 84.953 38.3237 85.031C38.1362 85.11 37.9148 85.149 37.6596 85.149C37.4677 85.149 37.2856 85.123 37.1133 85.07C36.9432 85.016 36.7905 84.934 36.6553 84.825C36.5222 84.714 36.4132 84.576 36.3281 84.413C36.2452 84.247 36.1929 84.053 36.1711 83.83L36.7469 83.83C36.773 84.009 36.8254 84.16 36.9039 84.282C36.9824 84.404 37.0849 84.497 37.2114 84.56C37.3401 84.621 37.4895 84.652 37.6596 84.652C37.8036 84.652 37.9312 84.626 38.0424 84.576C38.1536 84.526 38.2474 84.454 38.3237 84.36C38.4001 84.267 38.4579 84.153 38.4971 84.02C38.5386 83.887 38.5593 83.738 38.5593 83.572C38.5593 83.421 38.5386 83.282 38.4971 83.153C38.4557 83.025 38.3935 82.912 38.3106 82.816C38.2299 82.72 38.1307 82.646 38.0129 82.594C37.8952 82.539 37.7599 82.512 37.6073 82.512C37.4044 82.512 37.2507 82.539 37.146 82.594C37.0435 82.648 36.9377 82.722 36.8287 82.816L36.8287 82.816ZM41.1568 82.81L41.1568 83.81L39.5604 83.81L39.5604 82.81L41.1568 82.81L41.1568 82.81ZM42.4491 82.816L41.9649 82.692L42.2037 80.3201L44.6475 80.3201L44.6475 80.8795L42.7173 80.8795L42.5734 82.175C42.6606 82.125 42.7708 82.078 42.9038 82.034C43.039 81.9907 43.1939 81.9689 43.3684 81.9689C43.5886 81.9689 43.786 82.007 43.9605 82.083C44.135 82.158 44.2833 82.264 44.4054 82.404C44.5297 82.544 44.6246 82.712 44.69 82.908C44.7555 83.104 44.7882 83.323 44.7882 83.565C44.7882 83.794 44.7566 84.005 44.6933 84.197C44.6322 84.389 44.5396 84.557 44.4152 84.701C44.2909 84.842 44.1339 84.953 43.9441 85.031C43.7566 85.11 43.5352 85.149 43.28 85.149C43.0881 85.149 42.906 85.123 42.7337 85.07C42.5636 85.016 42.4109 84.934 42.2757 84.825C42.1426 84.714 42.0336 84.576 41.9485 84.413C41.8657 84.247 41.8133 84.053 41.7915 83.83L42.3673 83.83C42.3935 84.009 42.4458 84.16 42.5243 84.282C42.6028 84.404 42.7053 84.497 42.8318 84.56C42.9605 84.621 43.1099 84.652 43.28 84.652C43.424 84.652 43.5516 84.626 43.6628 84.576C43.774 84.526 43.8678 84.454 43.9441 84.36C44.0205 84.267 44.0783 84.153 44.1175 84.02C44.159 83.887 44.1797 83.738 44.1797 83.572C44.1797 83.421 44.159 83.282 44.1175 83.153C44.0761 83.025 44.0139 82.912 43.9311 82.816C43.8504 82.72 43.7511 82.646 43.6333 82.594C43.5156 82.539 43.3804 82.512 43.2277 82.512C43.0249 82.512 42.8711 82.539 42.7664 82.594C42.6639 82.648 42.5581 82.722 42.4491 82.816L42.4491 82.816ZM48.6714 83.48L48.6714 83.978L45.2298 83.978L45.2298 83.621L47.3628 80.3201L47.8568 80.3201L47.3269 81.2754L45.9168 83.48L48.6714 83.48L48.6714 83.48ZM48.4021 80.3201L48.4021 85.083L47.4021 85.083L47.4021 80.3201L48.4021 80.3201L48.4021 80.3201Z" id="Фигура" fill="#8794BA" fill-rule="evenodd" stroke="none" />
      <path d="M33.1777 113.671L33.6095 113.671C33.8211 113.671 33.9956 113.636 34.133 113.566C34.2725 113.494 34.3761 113.397 34.4438 113.275C34.5135 113.15 34.5484 113.011 34.5484 112.856C34.5484 112.673 34.5179 112.519 34.4568 112.395C34.3958 112.27 34.3042 112.177 34.182 112.113C34.0599 112.05 33.905 112.019 33.7175 112.019C33.5474 112.019 33.3969 112.052 33.266 112.12C33.1373 112.185 33.0359 112.279 32.9618 112.401C32.8898 112.523 32.8538 112.667 32.8538 112.833L32.2486 112.833C32.2486 112.591 32.3097 112.371 32.4318 112.172C32.5539 111.974 32.7251 111.816 32.9454 111.698C33.1679 111.58 33.4252 111.521 33.7175 111.521C34.0054 111.521 34.2573 111.573 34.4732 111.675C34.6891 111.775 34.857 111.926 34.977 112.126C35.097 112.325 35.1569 112.573 35.1569 112.869C35.1569 112.989 35.1286 113.118 35.0719 113.255C35.0174 113.39 34.9312 113.517 34.8134 113.635C34.6978 113.752 34.5473 113.849 34.362 113.926C34.1766 114 33.9541 114.037 33.6946 114.037L33.1777 114.037L33.1777 113.671L33.1777 113.671ZM33.1777 114.168L33.1777 113.805L33.6946 113.805C33.9977 113.805 34.2486 113.841 34.447 113.913C34.6455 113.985 34.8014 114.081 34.9148 114.201C35.0304 114.321 35.1111 114.453 35.1569 114.596C35.2049 114.738 35.2289 114.88 35.2289 115.022C35.2289 115.244 35.1907 115.442 35.1144 115.614C35.0403 115.786 34.9345 115.932 34.7971 116.052C34.6619 116.172 34.5026 116.263 34.3194 116.324C34.1362 116.385 33.9367 116.415 33.7208 116.415C33.5136 116.415 33.3184 116.386 33.1352 116.327C32.9541 116.268 32.7938 116.183 32.6542 116.072C32.5147 115.958 32.4056 115.82 32.3271 115.656C32.2486 115.491 32.2093 115.302 32.2093 115.09L32.8146 115.09C32.8146 115.256 32.8505 115.401 32.9225 115.526C32.9967 115.65 33.1014 115.747 33.2366 115.817C33.374 115.884 33.5354 115.918 33.7208 115.918C33.9061 115.918 34.0653 115.887 34.1984 115.823C34.3336 115.758 34.4372 115.66 34.5092 115.529C34.5833 115.398 34.6204 115.233 34.6204 115.035C34.6204 114.836 34.579 114.674 34.4961 114.547C34.4132 114.419 34.2954 114.324 34.1428 114.263C33.9923 114.2 33.8145 114.168 33.6095 114.168L33.1777 114.168L33.1777 114.168ZM36.8287 114.083L36.3445 113.959L36.5833 111.587L39.0271 111.587L39.0271 112.146L37.0969 112.146L36.953 113.442C37.0402 113.391 37.1504 113.345 37.2834 113.301C37.4186 113.257 37.5735 113.236 37.748 113.236C37.9682 113.236 38.1656 113.274 38.3401 113.35C38.5146 113.424 38.6629 113.531 38.785 113.671C38.9093 113.81 39.0042 113.978 39.0696 114.174C39.1351 114.371 39.1678 114.59 39.1678 114.832C39.1678 115.061 39.1361 115.271 39.0729 115.463C39.0118 115.655 38.9191 115.823 38.7948 115.967C38.6705 116.109 38.5135 116.219 38.3237 116.298C38.1362 116.376 37.9148 116.415 37.6596 116.415C37.4677 116.415 37.2856 116.389 37.1133 116.337C36.9432 116.282 36.7905 116.201 36.6553 116.092C36.5222 115.98 36.4132 115.843 36.3281 115.679C36.2452 115.514 36.1929 115.319 36.1711 115.097L36.7469 115.097C36.773 115.276 36.8254 115.426 36.9039 115.548C36.9824 115.671 37.0849 115.763 37.2114 115.827C37.3401 115.888 37.4895 115.918 37.6596 115.918C37.8036 115.918 37.9312 115.893 38.0424 115.843C38.1536 115.793 38.2474 115.721 38.3237 115.627C38.4001 115.533 38.4579 115.42 38.4971 115.287C38.5386 115.154 38.5593 115.004 38.5593 114.839C38.5593 114.688 38.5386 114.548 38.4971 114.42C38.4557 114.291 38.3935 114.179 38.3106 114.083C38.2299 113.987 38.1307 113.913 38.0129 113.86C37.8952 113.806 37.7599 113.779 37.6073 113.779C37.4044 113.779 37.2507 113.806 37.146 113.86C37.0435 113.915 36.9377 113.989 36.8287 114.083L36.8287 114.083ZM41.1568 114.076L41.1568 115.076L39.5604 115.076L39.5604 114.076L41.1568 114.076L41.1568 114.076ZM44.9027 114.747L44.9027 115.244L41.4611 115.244L41.4611 114.888L43.5941 111.587L44.0881 111.587L43.5581 112.542L42.1481 114.747L44.9027 114.747L44.9027 114.747ZM44.6333 111.587L44.6333 116.35L43.6333 116.35L43.6333 111.587L44.6333 111.587L44.6333 111.587ZM48.6714 114.747L48.6714 115.244L45.2298 115.244L45.2298 114.888L47.3628 111.587L47.8568 111.587L47.3269 112.542L45.9168 114.747L48.6714 114.747L48.6714 114.747ZM48.4021 111.587L48.4021 116.35L47.4021 116.35L47.4021 111.587L48.4021 111.587L48.4021 111.587Z" id="Фигура" fill="#8794BA" fill-rule="evenodd" stroke="none" />
      <path d="M35.4154 147.119L35.4154 147.617L32.2977 147.617L32.2977 147.182L33.8582 145.444C34.0501 145.231 34.1984 145.05 34.3031 144.901C34.4099 144.751 34.4841 144.617 34.5255 144.499C34.5692 144.379 34.591 144.257 34.591 144.133C34.591 143.976 34.5583 143.834 34.4928 143.707C34.4296 143.579 34.3358 143.476 34.2115 143.4C34.0872 143.323 33.9367 143.285 33.76 143.285C33.5485 143.285 33.3718 143.327 33.23 143.41C33.0904 143.49 32.9858 143.604 32.916 143.75C32.8462 143.896 32.8113 144.064 32.8113 144.254L32.2061 144.254C32.2061 143.985 32.2649 143.74 32.3827 143.518C32.5005 143.295 32.675 143.118 32.9062 142.988C33.1373 142.855 33.422 142.788 33.76 142.788C34.061 142.788 34.3183 142.841 34.5321 142.948C34.7458 143.053 34.9094 143.201 35.0228 143.393C35.1384 143.583 35.1962 143.805 35.1962 144.061C35.1962 144.2 35.1722 144.342 35.1242 144.486C35.0784 144.628 35.0141 144.769 34.9312 144.911C34.8505 145.053 34.7556 145.193 34.6466 145.33C34.5397 145.467 34.4252 145.603 34.3031 145.736L33.0272 147.119L35.4154 147.119L35.4154 147.119ZM36.8287 145.35L36.3445 145.225L36.5833 142.853L39.0271 142.853L39.0271 143.413L37.0969 143.413L36.953 144.708C37.0402 144.658 37.1504 144.611 37.2834 144.568C37.4186 144.524 37.5735 144.502 37.748 144.502C37.9682 144.502 38.1656 144.54 38.3401 144.617C38.5146 144.691 38.6629 144.798 38.785 144.937C38.9093 145.077 39.0042 145.245 39.0696 145.441C39.1351 145.637 39.1678 145.857 39.1678 146.099C39.1678 146.328 39.1361 146.538 39.0729 146.73C39.0118 146.922 38.9191 147.09 38.7948 147.234C38.6705 147.376 38.5135 147.486 38.3237 147.564C38.1362 147.643 37.9148 147.682 37.6596 147.682C37.4677 147.682 37.2856 147.656 37.1133 147.604C36.9432 147.549 36.7905 147.467 36.6553 147.358C36.5222 147.247 36.4132 147.11 36.3281 146.946C36.2452 146.78 36.1929 146.586 36.1711 146.364L36.7469 146.364C36.773 146.543 36.8254 146.693 36.9039 146.815C36.9824 146.937 37.0849 147.03 37.2114 147.093C37.3401 147.154 37.4895 147.185 37.6596 147.185C37.8036 147.185 37.9312 147.16 38.0424 147.11C38.1536 147.059 38.2474 146.987 38.3237 146.894C38.4001 146.8 38.4579 146.687 38.4971 146.553C38.5386 146.42 38.5593 146.271 38.5593 146.105C38.5593 145.955 38.5386 145.815 38.4971 145.687C38.4557 145.558 38.3935 145.446 38.3106 145.35C38.2299 145.254 38.1307 145.179 38.0129 145.127C37.8952 145.073 37.7599 145.045 37.6073 145.045C37.4044 145.045 37.2507 145.073 37.146 145.127C37.0435 145.182 36.9377 145.256 36.8287 145.35L36.8287 145.35ZM41.1568 145.343L41.1568 146.343L39.5604 146.343L39.5604 145.343L41.1568 145.343L41.1568 145.343ZM42.5668 144.937L42.9987 144.937C43.2102 144.937 43.3847 144.902 43.5221 144.833C43.6617 144.761 43.7653 144.664 43.8329 144.542C43.9027 144.417 43.9376 144.278 43.9376 144.123C43.9376 143.94 43.9071 143.786 43.846 143.661C43.7849 143.537 43.6933 143.443 43.5712 143.38C43.4491 143.317 43.2942 143.285 43.1066 143.285C42.9365 143.285 42.786 143.319 42.6552 143.387C42.5265 143.452 42.4251 143.546 42.3509 143.668C42.279 143.79 42.243 143.934 42.243 144.1L41.6377 144.1C41.6377 143.858 41.6988 143.637 41.8209 143.439C41.9431 143.241 42.1143 143.082 42.3346 142.965C42.557 142.847 42.8144 142.788 43.1066 142.788C43.3945 142.788 43.6464 142.839 43.8624 142.942C44.0783 143.042 44.2462 143.193 44.3662 143.393C44.4861 143.592 44.5461 143.839 44.5461 144.136C44.5461 144.256 44.5177 144.384 44.461 144.522C44.4065 144.657 44.3204 144.784 44.2026 144.901C44.087 145.019 43.9365 145.116 43.7511 145.193C43.5657 145.267 43.3433 145.304 43.0837 145.304L42.5668 145.304L42.5668 144.937L42.5668 144.937ZM42.5668 145.435L42.5668 145.071L43.0837 145.071C43.3869 145.071 43.6377 145.107 43.8362 145.179C44.0347 145.251 44.1906 145.347 44.304 145.467C44.4196 145.587 44.5003 145.719 44.5461 145.863C44.5941 146.005 44.6181 146.147 44.6181 146.288C44.6181 146.511 44.5799 146.708 44.5036 146.881C44.4294 147.053 44.3236 147.199 44.1862 147.319C44.051 147.439 43.8918 147.529 43.7086 147.591C43.5254 147.652 43.3258 147.682 43.1099 147.682C42.9027 147.682 42.7075 147.653 42.5243 147.594C42.3433 147.535 42.183 147.45 42.0434 147.339C41.9038 147.225 41.7948 147.087 41.7163 146.923C41.6377 146.757 41.5985 146.569 41.5985 146.357L42.2037 146.357C42.2037 146.523 42.2397 146.668 42.3117 146.792C42.3858 146.917 42.4905 147.014 42.6257 147.083C42.7631 147.151 42.9245 147.185 43.1099 147.185C43.2953 147.185 43.4545 147.153 43.5875 147.09C43.7228 147.025 43.8264 146.926 43.8983 146.796C43.9725 146.665 44.0096 146.5 44.0096 146.302C44.0096 146.103 43.9681 145.941 43.8853 145.814C43.8024 145.685 43.6846 145.591 43.5319 145.529C43.3814 145.466 43.2037 145.435 42.9987 145.435L42.5668 145.435L42.5668 145.435ZM48.6714 146.014L48.6714 146.511L45.2298 146.511L45.2298 146.154L47.3628 142.853L47.8568 142.853L47.3269 143.809L45.9168 146.014L48.6714 146.014L48.6714 146.014ZM48.4021 142.853L48.4021 147.617L47.4021 147.617L47.4021 142.853L48.4021 142.853L48.4021 142.853Z" id="Фигура" fill="#8794BA" fill-rule="evenodd" stroke="none" />
      <path d="M34.2834 174.094L34.2834 178.883L33.6782 178.883L33.6782 174.85L32.458 175.295L32.458 174.748L34.1886 174.094L34.2834 174.094L34.2834 174.094ZM39.0664 177.594C39.0664 177.884 38.9987 178.131 38.8635 178.334C38.7305 178.534 38.5495 178.687 38.3205 178.792C38.0936 178.896 37.8374 178.949 37.5517 178.949C37.266 178.949 37.0086 178.896 36.7796 178.792C36.5506 178.687 36.3696 178.534 36.2365 178.334C36.1035 178.131 36.037 177.884 36.037 177.594C36.037 177.405 36.073 177.231 36.1449 177.074C36.2191 176.915 36.3227 176.777 36.4557 176.659C36.5909 176.541 36.7501 176.45 36.9334 176.387C37.1187 176.322 37.3227 176.289 37.5451 176.289C37.8374 176.289 38.098 176.346 38.327 176.459C38.556 176.57 38.7359 176.724 38.8668 176.92C38.9998 177.117 39.0664 177.341 39.0664 177.594L39.0664 177.594ZM38.4579 177.581C38.4579 177.405 38.4197 177.249 38.3434 177.113C38.267 176.976 38.1602 176.869 38.0228 176.793C37.8854 176.717 37.7261 176.678 37.5451 176.678C37.3597 176.678 37.1994 176.717 37.0642 176.793C36.9312 176.869 36.8276 176.976 36.7534 177.113C36.6793 177.249 36.6422 177.405 36.6422 177.581C36.6422 177.765 36.6782 177.922 36.7501 178.052C36.8243 178.181 36.929 178.28 37.0642 178.35C37.2016 178.418 37.3641 178.452 37.5517 178.452C37.7392 178.452 37.9006 178.418 38.0358 178.35C38.1711 178.28 38.2747 178.181 38.3466 178.052C38.4208 177.922 38.4579 177.765 38.4579 177.581L38.4579 177.581ZM38.9551 175.36C38.9551 175.591 38.8941 175.799 38.7719 175.985C38.6498 176.17 38.4829 176.316 38.2714 176.423C38.0598 176.53 37.8199 176.584 37.5517 176.584C37.279 176.584 37.0359 176.53 36.8221 176.423C36.6106 176.316 36.4448 176.17 36.3249 175.985C36.2049 175.799 36.1449 175.591 36.1449 175.36C36.1449 175.083 36.2049 174.847 36.3249 174.653C36.447 174.459 36.6138 174.311 36.8254 174.208C37.0369 174.106 37.2779 174.055 37.5484 174.055C37.821 174.055 38.0631 174.106 38.2747 174.208C38.4862 174.311 38.652 174.459 38.7719 174.653C38.8941 174.847 38.9551 175.083 38.9551 175.36L38.9551 175.36ZM38.3499 175.37C38.3499 175.211 38.3161 175.07 38.2485 174.948C38.1809 174.826 38.0871 174.73 37.9671 174.66C37.8472 174.588 37.7076 174.552 37.5484 174.552C37.3892 174.552 37.2496 174.586 37.1296 174.653C37.0119 174.719 36.9192 174.813 36.8516 174.935C36.7861 175.057 36.7534 175.202 36.7534 175.37C36.7534 175.533 36.7861 175.676 36.8516 175.798C36.9192 175.92 37.013 176.015 37.1329 176.083C37.2529 176.151 37.3924 176.184 37.5517 176.184C37.7109 176.184 37.8494 176.151 37.9671 176.083C38.0871 176.015 38.1809 175.92 38.2485 175.798C38.3161 175.676 38.3499 175.533 38.3499 175.37L38.3499 175.37ZM41.1568 176.61L41.1568 177.61L39.5604 177.61L39.5604 176.61L41.1568 176.61L41.1568 176.61ZM44.8045 178.386L44.8045 178.883L41.6868 178.883L41.6868 178.448L43.2473 176.711C43.4392 176.497 43.5875 176.316 43.6922 176.168C43.7991 176.018 43.8733 175.883 43.9147 175.766C43.9583 175.646 43.9801 175.524 43.9801 175.399C43.9801 175.242 43.9474 175.1 43.882 174.974C43.8187 174.845 43.725 174.743 43.6006 174.666C43.4763 174.59 43.3258 174.552 43.1492 174.552C42.9376 174.552 42.761 174.593 42.6192 174.676C42.4796 174.757 42.3749 174.87 42.3051 175.016C42.2353 175.163 42.2004 175.331 42.2004 175.52L41.5952 175.52C41.5952 175.252 41.6541 175.007 41.7719 174.784C41.8896 174.562 42.0641 174.385 42.2953 174.254C42.5265 174.121 42.8111 174.055 43.1492 174.055C43.4501 174.055 43.7075 174.108 43.9212 174.215C44.135 174.32 44.2986 174.468 44.412 174.66C44.5276 174.85 44.5854 175.072 44.5854 175.327C44.5854 175.467 44.5614 175.609 44.5134 175.753C44.4676 175.894 44.4032 176.036 44.3204 176.178C44.2397 176.32 44.1448 176.459 44.0357 176.597C43.9289 176.734 43.8144 176.869 43.6922 177.002L42.4164 178.386L44.8045 178.386L44.8045 178.386ZM48.6714 177.28L48.6714 177.778L45.2298 177.778L45.2298 177.421L47.3628 174.12L47.8568 174.12L47.3269 175.075L45.9168 177.28L48.6714 177.28L48.6714 177.28ZM48.4021 174.12L48.4021 178.883L47.4021 178.883L47.4021 174.12L48.4021 174.12L48.4021 174.12Z" id="Фигура" fill="#8794BA" fill-rule="evenodd" stroke="none" />
      <path d="M55.2749 44.025L198.487 44.025C200.183 44.025 201.558 45.3999 201.558 47.0959C201.558 48.7918 200.183 50.1667 198.487 50.1667L55.2749 50.1667L55.2749 44.025L55.2749 44.025Z" id="Фигура" fill="#EF2A82" fill-rule="evenodd" stroke="none" />
      <path d="M55.2749 75.85L149.912 75.85C151.608 75.85 152.983 77.2249 152.983 78.9209C152.983 80.6168 151.608 81.9917 149.912 81.9917L55.2749 81.9917L55.2749 75.85L55.2749 75.85Z" id="Фигура" fill="#EF2A82" fill-rule="evenodd" stroke="none" />
      <path d="M55.2749 107.675L61.1374 107.675C62.8334 107.675 64.2082 109.05 64.2082 110.746C64.2082 112.442 62.8334 113.817 61.1374 113.817L55.2749 113.817L55.2749 107.675L55.2749 107.675Z" id="Фигура" fill="#EF2A82" fill-rule="evenodd" stroke="none" />
      <path d="M55.2749 139.5L79.0041 139.5C80.7 139.5 82.075 140.875 82.075 142.571C82.075 144.267 80.7 145.642 79.0041 145.642L55.2749 145.642L55.2749 139.5L55.2749 139.5Z" id="Фигура" fill="#EF2A82" fill-rule="evenodd" stroke="none" />
      <path d="M55.2749 171.325L168.337 171.325C170.033 171.325 171.408 172.7 171.408 174.396C171.408 176.092 170.033 177.467 168.337 177.467L55.2749 177.467L55.2749 171.325L55.2749 171.325Z" id="Фигура" fill="#EF2A82" fill-rule="evenodd" stroke="none" />
      <path d="M55.2749 51.8417L134.837 51.8417C136.533 51.8417 137.908 53.2165 137.908 54.9125C137.908 56.6085 136.533 57.9833 134.837 57.9833L55.2749 57.9833L55.2749 51.8417L55.2749 51.8417Z" id="Фигура" fill="#0088F0" fill-rule="evenodd" stroke="none" />
      <path d="M55.2749 83.667L168.337 83.667C170.033 83.667 171.408 85.042 171.408 86.738C171.408 88.433 170.033 89.808 168.337 89.808L55.2749 89.808L55.2749 83.667L55.2749 83.667Z" id="Фигура" fill="#0088F0" fill-rule="evenodd" stroke="none" />
      <path d="M55.2749 115.492L79.0041 115.492C80.7 115.492 82.075 116.867 82.075 118.563C82.075 120.259 80.7 121.633 79.0041 121.633L55.2749 121.633L55.2749 115.492L55.2749 115.492Z" id="Фигура" fill="#0088F0" fill-rule="evenodd" stroke="none" />
      <path d="M55.2749 147.317L241.479 147.317C243.175 147.317 244.55 148.692 244.55 150.387C244.55 152.083 243.175 153.458 241.479 153.458L55.2749 153.458L55.2749 147.317L55.2749 147.317Z" id="Фигура" fill="#0088F0" fill-rule="evenodd" stroke="none" />
      <path d="M55.2749 179.142L273.304 179.142C275 179.142 276.375 180.517 276.375 182.213C276.375 183.909 275 185.283 273.304 185.283L55.2749 185.283L55.2749 179.142L55.2749 179.142Z" id="Фигура" fill="#0088F0" fill-rule="evenodd" stroke="none" />
    </g>
  </g>
</svg>