<svg width="123" height="104" fill="none" xmlns="http://www.w3.org/2000/svg"><path d="M62.153 17.306L43.55 33.231c-3.094 2.64-3.69 7.394-1.346 10.786 2.48 3.616 7.303 4.327 10.628 1.585L71.917 29.92c1.345-1.097 3.267-.853 4.324.57 1.057 1.42.807 3.452-.538 4.57l-4.017 3.29 34.056 33.15h8.033c5.093 0 9.225-4.367 9.225-9.75v-26c0-5.383-4.132-9.75-9.225-9.75h-15.51l-.75-.508-13.952-9.445A17.625 17.625 0 0073.685 13c-4.19 0-8.264 1.523-11.532 4.306zm4.382 25.269L56.6 50.741c-6.054 4.996-14.837 3.697-19.372-2.885-4.267-6.195-3.19-14.848 2.44-19.662l15.99-13.67a17.318 17.318 0 00-7.072-1.504c-3.613-.02-7.13 1.117-10.148 3.23L24.6 26H9.225C4.132 26 0 30.367 0 35.75v26c0 5.383 4.132 9.75 9.225 9.75H30.02l17.566 16.94c3.767 3.637 9.59 3.352 13.03-.63a10.121 10.121 0 002.133-4.183l3.267 3.168c3.748 3.636 9.59 3.372 13.03-.589a9.968 9.968 0 001.903-3.351c3.729 2.64 8.803 2.092 11.935-1.524 3.44-3.96 3.19-10.136-.557-13.772L66.535 42.575z" fill="url(#paint0_linear_108_111)"/><defs><linearGradient id="paint0_linear_108_111" x1="61.5" y1="13" x2="61.5" y2="90.993" gradientUnits="userSpaceOnUse"><stop stop-color="#4D463A"/><stop offset="1" stop-color="#4D463A" stop-opacity=".44"/></linearGradient></defs></svg>