<svg width="568" height="409" viewBox="0 0 568 409" fill="none" xmlns="http://www.w3.org/2000/svg">
<path d="M523.436 37.0854V91.5928H491.857V60.1479L134.561 61.0237V91.5928H101.721V37.0854H523.436Z" fill="white" fill-opacity="0.1"/>
<path d="M463.4 210.351V259.338H493.376V163.814H371.545V356.678L490.567 356.34V321.923H523.436V384.211H101.721V321.923H133.332V357.311L253.612 356.973V163.814H131.78V259.338H161.756V210.351H202.003V290.039H101.721V126.019H291.134V356.889L334.022 356.762V126.019H523.436V290.039H423.153V210.351H463.4Z" fill="white" fill-opacity="0.1"/>
<line x1="102.721" y1="91.1243" x2="102.721" y2="303.041" stroke="url(#paint0_linear_106_1023)" stroke-width="2"/>
<line x1="333.71" y1="91.1243" x2="333.71" y2="303.041" stroke="url(#paint1_linear_106_1023)" stroke-width="2"/>
<line x1="524.436" y1="91.1243" x2="524.436" y2="303.041" stroke="url(#paint2_linear_106_1023)" stroke-width="2"/>
<line x1="132.389" y1="156.819" x2="132.389" y2="257.479" stroke="url(#paint3_linear_106_1023)" stroke-width="2"/>
<line x1="102.721" y1="-4.37114e-08" x2="102.721" y2="100.661" stroke="url(#paint4_linear_106_1023)" stroke-width="2"/>
<line x1="8.74228e-08" y1="36.0854" x2="567.938" y2="36.0855" stroke="url(#paint5_linear_106_1023)" stroke-width="2"/>
<line x1="8.74228e-08" y1="383.63" x2="567.938" y2="383.63" stroke="url(#paint6_linear_106_1023)" stroke-width="2"/>
<line x1="108.078" y1="359.259" x2="277.612" y2="359.259" stroke="url(#paint7_linear_106_1023)" stroke-width="2"/>
<line x1="332.71" y1="125.091" x2="502.244" y2="125.091" stroke="url(#paint8_linear_106_1023)" stroke-width="2"/>
<line x1="411.119" y1="209.857" x2="472.575" y2="209.857" stroke="url(#paint9_linear_106_1023)" stroke-width="2"/>
<line x1="475.754" y1="90.1243" x2="537.21" y2="90.1243" stroke="url(#paint10_linear_106_1023)" stroke-width="2"/>
<line x1="291.326" y1="91.1243" x2="291.326" y2="409" stroke="url(#paint11_linear_106_1023)" stroke-width="2"/>
<defs>
<linearGradient id="paint0_linear_106_1023" x1="101.721" y1="91.1243" x2="101.721" y2="303.041" gradientUnits="userSpaceOnUse">
<stop stop-color="white" stop-opacity="0"/>
<stop offset="0.5" stop-color="white"/>
<stop offset="1" stop-color="white" stop-opacity="0"/>
</linearGradient>
<linearGradient id="paint1_linear_106_1023" x1="332.71" y1="91.1243" x2="332.71" y2="303.041" gradientUnits="userSpaceOnUse">
<stop stop-color="white" stop-opacity="0"/>
<stop offset="0.5" stop-color="white"/>
<stop offset="1" stop-color="white" stop-opacity="0"/>
</linearGradient>
<linearGradient id="paint2_linear_106_1023" x1="523.436" y1="91.1243" x2="523.436" y2="303.041" gradientUnits="userSpaceOnUse">
<stop stop-color="white" stop-opacity="0"/>
<stop offset="0.5" stop-color="white"/>
<stop offset="1" stop-color="white" stop-opacity="0"/>
</linearGradient>
<linearGradient id="paint3_linear_106_1023" x1="131.389" y1="156.819" x2="131.389" y2="257.479" gradientUnits="userSpaceOnUse">
<stop stop-color="white" stop-opacity="0"/>
<stop offset="0.5" stop-color="white"/>
<stop offset="1" stop-color="white" stop-opacity="0"/>
</linearGradient>
<linearGradient id="paint4_linear_106_1023" x1="101.721" y1="0" x2="101.721" y2="100.661" gradientUnits="userSpaceOnUse">
<stop stop-color="white" stop-opacity="0"/>
<stop offset="0.5" stop-color="white"/>
<stop offset="1" stop-color="white" stop-opacity="0"/>
</linearGradient>
<linearGradient id="paint5_linear_106_1023" x1="0" y1="37.0854" x2="567.938" y2="37.0854" gradientUnits="userSpaceOnUse">
<stop stop-color="white" stop-opacity="0"/>
<stop offset="0.5" stop-color="white"/>
<stop offset="1" stop-color="white" stop-opacity="0"/>
</linearGradient>
<linearGradient id="paint6_linear_106_1023" x1="0" y1="384.63" x2="567.938" y2="384.63" gradientUnits="userSpaceOnUse">
<stop stop-color="white" stop-opacity="0"/>
<stop offset="0.5" stop-color="white"/>
<stop offset="1" stop-color="white" stop-opacity="0"/>
</linearGradient>
<linearGradient id="paint7_linear_106_1023" x1="108.078" y1="360.259" x2="277.612" y2="360.259" gradientUnits="userSpaceOnUse">
<stop stop-color="white" stop-opacity="0"/>
<stop offset="0.5" stop-color="white"/>
<stop offset="1" stop-color="white" stop-opacity="0"/>
</linearGradient>
<linearGradient id="paint8_linear_106_1023" x1="332.71" y1="126.091" x2="502.244" y2="126.091" gradientUnits="userSpaceOnUse">
<stop stop-color="white" stop-opacity="0"/>
<stop offset="0.5" stop-color="white"/>
<stop offset="1" stop-color="white" stop-opacity="0"/>
</linearGradient>
<linearGradient id="paint9_linear_106_1023" x1="411.119" y1="210.857" x2="472.575" y2="210.857" gradientUnits="userSpaceOnUse">
<stop stop-color="white" stop-opacity="0"/>
<stop offset="0.5" stop-color="white"/>
<stop offset="1" stop-color="white" stop-opacity="0"/>
</linearGradient>
<linearGradient id="paint10_linear_106_1023" x1="475.754" y1="91.1243" x2="537.21" y2="91.1243" gradientUnits="userSpaceOnUse">
<stop stop-color="white" stop-opacity="0"/>
<stop offset="0.5" stop-color="white"/>
<stop offset="1" stop-color="white" stop-opacity="0"/>
</linearGradient>
<linearGradient id="paint11_linear_106_1023" x1="290.326" y1="91.1243" x2="290.326" y2="409" gradientUnits="userSpaceOnUse">
<stop stop-color="white" stop-opacity="0"/>
<stop offset="0.5" stop-color="white"/>
<stop offset="1" stop-color="white" stop-opacity="0"/>
</linearGradient>
</defs>
</svg>
