<svg width="568" height="409" fill="none" xmlns="http://www.w3.org/2000/svg"><path d="M523.436 37.085v54.508h-31.579V60.148l-357.296.876v30.569h-32.84V37.085h421.715zM463.4 210.351v48.987h29.976v-95.524H371.545v192.864l119.022-.338v-34.417h32.869v62.288H101.721v-62.288h31.611v35.388l120.28-.338V163.814H131.78v95.524h29.976v-48.987h40.247v79.688H101.721v-164.02h189.413v230.87l42.888-.127V126.019h189.414v164.02H423.153v-79.688H463.4z" fill="#fff" fill-opacity=".1"/><path stroke="url(#paint0_linear_106_1023)" stroke-width="2" d="M102.721 91.124v211.917"/><path stroke="url(#paint1_linear_106_1023)" stroke-width="2" d="M333.71 91.124v211.917"/><path stroke="url(#paint2_linear_106_1023)" stroke-width="2" d="M524.436 91.124v211.917"/><path stroke="url(#paint3_linear_106_1023)" stroke-width="2" d="M132.389 156.819v100.66"/><path stroke="url(#paint4_linear_106_1023)" stroke-width="2" d="M102.721 0v100.661"/><path stroke="url(#paint5_linear_106_1023)" stroke-width="2" d="M0 36.085l567.938.001"/><path stroke="url(#paint6_linear_106_1023)" stroke-width="2" d="M0 383.63h567.938"/><path stroke="url(#paint7_linear_106_1023)" stroke-width="2" d="M108.078 359.259h169.534"/><path stroke="url(#paint8_linear_106_1023)" stroke-width="2" d="M332.71 125.091h169.534"/><path stroke="url(#paint9_linear_106_1023)" stroke-width="2" d="M411.119 209.857h61.456"/><path stroke="url(#paint10_linear_106_1023)" stroke-width="2" d="M475.754 90.124h61.456"/><path stroke="url(#paint11_linear_106_1023)" stroke-width="2" d="M291.326 91.124V409"/><defs><linearGradient id="paint0_linear_106_1023" x1="101.721" y1="91.124" x2="101.721" y2="303.041" gradientUnits="userSpaceOnUse"><stop stop-color="#fff" stop-opacity="0"/><stop offset=".5" stop-color="#fff"/><stop offset="1" stop-color="#fff" stop-opacity="0"/></linearGradient><linearGradient id="paint1_linear_106_1023" x1="332.71" y1="91.124" x2="332.71" y2="303.041" gradientUnits="userSpaceOnUse"><stop stop-color="#fff" stop-opacity="0"/><stop offset=".5" stop-color="#fff"/><stop offset="1" stop-color="#fff" stop-opacity="0"/></linearGradient><linearGradient id="paint2_linear_106_1023" x1="523.436" y1="91.124" x2="523.436" y2="303.041" gradientUnits="userSpaceOnUse"><stop stop-color="#fff" stop-opacity="0"/><stop offset=".5" stop-color="#fff"/><stop offset="1" stop-color="#fff" stop-opacity="0"/></linearGradient><linearGradient id="paint3_linear_106_1023" x1="131.389" y1="156.819" x2="131.389" y2="257.479" gradientUnits="userSpaceOnUse"><stop stop-color="#fff" stop-opacity="0"/><stop offset=".5" stop-color="#fff"/><stop offset="1" stop-color="#fff" stop-opacity="0"/></linearGradient><linearGradient id="paint4_linear_106_1023" x1="101.721" y1="0" x2="101.721" y2="100.661" gradientUnits="userSpaceOnUse"><stop stop-color="#fff" stop-opacity="0"/><stop offset=".5" stop-color="#fff"/><stop offset="1" stop-color="#fff" stop-opacity="0"/></linearGradient><linearGradient id="paint5_linear_106_1023" x1="0" y1="37.085" x2="567.938" y2="37.085" gradientUnits="userSpaceOnUse"><stop stop-color="#fff" stop-opacity="0"/><stop offset=".5" stop-color="#fff"/><stop offset="1" stop-color="#fff" stop-opacity="0"/></linearGradient><linearGradient id="paint6_linear_106_1023" x1="0" y1="384.63" x2="567.938" y2="384.63" gradientUnits="userSpaceOnUse"><stop stop-color="#fff" stop-opacity="0"/><stop offset=".5" stop-color="#fff"/><stop offset="1" stop-color="#fff" stop-opacity="0"/></linearGradient><linearGradient id="paint7_linear_106_1023" x1="108.078" y1="360.259" x2="277.612" y2="360.259" gradientUnits="userSpaceOnUse"><stop stop-color="#fff" stop-opacity="0"/><stop offset=".5" stop-color="#fff"/><stop offset="1" stop-color="#fff" stop-opacity="0"/></linearGradient><linearGradient id="paint8_linear_106_1023" x1="332.71" y1="126.091" x2="502.244" y2="126.091" gradientUnits="userSpaceOnUse"><stop stop-color="#fff" stop-opacity="0"/><stop offset=".5" stop-color="#fff"/><stop offset="1" stop-color="#fff" stop-opacity="0"/></linearGradient><linearGradient id="paint9_linear_106_1023" x1="411.119" y1="210.857" x2="472.575" y2="210.857" gradientUnits="userSpaceOnUse"><stop stop-color="#fff" stop-opacity="0"/><stop offset=".5" stop-color="#fff"/><stop offset="1" stop-color="#fff" stop-opacity="0"/></linearGradient><linearGradient id="paint10_linear_106_1023" x1="475.754" y1="91.124" x2="537.21" y2="91.124" gradientUnits="userSpaceOnUse"><stop stop-color="#fff" stop-opacity="0"/><stop offset=".5" stop-color="#fff"/><stop offset="1" stop-color="#fff" stop-opacity="0"/></linearGradient><linearGradient id="paint11_linear_106_1023" x1="290.326" y1="91.124" x2="290.326" y2="409" gradientUnits="userSpaceOnUse"><stop stop-color="#fff" stop-opacity="0"/><stop offset=".5" stop-color="#fff"/><stop offset="1" stop-color="#fff" stop-opacity="0"/></linearGradient></defs></svg>