<svg width="46" height="42" viewBox="0 0 46 42" fill="none" xmlns="http://www.w3.org/2000/svg">
<path d="M0 0L45.9594 20.5109L0 41.14V0Z" fill="#191B1E"/>
<path d="M14.7414 32.4167L10.5127 34.307L7.0987 24.9734V35.843L2.12665 38.073V3.01514L7.0987 5.24271V15.049L9.99085 6.53741L14.6232 8.60254L17.3628 26.0244L19.7503 10.8892L30.4058 15.652V17.8525L24.2498 15.1031L23.9938 16.7301L30.4058 19.6026V25.3869L22.0321 29.1602L22.7951 24.3211L26.9746 22.4283L22.0321 20.2155L20.5134 29.8273L14.8743 32.3551L11.4505 14.6355L9.77425 19.4352L14.7414 32.4167Z" fill="white"/>
<path d="M32.1805 16.4473L41.2803 20.5061L32.1805 24.5798V16.4473Z" fill="#9D9D9D"/>
</svg>
