<?xml version="1.0" encoding="utf-8"?>
<svg width="9.820282px" height="16.388184px" viewBox="0 0 9.820282 16.388184" version="1.1" xmlns:xlink="http://www.w3.org/1999/xlink" xmlns="http://www.w3.org/2000/svg">
  <path d="M9.35782 9.32941C9.27502 9.4122 9.18413 9.48218 9.08952 9.54309L2.70943 15.9232C2.39952 16.2333 1.99332 16.3882 1.58713 16.3882C1.18103 16.3882 0.775024 16.2333 0.46492 15.9232C-0.154968 15.3033 -0.154968 14.298 0.46492 13.6783L5.96263 8.17978L0.49263 2.70978C-0.12738 2.08948 -0.12738 1.08456 0.49263 0.464874C1.11252 -0.15506 2.11752 -0.154724 2.73752 0.464508L9.08943 6.8161C9.18402 6.87689 9.27492 6.9469 9.35742 7.02979C9.67433 7.34668 9.82722 7.7641 9.82002 8.17969C9.82753 8.59509 9.67493 9.01221 9.35782 9.32941L9.35782 9.32941Z" id="Фигура" fill="#FFFFFF" fill-rule="evenodd" stroke="none" />
</svg>