<svg width="73" height="23" fill="none" xmlns="http://www.w3.org/2000/svg"><path d="M5.968 0L0 7.092l.005.004H.002v15.891h17.02l5.74-7.094V0H5.969z" fill="#9E9E9E"/><path d="M3.262 19.578h-.153v-2.201a.72.72 0 00.14-.014h.027c.701-.202 1.314-1.006 1.497-1.67.269-.953.374-2.787.386-4.15 0-.61 0-1.503-.012-1.831h7.15v9.686l-2.424.021v-7.45H7.414s-.072 2.088-.22 3.185c-.27 1.993-.701 2.782-1.333 3.404a3.54 3.54 0 01-1.774.936 4.422 4.422 0 01-.825.084z" fill="#fff"/><path d="M56.206 0L50.24 7.092l.002.004h-.002v15.891h17.018L73 15.893V0H56.206z" fill="#9E9E9E"/><path d="M54.334 19.613V9.677h4.242c2.536 0 4.11 1.43 4.11 3.56v.08c0 2.185-1.557 3.886-4.183 3.886H56.91v2.41h-2.576zm2.574-4.644h1.483c1.095 0 1.804-.646 1.804-1.479 0-.935-.664-1.56-1.82-1.56h-1.467v3.04z" fill="#fff"/><path d="M31.087 0L25.12 7.092l.004.004h-.004v15.891h17.02l5.742-7.094V0H31.087z" fill="#9E9E9E"/><path d="M33.598 19.815c-2.923 0-5.127-2.211-5.127-5.148v-.03c0-2.948 2.253-5.17 5.244-5.17a5.46 5.46 0 012.32.467 4.68 4.68 0 011.608 1.233l-1.748 1.75-.147-.184a2.687 2.687 0 00-2.061-.936c-1.456 0-2.553 1.21-2.553 2.807v.028c0 1.624 1.097 2.848 2.553 2.848a2.596 2.596 0 001.642-.531c.195-.154.377-.324.543-.508l.014-.016.02-.033 1.69 1.687c-.407.478-.9.875-1.455 1.17a5.38 5.38 0 01-2.543.566z" fill="#fff"/></svg>7 28.4714 17.6037 28.4714 14.6675V14.637C28.4714 11.6891 30.7245 9.46638 33.7146 9.46638C34.5132 9.45074 35.3055 9.61048 36.0356 9.93431C36.655 10.223 37.2036 10.6439 37.6429 11.1673L35.8952 12.9174L35.7478 12.7326C35.493 12.4361 35.1765 12.1987 34.8205 12.0371C34.4645 11.8754 34.0775 11.7934 33.6866 11.7967C32.2313 11.7967 31.134 13.0063 31.134 14.6043V14.6324C31.134 16.2561 32.2313 17.4797 33.6866 17.4797C34.2786 17.4952 34.8581 17.3078 35.329 16.9486C35.5239 16.795 35.7055 16.6251 35.8718 16.4409L35.8858 16.4246L35.9069 16.3918L37.5961 18.0787C37.1894 18.5572 36.6956 18.9541 36.1409 19.2485C35.3523 19.6427 34.479 19.8372 33.5977 19.8147Z" fill="white"/>
</svg>
