<svg width="181" height="33" fill="none" xmlns="http://www.w3.org/2000/svg"><g clip-path="url(#clip0_138_1160)" fill="#fff"><path d="M36.963 25.051c.127.847.178 1.616.178 2.385a17.06 17.06 0 01-.381 3.513h-11.6l-1.196.59h-.407 13.711l.051-.231c.28-1.334.433-2.616.433-3.872 0-.846-.077-1.718-.204-2.667l-.585.282z"/><path d="M36.124 15.282c1.78 2.308 3.129 5.026 3.841 7.616l-15.823 7.897-.585.77h.407l1.195-.59 11.804-5.898.56-.282 3.129-1.564L40.6 23c-.712-2.77-2.188-5.692-4.096-8.18l-.381.462zm-19.41 16.282l-1.196-.59H3.892a17.052 17.052 0 01-.381-3.512c0-.77.05-1.539.178-2.385l-.56-.282c-.153.949-.203 1.82-.203 2.667 0 1.256.152 2.564.432 3.871l.05.231h13.713-.407z"/><path d="M3.689 25.051l11.803 5.898 1.196.59h.407l-.585-.77L.712 22.898c.687-2.59 2.06-5.283 3.842-7.616l-.382-.487c-1.933 2.487-3.409 5.41-4.121 8.18l-.051.23 3.129 1.564.56.282zm20.453 5.744l11.982-15.513.381-.487 2.977-3.846-.178-.18C36.327 7.718 32.689 5.385 28.695 4l-.127.59a26.633 26.633 0 0110.125 6.436L23.277 31h-.89l-.153.59h1.322l.586-.795z"/><path d="M19.588 31.564h-1.22l-.128-.59h-.84L1.984 11A26.882 26.882 0 0112.11 4.59l-.153-.616A27.863 27.863 0 001.374 10.77l-.178.18 2.976 3.846.382.487 11.982 15.513.585.77h2.467z"/><path d="M22.208 31.564l.153-.59L28.568 4.59l.127-.59.458-2-.28-.077c-2.874-.667-5.774-1-8.623-1-2.85 0-5.622.333-8.472 1.026l-.28.077.458 2 .128.59L18.214 31l.128.59h3.103l.763-.026zM12.211 2.436a35.644 35.644 0 018.039-.923c2.696 0 5.444.308 8.191.923l-6.69 28.538h-2.9L12.21 2.436zm45.536 17.41c3.027 0 4.528-2.282 4.528-2.282h.33v3.154s-1.729 2.077-5.29 2.077c-4.656 0-8.217-3.59-8.217-8.282s3.561-8.282 8.217-8.282c3.892 0 5.723 2.18 5.723 2.18l-1.195 2.512S60.774 9.18 57.747 9.18c-3.129 0-5.291 2.179-5.291 5.333 0 3.154 2.162 5.333 5.291 5.333zm21.496 2.616h-3.23V9.512h-6.818v12.95h-3.231V6.564h13.28v15.898zm3.892-15.898h10.481v2.949h-7.25V13h5.622v2.949h-5.622v3.59h7.25v2.948h-10.48V6.564zm17.503 7.282l6.385-7.307h3.663l-6.589 7.615 7.123 8.282h-3.994l-6.588-7.744v7.744h-3.231V6.539h3.231v7.307zm23.658-7.282v2.949h-4.655v12.949h-3.231V9.512h-4.656V6.565h12.542zm6.385 15.898h-3.231V6.564h4.961c3.994 0 6.258 2.282 6.258 5.564 0 3.257-2.264 5.564-6.258 5.564h-1.73v4.77zm0-7.744h1.73c1.832 0 2.926-.974 2.926-2.615 0-1.641-1.069-2.616-2.926-2.616h-1.73v5.231zM145.919 18l-5.952-11.436h3.459l4.071 8.052h.076l3.739-8.052h3.46l-5.825 12.077c-1.476 3.051-2.493 4.128-4.758 4.128-.686 0-1.297-.205-1.297-.205l-.432-3.051s.534.333 1.297.333c.967 0 1.475-.436 1.832-1.205l.33-.64zm22.463-11.436h3.231l2.264 15.898h-3.434L169.171 13h-.102l-3.256 9.462h-2.697L159.86 13h-.102l-1.272 9.462h-3.459l2.264-15.898h3.23l3.918 11.334h.102l3.841-11.334zM53.015 31.154h-.508v-2.36l-1.629 2.36h-.508v-3.205h.508v2.359l1.629-2.36h.483v3.206h.025zm3.358 0h-.508v-1.385h-1.527v1.385h-.509v-3.205h.51v1.333h1.526V27.95h.508v3.205zm2.367-3.205h.508v1.487l1.272-1.487h.61l-1.322 1.538 1.424 1.667h-.661l-1.323-1.564v1.564h-.509V29.59l-1.323 1.564h-.661l1.424-1.667-1.322-1.538h.61l1.272 1.487v-1.487zm5.52 3.205h-.51v-2.36l-1.627 2.36h-.51v-3.205h.51v2.359l1.628-2.36h.483v3.206h.025zm3.383 0h-.509v-1.385h-1.526v1.385h-.51v-3.205h.51v1.333h1.526V27.95h.509v3.205zm3.46 0h-.51v-2.36l-1.627 2.36h-.51v-3.205h.51v2.359l1.628-2.36h.483v3.206h.026zm1.347 0h-.508v-3.205h.941c.738 0 1.196.461 1.196 1.102s-.458 1.103-1.196 1.103h-.432v1zm0-1.487h.433c.382 0 .662-.231.662-.616 0-.359-.255-.615-.662-.615h-.432v1.23zm4.91 1.487h-.508v-2.36l-1.628 2.36h-.509v-3.205h.509v2.359l1.628-2.36h.483v3.206h.026zm3.384 0h-.509v-1.385H78.71v1.385h-.51v-3.205h.509v1.333h1.526V27.95h.51v3.205zm2.646-3.205v.487h-1.298v2.692h-.508v-3.18h1.806zm1.882 4.154h-.458v-4.436h.458v4.436zm4.528-.949h-.508v-2.692h-1.527v2.692h-.508v-3.205H89.8v3.205zm1.323 0h-.509v-3.205h.942c.737 0 1.195.461 1.195 1.102s-.458 1.103-1.195 1.103h-.433v1zm0-1.487h.433c.381 0 .661-.231.661-.616 0-.359-.254-.615-.661-.615h-.433v1.23zm3.765 1.538c-.941 0-1.653-.718-1.653-1.666 0-.95.712-1.667 1.653-1.667.941 0 1.654.718 1.654 1.666 0 .95-.713 1.667-1.654 1.667zm0-.487c.662 0 1.12-.487 1.12-1.18 0-.692-.484-1.179-1.12-1.179-.636 0-1.12.487-1.12 1.18-.025.717.459 1.179 1.12 1.179zm2.29-2.769h2.01v.487h-1.501v.846h1.17v.487h-1.17v.898h1.5v.487h-2.01v-3.205zm3.231 1.513l1.373-1.513h.636l-1.424 1.538 1.526 1.667h-.661l-1.45-1.59v1.59h-.51v-3.205h.51v1.513zm4.553-1.513v.487h-.941v2.692h-.509v-2.692h-.941v-.487h2.391zm3.206 3.205h-.509v-2.36l-1.628 2.36h-.509v-3.205h.509v2.359l1.628-2.36h.483v3.206h.026zm1.348 0h-.509v-3.205h.941c.738 0 1.196.461 1.196 1.102s-.458 1.103-1.196 1.103h-.432v1zm0-1.487h.432c.382 0 .662-.231.662-.616 0-.359-.255-.615-.662-.615h-.432v1.23zm3.739 1.538c-.941 0-1.653-.718-1.653-1.666 0-.95.712-1.667 1.653-1.667.942 0 1.654.718 1.654 1.666 0 .95-.687 1.667-1.654 1.667zm0-.487c.662 0 1.12-.487 1.12-1.18 0-.692-.484-1.179-1.12-1.179-.636 0-1.119.487-1.119 1.18 0 .717.483 1.179 1.119 1.179zm4.3-1.898c0 .539-.433.642-.433.642v.025s.585.128.585.77c0 .512-.356.897-1.094.897h-1.068v-3.205h.941c.738 0 1.069.359 1.069.871zm-1.476-.384v.82h.433c.356 0 .508-.153.508-.41 0-.256-.178-.41-.508-.41h-.433zm0 2.23h.534c.357 0 .56-.179.56-.46 0-.283-.203-.462-.56-.462h-.534v.923zm2.798-.281l-.356.769h-.559l1.45-3.18h.458l1.45 3.18h-.56l-.356-.77h-1.527zm.764-1.718l-.56 1.23h1.094l-.534-1.23zm4.63 2.487h-.509v-1.385h-1.527v1.385h-.508v-3.205h.508v1.333h1.527V27.95h.509v3.205zm3.459 0h-.509v-2.36l-1.628 2.36h-.508v-3.205h.508v2.359l1.628-2.36h.484v3.206h.025zm.84-3.205h2.009v.487h-1.5v.846h1.17v.487h-1.17v.898h1.5v.487h-2.009v-3.205zm4.299 4.154h-.458v-4.436h.458v4.436zm3.485-1.385c.636 0 .941-.513.941-.513h.077v.539s-.356.436-1.069.436c-.941 0-1.653-.718-1.653-1.667 0-.949.712-1.667 1.653-1.667.763 0 1.145.462 1.145.462l-.203.41s-.306-.385-.891-.385c-.687 0-1.17.488-1.17 1.18 0 .743.483 1.205 1.17 1.205zm3.74-2.769v.487h-.942v2.692h-.508v-2.692h-.942v-.487h2.392zm1.094 3.205h-.509v-3.205h.941c.738 0 1.196.461 1.196 1.102s-.458 1.103-1.196 1.103h-.432v1zm0-1.487h.432c.382 0 .662-.231.662-.616 0-.359-.255-.615-.662-.615h-.432v1.23zm3.739 1.538c-.941 0-1.653-.718-1.653-1.666 0-.95.712-1.667 1.653-1.667.941 0 1.654.718 1.654 1.666 0 .95-.687 1.667-1.654 1.667zm0-.487c.662 0 1.119-.487 1.119-1.18 0-.692-.483-1.179-1.119-1.179s-1.119.487-1.119 1.18c0 .717.483 1.179 1.119 1.179zm4.935.436h-.508v-2.36l-1.628 2.36h-.509v-3.205h.509v2.359l1.628-2.36h.483v3.206h.025zm3.002-3.205v.487h-.941v2.692h-.509v-2.692h-.941v-.487h2.391zm.56 0h2.01v.487h-1.501v.846h1.17v.487h-1.17v.898h1.501v.487h-2.01v-3.205zm3.383 1.897c-.076.923-.432 1.282-.992 1.385l-.102-.487c.306-.077.509-.231.56-.898l.178-1.897h2.035v3.18h-.509v-2.693h-1.043l-.127 1.41zm3.028-.872h.432c.763 0 1.196.436 1.196 1.103s-.433 1.102-1.196 1.102h-.941v-3.23h.509v1.025zm0 1.693h.432c.382 0 .661-.231.661-.616 0-.359-.254-.615-.661-.615h-.432v1.23zm3.765.051c.636 0 .941-.513.941-.513h.076v.539s-.356.436-1.068.436c-.942 0-1.654-.718-1.654-1.667 0-.949.712-1.667 1.654-1.667.763 0 1.144.462 1.144.462l-.203.41s-.305-.385-.89-.385c-.687 0-1.171.488-1.171 1.18 0 .743.484 1.205 1.171 1.205zm3.739-2.769v.487h-.941v2.692h-.509v-2.692h-.941v-.487h2.391zm2.57.871c0 .539-.433.642-.433.642v.025s.585.128.585.77c0 .512-.356.897-1.094.897h-1.068v-3.205h.941c.738 0 1.069.359 1.069.871zm-1.476-.384v.82h.432c.357 0 .509-.153.509-.41 0-.256-.178-.41-.509-.41h-.432zm0 2.23h.534c.356 0 .56-.179.56-.46 0-.283-.204-.462-.56-.462h-.534v.923zm3.765.539c-.941 0-1.654-.718-1.654-1.666 0-.95.713-1.667 1.654-1.667s1.654.718 1.654 1.666c0 .95-.713 1.667-1.654 1.667zm0-.487c.661 0 1.119-.487 1.119-1.18 0-.692-.483-1.179-1.119-1.179s-1.119.487-1.119 1.18c-.026.717.458 1.179 1.119 1.179zm5.342-25.513s.051.103.051.231c0 .154-.051.256-.051.256h-.788V8.36s-.102.051-.28.051c-.204 0-.28-.051-.28-.051V5.692h-.789s-.051-.102-.051-.23c0-.154.051-.257.051-.257h2.137zm3.104 0c.203 0 .356.051.356.051V8.36s-.102.051-.28.051c-.178 0-.28-.051-.28-.051v-.974c0-.487-.025-1.103.026-1.462h-.026c-.076.282-.305.744-.483 1.128l-.305.641s-.077.026-.153.026c-.102 0-.153-.026-.153-.026-.101-.205-.203-.41-.305-.64-.178-.385-.432-.872-.509-1.154h-.025c.076.307.051.897.051 1.358v1.077s-.102.052-.255.052c-.152 0-.254-.052-.254-.052V5.231s.127-.051.331-.051c.178 0 .33.05.33.05l.408.821c.152.308.305.641.381.872h.026c.05-.128.101-.282.178-.461.203-.41.381-.82.559-1.231.127-.026.28-.026.382-.026z"/></g><defs><clipPath id="clip0_138_1160"><path fill="#fff" d="M0 0h181v33H0z"/></clipPath></defs></svg>
