<svg width="120" height="25" fill="none" xmlns="http://www.w3.org/2000/svg"><path d="M71.597 6.111c-.416.764-1.25 1.25-2.152 1.25-1.459 0-2.64-1.11-2.64-2.57 0-1.458 1.112-2.569 2.64-2.569.902 0 1.736.486 2.083 1.18l.07.14.694-.417-.07-.139c-.555-.972-1.597-1.528-2.777-1.528-1.945 0-3.334 1.459-3.334 3.334s1.459 3.333 3.334 3.333a3.18 3.18 0 002.777-1.597l.07-.139-.695-.278zm3.264 1.806h.764V2.222h1.945v-.764h-4.653v.764h1.944v5.695zm4.584-2.292h1.458c1.18 0 2.083-.903 2.083-2.083 0-1.18-.903-2.083-2.083-2.083H78.68v6.458h.764V5.625zm0-3.403h1.458c.764 0 1.32.556 1.32 1.32s-.556 1.32-1.32 1.32h-1.459v-2.64zm11.111 2.5c0-1.875-1.459-3.333-3.334-3.333S83.89 2.847 83.89 4.722c0 1.875 1.458 3.334 3.333 3.334 1.875 0 3.334-1.459 3.334-3.334zm-3.334 2.57c-1.458 0-2.57-1.111-2.57-2.57 0-1.458 1.112-2.57 2.57-2.57 1.459 0 2.57 1.112 2.57 2.57.07 1.459-1.111 2.57-2.57 2.57zm9.514.625V1.459h-.625l-3.403 5v-5h-.763v6.458h.625l3.402-5v5h.764zm6.806 0h.764V1.459h-.834L101.389 5l-2.153-3.542h-.833v6.459h.764v-5.07l2.083 3.403h.278l2.014-3.403v5.07zM71.111 11.32h-4.097V15c0 .972-.208 1.597-.556 2.084h-.555v1.944h.764v-1.18h4.375v1.18h.764v-1.944h-.625l-.07-5.764zm-.764.694v5h-2.986c.278-.486.417-1.18.417-2.083v-2.917h2.57zM73.82 15c0 1.875-.625 2.084-1.112 2.084h-.278v.694h.348c1.18 0 1.736-.903 1.736-2.778v-2.986h2.708v5.764h.764V11.32H73.82V15zm5.555-1.736c0 .903.625 1.667 1.458 1.875l-1.805 2.57h.903l1.736-2.57h1.458v2.57h.764V11.25h-2.57c-1.041.07-1.944.903-1.944 2.014zm1.945-1.25h1.805v2.5H81.32c-.695 0-1.181-.556-1.181-1.25 0-.695.556-1.25 1.18-1.25zm13.888-.694h-.902l-2.43 2.639v-2.64h-.765v2.64l-2.43-2.64h-.973l2.848 3.126-2.917 3.333h.972l2.5-2.847v2.847h.764V14.93l2.5 2.847h.972l-2.986-3.333 2.847-3.125zm10.695 3.055c.486-.347.764-.833.764-1.389 0-1.041-.834-1.805-2.014-1.805-1.32 0-1.875.694-2.083 1.32l-.07.138.625.347.07-.139c.208-.625.763-.902 1.458-.902.764 0 1.25.416 1.25 1.11 0 .626-.486 1.112-1.32 1.112h-.625v.694h.834c.764 0 1.319.417 1.319 1.18 0 .695-.555 1.181-1.458 1.181-1.042 0-1.458-.555-1.597-1.041l-.07-.209-.694.348.069.138c.209.556.695 1.459 2.292 1.459 1.319 0 2.222-.764 2.222-1.875-.069-.764-.417-1.32-.972-1.667zm6.389-.278h-3.264V11.32h-.764v6.458h.764v-2.986h3.264v2.986h.764V11.32h-.764v2.777zm-11.389 3.542v-6.458h-.625l-3.403 5v-5h-.764v6.458h.625l3.403-5v5h.764zm18.75 0v-6.458h-.625l-3.403 5v-5h-.764v6.458h.625l3.403-5v5h.764zm-81.459-3.052V1.392H24.31V5.28c0 .834 0 3.195-.417 5.07-.208.833-.903 3.056-1.736 4.236h-1.532l-2.15 4.164h21.803v-4.162h-2.084zm-10.208-3.89c.417-1.736.486-3.472.486-5.152h5.556v9.041h-7.222c.555-1.389.902-2.5 1.18-3.889zM12.5 1.389v13.194H4.16V1.39H0v17.36h16.665V1.389H12.5zm38.056 13.75c-2.709 0-4.931-2.222-4.931-4.93 0-2.71 2.222-4.931 4.93-4.931 1.459 0 2.709.625 3.612 1.597l1.875-3.611c-1.528-1.18-3.403-1.945-5.486-1.945-4.862 0-8.89 3.959-8.89 8.89a8.862 8.862 0 008.89 8.888c2.916 0 5.555-1.458 7.152-3.68l-3.194-2.292c-.834 1.18-2.292 2.014-3.959 2.014z" fill="#fff"/><path d="M14.127 25H6.806l5.486-10.416h7.321L14.127 25z" fill="#9D9D9D"/><path d="M59.668 10.417h-7.322L57.832 0h7.322l-5.486 10.417z" fill="#D9D9D9"/></svg>
