<svg width="46" height="42" fill="none" xmlns="http://www.w3.org/2000/svg"><path d="M0 0l45.96 20.51L0 41.14V0z" fill="#191B1E"/><path d="M14.741 32.417l-4.228 1.89-3.414-9.334v10.87l-4.972 2.23V3.015l4.972 2.228v9.806L9.99 6.537l4.632 2.066 2.74 17.421L19.75 10.89l10.656 4.763v2.2l-6.156-2.749-.256 1.627 6.412 2.873v5.784l-8.374 3.773.763-4.839 4.18-1.893-4.943-2.213-1.519 9.612-5.639 2.528-3.424-17.72-1.676 4.8 4.967 12.982z" fill="#fff"/><path d="M32.18 16.447l9.1 4.06-9.1 4.073v-8.133z" fill="#9D9D9D"/></svg>9.77425 19.4352L14.7414 32.4167Z" fill="white"/>
<path d="M32.1805 16.4473L41.2803 20.5061L32.1805 24.5798V16.4473Z" fill="#9D9D9D"/>
</svg>
