<svg width="15" height="20" viewBox="0 0 15 20" fill="none" xmlns="http://www.w3.org/2000/svg">
<path d="M7.24414 0C3.38207 0 0.244141 3 0.244141 6.75C0.244141 8.25 1.20966 10.5 3.38207 14C4.83035 16.5 6.27862 18.5 6.27862 18.5L7.24414 20L8.20966 18.5C8.20966 18.5 9.65793 16.25 11.1062 14C13.2786 10.5 14.2441 8.25 14.2441 6.75C14.2441 3 11.1062 0 7.24414 0ZM7.24414 10C5.31311 10 3.62345 8.5 3.62345 6.5C3.62345 4.5 5.31311 3 7.24414 3C9.17518 3 10.8648 4.5 10.8648 6.5C10.8648 8.5 9.17518 10 7.24414 10Z" fill="white"/>
</svg>
