<svg width="25" height="20" viewBox="0 0 25 20" fill="none" xmlns="http://www.w3.org/2000/svg">
<g clip-path="url(#clip0_327_67)">
<path d="M0.584126 12.3692C1.96004 13.3897 2.48656 13.5322 3.63849 15.0744C5.52929 17.5828 5.25294 18.6318 5.82018 19.1107C6.38742 19.5896 8.93854 19.9659 10.6868 17.7881C12.4351 15.6103 15.1462 9.55292 18.6398 5.92421C22.1334 2.29549 23.7624 1.2465 24.8096 0.6992C25.8568 0.1519 22.5377 0.268772 16.0014 5.3541C11.4693 8.8916 8.25494 13.7717 8.25494 13.7717C8.25494 13.7717 7.34736 11.1036 5.32275 9.31633C3.29815 7.52905 -1.69647 10.676 0.584126 12.3692Z" fill="#05A0A8"/>
</g>
<defs>
<clipPath id="clip0_327_67">
<rect width="25" height="19" fill="white" transform="translate(0 0.479248)"/>
</clipPath>
</defs>
</svg>
