<svg width="94" height="29" fill="none" xmlns="http://www.w3.org/2000/svg"><path fill-rule="evenodd" clip-rule="evenodd" d="M33.05 28.957c-3.52.099-7.41.242-9.76-2.211-2.462-2.572-2.805-6.437-1.665-9.72 1.034-2.975 4.045-4.69 7.108-5.946 2.89-1.186 6.046-1.759 8.97-.65 3.173 1.202 5.877 3.505 6.74 6.603.894 3.204.018 6.715-2.34 9.184-2.224 2.327-5.717 2.646-9.052 2.74z" fill="#78C081" fill-opacity=".15"/><path d="M35.507 14.216V7.317h3.544c.863 0 1.487.184 1.872.552.392.361.588.946.588 1.754 0 .809-.196 1.397-.588 1.765-.385.368-1.009.552-1.872.552h-2.14v2.276h-1.404zm1.404-3.577h2.06c.4 0 .688-.08.867-.237.186-.164.279-.424.279-.779 0-.348-.093-.6-.279-.759-.18-.164-.468-.246-.866-.246H36.91v2.02zm7.152 3.666c-.67 0-1.165-.125-1.483-.374-.312-.257-.468-.664-.468-1.223 0-.571.172-.979.518-1.222.345-.25.902-.374 1.672-.374h1.554c-.027-.349-.136-.598-.329-.75-.186-.157-.478-.236-.876-.236-.644 0-1.022.227-1.135.68H42.22c.08-.63.316-1.087.707-1.37.392-.289.983-.434 1.773-.434.863 0 1.49.178 1.882.533.391.348.587.913.587 1.695v2.986h-1.314v-.483c-.379.381-.976.572-1.793.572zm-.637-1.656c0 .355.322.533.966.533.451 0 .79-.08 1.016-.237.232-.164.381-.417.448-.759v-.118H44.65c-.817 0-1.225.194-1.225.581zm4.666-.069h1.294c.126.401.548.601 1.265.601.69 0 1.035-.137 1.035-.413 0-.25-.435-.434-1.304-.552-.81-.092-1.384-.263-1.723-.513-.338-.256-.508-.637-.508-1.143 0-.533.18-.923.538-1.173.358-.256.926-.385 1.703-.385.803 0 1.4.138 1.792.414.398.27.634.707.707 1.311h-1.294a.755.755 0 00-.399-.453c-.186-.099-.461-.148-.826-.148-.63 0-.946.128-.946.384 0 .237.398.408 1.195.513.876.125 1.483.306 1.822.542.338.23.508.595.508 1.094 0 .552-.19.966-.568 1.242-.372.27-.962.404-1.772.404-.797 0-1.398-.138-1.802-.414-.405-.276-.644-.713-.717-1.31zm8.16 1.725c-.91 0-1.57-.207-1.981-.62-.405-.421-.608-1.098-.608-2.031 0-.927.206-1.6.618-2.02.411-.421 1.068-.632 1.971-.632.823 0 1.44.168 1.852.503.412.329.654.858.727 1.587h-1.294c-.073-.309-.21-.532-.408-.67-.2-.138-.482-.207-.847-.207-.458 0-.793.115-1.006.345-.205.223-.308.588-.308 1.094 0 .5.103.864.308 1.094.213.23.548.345 1.006.345.704 0 1.122-.293 1.255-.877h1.294c-.073.729-.315 1.261-.727 1.596-.411.329-1.029.493-1.852.493zm5.256 0c-.67 0-1.165-.125-1.483-.374-.313-.257-.468-.664-.468-1.223 0-.571.172-.979.517-1.222.345-.25.903-.374 1.673-.374H63.3c-.026-.349-.136-.598-.328-.75-.186-.157-.478-.236-.876-.236-.644 0-1.023.227-1.136.68h-1.294c.08-.63.315-1.087.707-1.37.392-.289.982-.434 1.772-.434.863 0 1.49.178 1.882.533.392.348.588.913.588 1.695v2.986H63.3v-.483c-.378.381-.975.572-1.792.572zm-.637-1.656c0 .355.322.533.966.533.451 0 .79-.08 1.015-.237.233-.164.382-.417.448-.759v-.118h-1.204c-.817 0-1.225.194-1.225.581zm4.884 1.567V6.824h1.315v7.392h-1.315zm4.707-6.899h1.484l2.39 5.44 2.38-5.44h1.493l-3.087 6.9h-1.573l-3.087-6.9zm8.518 6.357c-.419-.42-.628-1.094-.628-2.02 0-.927.21-1.6.627-2.02.419-.421 1.096-.632 2.032-.632.93 0 1.6.21 2.011.631.418.42.627 1.094.627 2.02 0 .093-.006.23-.02.415h-3.933c.087.742.528 1.114 1.325 1.114.597 0 .992-.2 1.185-.602h1.354c-.133.638-.415 1.084-.847 1.34-.431.257-.998.385-1.702.385-.936 0-1.613-.21-2.031-.63zm2.04-3.548c-.371 0-.666.076-.885.227-.22.15-.359.4-.419.749h2.61c-.06-.348-.2-.598-.419-.75-.212-.15-.508-.226-.886-.226zm4.865 4.09h-1.314V9.091h1.314v.513c.345-.401.903-.602 1.673-.602.73 0 1.261.184 1.593.552.339.368.508.96.508 1.774v2.888h-1.314V11.33c0-.388-.097-.67-.29-.848-.185-.178-.48-.266-.885-.266-.458 0-.787.115-.986.345-.2.223-.299.588-.299 1.094v2.562zm6.611-5.125h1.414v1.213h-1.414v1.97c0 .257.06.444.18.563.12.111.318.167.597.167H94v1.212h-.767c-.717 0-1.238-.14-1.563-.423-.325-.283-.488-.736-.488-1.36v-2.13h-.757V9.091h.757V7.977h1.314v1.114z" fill="#495E4C"/><path d="M36.724 21.707h1.407v.806h-1.407v3.75h-.868v-3.75h-.814v-.806h.814v-.158c0-.654.145-1.13.434-1.428.29-.297.752-.447 1.39-.447h.504v.807h-.46c-.348 0-.602.084-.761.254-.16.169-.24.44-.24.814v.158zm3.888 4.556h-.867v-4.556h.867v.587c.301-.438.826-.657 1.576-.657h.398v.806h-.646c-.472 0-.811.123-1.018.368-.206.24-.31.63-.31 1.174v2.278zm3.764-.491c-.366-.374-.55-.97-.55-1.787 0-.818.184-1.413.55-1.787.371-.374.97-.561 1.796-.561.82 0 1.41.187 1.77.56.366.375.55.97.55 1.788 0 .03-.004.073-.01.131v.132h-3.77c.03.455.162.791.398 1.007.242.216.6.325 1.071.325.69 0 1.13-.234 1.319-.701h.903c-.124.537-.378.914-.761 1.13-.378.216-.868.324-1.47.324-.826 0-1.425-.187-1.796-.56zm1.805-3.381c-.442 0-.785.096-1.026.289-.236.186-.378.493-.425.92h2.894c-.047-.433-.189-.742-.425-.93-.23-.186-.57-.28-1.018-.28zm3.834 2.488h.858a.86.86 0 00.443.534c.218.111.528.166.93.166.784 0 1.176-.186 1.176-.56 0-.17-.106-.304-.318-.403-.213-.1-.555-.184-1.027-.254-.726-.094-1.239-.246-1.54-.456-.295-.216-.442-.531-.442-.946 0-.444.156-.774.469-.99.312-.222.805-.333 1.478-.333.672 0 1.18.117 1.522.35.342.228.555.596.637 1.104h-.858a.873.873 0 00-.425-.534c-.206-.111-.505-.166-.894-.166-.726 0-1.089.178-1.089.534 0 .163.104.295.31.394.207.094.534.175.983.245.76.117 1.289.275 1.584.474.3.198.451.502.451.91 0 .924-.681 1.385-2.044 1.385-.679 0-1.195-.117-1.55-.35-.353-.234-.572-.602-.654-1.104zm6.021-5.187h.867v2.628c.319-.455.877-.683 1.673-.683.667 0 1.154.16 1.46.482.307.321.46.832.46 1.533v2.61h-.858v-2.61c0-.42-.106-.727-.319-.92-.212-.193-.542-.289-.99-.289-.502 0-.865.123-1.09.368-.224.24-.336.63-.336 1.174v2.278h-.867v-6.57zm11.177 6.641c-.613 0-1.062-.108-1.345-.324-.283-.216-.425-.564-.425-1.043 0-.496.156-.85.47-1.06.318-.216.828-.324 1.53-.324h1.567c0-.415-.106-.716-.319-.902-.212-.193-.551-.29-1.018-.29-.371 0-.657.062-.858.184-.2.117-.337.307-.407.57h-.859c.083-.526.295-.908.637-1.148.343-.24.85-.359 1.523-.359.755 0 1.304.155 1.646.464.348.304.522.792.522 1.463v2.699h-.867v-.587c-.348.438-.947.657-1.797.657zm-.903-1.402c0 .228.089.394.266.5.183.099.463.148.84.148.502 0 .877-.09 1.125-.271.254-.181.41-.47.469-.867v-.21h-1.345c-.903 0-1.355.233-1.355.7zm5.567 1.332v-4.556h.868v4.556h-.868zm-.009-5.44c-.088-.088-.132-.234-.132-.439 0-.204.044-.35.132-.438.089-.088.236-.131.443-.131.206 0 .354.043.442.131.089.088.133.234.133.438 0 .205-.044.35-.133.438-.088.088-.236.132-.442.132-.207 0-.354-.044-.443-.132zm3.762 5.44h-.867v-4.556h.868v.587c.3-.438.826-.657 1.575-.657h.398v.806h-.646c-.472 0-.81.123-1.017.368-.207.24-.31.63-.31 1.174v2.278z" fill="#78C081"/><path fill-rule="evenodd" clip-rule="evenodd" d="M1.21 11.184C.087 15.15-.17 19.309.097 23.392c-.12 1.298.592 2.552 1.539 3.446 1.386 1.3 4.117 1.123 5.91.94 3.264-.308 4.716-3.26 4.907-6.102.147-4.914.182-10.077.172-15-.002-.14-.002-.287-.002-.438.002-.649.003-1.373-.197-1.948-.485-1.607-1.996-2.184-3.513-1.875a4.702 4.702 0 00-.882.38 13.975 13.975 0 00-2.54 1.747A13.768 13.768 0 001.876 9.33a6.684 6.684 0 00-.242.602c-.044.118-.086.232-.124.325-.08.195-.16.466-.231.704l-.068.224zM.097 23.392c.474-4.155 1.14-8.293 2.656-12.204a12.626 12.626 0 013.971-5.264c.163-.136.405-.312.602-.455l.112-.082S8.66 4.355 9.322 4.298c.662-.056 1.025-.01 1.174.7l.046.339.01.375c-.01 1.7-.017 4.843 0 6.574.023 2.496.053 4.993.113 7.488l.04 1.82a8.002 8.002 0 01-.2 1.686c-.287 1.31-1.016 2.587-2.338 3.104-.851.301-1.776.42-2.672.523-1.05.09-2.15.143-3.12-.278-1.184-.684-2.14-1.868-2.278-3.237z" fill="#78C081"/><path d="M26.688 12.279c.574 1.407 1.62 3.607 1.98 6.25-.258-4.83-.595-4.843-.762-5.583a24.022 24.022 0 00-1.069-3.485c-1.274-2.925-3.558-5.332-6.461-6.812a2.603 2.603 0 00-.795-.274c-.16-.009-.252-.035-.474-.035-1.516-.084-2.662.876-2.924 2.285-.137.61-.1 1.36-.1 1.962-.017 3.267-.025 7.32.03 10.606.023 1.18.038 2.361.07 3.542-.005.638.045 1.275.15 1.904.5 2.86 2.169 5.07 5.358 5.197 1.585.111 3.277.176 4.752-.52 1.157-.619 1.628-1.665 1.967-2.82.221-.755.522-1.528 1.783-2.762-1.261.74-1.679 1.113-2.522 3.21-1.13 1.864-1.942 2.092-4.053 1.964a15.69 15.69 0 01-1.752-.231c-.526-.103-1.1-.2-1.571-.448-1.45-.717-2.048-2.328-2.217-3.824a9.931 9.931 0 01-.04-1.63c.05-2.056.11-5.006.11-7.089s.032-5.058 0-7.11c.006-.608-.127-1.538.194-2.052.227-.37.598-.484 1.211-.2 2.592 1.222 4.71 3.217 6.042 5.69.388.775.845 1.656 1.093 2.265zM14.475 5.813a.424.424 0 00-.195-.57.432.432 0 00-.577.192L11.67 9.51a.424.424 0 00.195.57.432.432 0 00.577-.193l2.033-4.073z" fill="#78C081"/><path d="M13.965 5.813a.424.424 0 01.195-.57.432.432 0 01.577.192l2.034 4.074a.424.424 0 01-.196.57.432.432 0 01-.576-.193l-2.034-4.073z" fill="#78C081"/><path d="M13.774.426c0-.235.193-.426.431-.426s.43.19.43.426v5.398a.428.428 0 01-.43.427.428.428 0 01-.43-.427V.426zM27.076 26.2a23.835 23.835 0 00-.819-1.418c-.145-.231-.297-.452-.445-.672-.039-.057-.082-.109-.123-.164-.041-.055-.086-.107-.131-.161-.045-.054-.094-.105-.145-.16a.781.781 0 00-.078-.077c-.027-.026-.056-.052-.082-.08.175.035.34.095.485.175.073.04.143.083.209.13a2.926 2.926 0 011.116 1.596c.079.271.083.554.013.83z" fill="#78C081"/><path d="M26.95 23.457a1.8 1.8 0 00-.576-.735 2.713 2.713 0 00-.831-.433 4.812 4.812 0 00-.944-.189 16.102 16.102 0 00-.996-.07l.282-.279c.054.407.118.811.162 1.219.027.203.047.409.08.597a1.878 1.878 0 00.155.542c.158.348.41.651.734.88a2.63 2.63 0 001.163.461 2.31 2.31 0 01-1.321-.237 2.31 2.31 0 01-.982-.922 2.248 2.248 0 01-.232-.63c-.048-.219-.075-.42-.107-.618a48.341 48.341 0 01-.173-1.22l-.04-.303.323.024c.347.023.692.065 1.033.123a4.18 4.18 0 011.015.3 2.5 2.5 0 01.845.608c.23.247.373.555.41.882zm.588-.158a1.762 1.762 0 01-.23-.595 2.543 2.543 0 01-.04-.641c.038-.424.142-.83.309-1.198.163-.376.377-.717.635-1.013.135-.152.286-.285.451-.396.163-.105.335-.195.514-.267.175-.075.353-.132.529-.185.176-.054.348-.1.524-.148a11.8 11.8 0 001.01-.295c.309-.105.6-.26.864-.46a2.11 2.11 0 00.654-.829c.114-.28.21-.578.315-.866-.03.084.067.38.083.482.088.541.126 1.086.113 1.626-.004.354-.03.705-.077 1.051l-.021.134-.075.38a8.214 8.214 0 01-.119.502 3.356 3.356 0 01-.424.945c-.093.139-.196.27-.306.39a5.702 5.702 0 01-1.084.878 5.036 5.036 0 01-1.68.664 6.69 6.69 0 002.14-1.557c.199-.21.375-.445.526-.702.139-.255.239-.536.298-.834.032-.151.06-.308.085-.468l.035-.244.018-.122.014-.114c.03-.319.043-.642.04-.966 0-.33.19-.012-.132.244a3.3 3.3 0 01-1.04.542c-.357.118-.717.193-1.066.27-.35.076-.7.146-1.02.249a2.583 2.583 0 00-.454.191 1.915 1.915 0 00-.397.292 3.576 3.576 0 00-.657.833 3.48 3.48 0 00-.414 1.04c-.093.381-.066.8.079 1.187z" fill="#78C081"/></svg>