<svg width="100" height="100" viewBox="0 0 100 100" fill="none" xmlns="http://www.w3.org/2000/svg">
<circle cx="50" cy="50" r="50" fill="#D9FADD"/>
<path d="M70.1008 31.7776V74.8008C70.1008 76.5595 68.6631 77.985 66.8897 77.985H33.11C31.3365 77.985 29.8989 76.5594 29.8989 74.8008V31.7776C29.8989 30.019 31.3366 28.5933 33.1101 28.5933H40.5135V33.0522C40.5135 33.7112 41.0522 34.2455 41.7168 34.2455H58.2828C58.9474 34.2455 59.4861 33.7112 59.4861 33.0522V28.5933H66.8896C68.6631 28.5933 70.1008 30.019 70.1008 31.7776Z" fill="#D9FADD"/>
<path d="M59.4868 27.5896V33.0541C59.4868 33.7131 58.948 34.2474 58.2834 34.2474H41.7165C41.052 34.2474 40.5132 33.7131 40.5132 33.0541V27.5896C40.5132 26.9306 41.052 26.3963 41.7165 26.3963H46.2723V26.3848C46.2723 23.8472 48.8984 21.9025 51.6094 23.0473C52.9274 23.604 53.7162 24.9642 53.7162 26.3848V26.3963H58.2834C58.948 26.3964 59.4868 26.9307 59.4868 27.5896Z" fill="#D9FADD"/>
<path d="M50.6382 26.0096C50.9709 25.6609 51.0003 25.1437 50.6382 24.7437C50.3054 24.4137 49.7032 24.4137 49.3616 24.7437C49.0103 25.1298 49.0208 25.6532 49.3616 26.0096C49.7269 26.353 50.2728 26.3532 50.6382 26.0096Z" fill="#5CCD6A"/>
<path d="M51.0016 41.7983H60.4885C60.985 41.7983 61.3876 41.3991 61.3876 40.9067C61.3876 40.4144 60.985 40.0152 60.4885 40.0152H51.0016C50.5051 40.0152 50.1025 40.4144 50.1025 40.9067C50.1025 41.3991 50.5052 41.7983 51.0016 41.7983Z" fill="#C3FF17"/>
<path d="M51.0016 45.6477H56.617C57.1136 45.6477 57.5161 45.2485 57.5161 44.7562C57.5161 44.2638 57.1136 43.8646 56.617 43.8646H51.0016C50.5051 43.8646 50.1025 44.2638 50.1025 44.7562C50.1025 45.2485 50.5052 45.6477 51.0016 45.6477Z" fill="#C3FF17"/>
<path d="M39.5 45.11C39.5 46.3472 40.5053 47.3537 41.7428 47.3537H45.2572C46.4946 47.3537 47.5 46.3473 47.5 45.11V41.5927C47.5 40.3553 46.4948 39.3487 45.2572 39.3487H41.7428C40.5054 39.3487 39.5 40.3551 39.5 41.5927V45.11Z" fill="#C3FF17" stroke="#5CCD6A"/>
<path d="M51.0016 52.768H60.4885C60.985 52.768 61.3876 52.3688 61.3876 51.8765C61.3876 51.3841 60.985 50.9849 60.4885 50.9849H51.0016C50.5051 50.9849 50.1025 51.3841 50.1025 51.8765C50.1027 52.3688 50.5052 52.768 51.0016 52.768Z" fill="#C3FF17"/>
<path d="M51.0016 56.6174H56.617C57.1136 56.6174 57.5161 56.2183 57.5161 55.7259C57.5161 55.2335 57.1136 54.8344 56.617 54.8344H51.0016C50.5051 54.8344 50.1025 55.2335 50.1025 55.7259C50.1027 56.2183 50.5052 56.6174 51.0016 56.6174Z" fill="#C3FF17"/>
<path d="M47.5 52.6006V52.6005C47.4999 51.3631 46.4947 50.3565 45.2572 50.3565H41.7428C40.5053 50.3565 39.5 51.3631 39.5 52.6006V56.1179C39.5 57.355 40.5053 58.3615 41.7428 58.3615H45.2572C46.4946 58.3615 47.5 57.355 47.5 56.1179V52.6006Z" fill="#C3FF17" stroke="#5CCD6A"/>
<path d="M51.0016 63.7378H60.4885C60.985 63.7378 61.3876 63.3386 61.3876 62.8462C61.3876 62.3539 60.985 61.9547 60.4885 61.9547H51.0016C50.5051 61.9547 50.1025 62.3539 50.1025 62.8462C50.1027 63.3386 50.5052 63.7378 51.0016 63.7378Z" fill="#C3FF17"/>
<path d="M51.0016 67.5872H56.617C57.1136 67.5872 57.5161 67.1881 57.5161 66.6957C57.5161 66.2033 57.1136 65.8041 56.617 65.8041H51.0016C50.5051 65.8041 50.1025 66.2033 50.1025 66.6957C50.1027 67.1881 50.5052 67.5872 51.0016 67.5872Z" fill="#C3FF17"/>
<path d="M47.5 63.6084V63.6083C47.4999 62.3709 46.4947 61.3643 45.2572 61.3643H41.7428C40.5054 61.3643 39.5 62.3707 39.5 63.6084V67.1257C39.5 68.3628 40.5053 69.3693 41.7428 69.3693H45.2572C46.4946 69.3693 47.5 68.3629 47.5 67.1257V63.6084Z" fill="#C3FF17" stroke="#5CCD6A"/>
<path d="M58.2837 25.5046H54.5348C53.6157 20.5549 46.4236 20.6715 45.4609 25.5046H41.7164C40.5571 25.5046 39.6141 26.4401 39.6141 27.5898V27.7017H33.1102C30.8437 27.7017 29 29.53 29 31.7774V74.8007C29 77.0482 30.8438 78.8764 33.1102 78.8764H66.8898C69.1563 78.8764 71 77.0481 71 74.8007V31.7774C71 29.5299 69.1562 27.7017 66.8898 27.7017H60.3859V27.5898C60.3859 26.4401 59.443 25.5046 58.2837 25.5046ZM41.7164 27.2877H46.2722C46.7688 27.2877 47.1713 26.8772 47.1713 26.3849C47.1713 22.8189 52.8175 22.5869 52.8175 26.3963C52.8175 26.8886 53.22 27.2878 53.7165 27.2878H58.2837C58.4514 27.2878 58.5879 27.4231 58.5879 27.5899C58.5879 28.1875 58.5876 31.6866 58.5875 33.0521C58.5875 33.2189 58.451 33.3542 58.2828 33.3542H41.7169C41.5491 33.3542 41.4127 33.2189 41.4127 33.0521C41.4127 32.9606 41.4122 27.4983 41.4122 27.5899C41.4122 27.423 41.5488 27.2877 41.7164 27.2877ZM41.7164 35.1389H58.2836C59.4429 35.1389 60.3859 34.2039 60.3859 33.0542V33.052L64.9378 33.0229C65.3219 33.0229 65.634 33.3324 65.634 33.7133V72.8649C65.634 73.2459 65.3219 73.5554 64.9378 73.5554H35.0624C34.6782 73.5554 34.3661 73.2459 34.3661 72.8649V33.7132C34.3661 33.3323 34.6782 33.0228 35.0624 33.0228H39.6142V33.0541C39.6142 34.2039 40.5571 35.1389 41.7164 35.1389ZM66.89 29.4847C68.1647 29.4847 69.2021 30.5133 69.2021 31.7774V74.8007C69.2021 76.0648 68.1647 77.0935 66.89 77.0935H33.1102C31.8354 77.0935 30.798 76.0648 30.798 74.8007V31.7774C30.798 30.5133 31.8354 29.4847 33.1102 29.4847H39.6141V31.2398H35.0622C33.6869 31.2398 32.568 32.3494 32.568 33.7132V72.8648C32.568 74.2287 33.687 75.3382 35.0622 75.3382H64.9376C66.313 75.3382 67.4319 74.2286 67.4319 72.8648V33.7132C67.4319 32.3493 66.3129 31.2398 64.9376 31.2398H60.3858V29.4847H66.89Z" fill="#5CCD6A"/>
</svg>
