<svg width="62" height="62" viewBox="0 0 62 62" fill="none" xmlns="http://www.w3.org/2000/svg">
<g clip-path="url(#clip0_12911_261)">
<path d="M0 54.0056C0 58.4212 3.57929 62 7.99437 62H54.0054C58.4212 62 62 58.4207 62 54.0056V7.99461C62 3.5788 58.4207 0 54.0056 0H7.99461C3.5788 0 0 3.57929 0 7.99437V54.0056Z" fill="#563D7C"/>
<path d="M25.4014 26.9762V18.3222H33.2675C34.0168 18.3222 34.739 18.3826 35.4347 18.5036C36.1303 18.6244 36.7458 18.8402 37.2809 19.1513C37.8158 19.4623 38.244 19.8941 38.5652 20.4467C38.8861 20.9996 39.0469 21.7078 39.0469 22.5713C39.0469 24.126 38.5652 25.2489 37.6019 25.9397C36.6388 26.6308 35.408 26.9762 33.9096 26.9762H25.4014ZM17 12V49H35.515C37.2275 49 38.8953 48.7928 40.5185 48.3782C42.1417 47.9635 43.5864 47.3245 44.8529 46.4608C46.1192 45.5972 47.1271 44.4829 47.8762 43.1184C48.6256 41.7537 49 40.1386 49 38.2731C49 35.9583 48.4202 33.9806 47.2609 32.3397C46.1014 30.6986 44.3444 29.5499 41.9898 28.8935C43.7022 28.0991 44.9956 27.0798 45.8697 25.8361C46.7435 24.5924 47.1806 23.0379 47.1806 21.1722C47.1806 19.4449 46.8863 17.994 46.2976 16.8193C45.709 15.6449 44.8795 14.7034 43.8092 13.9951C42.7392 13.2869 41.4549 12.7772 39.9564 12.4664C38.4582 12.1554 36.7993 12 34.9799 12H17ZM25.4014 42.6778V32.5209H34.5517C36.3711 32.5209 37.8338 32.9267 38.9399 33.7388C40.0457 34.5507 40.5988 35.9065 40.5988 37.8067C40.5988 38.7742 40.4292 39.5686 40.0903 40.1904C39.7514 40.8123 39.2966 41.3047 38.7257 41.6673C38.155 42.0302 37.4949 42.2892 36.7458 42.4448C35.9964 42.6 35.2118 42.6778 34.3912 42.6778H25.4014Z" fill="white"/>
</g>
<defs>
<clipPath id="clip0_12911_261">
<rect width="62" height="62" fill="white"/>
</clipPath>
</defs>
</svg>
