<svg width="12" height="11" viewBox="0 0 12 11" fill="none" xmlns="http://www.w3.org/2000/svg">
<g opacity="0.6">
<path d="M6 10C8.76142 10 11 7.98528 11 5.5C11 3.01472 8.76142 1 6 1C3.23858 1 1 3.01472 1 5.5C1 7.98528 3.23858 10 6 10Z" stroke="white" stroke-width="0.666667" stroke-linejoin="round"/>
<path d="M5.76957 3.33333C6.12412 3.33333 6.46549 3.46733 6.73044 3.71067C6.74618 3.72561 6.76462 3.73716 6.78471 3.74464C6.8048 3.75212 6.82612 3.75538 6.84744 3.75424C6.86876 3.7531 6.88964 3.74757 6.90888 3.73798C6.92811 3.7284 6.94531 3.71494 6.95948 3.69839C6.97364 3.68185 6.98449 3.66255 6.99138 3.64162C6.99827 3.62069 7.00108 3.59855 6.99963 3.57649C6.99818 3.55442 6.99251 3.53288 6.98294 3.51311C6.97338 3.49334 6.96011 3.47574 6.94391 3.46133C6.62011 3.1639 6.20231 2.99977 5.76957 3C4.79389 3 4 3.8225 4 4.83333V6.16667C4 7.1775 4.79389 8 5.76957 8C6.20295 8 6.62008 7.83617 6.94391 7.53867C6.96011 7.52426 6.97338 7.50666 6.98294 7.48689C6.99251 7.46712 6.99818 7.44558 6.99963 7.42351C7.00108 7.40145 6.99827 7.37931 6.99138 7.35838C6.98449 7.33745 6.97364 7.31815 6.95948 7.30161C6.94531 7.28506 6.92811 7.2716 6.90888 7.26202C6.88964 7.25243 6.86876 7.2469 6.84744 7.24576C6.82612 7.24462 6.8048 7.24788 6.78471 7.25536C6.76462 7.26284 6.74618 7.27439 6.73044 7.28933C6.46549 7.53267 6.12363 7.66692 5.76957 7.66667C4.97117 7.66667 4.32174 6.99367 4.32174 6.16667V4.83333C4.32174 4.00633 4.97133 3.33333 5.76957 3.33333Z" stroke="white" stroke-width="0.666667" stroke-linejoin="round"/>
</g>
</svg>
