<svg width="12" height="12" viewBox="0 0 12 12" fill="none" xmlns="http://www.w3.org/2000/svg">
<g opacity="0.6">
<path d="M6 11C8.76142 11 11 8.76142 11 6C11 3.23858 8.76142 1 6 1C3.23858 1 1 3.23858 1 6C1 8.76142 3.23858 11 6 11Z" stroke="white" stroke-width="0.666667" stroke-linejoin="round"/>
<path d="M5.76957 3.59254C6.12412 3.59254 6.46549 3.74143 6.73044 4.0118C6.74618 4.0284 6.76462 4.04123 6.78471 4.04954C6.8048 4.05785 6.82612 4.06148 6.84744 4.06021C6.86876 4.05894 6.88964 4.0528 6.90888 4.04215C6.92811 4.0315 6.94531 4.01654 6.95948 3.99816C6.97364 3.97978 6.98449 3.95834 6.99138 3.93508C6.99827 3.91183 7.00108 3.88722 6.99963 3.86271C6.99818 3.83819 6.99251 3.81425 6.98294 3.79229C6.97338 3.77032 6.96011 3.75077 6.94391 3.73476C6.62011 3.40428 6.20231 3.22191 5.76957 3.22217C4.79389 3.22217 4 4.13606 4 5.25921V6.74069C4 7.86383 4.79389 8.77772 5.76957 8.77772C6.20295 8.77772 6.62008 8.59569 6.94391 8.26513C6.96011 8.24913 6.97338 8.22957 6.98294 8.2076C6.99251 8.18564 6.99818 8.1617 6.99963 8.13718C7.00108 8.11267 6.99827 8.08807 6.99138 8.06481C6.98449 8.04156 6.97364 8.02011 6.95948 8.00173C6.94531 7.98335 6.92811 7.96839 6.90888 7.95774C6.88964 7.94709 6.86876 7.94095 6.84744 7.93968C6.82612 7.93841 6.8048 7.94204 6.78471 7.95035C6.76462 7.95866 6.74618 7.97149 6.73044 7.98809C6.46549 8.25846 6.12363 8.40763 5.76957 8.40735C4.97117 8.40735 4.32174 7.65958 4.32174 6.74069V5.25921C4.32174 4.34032 4.97133 3.59254 5.76957 3.59254Z" stroke="white" stroke-width="0.666667" stroke-linejoin="round"/>
</g>
</svg>
