<svg width="55" height="78" viewBox="0 0 55 78" fill="none" xmlns="http://www.w3.org/2000/svg">
<path d="M27.4663 78L5.00533 71.7023L0 15H55L49.9894 71.6934L27.4663 78Z" fill="#264DE4"/>
<path d="M45.8098 67.9556L50 20H28V73L45.8098 67.9556Z" fill="#2965F1"/>
<path d="M11 41L11.6161 48H27V41H11Z" fill="#EBEBEB"/>
<path d="M10 27L10.6163 34H27V27H10Z" fill="#EBEBEB"/>
<path d="M27 58.6943L26.97 58.7025L19.3528 56.5934L18.8658 51H12L12.9582 62.0119L26.9685 66L27 65.991V58.6943Z" fill="#EBEBEB"/>
<path d="M13 0H21V3.66667H16.3455V7.33333H21V11H13V0Z" fill="black"/>
<path d="M23 0H31V3.14286H26.3455V3.77143H31V11H23V7.7H27.6545V7.07143H23V0Z" fill="black"/>
<path d="M33 0H41V3.14286H36.3455V3.77143H41V11H33V7.7H37.6545V7.07143H33V0Z" fill="black"/>
<path d="M42.7748 40.9407L44 27H27V33.8877H36.5627L35.9452 40.9407H27V47.8282H35.3567L34.569 56.7609L27 58.8343V66L40.9125 62.0867L41.0145 60.923L42.6093 42.7902L42.7748 40.9407Z" fill="white"/>
</svg>
