<svg xmlns="http://www.w3.org/2000/svg" version="1.1" xmlns:xlink="http://www.w3.org/1999/xlink" xmlns:svgjs="http://svgjs.com/svgjs" width="1000" height="1000"><rect width="1000" height="1000" rx="500" ry="500" fill="#555555"></rect><g transform="matrix(2,0,0,2,0.000011146068572998047,0.00004166364669799805)"><svg xmlns="http://www.w3.org/2000/svg" version="1.1" xmlns:xlink="http://www.w3.org/1999/xlink" xmlns:svgjs="http://svgjs.com/svgjs" width="500" height="500"><svg xmlns="http://www.w3.org/2000/svg" xmlns:xlink="http://www.w3.org/1999/xlink" version="1.1" width="500" height="500" viewBox="0 0 500 500" xml:space="preserve">
<desc>Created with Fabric.js 3.6.3</desc>
<defs>
</defs>
<g transform="matrix(4.442426301446095 0 0 4.442426301446095 250 250)">
<g style="">
		<g transform="matrix(0.2243685085912217 -5.495e-17 5.495e-17 0.22436850859122173 3.552714e-14 0)">
<path style="stroke: none; stroke-width: 0; stroke-dasharray: none; stroke-linecap: round; stroke-dashoffset: 0; stroke-linejoin: round; stroke-miterlimit: 4; fill: rgb(41,128,185); fill-rule: nonzero; opacity: 1;" transform=" translate(-347.214464, -408.15557)" d="m 239.32338 158.15557 c -78.60067 0 -142.108912 63.50635 -142.108912 142.10701 l 0 215.78407 c 0 78.60067 63.508242 142.10892 142.108912 142.10892 l 215.78217 0 c 78.60067 0 142.10891 -63.50825 142.10891 -142.10892 l 0 -215.78407 c 0 -78.60066 -63.50824 -142.10701 -142.10891 -142.10701 l -215.78217 0 z" stroke-linecap="round"></path>
</g>
		<g transform="matrix(0.6988499986035362 0 0 0.6988499986035362 -1.9184654e-13 2.7000624e-13)">
<g style="">
		<g transform="matrix(1 0 0 1 0.3764992277742749 -10.536002836134344)">
<path style="stroke: none; stroke-width: 1; stroke-dasharray: none; stroke-linecap: butt; stroke-dashoffset: 0; stroke-linejoin: miter; stroke-miterlimit: 4; fill: rgb(255,255,255); fill-rule: nonzero; opacity: 1;" transform=" translate(296.1235007722257, -294.96399716386566)" d="M -246.455 327.152 l -16.86 -64.454 c 0 0 -1.243 -4.756 -6.002 -4.75 l -72.96 0.08 c 0 0 -4.759 0.004 -3.515 4.761 l 15.835 60.538 c 7.148 -15.684 15.203 -33.301 15.795 -34.599 l 0.423 -0.924 l 21.84 -0.021 l -1.048 2.253 c -5.985 12.87 -13.768 29.775 -19.236 41.944 l 62.212 -0.067 C -249.97 331.912 -245.211 331.906 -246.455 327.152 z" stroke-linecap="round"></path>
</g>
		<g transform="matrix(1 0 0 1 -13.259479799120527 17.976999999999975)">
<path style="stroke: none; stroke-width: 1; stroke-dasharray: none; stroke-linecap: butt; stroke-dashoffset: 0; stroke-linejoin: miter; stroke-miterlimit: 4; fill: rgb(255,255,255); fill-rule: nonzero; opacity: 1;" transform=" translate(309.7594797991205, -323.477)" d="M -296.864 290.954 l -14.839 0.015 c -9.094 19.892 -25.758 56.396 -26.425 58.074 c -1.594 4.007 0.346 6.235 1.171 6.957 h 56.176 l -1.875 -4.804 h -35.137 c -0.044 0.002 -0.107 0.005 -0.184 0.005 c -1.988 0 -3.998 -1.204 -4.006 -3.894 c -0.002 -0.629 -0.004 -1.579 13.149 -30.369 C -303.924 306.194 -298.966 295.487 -296.864 290.954 z" stroke-linecap="round"></path>
</g>
</g>
</g>
</g>
</g>
</svg></svg></g></svg>