<?xml version="1.0" standalone="no"?>
<!DOCTYPE svg PUBLIC "-//W3C//DTD SVG 20010904//EN"
 "http://www.w3.org/TR/2001/REC-SVG-20010904/DTD/svg10.dtd">
<svg version="1.0" xmlns="http://www.w3.org/2000/svg"
 width="288.000000pt" height="288.000000pt" viewBox="0 0 288.000000 288.000000"
 preserveAspectRatio="xMidYMid meet">

<g transform="translate(0.000000,288.000000) scale(0.100000,-0.100000)"
fill="#000000" stroke="none">
<path d="M1302 2869 c-328 -30 -638 -177 -876 -415 -116 -115 -202 -237 -277
-389 -100 -204 -142 -390 -142 -625 0 -235 42 -421 142 -625 145 -297 369
-521 666 -666 204 -100 390 -142 625 -142 235 0 421 42 625 142 423 207 709
589 792 1056 21 119 21 351 0 470 -38 215 -126 427 -248 599 -216 303 -564
521 -929 581 -117 19 -267 25 -378 14z m587 -423 c13 -14 22 -29 20 -35 -2 -5
-54 -64 -116 -129 -108 -115 -113 -122 -127 -186 -9 -37 -16 -71 -16 -75 0 -5
39 -13 88 -20 112 -14 162 -28 169 -48 4 -9 -1 -21 -11 -28 -12 -9 -13 -14 -5
-17 10 -3 6 -65 -15 -274 l-28 -269 -31 -33 c-62 -65 -109 -68 -59 -4 50 64
57 83 36 99 -24 17 -25 17 -68 -12 -34 -23 -36 -23 -36 -5 0 31 -16 24 -30
-12 -16 -40 -56 -85 -92 -104 -27 -14 -28 -13 -28 8 0 13 23 79 50 147 55 135
56 141 36 141 -8 0 -34 -55 -66 -137 -53 -139 -72 -173 -96 -173 -24 0 -25 19
-4 77 11 31 20 63 20 70 0 27 -19 11 -35 -29 -23 -59 -62 -108 -86 -108 -25 0
-25 28 2 91 22 51 19 74 -6 48 -17 -17 -55 -119 -55 -148 0 -38 55 -37 98 2
l22 20 0 -22 c0 -29 24 -37 54 -18 21 14 25 14 40 -1 16 -16 19 -16 56 6 22
12 40 19 40 15 0 -5 -13 -40 -29 -78 -19 -44 -26 -74 -20 -80 14 -14 24 1 64
101 48 121 106 197 135 179 16 -10 12 -19 -25 -68 -19 -25 -35 -53 -35 -61 0
-37 50 -32 100 10 17 15 33 24 36 22 5 -5 -33 -352 -42 -380 -3 -10 -10 -18
-15 -18 -5 0 -9 -7 -9 -17 0 -9 -11 -35 -24 -57 -21 -36 -25 -61 -34 -211 -12
-188 -11 -185 -87 -207 -52 -16 -298 -16 -350 0 -78 23 -77 21 -90 205 -11
149 -15 170 -39 211 -14 24 -26 50 -26 56 0 6 -6 18 -14 25 -8 9 -18 61 -25
142 -6 70 -14 143 -17 161 -5 31 -4 32 28 32 23 0 46 10 71 31 21 17 40 29 42
27 3 -2 -3 -27 -12 -56 -16 -50 -13 -76 7 -56 10 10 80 236 80 260 0 30 -25 7
-40 -37 -18 -54 -100 -142 -127 -137 -15 3 -18 13 -18 63 1 72 34 152 90 214
43 47 66 51 93 16 20 -25 42 -33 42 -16 0 23 -15 43 -42 57 -61 32 -144 -31
-198 -150 -34 -74 -32 -82 -60 184 -23 227 -24 260 -8 260 6 0 3 6 -7 14 -65
47 68 79 394 94 l155 7 22 87 c14 56 31 98 48 119 64 76 222 239 232 239 6 0
21 -11 33 -24z"/>
<path d="M1848 1903 c7 -3 16 -2 19 1 4 3 -2 6 -13 5 -11 0 -14 -3 -6 -6z"/>
<path d="M1078 1893 c7 -3 16 -2 19 1 4 3 -2 6 -13 5 -11 0 -14 -3 -6 -6z"/>
<path d="M1798 1893 c6 -2 18 -2 25 0 6 3 1 5 -13 5 -14 0 -19 -2 -12 -5z"/>
<path d="M1133 1883 c9 -2 25 -2 35 0 9 3 1 5 -18 5 -19 0 -27 -2 -17 -5z"/>
<path d="M1733 1883 c9 -2 23 -2 30 0 6 3 -1 5 -18 5 -16 0 -22 -2 -12 -5z"/>
<path d="M1243 1873 c15 -2 39 -2 55 0 15 2 2 4 -28 4 -30 0 -43 -2 -27 -4z"/>
<path d="M1598 1873 c18 -2 45 -2 60 0 15 2 0 4 -33 4 -33 0 -45 -2 -27 -4z"/>
<path d="M1168 883 c7 -3 16 -2 19 1 4 3 -2 6 -13 5 -11 0 -14 -3 -6 -6z"/>
<path d="M1708 883 c7 -3 16 -2 19 1 4 3 -2 6 -13 5 -11 0 -14 -3 -6 -6z"/>
<path d="M1208 873 c7 -3 16 -2 19 1 4 3 -2 6 -13 5 -11 0 -14 -3 -6 -6z"/>
<path d="M1668 873 c7 -3 16 -2 19 1 4 3 -2 6 -13 5 -11 0 -14 -3 -6 -6z"/>
<path d="M1258 863 c6 -2 18 -2 25 0 6 3 1 5 -13 5 -14 0 -19 -2 -12 -5z"/>
<path d="M1608 863 c6 -2 18 -2 25 0 6 3 1 5 -13 5 -14 0 -19 -2 -12 -5z"/>
<path d="M1343 853 c15 -2 37 -2 50 0 12 2 0 4 -28 4 -27 0 -38 -2 -22 -4z"/>
<path d="M1503 853 c15 -2 37 -2 50 0 12 2 0 4 -28 4 -27 0 -38 -2 -22 -4z"/>
</g>
</svg>
