<svg width="55" height="78" viewBox="0 0 55 78" fill="none" xmlns="http://www.w3.org/2000/svg">
<path d="M55 15L49.9894 71.6934L27.4663 78L5.00533 71.7023L0 15H55Z" fill="#E44D26"/>
<path d="M28 73L45.8098 67.9556L50 20H28V73Z" fill="#F16529"/>
<path d="M17.4092 33.9445H27V27H10L10.1623 28.8631L11.8286 48H27V41.0557H18.0288L17.4092 33.9445Z" fill="#EBEBEB"/>
<path d="M18.8658 51H12L12.9582 62.0119L26.9685 66L27 65.991V58.6943L26.97 58.7025L19.3528 56.5934L18.8658 51Z" fill="#EBEBEB"/>
<path d="M5 0H8.43076V3.63247H11.5691V0H15V11H11.5692V7.31655H8.43091V11H5.00015L5 0Z" fill="black"/>
<path d="M20.1883 3.64776H17V0H27V3.64776H23.8103V11H20.1885L20.1883 3.64776Z" fill="black"/>
<path d="M28 0H31.7151L34.0005 3.86507L36.2835 0H40V11H36.4518V5.5478L34.0005 9.45891H33.9392L31.4862 5.5478V11H28V0Z" fill="black"/>
<path d="M42 0H45.3252V7.36403H50V11H42V0Z" fill="black"/>
<path d="M27 47.8712H35.476L34.677 56.7828L27 58.8513V66L41.111 62.0959L41.2146 60.935L42.8321 42.8451L43 41H27V47.8712Z" fill="white"/>
<path d="M27 33.9829V34H43.3924L43.5285 32.4266L43.8377 28.878L44 27H27V33.9829Z" fill="white"/>
</svg>
