<svg width="71" height="67" viewBox="0 0 71 67" fill="none" xmlns="http://www.w3.org/2000/svg">
<g clip-path="url(#clip0_12911_264)">
<path d="M70.9792 0H0.0208008C0.00931283 0 0 0.00878816 0 0.0196289V66.9804C0 66.9912 0.00931283 67 0.0208008 67H70.9792C70.9907 67 71 66.9912 71 66.9804V0.0196289C71 0.00878816 70.9907 0 70.9792 0Z" fill="#F7DF1E"/>
<path d="M43.5282 48.7C44.8932 50.8958 46.8042 52.4458 49.9436 52.4458C52.6736 52.4458 54.4481 51.1542 54.4481 49.3458C54.4481 47.2792 52.6736 46.5042 49.6706 45.2125L48.0326 44.5667C43.2552 42.6292 40.1157 40.3042 40.1157 35.2667C40.1157 30.6167 43.8012 27 49.6706 27C53.9021 27 56.905 28.4208 58.9525 32.0375L53.9021 35.1375C52.8101 33.2 51.5816 32.425 49.6706 32.425C47.7596 32.425 46.5312 33.5875 46.5312 35.1375C46.5312 36.9458 47.7596 37.7208 50.6261 38.8833L52.2641 39.5292C57.8605 41.8542 61 44.05 61 49.3458C61 54.9 56.359 58 50.0801 58C43.9377 58 39.9792 55.2875 38.0682 51.6708L43.5282 48.7ZM20.3234 49.2167C21.4154 50.8958 22.2344 52.4458 24.5549 52.4458C26.7389 52.4458 28.1039 51.6708 28.1039 48.5708V27.1292H34.6558V48.3125C34.6558 54.7708 30.6973 57.6125 24.8279 57.6125C19.5045 57.6125 16.5015 55.0292 15 51.9292L20.3234 49.2167Z" fill="black"/>
</g>
<defs>
<clipPath id="clip0_12911_264">
<rect width="71" height="67" fill="white"/>
</clipPath>
</defs>
</svg>
