<svg width="200" height="65" viewBox="0 0 200 65" fill="none" xmlns="http://www.w3.org/2000/svg">
<path opacity="0.3" d="M25.3085 3.40329C16.2882 2.07403 7.88846 8.02532 6.51272 16.7204L2.73588 40.5913C1.36014 49.2864 7.53681 57.386 16.5571 58.7152L41.3204 62.3645C50.3406 63.6937 58.7404 57.7422 60.1162 49.0471L63.893 25.1762C65.2688 16.4811 59.0921 8.38178 50.0718 7.05251L25.3085 3.40329Z" fill="#000001"/>
<path d="M22.0635 7C13.7319 7 7 13.4776 7 21.4949L7 43.5049C7 51.5222 13.7319 58 22.0635 58H44.9365C53.2681 58 60 51.5222 60 43.5049V21.4949C60 13.4776 53.2681 7 44.9365 7L22.0635 7Z" fill="#2980B9"/>
<path d="M49.9314 39.5001L44.3537 19.4757C44.3537 19.4757 43.9425 17.9981 42.3682 18L18.2314 18.0249C18.2314 18.0249 16.6571 18.0261 17.0686 19.504L22.3072 38.3117C24.6719 33.4391 27.3366 27.9659 27.5325 27.5626L27.6724 27.2756L34.8976 27.269L34.5509 27.969C32.5709 31.9674 29.9961 37.2194 28.1872 41L48.7682 40.9792C48.7682 40.9792 50.3429 40.977 49.9314 39.5001Z" fill="white"/>
<path d="M32.7275 28L27.8629 28.0048C24.8816 34.4269 19.4186 46.2122 19.2 46.7539C18.6774 48.0476 19.3134 48.7669 19.5838 49H38L37.3853 47.449H25.8664C25.8519 47.4497 25.8313 47.4506 25.8061 47.4506C25.1543 47.4506 24.4954 47.0619 24.4928 46.1935C24.4921 45.9904 24.4915 45.6837 28.8034 36.3889C30.413 32.9202 32.0384 29.4635 32.7275 28Z" fill="white"/>
<path d="M89 28.8757C89 30.3201 88.8308 31.5652 88.4924 32.611C88.1541 33.6568 87.6267 34.5205 86.9104 35.202C86.1897 35.8878 85.2691 36.3935 84.1485 36.7193C83.0323 37.0493 81.6898 37.2143 80.121 37.2143H76.1396V45H72V21H80.266C81.6634 21 82.9049 21.1414 83.9903 21.4243C85.0757 21.7072 85.9898 22.1615 86.7325 22.7873C87.4707 23.4131 88.0332 24.2253 88.4199 25.2239C88.8066 26.2226 89 27.4399 89 28.8757ZM84.6758 28.9078C84.6758 28.0421 84.555 27.3284 84.3133 26.7669C84.0672 26.2055 83.7135 25.764 83.252 25.4425C82.7906 25.1168 82.2193 24.8896 81.5382 24.761C80.857 24.6368 80.077 24.5746 79.1981 24.5746H76.1396V33.6461H78.7367C79.7782 33.6461 80.6769 33.5926 81.4327 33.4854C82.1842 33.3825 82.7994 33.1661 83.2784 32.8361C83.7618 32.506 84.1155 32.0303 84.3397 31.4088C84.5638 30.783 84.6758 29.9494 84.6758 28.9078Z" fill="#000001"/>
<path d="M108 36.8083H95.8959C95.9089 37.7568 96.0043 38.5963 96.1821 39.3267C96.3642 40.0526 96.6482 40.6582 97.0341 41.1436C97.4201 41.629 97.9209 41.9987 98.5366 42.2525C99.148 42.5063 99.9046 42.6333 100.807 42.6333C101.648 42.6333 102.393 42.4863 103.044 42.1924C103.694 41.894 104.295 41.3908 104.846 40.6827L107.74 42.7001C107.389 43.2434 106.996 43.7199 106.563 44.1296C106.129 44.5348 105.626 44.8755 105.054 45.1516C104.481 45.4277 103.829 45.6393 103.096 45.7862C102.367 45.9287 101.535 46 100.598 46C97.6629 46 95.4949 45.1694 94.0943 43.5083C92.6981 41.8428 92 39.389 92 36.147C92 34.6195 92.1496 33.2345 92.4488 31.992C92.748 30.7495 93.2271 29.6829 93.8862 28.7923C94.5453 27.9016 95.4081 27.2135 96.4748 26.7281C97.5371 26.2427 98.8401 26 100.384 26C101.754 26 102.922 26.2093 103.889 26.6279C104.852 27.051 105.637 27.6455 106.244 28.4115C106.855 29.1819 107.3 30.1082 107.577 31.1904C107.859 32.2725 108 33.4683 108 34.7776V36.8083ZM95.9675 33.9626H104.267C104.267 32.3906 103.944 31.1926 103.298 30.3687C102.656 29.5449 101.646 29.1329 100.267 29.1329C99.5642 29.1329 98.9637 29.2376 98.465 29.4469C97.9664 29.6607 97.5523 29.9702 97.2228 30.3754C96.8889 30.7851 96.6222 31.2906 96.4228 31.8918C96.2233 32.493 96.0715 33.1833 95.9675 33.9626Z" fill="#000001"/>
<path d="M114.407 37.169V34.2164H118.342C118.909 34.2164 119.42 34.1853 119.873 34.1229C120.322 34.065 120.701 33.9515 121.009 33.7822C121.317 33.613 121.552 33.3859 121.715 33.1009C121.874 32.8114 121.953 32.4329 121.953 31.9653C121.953 31.4487 121.858 31.0145 121.669 30.6627C121.48 30.3153 121.216 30.037 120.877 29.8277C120.538 29.6183 120.135 29.4692 119.669 29.3801C119.198 29.2866 118.683 29.2398 118.124 29.2398C117.138 29.2398 116.33 29.4246 115.701 29.7943C115.076 30.1594 114.554 30.6671 114.136 31.3173L111.251 29.3534C111.915 28.2222 112.827 27.3805 113.984 26.8283C115.142 26.2761 116.522 26 118.124 26C119.418 26 120.549 26.1403 121.517 26.4208C122.485 26.7059 123.287 27.1022 123.92 27.6099C124.559 28.122 125.034 28.741 125.346 29.4669C125.663 30.1928 125.822 31.0011 125.822 31.8918C125.822 32.876 125.571 33.7199 125.069 34.4235C124.572 35.1271 123.92 35.6281 123.115 35.9265C123.493 36.0735 123.859 36.2783 124.211 36.5411C124.559 36.8038 124.867 37.1222 125.135 37.4963C125.404 37.866 125.615 38.2868 125.769 38.7589C125.923 39.2265 126 39.7297 126 40.2685C126 42.1434 125.335 43.5685 124.006 44.5438C122.673 45.5146 120.659 46 117.965 46C117.063 46 116.253 45.9221 115.536 45.7662C114.818 45.6103 114.178 45.3854 113.614 45.0915C113.047 44.7976 112.549 44.4436 112.122 44.0294C111.695 43.6152 111.321 43.1499 111 42.6333L113.997 40.6493C114.27 41.0234 114.548 41.3418 114.829 41.6045C115.115 41.8673 115.419 42.0833 115.74 42.2525C116.062 42.4217 116.403 42.5442 116.764 42.6199C117.125 42.7001 117.525 42.7401 117.965 42.7401C118.573 42.7401 119.127 42.6823 119.629 42.5665C120.135 42.4551 120.575 42.2837 120.949 42.0521C121.324 41.825 121.614 41.5444 121.821 41.2104C122.028 40.872 122.131 40.4756 122.131 40.0214C122.131 39.1084 121.856 38.4048 121.306 37.9105C120.751 37.4162 119.823 37.169 118.52 37.169H114.407Z" fill="#000001"/>
<path d="M134.758 37.4763V45.4389H131V26.5411H134.758V34.5972H138.496C138.589 33.3324 138.814 32.1746 139.172 31.1236C139.53 30.0726 140.058 29.1686 140.756 28.4115C141.454 27.6544 142.334 27.0644 143.394 26.6413C144.454 26.2138 145.729 26 147.218 26C148.84 26 150.207 26.2538 151.321 26.7615C152.434 27.2737 153.338 27.9773 154.032 28.8724C154.721 29.7675 155.222 30.8274 155.536 32.0521C155.845 33.2768 156 34.6039 156 36.0334C156 37.4407 155.845 38.7544 155.536 39.9746C155.222 41.1948 154.721 42.2481 154.032 43.1343C153.338 44.0249 152.434 44.7241 151.321 45.2318C150.207 45.7439 148.84 46 147.218 46C145.729 46 144.452 45.7862 143.387 45.3587C142.318 44.9356 141.434 44.3456 140.736 43.5885C140.038 42.8314 139.512 41.9319 139.159 40.8898C138.801 39.8521 138.58 38.7143 138.496 37.4763H134.758ZM152.083 36.0334C152.083 34.9423 151.992 33.967 151.811 33.1075C151.634 32.2481 151.35 31.5222 150.956 30.9299C150.563 30.3331 150.059 29.8789 149.445 29.5671C148.831 29.2554 148.089 29.0995 147.218 29.0995C146.348 29.0995 145.603 29.2554 144.985 29.5671C144.366 29.8789 143.86 30.3331 143.467 30.9299C143.074 31.5222 142.786 32.2481 142.605 33.1075C142.429 33.967 142.34 34.9423 142.34 36.0334C142.34 37.0933 142.429 38.0463 142.605 38.8925C142.786 39.7386 143.074 40.46 143.467 41.0568C143.86 41.6491 144.366 42.1055 144.985 42.4262C145.603 42.7424 146.348 42.9005 147.218 42.9005C148.089 42.9005 148.831 42.7424 149.445 42.4262C150.059 42.1055 150.563 41.6491 150.956 41.0568C151.35 40.46 151.634 39.7386 151.811 38.8925C151.992 38.0463 152.083 37.0933 152.083 36.0334Z" fill="#000001"/>
<path d="M179 27V46H175.491V32.017L170.553 41.1509H168.467L163.509 32.017V46H160V27H164.213L169.594 36.4026L174.861 27H179Z" fill="#000001"/>
<path d="M200 36.8083H187.896C187.909 37.7568 188.004 38.5963 188.182 39.3267C188.364 40.0526 188.648 40.6582 189.034 41.1436C189.42 41.629 189.921 41.9987 190.537 42.2525C191.148 42.5063 191.905 42.6333 192.807 42.6333C193.648 42.6333 194.393 42.4863 195.044 42.1924C195.694 41.894 196.295 41.3908 196.846 40.6827L199.74 42.7001C199.389 43.2434 198.996 43.7199 198.563 44.1296C198.129 44.5348 197.626 44.8755 197.054 45.1516C196.481 45.4277 195.829 45.6393 195.096 45.7862C194.367 45.9287 193.535 46 192.598 46C189.663 46 187.495 45.1694 186.094 43.5083C184.698 41.8428 184 39.389 184 36.147C184 34.6195 184.15 33.2345 184.449 31.992C184.748 30.7495 185.227 29.6829 185.886 28.7923C186.545 27.9016 187.408 27.2135 188.475 26.7281C189.537 26.2427 190.84 26 192.384 26C193.754 26 194.922 26.2093 195.889 26.6279C196.852 27.051 197.637 27.6455 198.244 28.4115C198.855 29.1819 199.3 30.1082 199.577 31.1904C199.859 32.2725 200 33.4683 200 34.7776V36.8083ZM187.967 33.9626H196.267C196.267 32.3906 195.944 31.1926 195.298 30.3687C194.656 29.5449 193.646 29.1329 192.267 29.1329C191.564 29.1329 190.964 29.2376 190.465 29.4469C189.966 29.6607 189.55 29.9702 189.216 30.3754C188.887 30.7851 188.622 31.2906 188.423 31.8918C188.223 32.493 188.072 33.1833 187.967 33.9626Z" fill="#000001"/>
</svg>
