<svg width="35" height="35" viewBox="0 0 35 35" fill="none" xmlns="http://www.w3.org/2000/svg">
<path fill-rule="evenodd" clip-rule="evenodd" d="M17.5 35C27.165 35 35 27.165 35 17.5C35 7.83502 27.165 0 17.5 0C7.83502 0 0 7.83502 0 17.5C0 27.165 7.83502 35 17.5 35ZM20.18 13.59L22.38 15.79C20.94 18.62 18.62 20.93 15.79 22.38L13.59 20.18C13.32 19.91 12.92 19.82 12.57 19.94C11.45 20.31 10.24 20.51 9 20.51C8.45 20.51 8 20.96 8 21.51V25C8 25.55 8.45 26 9 26C18.39 26 26 18.39 26 9C26 8.45 25.55 8 25 8H21.5C20.95 8 20.5 8.45 20.5 9C20.5 10.25 20.3 11.45 19.93 12.57C19.82 12.92 19.9 13.31 20.18 13.59Z" fill="#0172AA"/>
</svg>
