<svg width="50" height="55" fill="none" xmlns="http://www.w3.org/2000/svg"><path fill-rule="evenodd" clip-rule="evenodd" d="M0 45.161h12.903v-7.258H0v7.258zm46.774 0H50v-7.258h-3.226v7.258zm-26.613-.003l19.355.003v-7.254l-19.355-.004v7.255zM0 30.645L16.936 8.871H0v21.774zm3.226 0h9.677V17.742L3.226 30.645zm16.935.027l3.37.004-.002 7.227h2.186v-7.222l17.027-21.81h-22.58v21.8zM4.695 4.522l-.173.662c-.231.113-.48.196-.745.25-.265.053-.537.08-.815.08-.861 0-1.565-.233-2.111-.7C.284 4.334 0 3.703 0 2.924c0-.96.307-1.698.922-2.215C1.484.236 2.222 0 3.135 0c.273 0 .552.032.835.096.284.064.541.158.772.28l-.18.793H4.45a1.745 1.745 0 00-.579-.508 1.48 1.48 0 00-.729-.2c-.609 0-1.079.252-1.41.754-.284.43-.425.964-.425 1.6 0 .677.163 1.219.488 1.627.326.407.788.611 1.387.611.246 0 .497-.053.752-.158a2.12 2.12 0 00.658-.419l.102.046zm7.101.885c-.068 0-.182-.005-.343-.016l-.248-.015c-.063 0-.16.005-.291.015-.131.01-.231.016-.3.016V.684c-.278 0-.52.01-.728.027-.208.018-.453.045-.737.081l.028-.188a.995.995 0 00-.004-.331 3.004 3.004 0 01-.024-.135h4.057l-.047.323c0 .052.005.107.016.166.01.059.02.114.031.165a20.165 20.165 0 00-.693-.077 8.277 8.277 0 00-.717-.03v4.722zm8.007-1.395a14 14 0 00-.693-1.232l-.89-1.402a32.596 32.596 0 01-.764-1.24c.078 0 .196.008.354.024.158.015.276.023.355.023.078 0 .197-.008.354-.023.158-.016.276-.024.355-.024.068.139.21.39.425.754.042.067.25.415.622 1.046.252.42.407.687.465.8.126-.19.339-.597.638-1.223.158-.328.37-.787.638-1.377l.386.024.378-.024a96.733 96.733 0 00-1.907 3.638c-.393.795-.648 1.338-.763 1.63-.032 0-.084-.004-.158-.015a1.339 1.339 0 00-.173-.015l-.339.03c.09-.148.237-.429.441-.839.063-.128.155-.314.276-.555zm7.085.81c.231-.518.457-1.036.678-1.553.262-.605.48-1.123.654-1.554a42.3 42.3 0 00.614-1.592c.037 0 .092.005.166.015.073.01.128.016.165.016.042 0 .1-.005.173-.016a1.32 1.32 0 01.166-.015 144.442 144.442 0 001.867 4.7h.378a6.1 6.1 0 00-.028.222c-.008.077-.014.139-.02.185 0 .051.006.123.016.215s.021.16.032.2h-.118c-.095-.113-.258-.186-.489-.219a5.697 5.697 0 00-.803-.05h-2.324c-.363 0-.653.014-.87.042-.219.029-.378.104-.477.227h-.118c.015-.061.026-.123.031-.184.005-.062.008-.139.008-.231 0-.082-.005-.162-.016-.239l-.023-.169h.338zm3.151 0a45.192 45.192 0 00-.579-1.592c-.212-.554-.421-1.102-.626-1.646-.236.57-.457 1.108-.662 1.615a41.18 41.18 0 00-.614 1.623 32.327 32.327 0 001.19.031 29.74 29.74 0 001.291-.03zM36.385.123c.063 0 .16.01.292.03.13.021.23.032.299.032.063 0 .16-.01.291-.031.132-.02.232-.03.3-.03V3.73c.441-.456.96-1.048 1.56-1.776A43.368 43.368 0 0040.56.124h.599v5.283c-.063 0-.16-.005-.291-.016a4.218 4.218 0 00-.308-.015c-.057 0-.152.005-.283.015a4.18 4.18 0 01-.3.016V1.769a59.01 59.01 0 00-1.548 1.807 54.041 54.041 0 00-1.453 1.83h-.591V.124zM50 5.407a4.16 4.16 0 01-.291-.016 4.18 4.18 0 00-.3-.015c-.063 0-.16.005-.291.015-.132.01-.231.016-.3.016V2.953h-.055c-.094.149-.186.298-.276.446-.089.15-.165.282-.228.4l-.945 1.608a5.99 5.99 0 01-.355-.016 6 6 0 00-.354-.015c-.084 0-.205.005-.363.015-.157.01-.273.016-.346.016l.307-.47.528-.8c.373-.568.659-1.022.858-1.36-.383-.083-.68-.236-.89-.462-.226-.241-.338-.549-.338-.923 0-.261.056-.48.169-.658.113-.176.285-.324.516-.442.09-.046.224-.083.406-.111.18-.028.424-.043.728-.043H50v5.269zM48.818.56h-.236c-.278 0-.478.026-.599.077-.194.082-.315.245-.362.49-.026.133-.04.262-.04.383 0 .736.347 1.104 1.04 1.104h.197V.56zM2.797 49.545a1.112 1.112 0 00-.355-.504.906.906 0 00-.572-.181c-.301 0-.524.07-.67.208-.144.14-.217.327-.217.563 0 .284.21.538.629.764.763.41 1.158.625 1.185.645.424.326.636.746.636 1.26 0 .504-.199.919-.596 1.244-.398.326-.91.488-1.54.488-.236 0-.466-.027-.689-.082A2.05 2.05 0 010 53.694c.065-.22.113-.399.145-.536.032-.136.062-.29.089-.464h.153c.059.273.188.485.387.638.198.152.44.228.725.228.269 0 .493-.07.673-.213.18-.141.27-.343.27-.606 0-.336-.207-.614-.62-.834l-1.153-.599c-.42-.31-.629-.732-.629-1.267 0-.478.156-.866.468-1.166.338-.325.803-.488 1.394-.488.269 0 .523.04.762.118.239.079.41.166.511.26a7.362 7.362 0 00-.137.378l-.12.402h-.121zm7.796 4.385a2.77 2.77 0 01-.226-.008c-.23-.02-.357-.031-.378-.031-.092 0-.21.006-.355.02-.145.012-.228.019-.25.019v-4.842c-.284 0-.533.01-.745.027-.212.019-.464.046-.754.083l.028-.193a1.014 1.014 0 00-.004-.338 3 3 0 01-.024-.138h4.15l-.027.193a.993.993 0 00.004.338l.024.138a20.622 20.622 0 00-.71-.079 8.513 8.513 0 00-.733-.031v4.842zm6.362-5.401c.092 0 .21.006.355.02.145.013.228.02.25.02.091 0 .166-.003.225-.009.231-.02.358-.031.38-.031v2.59c0 .2 0 .397.003.59.003.195.023.39.06.587.038.197.082.357.134.48.05.124.146.251.286.382.247.226.553.339.918.339.382 0 .68-.07.895-.213.215-.141.395-.388.54-.74.064-.152.105-.367.12-.645a16.5 16.5 0 00.025-.985V48.53l.322.023.323-.023v2.803c0 .577-.038 1-.113 1.267a1.756 1.756 0 01-.741 1.016 2.024 2.024 0 01-.702.319 3.383 3.383 0 01-.822.098c-.558 0-1.031-.091-1.418-.275-.468-.226-.771-.575-.91-1.047a2.84 2.84 0 01-.098-.469 3.996 3.996 0 01-.032-.5V48.53zm13.027 0c.806 0 1.427.26 1.862.78.381.456.572 1.039.572 1.747 0 .872-.282 1.567-.846 2.087-.537.498-1.233.748-2.087.748h-2.257v-5.362h2.756zm-1.547 4.905h.685c.613 0 1.077-.165 1.394-.496.376-.394.564-1.024.564-1.89 0-.713-.166-1.24-.5-1.582-.31-.32-.762-.48-1.353-.48h-.79v4.448zm9.142-4.905c.092 0 .21.006.355.02.145.013.228.02.25.02.091 0 .166-.003.225-.009.232-.02.358-.031.38-.031v5.401c-.092 0-.167-.003-.226-.008-.231-.02-.358-.031-.38-.031-.09 0-.209.006-.354.02a5.23 5.23 0 01-.25.019v-5.401zm9.248 5.503c-.908 0-1.632-.246-2.172-.74-.54-.493-.81-1.183-.81-2.07 0-.814.276-1.483.83-2.008.58-.551 1.362-.827 2.345-.827 1.042 0 1.827.315 2.353.945.42.504.629 1.123.629 1.858 0 .798-.282 1.465-.846 2-.591.562-1.368.842-2.33.842zM45.18 51.45c0 .577.13 1.058.387 1.44.301.447.734.67 1.298.67.586 0 1.04-.255 1.362-.764.29-.462.435-1.047.435-1.755 0-.583-.129-1.074-.387-1.473-.306-.472-.741-.708-1.305-.708-.575 0-1.013.21-1.314.63-.317.44-.475 1.094-.475 1.96z" fill="#fff"/><path fill-rule="evenodd" clip-rule="evenodd" d="M29.032 30.645h9.678V17.742l-9.678 12.903zm17.742 0H50V8.871h-3.226v21.774z" fill="#fff"/></svg>