<svg width="17" height="15" fill="none" xmlns="http://www.w3.org/2000/svg"><path d="M16.063 11.705c-.208-.581-.833-.969-1.457-1.163l-2.082-.581c-.416-.194-1.248 0-1.665.387l-.832.776C7.32 10.348 5.03 8.41 4.407 5.89l.833-.776c.208-.387.416-1.163.416-1.744L5.03 1.433C4.823 1.045 4.2.463 3.783.27L3.574.076c-.624-.194-1.457 0-1.873.388L.661 1.627c-.209.193-.417.775-.417.775 0 3.295 1.457 6.59 3.955 8.916C6.697 13.643 10.235 15 13.773 15c0 0 .625-.194.833-.388l1.04-.969c.417-.387.625-1.163.417-1.744v-.194z" fill="#fff"/></svg>