<?xml version="1.0" encoding="utf-8"?>
<svg width="9.820282px" height="16.388184px" viewBox="0 0 9.820282 16.388184" version="1.1" xmlns:xlink="http://www.w3.org/1999/xlink" xmlns="http://www.w3.org/2000/svg">
  <path d="M0.462463 9.32941C0.545258 9.4122 0.636169 9.48218 0.730774 9.54309L7.11087 15.9232C7.42078 16.2333 7.82697 16.3882 8.23315 16.3882C8.63925 16.3882 9.04526 16.2333 9.35538 15.9232C9.97525 15.3033 9.97525 14.298 9.35538 13.6783L3.85767 8.17978L9.32767 2.70978C9.94766 2.08948 9.94766 1.08456 9.32767 0.464874C8.70776 -0.15506 7.70276 -0.154724 7.08276 0.464508L0.730865 6.8161C0.636261 6.87689 0.545349 6.9469 0.46286 7.02979C0.145966 7.34668 -0.00692749 7.7641 0.000274658 8.17969C-0.00723267 8.59509 0.145355 9.01221 0.462463 9.32941L0.462463 9.32941Z" id="Фигура" fill="#FFFFFF" fill-rule="evenodd" stroke="none" />
</svg>