<svg width="203" height="42" fill="none" xmlns="http://www.w3.org/2000/svg"><g clip-path="url(#clip0_23_121)" fill="#000"><path d="M51.831.036v6.708h-3.88v-3.87l-43.915.108v3.762H0V.036h51.831zM44.586 20.87v5.953h3.695v-11.61H33.262v23.44l14.673-.04v-4.184h4.051V42H0v-7.57h3.897v4.3l14.827-.04V15.213H3.706v11.61H7.4v-5.954h4.961v9.685H0V10.62h23.35v28.06l5.287-.015V10.619h23.35v19.935H39.623V20.87h4.962zm19.624 3.212c.294.013.588-.027.868-.118a.903.903 0 00.465-.38c.113-.194.178-.412.191-.636 0-.252.036-.55.036-.893V.965h-5.995a4.07 4.07 0 00-2.217.513c-.534.342-.834.63-.9.862h-.206l.45-2.135h21.964l.414 2.135h-.207c-.046-.23-.356-.513-.935-.862A4.678 4.678 0 0075.75.965h-5.716V22.07c-.03.523.046 1.046.222 1.54.15.334.595.513 1.334.513v.21h-7.38v-.25zM83.507 2.443a2.898 2.898 0 00-.31-1.653 1.585 1.585 0 00-1.25-.38V.206h7.38v.206a1.587 1.587 0 00-1.246.38 2.898 2.898 0 00-.31 1.652V22.07c-.063.57.045 1.144.31 1.653a1.58 1.58 0 001.245.375v.21h-7.38v-.21a1.593 1.593 0 001.251-.375 2.898 2.898 0 00.31-1.653V2.443zm14.445 21.09h13.758a4.712 4.712 0 002.476-.565 1.976 1.976 0 001.033-1.154h.207l-.517 2.479h-22.46v-.21L109.047.964H96.986a4.678 4.678 0 00-2.46.575 1.89 1.89 0 00-1.034 1.17h-.207L93.802.23h20.719v.18L97.952 23.533zM131.039 0c1.957-.02 3.902.294 5.752.929a14.298 14.298 0 014.574 2.566 11.82 11.82 0 013.033 3.922 11.345 11.345 0 011.091 4.953 11.076 11.076 0 01-1.075 4.85 11.552 11.552 0 01-2.961 3.839 13.935 13.935 0 01-4.497 2.55 17.407 17.407 0 01-5.752.914 17.542 17.542 0 01-5.793-.913 13.724 13.724 0 01-4.559-2.566 11.736 11.736 0 01-2.977-3.87 11.095 11.095 0 01-1.074-4.892 11.228 11.228 0 011.074-4.901 11.776 11.776 0 012.962-3.89 13.98 13.98 0 014.506-2.567A16.842 16.842 0 01131.039 0zm0 .652a9.882 9.882 0 00-4.016.795 8.46 8.46 0 00-3.101 2.284 10.31 10.31 0 00-1.953 3.65 16.088 16.088 0 00-.672 4.835 15.817 15.817 0 00.692 4.85 10.328 10.328 0 001.975 3.665 8.616 8.616 0 003.1 2.304 10.856 10.856 0 008.197 0 8.38 8.38 0 003.101-2.268 10.346 10.346 0 001.943-3.593 15.62 15.62 0 00.672-4.763 15.923 15.923 0 00-.692-4.887 10.713 10.713 0 00-1.99-3.7 8.907 8.907 0 00-3.137-2.356 9.973 9.973 0 00-4.119-.816zm38.631 23.641a14.09 14.09 0 01-2.113-.139 5.64 5.64 0 01-1.613-.482 6.16 6.16 0 01-1.333-.894 8.685 8.685 0 01-1.246-1.411l-9.302-12.318V22.07c0 .847.103 1.401.315 1.653a1.553 1.553 0 001.245.375v.21h-7.364v-.21a1.56 1.56 0 001.245-.375c.212-.252.316-.806.316-1.653V2.443c0-.847-.104-1.401-.316-1.653a1.548 1.548 0 00-1.245-.38V.206h11.778c1.371-.01 2.741.111 4.088.365a11.86 11.86 0 013.137 1.026 5.65 5.65 0 011.99 1.596 3.41 3.41 0 01.692 2.1 3.517 3.517 0 01-.584 1.96 5.243 5.243 0 01-1.633 1.54 8.48 8.48 0 01-2.475 1.027 12.84 12.84 0 01-3.137.359 20.626 20.626 0 01-3.809-.38 15.366 15.366 0 01-3.499-1.026l.625.826a4.056 4.056 0 001.68 1.257c.646.262 1.333.514 2.067.79a16.28 16.28 0 012.238 1.027 6.975 6.975 0 012.145 1.981l4.341 5.877a11.834 11.834 0 002.548 2.618c.685.55 1.528.874 2.408.924v.21l-3.189.01zM154.078 7.57c.361.26.758.468 1.178.615.507.192 1.025.353 1.551.483.568.139 1.132.246 1.7.328.522.078 1.049.117 1.577.118a8.95 8.95 0 001.938-.22 6.312 6.312 0 001.86-.683 4.008 4.008 0 001.354-1.252c.36-.571.54-1.236.517-1.91a3.133 3.133 0 00-.569-1.909 4.084 4.084 0 00-1.627-1.257 9.227 9.227 0 00-2.585-.688 24.684 24.684 0 00-3.343-.205h-3.572l.021 6.58zm40.642 16.512a2.47 2.47 0 001.034-.17.853.853 0 00.45-.482c.067-.23.067-.473 0-.703a4.126 4.126 0 00-.347-.847l-3.364-6.395H180.27l-3.395 6.364a4.54 4.54 0 00-.362.842 1.356 1.356 0 00-.052.703.793.793 0 00.362.514c.272.14.578.204.884.184v.21h-4.135v-.21c.28.001.552-.089.775-.256a3.77 3.77 0 00.693-.637c.216-.243.413-.502.589-.775.153-.223.288-.458.403-.703L187.604 0h1.033l11.742 21.88c.199.397.42.783.662 1.155.158.244.352.463.574.652.174.15.381.257.604.313.256.06.518.087.781.082v.21h-8.269l-.011-.21zm-2.635-9.357L186.4 3.947l-5.747 10.778h11.432zM71.393 41.01a8.32 8.32 0 01-3.055.564 5.04 5.04 0 01-3.69-1.355 5.385 5.385 0 01-1.442-3.911c0-2.88 1.907-5.328 5.458-5.328a6.025 6.025 0 012.434.462l-.248.6a4.944 4.944 0 00-2.233-.446c-2.868 0-4.651 1.863-4.651 4.681 0 2.926 1.721 4.681 4.48 4.681a4.763 4.763 0 002.187-.37v-3.674h-2.414v-.6h3.163l.01 4.695zm4.388-3.188l-1.287 3.634h-.76l3.789-10.378h.713l3.767 10.378h-.76l-1.317-3.634H75.78zm3.907-.616l-1.271-3.464a15.696 15.696 0 01-.517-1.833h-.031c-.155.6-.326 1.14-.543 1.802l-1.287 3.495h3.65zm4.869-6.128h.744v9.752h4.651v.616h-5.395V31.078zm7.901 0h.75v9.752h4.65v.616h-5.4V31.078zm12.828 5.22h-4.171v4.542h4.652v.616h-5.396V31.078h5.168v.616h-4.419v3.988h4.171l-.005.616zm3.245-5.082a11.887 11.887 0 012.264-.215c1.364 0 2.233.292 2.822.862a2.6 2.6 0 01.728 1.848 2.742 2.742 0 01-.562 1.71 2.779 2.779 0 01-1.505 1v.02c.837.262 1.365 1.027 1.613 2.202.158.959.418 1.898.775 2.803h-.76a13.955 13.955 0 01-.667-2.526c-.325-1.493-.976-2.17-2.356-2.232h-1.623v4.758h-.729v-10.23zm.75 4.881h1.659c1.607 0 2.661-.893 2.661-2.263 0-1.586-1.178-2.233-2.822-2.233a6.97 6.97 0 00-1.498.139v4.357zm10.268 5.359v-4.501l-3.318-5.877h.822l1.721 3.08c.445.816.817 1.493 1.189 2.232h.031c.31-.693.744-1.416 1.209-2.248l1.783-3.08h.822l-3.52 5.893v4.48l-.739.02z"/></g><defs><clipPath id="clip0_23_121"><path fill="#fff" d="M0 0h203v42H0z"/></clipPath></defs></svg>