<svg width="228" height="48" fill="none" xmlns="http://www.w3.org/2000/svg"><g clip-path="url(#clip0_12_4)" fill="#fff"><path d="M58.215.041v7.667h-4.36V3.285l-49.322.123v4.3H0V.04h58.215zM50.077 23.85v6.805h4.15V17.386H37.359v26.79l16.479-.047v-4.781h4.55V48H0v-8.652h4.377v4.916l16.653-.047v-26.83H4.162v13.268h4.15V23.85h5.573v11.07H0V12.135h26.225v32.069l5.938-.018v-32.05H58.39v22.782H44.504V23.851h5.573zm22.04 3.672c.33.016.66-.03.975-.134a1.02 1.02 0 00.523-.435c.127-.222.2-.47.214-.727 0-.287.041-.628.041-1.02V1.102h-6.733a4.507 4.507 0 00-2.49.586c-.6.391-.937.72-1.01.986h-.233l.505-2.44h24.67l.464 2.44h-.232c-.052-.264-.4-.587-1.05-.986a5.179 5.179 0 00-2.682-.586h-6.42v24.12a4.548 4.548 0 00.25 1.76c.168.381.667.586 1.497.586v.24h-8.289v-.287zm21.674-24.73a3.363 3.363 0 00-.348-1.889A1.771 1.771 0 0092.038.47V.235h8.289v.234a1.753 1.753 0 00-1.399.434 3.362 3.362 0 00-.348 1.89v22.43c-.07.65.051 1.307.348 1.889a1.764 1.764 0 001.399.428v.24h-8.289v-.24a1.757 1.757 0 001.405-.428 3.363 3.363 0 00.348-1.889V2.793zm16.224 24.103h15.452a5.213 5.213 0 002.78-.645 2.225 2.225 0 001.161-1.32h.232l-.58 2.833h-25.227v-.24l18.644-26.42h-13.548a5.182 5.182 0 00-2.763.657 2.141 2.141 0 00-1.16 1.337h-.233l.581-2.833h23.271v.205l-18.61 26.426zM147.176 0a18.979 18.979 0 016.461 1.062 15.976 15.976 0 015.137 2.933 13.477 13.477 0 013.407 4.481 13.158 13.158 0 011.225 5.66 12.852 12.852 0 01-1.207 5.544 13.185 13.185 0 01-3.327 4.387 15.578 15.578 0 01-5.05 2.916 19.245 19.245 0 01-6.46 1.044 19.396 19.396 0 01-6.507-1.044 15.352 15.352 0 01-5.12-2.933 13.36 13.36 0 01-3.343-4.423 12.881 12.881 0 01-1.208-5.59 13.024 13.024 0 011.208-5.602 13.425 13.425 0 013.326-4.446 15.623 15.623 0 015.061-2.933A18.614 18.614 0 01147.176 0zm0 .745c-1.55-.02-3.087.29-4.51.91a9.512 9.512 0 00-3.483 2.61 11.867 11.867 0 00-2.194 4.17 18.74 18.74 0 00-.755 5.526 18.373 18.373 0 00.778 5.543 11.86 11.86 0 002.218 4.188 9.696 9.696 0 003.482 2.634 12 12 0 009.207 0 9.425 9.425 0 003.482-2.593 11.873 11.873 0 002.183-4.106c.526-1.765.781-3.6.754-5.443a18.512 18.512 0 00-.777-5.585 12.319 12.319 0 00-2.235-4.229 10.02 10.02 0 00-3.524-2.692 11.031 11.031 0 00-4.626-.933zm43.39 27.018a15.52 15.52 0 01-2.374-.158 6.247 6.247 0 01-1.811-.552 6.934 6.934 0 01-1.498-1.02 9.902 9.902 0 01-1.398-1.614l-10.449-14.078v14.882c0 .968.116 1.601.354 1.889a1.725 1.725 0 001.399.428v.24h-8.271v-.24a1.725 1.725 0 001.398-.428c.238-.288.355-.921.355-1.889V2.793c0-.969-.117-1.602-.355-1.89a1.733 1.733 0 00-1.398-.434V.235h13.228a23.401 23.401 0 014.592.416c1.223.223 2.409.618 3.523 1.173a6.362 6.362 0 012.235 1.825c.514.69.788 1.534.778 2.399a4.078 4.078 0 01-.656 2.24 5.939 5.939 0 01-1.834 1.76 9.437 9.437 0 01-2.781 1.173 14.177 14.177 0 01-3.523.411 22.773 22.773 0 01-4.278-.434 17.035 17.035 0 01-3.93-1.173l.702.944a4.568 4.568 0 001.887 1.437c.725.3 1.498.587 2.322.904.866.325 1.706.718 2.513 1.173a7.893 7.893 0 012.409 2.264l4.876 6.716a13.415 13.415 0 002.862 2.992c.77.63 1.716.999 2.705 1.056v.24l-3.582.012zm-17.512-19.11c.405.297.851.534 1.323.703a15.03 15.03 0 001.741.551c.639.159 1.272.282 1.91.376.586.088 1.178.133 1.771.135a9.88 9.88 0 002.176-.252 7.005 7.005 0 002.09-.78 4.535 4.535 0 001.521-1.432 3.897 3.897 0 00.58-2.182 3.633 3.633 0 00-.638-2.182 4.6 4.6 0 00-1.829-1.437 10.217 10.217 0 00-2.902-.786 27.274 27.274 0 00-3.756-.235h-4.011l.024 7.52zm45.647 18.869a2.73 2.73 0 001.161-.193.97.97 0 00.505-.552 1.464 1.464 0 000-.803 4.8 4.8 0 00-.389-.968l-3.779-7.309h-13.728l-3.814 7.274a5.225 5.225 0 00-.406.962 1.568 1.568 0 00-.058.803.897.897 0 00.406.587c.306.16.649.234.993.211v.24h-4.644v-.24c.314.001.62-.102.871-.293.288-.209.549-.453.778-.727.243-.278.464-.574.661-.886.173-.255.324-.524.453-.804L210.708 0h1.161l13.188 25.006c.223.453.471.894.743 1.32a3.4 3.4 0 00.644.745c.196.17.428.293.679.358.287.068.582.1.877.093v.24h-9.288l-.011-.24zM215.74 16.83l-6.385-12.318-6.454 12.318h12.839zM80.185 46.868a9.202 9.202 0 01-3.43.645 5.57 5.57 0 01-2.23-.346 5.615 5.615 0 01-1.915-1.202 6.207 6.207 0 01-1.252-2.072 6.254 6.254 0 01-.368-2.398c0-3.29 2.142-6.089 6.13-6.089a6.666 6.666 0 012.734.528l-.279.686a5.47 5.47 0 00-2.507-.51c-3.222 0-5.225 2.13-5.225 5.35 0 3.343 1.933 5.35 5.033 5.35a5.268 5.268 0 002.455-.423v-4.2h-2.71v-.686h3.552l.012 5.367zm4.928-3.643l-1.445 4.153h-.854l4.255-11.86h.801l4.232 11.86h-.853l-1.48-4.153h-4.656zm4.388-.704l-1.428-3.96a18.164 18.164 0 01-.58-2.093h-.035a32.83 32.83 0 01-.61 2.059l-1.445 3.994h4.098zm5.469-7.003h.836v11.145h5.224v.704h-6.06v-11.85zm8.875 0h.841v11.145h5.225v.704h-6.066v-11.85zm14.407 5.965h-4.685v5.191h5.224v.704h-6.06v-11.86h5.805v.703h-4.963v4.558h4.684l-.005.704zm3.645-5.807a13.14 13.14 0 012.543-.247c1.532 0 2.507.335 3.169.986.538.567.832 1.326.819 2.112a3.18 3.18 0 01-.632 1.953 3.116 3.116 0 01-1.69 1.144v.023c.94.3 1.532 1.173 1.811 2.517.178 1.095.47 2.169.871 3.202h-.854a16.127 16.127 0 01-.749-2.886c-.365-1.706-1.097-2.48-2.646-2.551h-1.823v5.437h-.819v-11.69zm.842 5.578h1.863c1.806 0 2.99-1.02 2.99-2.587 0-1.812-1.324-2.551-3.17-2.551a7.706 7.706 0 00-1.683.158v4.98zm11.533 6.124v-5.144l-3.726-6.716h.923l1.933 3.52c.499.932.917 1.706 1.335 2.55h.035c.348-.791.836-1.618 1.358-2.569l2.003-3.519h.922l-3.952 6.734v5.12l-.831.024z"/></g><defs><clipPath id="clip0_12_4"><path fill="#fff" d="M0 0h228v48H0z"/></clipPath></defs></svg>