<svg width="100" height="100" viewBox="0 0 100 100" fill="none" xmlns="http://www.w3.org/2000/svg">
<circle cx="50" cy="50" r="50" fill="#D9FADD"/>
<path d="M54.7992 40.3576C54.7992 42.2414 54.4411 43.977 53.8392 45.367C54.1897 45.613 54.5154 45.8914 54.8123 46.1984L63.3364 37.6683C59.9712 34.2607 55.3118 32.1368 50.156 32.0947C52.7243 32.1369 54.7992 35.8193 54.7992 40.3576Z" fill="#D9FADD"/>
<path d="M39.1882 54.8838C40.5192 53.5518 41.9987 52.578 43.4064 52.021C43.3401 51.6425 43.3035 51.2536 43.3035 50.8561C43.3035 50.8187 43.3058 50.7817 43.3063 50.7444H31.2514C31.2512 50.7818 31.25 50.8189 31.25 50.8562C31.25 55.9827 33.3053 60.6282 36.6353 64.0147C34.8455 62.1687 35.98 58.0944 39.1882 54.8838Z" fill="#D9FADD"/>
<path d="M45.2009 61.3546C45.2009 59.4708 45.559 57.7351 46.1609 56.3452C45.8104 56.0992 45.4847 55.8208 45.1878 55.5137L36.6637 64.0439C40.0288 67.4515 44.6883 69.5754 49.8441 69.6175C47.2758 69.5754 45.2009 65.893 45.2009 61.3546Z" fill="#D9FADD"/>
<path d="M45.9752 40.0367C47.3063 41.3687 48.2793 42.8492 48.8361 44.2579C49.2143 44.1916 49.6029 44.1549 50.0001 44.1549C50.0376 44.1549 50.0745 44.1572 50.1118 44.1578V32.0942C50.0744 32.094 50.0374 32.0928 50 32.0928C44.8772 32.0928 40.235 34.1496 36.8508 37.4819C38.6956 35.6909 42.7669 36.8262 45.9752 40.0367Z" fill="#D9FADD"/>
<path d="M39.5089 46.0536C41.3913 46.0536 43.1257 46.412 44.5147 47.0143C44.7605 46.6636 45.0388 46.3375 45.3456 46.0406L36.8215 37.5104C33.4163 40.8779 31.2939 45.5407 31.2518 50.7001C31.294 48.13 34.9738 46.0536 39.5089 46.0536Z" fill="#D9FADD"/>
<path d="M60.491 55.6587C58.6086 55.6587 56.8741 55.3003 55.4852 54.698C55.2394 55.0488 54.961 55.3747 54.6543 55.6718L63.1784 64.2019C66.5836 60.8344 68.706 56.1716 68.748 51.0122C68.7059 53.5823 65.0261 55.6587 60.491 55.6587Z" fill="#D9FADD"/>
<path d="M60.8118 46.8285C59.4807 48.1605 58.0012 49.1343 56.5935 49.6914C56.6598 50.0699 56.6964 50.4587 56.6964 50.8563C56.6964 50.8937 56.6942 50.9306 56.6936 50.968H68.7486C68.7488 50.9306 68.75 50.8936 68.75 50.8563C68.75 45.7298 66.6947 41.0844 63.3648 37.6978C65.1544 39.5438 64.02 43.618 60.8118 46.8285Z" fill="#D9FADD"/>
<path d="M54.0248 61.6757C52.6938 60.3437 51.7206 58.8631 51.164 57.4544C50.7858 57.5208 50.3972 57.5574 49.9999 57.5574C49.9625 57.5574 49.9256 57.5552 49.8883 57.5546V69.6181C49.9256 69.6183 49.9626 69.6195 49.9999 69.6195C55.1228 69.6195 59.765 67.5628 63.1491 64.2304C61.3045 66.0214 57.2331 64.8862 54.0248 61.6757Z" fill="#D9FADD"/>
<path d="M60.4911 55.6587C65.0524 55.6587 68.75 53.5585 68.75 50.9678H56.6935C56.6708 52.3547 56.2275 53.6385 55.4851 54.698C56.8742 55.3003 58.6085 55.6587 60.4911 55.6587Z" fill="#C3FF17"/>
<path d="M60.8119 46.8285C64.0372 43.6009 65.1678 39.4993 63.3373 37.6675L54.8123 46.1986C55.722 47.1396 56.3579 48.3463 56.5936 49.6913C58.0012 49.1342 59.4808 48.1605 60.8119 46.8285Z" fill="#C3FF17"/>
<path d="M54.7991 40.3576C54.7991 35.793 52.7004 32.0928 50.1116 32.0928V44.1578C51.4974 44.1806 52.7803 44.6242 53.8391 45.3671C54.441 43.9771 54.7991 42.2414 54.7991 40.3576Z" fill="#C3FF17"/>
<path d="M45.9752 40.0367C42.7499 36.8091 38.6512 35.6776 36.8207 37.5095L45.3457 46.0405C46.286 45.1302 47.4918 44.4938 48.8359 44.2579C48.2793 42.8492 47.3062 41.3687 45.9752 40.0367Z" fill="#C3FF17"/>
<path d="M39.5089 46.0536C34.9476 46.0536 31.25 48.1538 31.25 50.7445H43.3064C43.3292 49.3577 43.7725 48.0738 44.5148 47.0143C43.1258 46.412 41.3914 46.0536 39.5089 46.0536Z" fill="#C3FF17"/>
<path d="M39.1882 54.8838C35.9629 58.1114 34.8323 62.213 36.6628 64.0448L45.1879 55.5138C44.2782 54.5727 43.6423 53.3662 43.4066 52.0211C41.9989 52.5781 40.5193 53.5518 39.1882 54.8838Z" fill="#C3FF17"/>
<path d="M45.2009 61.3546C45.2009 65.9192 47.2996 69.6195 49.8884 69.6195V57.5544C48.5026 57.5317 47.2197 57.0881 46.1609 56.3451C45.5591 57.7352 45.2009 59.4708 45.2009 61.3546Z" fill="#C3FF17"/>
<path d="M54.0248 61.6757C57.2501 64.9032 61.3487 66.0347 63.1793 64.2028L54.6543 55.6717C53.7139 56.5821 52.5082 57.2184 51.1641 57.4543C51.7207 58.863 52.6937 60.3437 54.0248 61.6757Z" fill="#C3FF17"/>
<path d="M50.0001 44.1548C46.3018 44.1548 43.3037 47.155 43.3037 50.8561C43.3037 54.5571 46.3018 57.5572 50.0001 57.5572C53.6984 57.5572 56.6965 54.5571 56.6965 50.8561C56.6965 47.1551 53.6984 44.1548 50.0001 44.1548Z" fill="#D9FADD"/>
<path d="M50.0002 53.0898C51.233 53.0898 52.2323 52.0897 52.2323 50.8561C52.2323 49.6224 51.233 48.6224 50.0002 48.6224C48.7674 48.6224 47.7681 49.6224 47.7681 50.8561C47.7681 52.0897 48.7674 53.0898 50.0002 53.0898Z" fill="#C3FF17"/>
<path d="M70.1172 25.8384H29.8828C27.1904 25.8384 25 28.0304 25 30.7247V70.9876C25 73.6819 27.1904 75.8739 29.8828 75.8739H70.1172C72.8096 75.8739 75 73.6819 75 70.9876V30.7247C75 28.0304 72.8096 25.8384 70.1172 25.8384ZM73.0469 70.9876C73.0469 72.6042 71.7326 73.9194 70.1172 73.9194H29.8828C28.2674 73.9194 26.9531 72.6042 26.9531 70.9876V30.7247C26.9531 29.1081 28.2674 27.7929 29.8828 27.7929H70.1172C71.7326 27.7929 73.0469 29.1081 73.0469 30.7247V70.9876Z" fill="#5CCD6A"/>
<path d="M70.0195 66.0036C69.4803 66.0036 69.043 66.4412 69.043 66.9809C69.043 68.5974 67.7287 69.9126 66.1133 69.9126C65.574 69.9126 65.1367 70.3502 65.1367 70.8899C65.1367 71.4295 65.574 71.8671 66.1133 71.8671C68.8057 71.8671 70.9961 69.6752 70.9961 66.9809C70.9961 66.4412 70.5588 66.0036 70.0195 66.0036Z" fill="#5CCD6A"/>
<path d="M66.1133 29.8452C65.574 29.8452 65.1367 30.2828 65.1367 30.8224C65.1367 31.3621 65.574 31.7997 66.1133 31.7997C67.7287 31.7997 69.043 33.1149 69.043 34.7314C69.043 35.2711 69.4803 35.7087 70.0195 35.7087C70.5588 35.7087 70.9961 35.2711 70.9961 34.7314C70.9961 32.0371 68.8057 29.8452 66.1133 29.8452Z" fill="#5CCD6A"/>
<path d="M29.9805 35.7087C30.5198 35.7087 30.957 35.2711 30.957 34.7314C30.957 33.1149 32.2713 31.7997 33.8867 31.7997C34.4261 31.7997 34.8633 31.3621 34.8633 30.8224C34.8633 30.2828 34.4261 29.8452 33.8867 29.8452C31.1943 29.8452 29.0039 32.0371 29.0039 34.7314C29.0039 35.2711 29.4411 35.7087 29.9805 35.7087Z" fill="#5CCD6A"/>
<path d="M33.8867 69.9126C32.2713 69.9126 30.957 68.5974 30.957 66.9809C30.957 66.4412 30.5198 66.0036 29.9805 66.0036C29.4411 66.0036 29.0039 66.4412 29.0039 66.9809C29.0039 69.6752 31.1943 71.8671 33.8867 71.8671C34.4261 71.8671 34.8633 71.4295 34.8633 70.8899C34.8633 70.3502 34.4261 69.9126 33.8867 69.9126Z" fill="#5CCD6A"/>
<path d="M66.1133 68.0558C66.7066 68.0558 67.1875 67.5746 67.1875 66.9809C67.1875 66.3872 66.7066 65.9059 66.1133 65.9059C65.52 65.9059 65.0391 66.3872 65.0391 66.9809C65.0391 67.5746 65.52 68.0558 66.1133 68.0558Z" fill="#5CCD6A"/>
<path d="M33.9844 68.0558C34.5776 68.0558 35.0586 67.5746 35.0586 66.9809C35.0586 66.3872 34.5776 65.9059 33.9844 65.9059C33.3911 65.9059 32.9102 66.3872 32.9102 66.9809C32.9102 67.5746 33.3911 68.0558 33.9844 68.0558Z" fill="#5CCD6A"/>
<path d="M66.1133 35.8064C66.7066 35.8064 67.1875 35.3251 67.1875 34.7314C67.1875 34.1377 66.7066 33.6564 66.1133 33.6564C65.52 33.6564 65.0391 34.1377 65.0391 34.7314C65.0391 35.3251 65.52 35.8064 66.1133 35.8064Z" fill="#5CCD6A"/>
<path d="M33.9844 35.8064C34.5776 35.8064 35.0586 35.3251 35.0586 34.7314C35.0586 34.1377 34.5776 33.6564 33.9844 33.6564C33.3911 33.6564 32.9102 34.1377 32.9102 34.7314C32.9102 35.3251 33.3911 35.8064 33.9844 35.8064Z" fill="#5CCD6A"/>
<path d="M63.9542 64.7961C67.4605 61.2813 69.6521 56.4538 69.7232 51.1235C69.7254 51.0718 69.7267 51.0199 69.7267 50.9678C69.7267 50.9602 69.7257 50.953 69.7255 50.9454C69.7256 50.9155 69.7266 50.8859 69.7266 50.8561C69.7266 45.5675 67.6372 40.7582 64.2415 37.2107C64.1737 37.1302 64.1029 37.0517 64.0276 36.9764C63.9968 36.9456 63.9639 36.9181 63.9301 36.8922C60.4178 33.3833 55.5937 31.1901 50.267 31.119C50.2153 31.1168 50.1635 31.1155 50.1114 31.1155C50.1038 31.1155 50.0966 31.1165 50.0891 31.1167C50.0594 31.1165 50.0298 31.1155 50 31.1155C44.7166 31.1155 39.912 33.2052 36.3673 36.6015C36.2856 36.6703 36.2063 36.7422 36.1302 36.8184C36.0998 36.8489 36.0725 36.8816 36.0466 36.9155C32.5398 40.4304 30.348 45.258 30.277 50.5887C30.2748 50.6404 30.2735 50.6923 30.2735 50.7444C30.2735 50.752 30.2745 50.7593 30.2747 50.7668C30.2744 50.7967 30.2734 50.8263 30.2734 50.8561C30.2734 56.1446 32.3627 60.9538 35.7583 64.5014C35.8261 64.582 35.897 64.6605 35.9723 64.7358C36.0032 64.7668 36.0361 64.7942 36.0699 64.8202C39.5822 68.329 44.4062 70.5221 49.7328 70.5933C49.7845 70.5954 49.8363 70.5967 49.8884 70.5967C49.896 70.5967 49.9033 70.5957 49.9108 70.5955C49.9406 70.5957 49.9702 70.5967 50 70.5967C55.2882 70.5967 60.0967 68.5031 63.6424 65.1013C63.7204 65.0352 63.7969 64.9669 63.8699 64.8937C63.9008 64.8628 63.9282 64.8299 63.9542 64.7961ZM36.8414 38.9123L43.5534 45.6291C42.3381 45.274 40.9681 45.0763 39.5089 45.0763C36.7715 45.0763 34.3479 45.7721 32.6709 46.8974C33.3609 43.871 34.8241 41.1358 36.8414 38.9123ZM44.2802 50.8561C44.2802 47.7 46.8461 45.1322 50 45.1322C53.1539 45.1322 55.7198 47.7 55.7198 50.8561C55.7198 54.0123 53.1539 56.58 50 56.58C46.8461 56.58 44.2802 54.0123 44.2802 50.8561ZM48.9118 58.456V68.3578C48.373 68.0451 47.858 67.4832 47.4231 66.7163C46.6198 65.3001 46.1774 63.3958 46.1774 61.3547C46.1774 60.0796 46.3509 58.8588 46.6763 57.7762C47.37 58.1112 48.122 58.3432 48.9118 58.456ZM42.7607 53.3972C43.023 54.1432 43.396 54.8375 43.8621 55.4584L36.8638 62.4616C36.7038 61.8593 36.7366 61.0976 36.971 60.2477C37.4038 58.6778 38.4364 57.0182 39.8787 55.5749C40.78 54.673 41.7654 53.9319 42.7607 53.3972ZM42.4056 49.7672H32.5107C32.8232 49.228 33.3848 48.7126 34.151 48.2774C35.5663 47.4735 37.4691 47.0308 39.5089 47.0308C40.7832 47.0308 42.003 47.2046 43.0846 47.5305C42.75 48.2247 42.5182 48.977 42.4056 49.7672ZM38.4026 37.7106C39.0047 37.5505 39.7657 37.5832 40.6152 37.8179C42.184 38.2509 43.8423 39.2843 45.2846 40.7276C46.1858 41.6295 46.9258 42.6158 47.4604 43.6117C46.715 43.8742 46.0214 44.2473 45.401 44.7138L38.4026 37.7106ZM51.0882 43.2563V33.3544C51.627 33.6672 52.142 34.2291 52.5769 34.9959C53.3802 36.4122 53.8226 38.3164 53.8226 40.3576C53.8226 41.6328 53.6488 42.8534 53.3232 43.9358C52.6296 43.601 51.8778 43.369 51.0882 43.2563ZM54.599 56.9985L61.5974 64.0017C60.9953 64.1618 60.2341 64.129 59.3848 63.8944C57.816 63.4614 56.1577 62.4279 54.7154 60.9846C53.8142 60.0827 53.0746 59.0963 52.5399 58.1003C53.2852 57.8378 53.9787 57.4647 54.599 56.9985ZM57.5944 51.9451H67.4893C67.1768 52.4842 66.6152 52.9996 65.8489 53.4348C64.4337 54.2387 62.5309 54.6814 60.4911 54.6814C59.2169 54.6814 57.9971 54.5077 56.9152 54.182C57.25 53.4879 57.4818 52.7354 57.5944 51.9451ZM56.138 46.2538L63.1362 39.2506C63.2962 39.8529 63.2634 40.6148 63.029 41.4647C62.5963 43.0346 61.5636 44.694 60.1213 46.1373C59.22 47.0393 58.2345 47.7799 57.2392 48.3147C56.9769 47.5688 56.604 46.8747 56.138 46.2538ZM58.2513 49.9906C59.3617 49.3816 60.4704 48.5521 61.5024 47.5196C63.435 45.5857 64.6558 43.3827 65.0484 41.4028C66.6294 43.9142 67.6009 46.8463 67.7522 49.9906H58.2513ZM55.2233 44.405C55.5781 43.1888 55.7757 41.8178 55.7757 40.3577C55.7757 37.6183 55.0804 35.1929 53.956 33.5148C56.9803 34.2053 59.7135 35.6697 61.9354 37.6883L55.2233 44.405ZM49.1351 42.5984C48.5266 41.4874 47.6976 40.3782 46.6657 39.3456C44.9883 37.667 43.0239 36.4553 41.1346 35.9337C40.9377 35.8794 40.7446 35.8356 40.5535 35.7971C43.063 34.215 45.9931 33.2429 49.1351 33.0915V42.5984ZM41.7481 51.7217C40.6379 52.3306 39.5295 53.1602 38.4977 54.1927C36.5651 56.1267 35.3444 58.3295 34.9517 60.3093C33.3707 57.7981 32.3992 54.8658 32.2479 51.7217H41.7481ZM44.7766 57.3074C44.4218 58.5236 44.2243 59.8946 44.2243 61.3547C44.2243 64.094 44.9196 66.5194 46.044 68.1975C43.0197 67.507 40.2865 66.0427 38.0646 64.0241L44.7766 57.3074ZM50.8649 59.1138C51.4734 60.2249 52.3024 61.3342 53.3342 62.3666C55.2665 64.3003 57.4675 65.5225 59.4457 65.9156C56.9363 67.4974 54.0065 68.4694 50.8649 68.6208V59.1138ZM56.4466 56.0832C57.6619 56.4382 59.0319 56.6359 60.491 56.6359C63.2284 56.6359 65.6521 55.9401 67.329 54.8149C66.639 57.8414 65.1757 60.5765 63.1585 62.8001L56.4466 56.0832Z" fill="#5CCD6A"/>
<path d="M53.2089 50.8457C53.2031 49.0752 51.7589 47.6394 49.9897 47.6452C48.2204 47.6509 46.7857 49.0961 46.7915 50.8667C46.7973 52.6372 48.2414 54.073 50.0107 54.0672C51.78 54.0613 53.2148 52.6162 53.2089 50.8457ZM48.7446 50.8602C48.7424 50.1674 49.3038 49.6019 49.9961 49.5997C50.6885 49.5974 51.2535 50.1592 51.2558 50.852C51.258 51.5448 50.6966 52.1103 50.0043 52.1126C49.312 52.1148 48.7469 51.5531 48.7446 50.8602Z" fill="#5CCD6A"/>
</svg>
