<svg width="100" height="100" viewBox="0 0 100 100" fill="none" xmlns="http://www.w3.org/2000/svg">
<circle cx="50" cy="50" r="50" fill="#D9FADD"/>
<path d="M58.8787 59.4465C56.14 62.1972 56.4823 67.7477 56.4823 67.7477H42.5929C42.5929 67.7477 42.8864 62.1972 40.1965 59.4465C37.2133 56.794 35.3059 52.9627 35.3059 48.6892C35.3059 40.8301 41.6637 34.4445 49.4887 34.4445C57.3137 34.4445 63.6715 40.8301 63.6715 48.6892C63.6715 52.9627 61.8131 56.794 58.8787 59.4465Z" fill="#C3FF17"/>
<path d="M56.8741 72.1194C56.8741 72.8562 56.2872 73.4456 55.5536 73.4456H43.4738C42.7402 73.4456 42.1533 72.8562 42.1533 72.1194C42.1533 71.3826 42.7402 70.7932 43.4738 70.7932H55.5047C56.2383 70.7932 56.8741 71.3826 56.8741 72.1194Z" fill="#D9FADD"/>
<path d="M55.0642 77.6208C55.0642 78.3576 54.4774 78.947 53.7438 78.947H45.283C44.5494 78.947 43.9625 78.3576 43.9625 77.6208C43.9625 76.884 44.5494 76.2946 45.283 76.2946H53.7438C54.4774 76.2946 55.0642 76.884 55.0642 77.6208Z" fill="#D9FADD"/>
<path d="M59.6131 59.9377C62.792 57.0396 64.6015 52.9626 64.6015 48.6892C64.6015 40.3389 57.8035 33.5112 49.4895 33.5112C41.1754 33.5112 34.3774 40.3389 34.3774 48.6892C34.3774 53.0609 36.2848 57.2361 39.5126 60.085C41.909 62.4919 41.6645 67.6003 41.6645 67.6495C41.6645 67.8951 41.7623 68.1406 41.909 68.3371C42.1046 68.5336 42.3492 68.6318 42.5937 68.6318H56.4342C56.6787 68.6318 56.9232 68.5336 57.1189 68.3371C57.3145 68.1406 57.3634 67.8951 57.3634 67.6495C57.3634 67.6003 57.1189 62.4919 59.5153 60.085C59.5642 60.0359 59.6131 59.9868 59.6131 59.9377ZM58.2437 58.7097C58.1459 58.7588 58.097 58.857 58.0481 58.9553C55.8962 61.2639 55.5539 65.0461 55.5049 66.8144H43.5229C43.474 64.997 43.0828 61.0674 40.7842 58.7588C37.8987 56.2046 36.2359 52.5697 36.2359 48.7384C36.2359 41.3704 42.2024 35.4269 49.4895 35.4269C56.8254 35.4269 62.7431 41.4195 62.7431 48.7384C62.7431 52.5206 61.1292 56.2046 58.2437 58.7097Z" fill="#5CCD6A"/>
<path d="M49.4893 37.4409C49.0002 37.4409 48.5601 37.8338 48.5601 38.3741C48.5601 38.8653 48.9513 39.3074 49.4893 39.3074C54.9668 39.3074 59.4172 43.7773 59.4172 49.2787C59.4172 49.7699 59.8085 50.212 60.3465 50.212C60.8355 50.212 61.2757 49.819 61.2757 49.2787C61.2757 42.7458 55.9938 37.4409 49.4893 37.4409Z" fill="#5CCD6A"/>
<path d="M57.8031 72.1194C57.8031 70.8423 56.7761 69.8599 55.5534 69.8599H43.4736C42.202 69.8599 41.2239 70.8914 41.2239 72.1194C41.2239 73.3965 42.2509 74.3789 43.4736 74.3789H55.5045C56.7761 74.3789 57.8031 73.3965 57.8031 72.1194ZM55.5045 72.5123H43.4736C43.229 72.5123 43.0823 72.3158 43.0823 72.1194C43.0823 71.8738 43.2779 71.7264 43.4736 71.7264H55.5045C55.749 71.7264 55.8958 71.9229 55.8958 72.1194C55.9447 72.365 55.749 72.5123 55.5045 72.5123Z" fill="#5CCD6A"/>
<path d="M53.744 75.3613H45.2833C44.0117 75.3613 43.0336 76.3928 43.0336 77.6208C43.0336 78.8979 44.0606 79.8803 45.2833 79.8803H53.744C55.0156 79.8803 55.9937 78.8488 55.9937 77.6208C55.9937 76.3928 54.9667 75.3613 53.744 75.3613ZM53.744 78.0137H45.2833C45.0387 78.0137 44.892 77.8173 44.892 77.6208C44.892 77.3752 45.0876 77.2278 45.2833 77.2278H53.744C53.9886 77.2278 54.1353 77.4243 54.1353 77.6208C54.1353 77.8664 53.9886 78.0137 53.744 78.0137Z" fill="#5CCD6A"/>
<path d="M50.4185 28.059V21.7717C50.4185 21.2805 50.0272 20.8384 49.4893 20.8384C49.0002 20.8384 48.5601 21.2313 48.5601 21.7717V28.1081C48.5601 28.5993 48.9513 29.0414 49.4893 29.0414C50.0272 28.9923 50.4185 28.5993 50.4185 28.059Z" fill="#5CCD6A"/>
<path d="M64.8946 25.5047C64.4544 25.21 63.9164 25.3574 63.623 25.7503L60.1506 31.0061C59.8572 31.4482 60.0039 31.9885 60.3952 32.2832C60.5419 32.3815 60.7375 32.4306 60.8842 32.4306C61.1777 32.4306 61.4711 32.2832 61.6667 32.0376L65.1391 26.7818C65.4325 26.3889 65.2858 25.7994 64.8946 25.5047Z" fill="#5CCD6A"/>
<path d="M38.4363 32.2341C38.5831 32.2341 38.7787 32.185 38.9254 32.0868C39.3656 31.792 39.4634 31.2517 39.2188 30.8097L35.8443 25.5047C35.5509 25.0626 35.0129 24.9644 34.5728 25.21C34.1326 25.5047 34.0348 26.045 34.2793 26.4871L37.6538 31.792C37.8495 32.0868 38.1429 32.2341 38.4363 32.2341Z" fill="#5CCD6A"/>
<path d="M25.4763 36.6549L31.0027 39.6512C31.1494 39.7494 31.2961 39.7494 31.4428 39.7494C31.7852 39.7494 32.0786 39.553 32.2742 39.2583C32.5188 38.8162 32.3721 38.2267 31.883 37.9811L26.3566 34.9848C25.9164 34.7392 25.3295 34.8866 25.085 35.3778C24.8894 35.869 25.0361 36.4093 25.4763 36.6549Z" fill="#5CCD6A"/>
<path d="M67.5355 39.7986C67.6822 39.7986 67.8289 39.7495 67.9756 39.7004L73.502 36.7041C73.9422 36.4585 74.1378 35.9181 73.8933 35.427C73.6487 34.9849 73.1108 34.7884 72.6217 35.034L67.0953 38.0303C66.6552 38.2759 66.4595 38.8162 66.7041 39.3074C66.8508 39.6021 67.1931 39.7986 67.5355 39.7986Z" fill="#5CCD6A"/>
</svg>
