<svg width="239" height="221" viewBox="0 0 239 221" fill="none" xmlns="http://www.w3.org/2000/svg">
<g opacity="0.5" clip-path="url(#clip0_86_2175)">
<path d="M85.0872 8.20229L10.6388 104.909L210.857 55.1363L99.3293 4.61243C96.8991 3.5134 94.1681 3.27 91.5818 3.92192C88.9955 4.57383 86.7062 6.0826 85.0872 8.20229V8.20229Z" fill="#EBEBEB"/>
<path d="M9.58337 105.598L84.7592 7.94432C86.4303 5.74178 88.8021 4.17438 91.4834 3.50048C94.1648 2.82659 96.9958 3.08642 99.5097 4.23715L212.133 55.2538L9.58337 105.598ZM94.4416 3.92431C92.6928 3.92549 90.9681 4.33137 89.4023 5.1102C87.8365 5.88902 86.4722 7.01965 85.4161 8.41358V8.41358L11.6872 104.229L209.606 55.027L99.1734 4.97232C97.6863 4.30191 96.0728 3.95788 94.4416 3.96341V3.92431Z" fill="#E0E0E0"/>
<path d="M10.6371 104.937L211.561 54.9896L238.625 163.861C239.16 166.017 238.818 168.298 237.673 170.201C236.527 172.104 234.672 173.475 232.516 174.011L47.8583 219.914C45.7024 220.45 43.4219 220.108 41.5185 218.962C39.615 217.817 38.2446 215.962 37.7087 213.806L10.6447 104.935L10.6371 104.937Z" fill="#F0F0F0"/>
<path d="M199.189 60.9315L129.581 132.048L24.3415 108.366L12.3049 52.563C11.6342 49.6823 12.1236 46.6533 13.6675 44.1304C15.2114 41.6076 17.6857 39.7933 20.5561 39.0795L172.753 1.26484C174.188 0.906891 175.68 0.835445 177.142 1.05459C178.605 1.27373 180.01 1.77915 181.277 2.54193C182.544 3.30471 183.648 4.30987 184.526 5.49987C185.404 6.68986 186.038 8.04133 186.393 9.47692L199.189 60.9315Z" fill="white"/>
<path d="M120.024 126.456L37.3712 212.832C37.6622 214.006 38.1818 215.112 38.9004 216.085C39.6189 217.058 40.5223 217.881 41.5589 218.505C42.5954 219.129 43.7448 219.542 44.9413 219.721C46.1378 219.901 47.3579 219.843 48.5318 219.55L231.779 173.977C234.149 173.387 236.189 171.881 237.449 169.788C238.708 167.695 239.086 165.187 238.497 162.816L238.325 162.128L130.238 124.016C128.482 123.395 126.583 123.295 124.771 123.728C122.959 124.161 121.31 125.109 120.024 126.456V126.456Z" fill="#E0E0E0"/>
<path d="M93.6158 47.3419L34.0746 62.1541L35.587 68.2334L95.1282 53.4212L93.6158 47.3419Z" fill="#E0E0E0"/>
<path d="M170.014 44.703L37.9077 77.5674L39.6165 84.4361L171.723 51.5717L170.014 44.703Z" fill="#E0E0E0"/>
<path d="M174.193 61.4835L42.0863 94.3479L43.795 101.217L175.901 68.3522L174.193 61.4835Z" fill="#E0E0E0"/>
<path d="M176.977 83.7144L172.839 87.8517L61.9294 116.844L47.437 113.458L46.8895 111.886L178.572 79.1312L179.143 81.4072L176.977 83.7144Z" fill="#E0E0E0"/>
<path d="M148.602 112.613L98.6413 125.033L83.3668 121.545L158.034 102.97L148.602 112.613Z" fill="#E0E0E0"/>
<path d="M117.005 129.6C117.005 129.6 116.95 129.686 116.817 129.835L116.223 130.484L113.923 132.932L105.406 141.95C98.1953 149.544 88.2 160.04 77.1332 171.545C66.0665 183.049 55.8991 193.389 48.4926 200.787C44.7854 204.487 41.7665 207.474 39.6705 209.516L37.2538 211.862L36.6124 212.464C36.5456 212.539 36.4693 212.605 36.3856 212.66C36.4434 212.578 36.5089 212.502 36.5811 212.433L37.1912 211.799L39.5375 209.398L48.258 200.576C55.6254 193.154 65.738 182.776 76.8282 171.255C87.9184 159.735 97.945 149.356 105.179 141.746L113.783 132.823L116.129 130.414L116.755 129.796L117.005 129.6Z" fill="#FAFAFA"/>
<path d="M238.325 162.128C238.286 162.238 215.237 154.237 186.847 144.257C158.456 134.277 135.47 126.097 135.509 125.987C135.548 125.878 158.597 133.871 186.987 143.882C215.378 153.893 238.364 162.011 238.325 162.128Z" fill="#FAFAFA"/>
<path d="M202.497 57.5062C202.454 57.5759 202.404 57.6414 202.348 57.7018L201.871 58.2414L200.018 60.2983L193.119 67.7987C187.262 74.1103 179.112 82.7604 169.977 92.2003C160.842 101.64 152.45 110.064 146.334 116.117L139.053 123.25L137.05 125.166L136.526 125.659C136.401 125.768 136.339 125.823 136.331 125.815C136.381 125.748 136.436 125.686 136.495 125.627L136.988 125.103L138.935 123.133L146.115 115.906C152.184 109.798 160.537 101.335 169.664 91.9032C178.791 82.471 186.98 73.8444 192.893 67.5954L199.932 60.1888L201.785 58.1867L202.294 57.6705C202.354 57.6077 202.423 57.5525 202.497 57.5062V57.5062Z" fill="#FAFAFA"/>
<path d="M117.005 129.6C116.912 129.595 116.82 129.579 116.731 129.553L115.949 129.366L112.821 128.584C110.146 127.911 106.259 126.965 101.449 125.838C91.8369 123.562 78.502 120.63 63.7672 117.439C49.0323 114.248 35.7053 111.268 26.1089 108.914C21.3068 107.741 17.4275 106.755 14.7606 106.036L11.7338 105.23L10.9517 105.003C10.8593 104.984 10.7699 104.952 10.6858 104.909L10.9595 104.964L11.7416 105.144L14.8309 105.926C17.5136 106.599 21.4006 107.537 26.2105 108.671C35.8226 110.947 49.1496 113.88 63.8923 117.071C78.6349 120.262 91.9542 123.242 101.551 125.596C106.353 126.769 110.232 127.747 112.899 128.474L115.965 129.311L116.747 129.538L117.005 129.6Z" fill="#FAFAFA"/>
<path d="M199.188 60.9318C199.188 60.9318 199.11 60.6737 198.977 60.1497L198.406 57.9364C197.906 55.9733 197.178 53.103 196.24 49.4036L188.364 18.0256C187.952 16.3675 187.527 14.6704 187.089 12.9341C186.878 12.0738 186.659 11.19 186.432 10.3062C186.323 9.86044 186.221 9.41464 186.08 8.98449C185.952 8.54629 185.792 8.11769 185.603 7.70184C184.828 5.94724 183.609 4.42502 182.066 3.2853C180.523 2.14558 178.71 1.42774 176.805 1.20256C175.814 1.07874 174.812 1.0919 173.825 1.24166C172.839 1.41372 171.838 1.68746 170.829 1.92991L164.69 3.49412L151.879 6.65382L94.8324 20.8568L37.7388 35.0285L24.9358 38.2039L21.8465 38.986C20.8318 39.1893 19.8373 39.4825 18.8745 39.8619C17.9407 40.2558 17.0687 40.7827 16.2857 41.4261C15.5076 42.0526 14.8206 42.7844 14.2444 43.6004C13.6764 44.4007 13.2138 45.2707 12.8679 46.1892C12.5443 47.0957 12.3341 48.0388 12.2423 48.9969C12.0076 50.9131 12.5395 52.7588 12.9149 54.5811C13.697 58.2309 14.4452 61.7269 15.1595 65.0691C17.9907 78.4509 20.337 89.2596 21.9012 96.7443C22.6833 100.483 23.2934 103.377 23.7157 105.347C23.9191 106.325 24.0677 107.076 24.1772 107.592C24.2867 108.108 24.3179 108.374 24.3179 108.374C24.3179 108.374 24.2476 108.116 24.1302 107.592C24.0129 107.068 23.8487 106.333 23.6297 105.363C23.1917 103.384 22.5582 100.491 21.737 96.76C20.1024 89.2831 17.7483 78.4744 14.8388 65.1317C14.1193 61.7895 13.3607 58.2935 12.5629 54.6437C12.1875 52.8449 11.64 50.9365 11.8747 48.9578C11.9698 47.9885 12.1852 47.0348 12.516 46.1188C12.8733 45.1711 13.3489 44.2724 13.9316 43.444C14.5242 42.6008 15.2324 41.8452 16.0355 41.1993C16.8396 40.5289 17.7383 39.9807 18.7024 39.5726C19.6811 39.1732 20.6942 38.8642 21.7292 38.6497L24.8576 37.8676L37.6684 34.6766L94.762 20.4736L151.856 6.30187L164.604 3.10307L170.743 1.58579C171.752 1.33551 172.738 1.0696 173.77 0.889714C175.278 0.664535 176.815 0.742224 178.292 1.11824C179.769 1.49425 181.157 2.16104 182.373 3.0796C183.921 4.25124 185.143 5.79935 185.924 7.5767C186.12 8.00383 186.282 8.44579 186.409 8.89845C186.55 9.34425 186.659 9.79005 186.769 10.2359C186.988 11.1196 187.207 12.0034 187.418 12.8715C187.848 14.6078 188.263 16.305 188.677 17.963L196.42 49.3958C197.327 53.1029 197.984 55.9811 198.508 57.9442C198.735 58.9218 198.915 59.6648 199.032 60.1732C199.149 60.6815 199.188 60.9318 199.188 60.9318Z" fill="#E0E0E0"/>
<path d="M111.741 19.6525L104.006 25.5417L104.382 36.7884L97.3037 31.1651L93.3932 34.5125L78.5332 16.1643L111.741 19.6525Z" fill="#5CCD6A"/>
<g opacity="0.3">
<path d="M101.105 27.9344C101.105 28.2786 104.382 36.7879 104.382 36.7879L97.3037 31.1645L101.105 27.9344Z" fill="black"/>
</g>
<path d="M78.5332 16.1643L101.097 27.935L104.382 36.7884L104.006 25.5417L78.5332 16.1643Z" fill="#54BE61"/>
<path d="M141.102 167.908C139.711 167.862 138.345 167.529 137.089 166.93C138.48 166.976 139.846 167.309 141.102 167.908Z" fill="#495D4C"/>
<path d="M147.499 169.472C147.499 169.59 146.913 169.55 146.256 169.394C145.599 169.238 145.083 169.003 145.106 168.886C145.129 168.768 145.693 168.807 146.357 168.972C147.022 169.136 147.531 169.355 147.499 169.472Z" fill="#495D4C"/>
<path d="M121.095 35.3178C120.402 35.3279 119.711 35.2194 119.054 34.9971C118.366 34.915 117.698 34.7083 117.083 34.3871C117.781 34.2955 118.49 34.365 119.156 34.5904C119.851 34.6734 120.517 34.9229 121.095 35.3178V35.3178Z" fill="#495D4C"/>
<path d="M128.666 38.5632C127.99 38.4153 127.344 38.1507 126.758 37.7811C126.11 37.5374 125.509 37.1827 124.983 36.733C125.681 36.7994 126.353 37.0299 126.946 37.4056C127.97 37.9062 128.729 38.4615 128.666 38.5632Z" fill="#495D4C"/>
<path d="M135.228 43.5375C135.142 43.6235 134.446 43.0369 133.57 42.3018C132.694 41.5666 132.006 40.9409 132.108 40.8392C132.769 41.077 133.366 41.4653 133.852 41.9733C134.72 42.7241 135.306 43.4593 135.228 43.5375Z" fill="#495D4C"/>
<path d="M140.233 50.068C140.124 50.1228 139.608 49.3641 138.982 48.4256C138.547 47.8853 138.204 47.2777 137.965 46.6268C138.051 46.5564 138.708 47.229 139.342 48.191C139.783 48.7374 140.089 49.3806 140.233 50.068V50.068Z" fill="#495D4C"/>
<path d="M143.072 57.7877C142.737 57.1811 142.504 56.523 142.384 55.8402C142.123 55.1956 141.977 54.5098 141.954 53.8146C142.383 54.3735 142.671 55.0284 142.791 55.7229C143.054 56.3774 143.15 57.0867 143.072 57.7877Z" fill="#495D4C"/>
<path d="M143.495 65.9997C143.355 65.3206 143.326 64.6234 143.409 63.935C143.35 63.2436 143.414 62.5473 143.597 61.8781C143.84 62.5374 143.923 63.2451 143.839 63.9428C143.888 64.646 143.77 65.3509 143.495 65.9997V65.9997Z" fill="#495D4C"/>
<path d="M141.36 73.9303C141.444 73.2436 141.639 72.5753 141.938 71.9515C142.098 71.2809 142.362 70.6396 142.721 70.051C142.759 70.7557 142.616 71.4584 142.306 72.0923C142.147 72.7736 141.822 73.4049 141.36 73.9303V73.9303Z" fill="#495D4C"/>
<path d="M136.581 80.6095C136.503 80.5157 137.113 79.8274 137.856 78.9827C138.599 78.1381 139.193 77.4185 139.295 77.5046C139.073 78.1744 138.689 78.7789 138.177 79.2643C137.418 80.1324 136.659 80.6955 136.581 80.6095Z" fill="#495D4C"/>
<path d="M129.683 85.0518C130.211 84.6048 130.808 84.2457 131.45 83.9881C132.028 83.6051 132.665 83.3197 133.335 83.1434C132.881 83.6846 132.301 84.1062 131.646 84.3713C131.058 84.7566 130.383 84.9903 129.683 85.0518V85.0518Z" fill="#495D4C"/>
<path d="M121.659 86.7881C122.31 86.5572 122.994 86.4356 123.684 86.4283C124.361 86.2729 125.058 86.228 125.749 86.2953C125.136 86.6449 124.445 86.8358 123.739 86.8506C123.052 87.005 122.336 86.9835 121.659 86.7881V86.7881Z" fill="#495D4C"/>
<path d="M113.603 85.2236C114.292 85.2937 114.966 85.465 115.605 85.732C116.282 85.8651 116.935 86.097 117.545 86.4203C116.844 86.5077 116.132 86.4106 115.48 86.1387C114.784 86.0061 114.136 85.6902 113.603 85.2236Z" fill="#495D4C"/>
<path d="M107.933 79.5925C108.05 79.5925 108.41 80.3746 109.051 81.2975C109.692 82.2204 110.31 82.8617 110.224 82.979C110.138 83.0963 109.372 82.5098 108.699 81.5478C108.231 81.0009 107.961 80.312 107.933 79.5925V79.5925Z" fill="#495D4C"/>
<path d="M111.366 73.1874C111.366 73.3125 110.514 73.5862 109.622 74.2197C108.73 74.8532 108.253 75.6432 108.144 75.5806C108.034 75.518 108.378 74.5795 109.372 73.8756C109.925 73.4006 110.638 73.1545 111.366 73.1874V73.1874Z" fill="#495D4C"/>
<path d="M118.436 76.12C118.327 76.1826 117.826 75.4161 117.013 74.6653C116.2 73.9145 115.371 73.5391 115.449 73.4218C116.167 73.4848 116.835 73.8173 117.318 74.3525C117.888 74.7905 118.285 75.4169 118.436 76.12V76.12Z" fill="#495D4C"/>
<path d="M118.703 84.1053C118.761 83.4239 118.889 82.7503 119.086 82.0953C119.144 81.4114 119.273 80.7353 119.469 80.0775C119.625 80.7664 119.636 81.4802 119.501 82.1736C119.366 82.8669 119.089 83.5247 118.687 84.1053H118.703Z" fill="#495D4C"/>
<path d="M113.345 90.2447C113.275 90.143 113.986 89.5564 114.839 88.8291C115.691 88.1017 116.403 87.476 116.458 87.5542C116.512 87.6324 116.004 88.3989 115.12 89.1184C114.237 89.838 113.407 90.3463 113.345 90.2447Z" fill="#495D4C"/>
<path d="M106.032 94.0459C106.549 93.5778 107.156 93.2187 107.815 92.9901C108.419 92.6338 109.09 92.4074 109.786 92.3253C109.264 92.7917 108.656 93.1505 107.995 93.3812C107.393 93.7348 106.725 93.9611 106.032 94.0459V94.0459Z" fill="#495D4C"/>
<path d="M98.6802 97.7842C98.6176 97.6825 99.3606 97.1272 100.346 96.5328C100.921 96.1317 101.578 95.8645 102.27 95.7507C102.333 95.868 101.535 96.3451 100.557 96.9082C99.9996 97.3281 99.3602 97.6265 98.6802 97.7842V97.7842Z" fill="#495D4C"/>
<path d="M92.4469 103.165C92.3608 103.087 92.9005 102.321 93.7217 101.515C94.5429 100.709 95.2859 100.185 95.3954 100.271C95.5049 100.357 94.8323 101.054 94.0267 101.836C93.2211 102.618 92.5407 103.212 92.4469 103.165Z" fill="#495D4C"/>
<path d="M87.7228 109.907C87.8539 109.217 88.143 108.566 88.5674 108.006C89.1697 107.029 89.7875 106.325 89.8892 106.395C89.6775 107.057 89.3549 107.679 88.935 108.233C88.3797 109.195 87.8323 109.962 87.7228 109.907Z" fill="#495D4C"/>
<path d="M84.72 117.572C84.6801 116.871 84.8088 116.171 85.0954 115.53C85.2426 114.842 85.5509 114.199 85.9948 113.653C85.9491 114.347 85.7823 115.027 85.5021 115.663C85.3544 116.34 85.0898 116.986 84.72 117.572V117.572Z" fill="#495D4C"/>
<path d="M83.6404 125.737C83.3567 124.366 83.4541 122.943 83.922 121.623C84.0457 122.306 84.0457 123.005 83.922 123.688C83.9491 124.382 83.8538 125.076 83.6404 125.737V125.737Z" fill="#495D4C"/>
<path d="M84.7197 133.894C84.3687 133.289 84.1476 132.618 84.0706 131.923C83.8361 131.258 83.7795 130.544 83.9063 129.851C84.2005 130.48 84.3983 131.149 84.4929 131.837C84.7096 132.5 84.7868 133.2 84.7197 133.894Z" fill="#495D4C"/>
<path d="M87.9029 141.48C87.3852 141.006 86.9861 140.417 86.7375 139.76C86.3603 139.166 86.1323 138.49 86.0728 137.789C86.5234 138.318 86.878 138.921 87.1208 139.572C87.4955 140.155 87.7605 140.802 87.9029 141.48V141.48Z" fill="#495D4C"/>
<path d="M92.8458 148.074C92.7676 148.152 92.0637 147.558 91.2816 146.682C90.778 146.191 90.3929 145.592 90.1554 144.93C90.2571 144.852 90.8749 145.54 91.6101 146.4C92.3453 147.26 92.9319 147.988 92.8458 148.074Z" fill="#495D4C"/>
<path d="M99.1964 153.314C98.5168 153.131 97.8897 152.791 97.3663 152.321C96.4434 151.648 95.8021 150.975 95.8647 150.881C96.5104 151.141 97.1059 151.512 97.6244 151.976C98.5473 152.641 99.259 153.212 99.1964 153.314Z" fill="#495D4C"/>
<path d="M106.627 156.864C105.923 156.86 105.231 156.685 104.609 156.356C103.931 156.166 103.31 155.812 102.802 155.323C103.487 155.425 104.15 155.639 104.765 155.957C105.43 156.159 106.058 156.465 106.627 156.864V156.864Z" fill="#495D4C"/>
<path d="M110.764 157.959C110.764 158.069 110.693 158.163 110.654 158.155C110.615 158.147 110.6 158.045 110.654 157.928C110.709 157.811 110.725 157.725 110.764 157.733C110.803 157.74 110.787 157.803 110.764 157.959Z" fill="#495D4C"/>
<path d="M104.781 137.442L96.2285 134.633L94.4813 139.953L103.034 142.762L104.781 137.442Z" fill="#43AF55"/>
<path d="M104.804 137.453C103.205 138.255 101.547 138.934 99.8457 139.486L99.6971 139.541L99.6033 139.416L99.4547 139.228C98.2712 137.783 97.2017 136.248 96.2559 134.637C97.5451 135.989 98.7295 137.438 99.7988 138.97L99.9396 139.158L99.6971 139.087C101.353 138.406 103.061 137.859 104.804 137.453V137.453Z" fill="#2A9348"/>
<path d="M98.6801 137.898C98.0915 138.428 97.41 138.844 96.6701 139.126C95.9887 139.53 95.2425 139.813 94.4646 139.963C95.0585 139.437 95.7419 139.021 96.4824 138.735C97.162 138.333 97.9053 138.05 98.6801 137.898V137.898Z" fill="#2A9348"/>
<path d="M103.17 142.818C102.691 142.228 102.32 141.558 102.075 140.839C101.558 139.674 101.214 138.673 101.371 138.688C101.851 139.279 102.224 139.948 102.473 140.667C102.838 141.334 103.074 142.064 103.17 142.818V142.818Z" fill="#2A9348"/>
<path d="M139.649 158.291L117.654 151.068L113.159 164.755L135.154 171.978L139.649 158.291Z" fill="#5CCD6A"/>
<path d="M139.639 158.295C139.326 158.475 138.996 158.625 138.654 158.741L135.916 159.813C133.57 160.697 130.371 161.901 126.766 163.223L126.617 163.277L126.523 163.152L126.156 162.667C123.762 159.5 121.604 156.622 120.063 154.518L118.256 152.023C118.022 151.724 117.815 151.405 117.638 151.069C117.928 151.325 118.19 151.611 118.421 151.921L120.337 154.338C121.94 156.387 124.13 159.242 126.531 162.409L126.899 162.886L126.656 162.816C130.254 161.502 133.499 160.345 135.846 159.531L138.63 158.585C138.957 158.459 139.295 158.362 139.639 158.295V158.295Z" fill="#43AF55"/>
<path d="M123.997 159.461C122.287 160.53 120.504 161.478 118.663 162.3C116.883 163.244 115.041 164.065 113.149 164.756C114.853 163.678 116.633 162.727 118.475 161.909C120.253 160.959 122.099 160.141 123.997 159.461V159.461Z" fill="#43AF55"/>
<path d="M135.253 171.715C134.352 170.098 133.566 168.416 132.899 166.683C132.115 165.001 131.453 163.261 130.919 161.479C131.825 163.095 132.613 164.78 133.273 166.518C134.057 168.198 134.719 169.935 135.253 171.715V171.715Z" fill="#43AF55"/>
<path d="M118.882 154.432C118.335 154.834 117.68 155.064 117.002 155.094C116.324 155.124 115.652 154.952 115.071 154.6C114.491 154.249 114.027 153.732 113.74 153.117C113.453 152.502 113.354 151.816 113.457 151.145C113.56 150.473 113.859 149.848 114.317 149.347C114.776 148.846 115.372 148.492 116.031 148.33C116.691 148.168 117.383 148.205 118.021 148.436C118.66 148.668 119.215 149.083 119.617 149.63C119.884 149.994 120.077 150.406 120.185 150.845C120.293 151.283 120.313 151.738 120.245 152.184C120.177 152.63 120.021 153.058 119.787 153.444C119.553 153.83 119.246 154.166 118.882 154.432V154.432Z" fill="#495D4C"/>
<path d="M118.984 151.038C118.257 151.578 117.485 152.054 116.677 152.461L116.129 152.766L116.028 152.821L115.973 152.727C115.603 152.14 115.288 151.519 115.034 150.874C115.47 151.415 115.85 152 116.168 152.618L116.02 152.571L116.567 152.258C117.336 151.782 118.144 151.373 118.984 151.038Z" fill="white"/>
<path d="M125.528 139.841L114.004 136.057L111.649 143.227L123.174 147.012L125.528 139.841Z" fill="#43AF55"/>
<path d="M125.514 139.846C125.349 139.939 125.177 140.017 124.998 140.08L123.559 140.644C122.347 141.105 120.657 141.739 118.773 142.427H118.694L118.64 142.356L118.452 142.106C117.193 140.448 116.106 138.939 115.253 137.836L114.307 136.53C114.186 136.372 114.078 136.205 113.986 136.029C114.134 136.162 114.265 136.311 114.377 136.475L115.386 137.742C116.223 138.813 117.373 140.307 118.632 141.965L118.819 142.223H118.694C120.579 141.535 122.276 140.925 123.512 140.503L124.967 140.01C125.142 139.933 125.326 139.878 125.514 139.846V139.846Z" fill="#2A9348"/>
<path d="M117.318 140.456C116.422 141.013 115.489 141.51 114.526 141.942C113.593 142.439 112.626 142.87 111.632 143.233C112.526 142.669 113.459 142.17 114.424 141.739C115.357 141.242 116.324 140.813 117.318 140.456V140.456Z" fill="#2A9348"/>
<path d="M123.364 147.08C122.859 146.201 122.42 145.287 122.05 144.343C121.615 143.426 121.244 142.48 120.939 141.512C121.888 143.304 122.698 145.165 123.364 147.08V147.08Z" fill="#2A9348"/>
<path d="M32.9522 50.0838C32.1581 53.2136 30.4541 56.0378 28.0554 58.1993C25.6567 60.3609 22.671 61.7629 19.4758 62.228C16.2805 62.6931 13.019 62.2006 10.1036 60.8126C7.18822 59.4246 4.74972 57.2035 3.09632 54.43C1.44293 51.6565 0.648853 48.4551 0.814469 45.2304C0.980086 42.0057 2.09796 38.9025 4.02679 36.3129C5.95563 33.7234 8.60885 31.7638 11.6511 30.6818C14.6934 29.5998 17.9881 29.444 21.1189 30.234C23.1994 30.7601 25.1559 31.6909 26.8767 32.9732C28.5974 34.2556 30.0486 35.8643 31.1475 37.7076C32.2464 39.5509 32.9713 41.5927 33.281 43.7162C33.5906 45.8397 33.4789 48.0035 32.9522 50.0838V50.0838Z" fill="#5CCD6A"/>
<path d="M23.176 37.2107C23.4654 37.328 21.6118 42.7949 19.0309 49.4271C18.6477 50.3891 18.2879 51.312 17.9281 52.2192L17.7326 52.7119L17.2086 52.5242C11.9138 50.483 8.04234 48.8014 8.13619 48.559C8.23004 48.3165 12.2501 49.5835 17.584 51.5153L16.8958 51.8282C17.2399 50.9209 17.5996 49.9902 17.9672 49.0282C20.5716 42.396 22.8945 37.1012 23.176 37.2107Z" fill="white"/>
</g>
<defs>
<clipPath id="clip0_86_2175">
<rect width="238.088" height="219.404" fill="white" transform="translate(0.784424 0.756836)"/>
</clipPath>
</defs>
</svg>
