<svg width="239" height="221" fill="none" xmlns="http://www.w3.org/2000/svg"><g opacity=".5" clip-path="url(#clip0_86_2175)"><path d="M85.087 8.202L10.64 104.91l200.218-49.773L99.329 4.612a11.802 11.802 0 00-14.242 3.59z" fill="#EBEBEB"/><path d="M9.583 105.598L84.76 7.944a12.162 12.162 0 0114.75-3.707l112.624 51.017-202.55 50.344zM94.442 3.924a11.332 11.332 0 00-9.026 4.49l-73.729 95.815 197.919-49.202L99.173 4.972a11.42 11.42 0 00-4.731-1.009v-.039z" fill="#E0E0E0"/><path d="M10.637 104.937L211.561 54.99l27.064 108.871a8.383 8.383 0 01-.952 6.34 8.381 8.381 0 01-5.157 3.81L47.858 219.914a8.374 8.374 0 01-10.15-6.108L10.646 104.935l-.008.002z" fill="#F0F0F0"/><path d="M199.189 60.931l-69.608 71.117-105.24-23.682-12.036-55.803a11.263 11.263 0 018.251-13.483L172.753 1.265a11.248 11.248 0 0113.64 8.212l12.796 51.454z" fill="#fff"/><path d="M120.024 126.456l-82.653 86.376a9.204 9.204 0 0011.16 6.718l183.248-45.573a9.216 9.216 0 006.718-11.161l-.172-.688-108.087-38.112a9.663 9.663 0 00-10.214 2.44zM93.616 47.342L34.075 62.154l1.512 6.08L95.128 53.42l-1.512-6.08zm76.398-2.639L37.908 77.567l1.709 6.87 132.106-32.865-1.709-6.869zm4.179 16.78L42.086 94.349l1.709 6.869 132.106-32.865-1.708-6.869zm2.784 22.231l-4.138 4.138-110.91 28.992-14.492-3.386-.547-1.572 131.682-32.755.571 2.276-2.166 2.307zm-28.375 28.899l-49.96 12.42-15.275-3.488 74.667-18.575-9.432 9.643z" fill="#E0E0E0"/><path d="M117.005 129.6s-.055.086-.188.235l-.594.649-2.3 2.448-8.517 9.018a6379.445 6379.445 0 01-28.273 29.595c-11.066 11.504-21.234 21.844-28.64 29.242-3.708 3.7-6.727 6.687-8.823 8.729l-2.416 2.346-.642.602a1.149 1.149 0 01-.226.196c.057-.082.123-.158.195-.227l.61-.634 2.346-2.401 8.721-8.822c7.367-7.422 17.48-17.8 28.57-29.321 11.09-11.52 21.117-21.899 28.351-29.509l8.604-8.923 2.346-2.409.626-.618.25-.196zm121.32 32.528c-.039.11-23.088-7.891-51.478-17.871-28.391-9.98-51.377-18.16-51.338-18.27.039-.109 23.088 7.884 51.478 17.895 28.391 10.011 51.377 18.129 51.338 18.246zM202.497 57.506c-.043.07-.093.135-.149.196l-.477.54-1.853 2.056-6.899 7.5A1652.722 1652.722 0 01169.977 92.2a1595.166 1595.166 0 01-23.643 23.917l-7.281 7.133-2.003 1.916-.524.493c-.125.109-.187.164-.195.156.05-.067.105-.129.164-.188l.493-.524 1.947-1.97 7.18-7.227a2575.144 2575.144 0 0023.549-24.003 2998.215 2998.215 0 0023.229-24.308l7.039-7.406 1.853-2.002.509-.517c.06-.062.129-.117.203-.164zM117.005 129.6a1.21 1.21 0 01-.274-.047l-.782-.187-3.128-.782a747.73 747.73 0 00-11.372-2.746c-9.612-2.276-22.947-5.208-37.682-8.399-14.735-3.191-28.062-6.171-37.658-8.525-4.802-1.173-8.682-2.159-11.348-2.878l-3.027-.806-.782-.227a1.049 1.049 0 01-.266-.094l.274.055.782.18 3.089.782c2.683.673 6.57 1.611 11.38 2.745 9.612 2.276 22.939 5.209 37.681 8.4 14.743 3.191 28.062 6.171 37.659 8.525 4.802 1.173 8.681 2.151 11.348 2.878l3.066.837.782.227.258.062z" fill="#FAFAFA"/><path d="M199.188 60.932s-.078-.258-.211-.782l-.571-2.214c-.5-1.963-1.228-4.833-2.166-8.532l-7.876-31.378c-.412-1.659-.837-3.356-1.275-5.092-.211-.86-.43-1.744-.657-2.628-.109-.446-.211-.891-.352-1.322a9.621 9.621 0 00-.477-1.282 11.032 11.032 0 00-8.798-6.5 10.872 10.872 0 00-2.98.04c-.986.172-1.987.445-2.996.688l-6.139 1.564-12.811 3.16-57.047 14.203L37.74 35.029l-12.803 3.175-3.09.782a17.46 17.46 0 00-2.971.876 10.52 10.52 0 00-2.59 1.564 10.76 10.76 0 00-2.04 2.174c-.569.8-1.031 1.67-1.377 2.59a11.66 11.66 0 00-.626 2.807c-.234 1.916.297 3.762.673 5.584L15.16 65.07c2.83 13.382 5.177 24.19 6.741 31.675a1809.26 1809.26 0 001.815 8.603c.203.978.352 1.729.461 2.245.11.516.14.782.14.782s-.07-.258-.187-.782c-.117-.524-.281-1.259-.5-2.229-.438-1.979-1.072-4.872-1.893-8.603-1.635-7.477-3.989-18.286-6.898-31.628-.72-3.343-1.478-6.839-2.276-10.488-.376-1.8-.923-3.707-.688-5.686.095-.97.31-1.923.641-2.84.357-.947.833-1.846 1.416-2.674a10.99 10.99 0 012.103-2.245 10.645 10.645 0 012.667-1.626c.98-.4 1.992-.709 3.027-.923l3.129-.782 12.81-3.191 57.094-14.203 57.094-14.172 12.748-3.199 6.139-1.517c1.009-.25 1.995-.516 3.027-.696a11.464 11.464 0 018.603 2.19 11.382 11.382 0 013.551 4.497c.196.427.358.869.485 1.321.141.446.25.892.36 1.338.219.884.438 1.767.649 2.635.43 1.737.845 3.434 1.259 5.092l7.743 31.433c.907 3.707 1.564 6.585 2.088 8.548.227.978.407 1.72.524 2.23.117.508.156.758.156.758z" fill="#E0E0E0"/><path d="M111.741 19.652l-7.735 5.89.376 11.246-7.078-5.623-3.91 3.348-14.86-18.349 33.207 3.488z" fill="#5CCD6A"/><path d="M101.105 27.934c0 .345 3.277 8.854 3.277 8.854l-7.078-5.623 3.801-3.23z" fill="#000" opacity=".3"/><path d="M78.533 16.164l22.564 11.771 3.285 8.853-.376-11.246-25.473-9.378z" fill="#54BE61"/><path d="M141.102 167.908a10.097 10.097 0 01-4.013-.978c1.391.046 2.757.379 4.013.978zm6.397 1.564c0 .118-.586.078-1.243-.078-.657-.156-1.173-.391-1.15-.508.023-.118.587-.079 1.251.086.665.164 1.174.383 1.142.5zM121.095 35.318a6.094 6.094 0 01-2.041-.32 5.723 5.723 0 01-1.971-.61 4.599 4.599 0 012.073.202 4.354 4.354 0 011.939.728zm7.571 3.245a5.969 5.969 0 01-1.908-.782 5.96 5.96 0 01-1.775-1.048c.698.066 1.37.297 1.963.673 1.024.5 1.783 1.056 1.72 1.157zm6.562 4.975c-.086.086-.782-.501-1.658-1.236-.876-.735-1.564-1.361-1.462-1.463a4.542 4.542 0 011.744 1.134c.868.751 1.454 1.486 1.376 1.565zm5.005 6.53c-.109.055-.625-.704-1.251-1.642a6.367 6.367 0 01-1.017-1.8c.086-.07.743.603 1.377 1.565.441.546.747 1.19.891 1.877zm2.839 7.72a6.277 6.277 0 01-.688-1.948 5.92 5.92 0 01-.43-2.025 4.35 4.35 0 01.837 1.908 4.27 4.27 0 01.281 2.065zm.423 8.212a6.42 6.42 0 01-.086-2.065 5.897 5.897 0 01.188-2.057c.243.66.326 1.367.242 2.065a4.474 4.474 0 01-.344 2.057zm-2.135 7.93a6.366 6.366 0 01.578-1.979c.16-.67.424-1.311.783-1.9a4.14 4.14 0 01-.415 2.041 4.244 4.244 0 01-.946 1.838zm-4.779 6.68c-.078-.094.532-.783 1.275-1.627.743-.845 1.337-1.565 1.439-1.478a4.28 4.28 0 01-1.118 1.76c-.759.867-1.518 1.43-1.596 1.344zm-6.898 4.442a6.456 6.456 0 011.767-1.064 6.329 6.329 0 011.885-.845 4.32 4.32 0 01-1.689 1.228 4.264 4.264 0 01-1.963.68zm-8.024 1.736a6.255 6.255 0 012.025-.36 6.438 6.438 0 012.065-.133c-.613.35-1.304.54-2.01.556a4.19 4.19 0 01-2.08-.063zm-8.056-1.564c.689.07 1.363.241 2.002.508.677.133 1.33.365 1.94.688a4.06 4.06 0 01-2.065-.281 3.98 3.98 0 01-1.877-.915zm-5.67-5.631c.117 0 .477.782 1.118 1.704.641.923 1.259 1.565 1.173 1.682-.086.117-.852-.47-1.525-1.431a3.199 3.199 0 01-.766-1.956zm3.433-6.406c0 .126-.852.4-1.744 1.033-.892.633-1.369 1.423-1.478 1.36-.11-.062.234-1 1.228-1.704a2.862 2.862 0 011.994-.689zm7.07 2.933c-.109.063-.61-.704-1.423-1.455-.813-.75-1.642-1.126-1.564-1.243a2.854 2.854 0 011.869.93c.57.438.967 1.065 1.118 1.768zm.267 7.985a9.89 9.89 0 01.383-2.01c.058-.684.187-1.36.383-2.017a5.088 5.088 0 01-.782 4.027h.016zm-5.358 6.14c-.07-.102.641-.689 1.494-1.416.852-.727 1.564-1.353 1.619-1.275.054.078-.454.845-1.338 1.564-.883.72-1.713 1.228-1.775 1.127zm-7.313 3.801a5.193 5.193 0 011.783-1.056 5.04 5.04 0 011.971-.665 5.317 5.317 0 01-1.791 1.056c-.602.354-1.27.58-1.963.665zm-7.352 3.738c-.062-.102.68-.657 1.666-1.251a4.693 4.693 0 011.924-.782c.063.117-.735.594-1.713 1.157a4.994 4.994 0 01-1.877.876zm-6.233 5.381c-.086-.078.453-.844 1.275-1.65.82-.806 1.564-1.33 1.673-1.244.11.086-.563.783-1.368 1.565-.806.782-1.486 1.376-1.58 1.329zm-4.724 6.742c.13-.69.42-1.341.844-1.901.603-.977 1.22-1.681 1.322-1.611a6.14 6.14 0 01-.954 1.838c-.555.962-1.103 1.729-1.212 1.674zm-3.003 7.665a4.39 4.39 0 01.375-2.042 4.452 4.452 0 01.9-1.877 5.955 5.955 0 01-.493 2.01 5.956 5.956 0 01-.782 1.909zm-1.08 8.165a7.665 7.665 0 01.282-4.114 5.792 5.792 0 010 2.065 5.92 5.92 0 01-.282 2.049zm1.08 8.157a5.031 5.031 0 01-.65-1.971 4.042 4.042 0 01-.164-2.072c.294.629.492 1.298.587 1.986a5.05 5.05 0 01.227 2.057zm3.183 7.586a4.482 4.482 0 01-1.166-1.72 4.365 4.365 0 01-.664-1.971c.45.529.805 1.132 1.048 1.783.375.583.64 1.23.782 1.908zm4.943 6.594c-.078.078-.782-.516-1.564-1.392a4.63 4.63 0 01-1.127-1.752c.102-.078.72.61 1.455 1.47.735.86 1.322 1.588 1.236 1.674zm6.35 5.24a4.484 4.484 0 01-1.83-.993c-.923-.673-1.564-1.346-1.501-1.44.645.26 1.24.631 1.76 1.095.922.665 1.634 1.236 1.571 1.338zm7.431 3.55a4.37 4.37 0 01-2.018-.508 4.263 4.263 0 01-1.807-1.033 6.29 6.29 0 011.963.634 6.566 6.566 0 011.862.907zm4.137 1.095c0 .11-.071.204-.11.196-.039-.008-.054-.11 0-.227.055-.117.071-.203.11-.195.039.007.023.07 0 .226z" fill="#495D4C"/><path d="M104.781 137.442l-8.553-2.809-1.747 5.32 8.553 2.809 1.747-5.32z" fill="#43AF55"/><path d="M104.804 137.453a35.489 35.489 0 01-4.958 2.033l-.149.055-.094-.125-.148-.188a36.052 36.052 0 01-3.2-4.591 36.8 36.8 0 013.544 4.333l.14.188-.242-.071a33.277 33.277 0 015.107-1.634z" fill="#2A9348"/><path d="M98.68 137.898a6.42 6.42 0 01-2.01 1.228 6.878 6.878 0 01-2.205.837 6.666 6.666 0 012.017-1.228 6.941 6.941 0 012.198-.837zm4.49 4.92a6.432 6.432 0 01-1.095-1.979c-.517-1.165-.861-2.166-.704-2.151.48.591.853 1.26 1.102 1.979a6.08 6.08 0 01.697 2.151z" fill="#2A9348"/><path d="M139.649 158.291l-21.995-7.223-4.495 13.687 21.995 7.223 4.495-13.687z" fill="#5CCD6A"/><path d="M139.639 158.295a5.56 5.56 0 01-.985.446l-2.738 1.072c-2.346.884-5.545 2.088-9.15 3.41l-.149.054-.094-.125-.367-.485a732.98 732.98 0 01-6.093-8.149l-1.807-2.495a6.35 6.35 0 01-.618-.954c.29.256.552.542.783.852l1.916 2.417a717.482 717.482 0 016.194 8.071l.368.477-.243-.07a631.44 631.44 0 019.19-3.285l2.784-.946a5.995 5.995 0 011.009-.29z" fill="#43AF55"/><path d="M123.997 159.461a43.582 43.582 0 01-5.334 2.839 43.948 43.948 0 01-5.514 2.456 41.357 41.357 0 015.326-2.847 41.217 41.217 0 015.522-2.448zm11.256 12.254a39.448 39.448 0 01-2.354-5.032 38.436 38.436 0 01-1.98-5.204 37.612 37.612 0 012.354 5.039 38.345 38.345 0 011.98 5.197z" fill="#43AF55"/><path d="M118.882 154.432a3.432 3.432 0 01-5.142-1.315 3.432 3.432 0 012.291-4.787 3.437 3.437 0 013.586 1.3 3.444 3.444 0 01.628 2.554 3.427 3.427 0 01-1.363 2.248z" fill="#495D4C"/><path d="M118.984 151.038a15.756 15.756 0 01-2.307 1.423l-.548.305-.101.055-.055-.094a11.116 11.116 0 01-.939-1.853c.436.541.816 1.126 1.134 1.744l-.148-.047.547-.313a15.507 15.507 0 012.417-1.22z" fill="#fff"/><path d="M125.528 139.841l-11.524-3.784-2.355 7.17 11.525 3.785 2.354-7.171z" fill="#43AF55"/><path d="M125.514 139.846a3.239 3.239 0 01-.516.234l-1.439.564a393.07 393.07 0 01-4.786 1.783h-.079l-.054-.071-.188-.25c-1.259-1.658-2.346-3.167-3.199-4.27l-.946-1.306a3.464 3.464 0 01-.321-.501c.148.133.279.282.391.446l1.009 1.267a404.306 404.306 0 013.246 4.223l.187.258h-.125a267.136 267.136 0 014.818-1.72l1.455-.493a2.33 2.33 0 01.547-.164z" fill="#2A9348"/><path d="M117.318 140.456a23.538 23.538 0 01-2.792 1.486c-.933.497-1.9.928-2.894 1.291a22.198 22.198 0 012.792-1.494c.933-.497 1.9-.926 2.894-1.283zm6.046 6.624a20.535 20.535 0 01-1.314-2.737 22.103 22.103 0 01-1.111-2.831 39.9 39.9 0 012.425 5.568z" fill="#2A9348"/><path d="M32.952 50.084a16.33 16.33 0 11-11.833-19.85 16.34 16.34 0 0111.833 19.85z" fill="#5CCD6A"/><path d="M23.176 37.21c.29.118-1.564 5.585-4.145 12.217-.383.962-.743 1.885-1.103 2.792l-.195.493-.524-.188c-5.295-2.041-9.167-3.723-9.073-3.965.094-.242 4.114 1.025 9.448 2.956l-.688.313c.344-.907.704-1.838 1.071-2.8 2.605-6.632 4.928-11.927 5.209-11.817z" fill="#fff"/></g><defs><clipPath id="clip0_86_2175"><path fill="#fff" transform="translate(.784 .757)" d="M0 0h238.088v219.404H0z"/></clipPath></defs></svg>