<svg width="280" height="247" fill="none" xmlns="http://www.w3.org/2000/svg"><g opacity=".5" clip-path="url(#clip0_86_2007)"><path d="M12.527 42.203c.944-.6 1.966-1.07 3.037-1.395l.565-3.034 5.127-.194.802 2.991c1.092.247 2.146.637 3.135 1.159l2.558-1.747 3.76 3.482-1.549 2.676a12.662 12.662 0 011.391 3.033l3.038.57.194 5.121-2.995.795a12.452 12.452 0 01-1.16 3.137l1.75 2.548-3.47 3.78-2.703-1.584c-.945.6-1.966 1.07-3.037 1.396l-.572 3.034-5.12.194-.803-2.992a12.592 12.592 0 01-3.135-1.158l-2.52 1.76-3.761-3.483 1.549-2.676a12.687 12.687 0 01-1.397-3.034l-3.074-.558-.183-5.133 2.995-.794a12.453 12.453 0 011.16-3.137l-1.755-2.548 3.487-3.762 2.686 1.553zm2.873 6.765a5.488 5.488 0 004.244 9.218 5.503 5.503 0 004.946-3.581 5.484 5.484 0 00-1.42-5.934 5.508 5.508 0 00-7.77.297zm232.143 101.565a12.61 12.61 0 013.037-1.39l.565-3.033 5.128-.194.801 2.991c1.093.244 2.147.634 3.135 1.158l2.558-1.753 3.76 3.483-1.555 2.681a12.351 12.351 0 011.397 3.034l3.038.57.194 5.115-2.995.801a12.623 12.623 0 01-1.16 3.13l1.75 2.555-3.487 3.755-2.661-1.529a12.73 12.73 0 01-3.038 1.396l-.571 3.033-5.127.195-.796-2.992a12.339 12.339 0 01-3.135-1.158l-2.558 1.753-3.766-3.483 1.555-2.681a12.351 12.351 0 01-1.397-3.034l-3.038-.57-.2-5.115 2.995-.801c.246-1.09.637-2.143 1.16-3.13l-1.75-2.555 3.488-3.755 2.679 1.547-.006-.024zm2.873 6.765a5.486 5.486 0 001.15 8.421 5.51 5.51 0 006.112-.229 5.5 5.5 0 002.126-5.728 5.493 5.493 0 00-1.612-2.756 5.511 5.511 0 00-7.776.292zM19.325 14.822a5.715 5.715 0 011.427-.661l.261-1.42 2.382-.085.377 1.39c.505.112.994.292 1.452.533l1.215-.813 1.75 1.62-.748 1.262c.279.44.498.916.65 1.414l1.415.26.092 2.38-1.392.375a5.95 5.95 0 01-.54 1.456l.814 1.214-1.622 1.717-1.215-.722a5.692 5.692 0 01-1.458.649l-.268 1.414-2.363.097-.37-1.39a5.874 5.874 0 01-1.459-.54l-1.215.813-1.743-1.613.735-1.256a5.909 5.909 0 01-.65-1.408l-1.415-.267-.092-2.378 1.398-.37c.112-.507.292-.997.534-1.456l-.808-1.184 1.64-1.747 1.215.716zm1.336 3.149a2.552 2.552 0 001.99 4.272 2.56 2.56 0 002.296-1.656 2.552 2.552 0 00-.64-2.756 2.556 2.556 0 00-2.823-.452 2.556 2.556 0 00-.81.592h-.013z" fill="#B4FFCD"/><path d="M34.92 228.532l-6.337 2.585s2.175 5.315-3.317 7.669a5.547 5.547 0 01-6.3-1.213 6.122 6.122 0 01-1.652-5.309c.352-2.209 2.047-4.781 6.628-5.776L18.109 212.2l-6.263 2.56 3.408 8.354s-7.861 5.861-3.894 15.532c3.79 9.253 12.976 8.003 16.537 6.553 2.715-1.092 11.712-5.558 7.022-16.667zm-24.355-16.69l6.36-2.599-2.43-5.93-6.36 2.599 2.43 5.93zM256.358 69.487l5.862 2.427s2.066-4.914 7.217-2.864A5.136 5.136 0 01272.76 74a5.686 5.686 0 01-2.43 4.569c-1.682 1.214-4.489 1.82-8.146-.551l-5.547 13.202 5.802 2.427 3.244-7.736s9.015 1.31 12.758-7.645c3.596-8.56-3.257-13.766-6.549-15.168-2.479-1.007-11.312-3.992-15.534 6.39zm5.019 26.949l-5.882-2.464-2.305 5.49 5.882 2.463 2.305-5.49z" fill="#EBEBEB"/><path d="M243.843 8.312l-7.145 20.137a3.452 3.452 0 001.72 4.247 3.461 3.461 0 004.562-1.396l10.607-18.772a2.704 2.704 0 00-.394-3.195 2.72 2.72 0 00-.942-.645l-4.818-1.978a2.718 2.718 0 00-3.59 1.602zm-4.939 37.635a5.214 5.214 0 01-5.601 1.472 5.202 5.202 0 01-.588-9.601 5.22 5.22 0 016.972 2.397 5.206 5.206 0 01.243 3.978 5.197 5.197 0 01-1.026 1.754z" fill="#E0E0E0"/><path d="M244.961 104.98a36.965 36.965 0 004.568-25.166 11.572 11.572 0 00-.212-1.026c-.608-2.979-1.112-5.4-2.558-7.924-.146-.321-.292-.606-.45-.946-.158-.34-.315-.607-.48-.928a37.089 37.089 0 00-12.812-13.488 37.159 37.159 0 00-17.758-5.582c-2.138-20.221-16.287-38.714-35.235-46.11-18.949-7.396-41.919-3.282-57.173 10.18-16.148-12.03-38.42-15.38-57.355-8.597-18.937 6.784-34.021 23.499-38.82 43.035-1.465 5.976-2.072 12.304-5.122 17.643-2.308 4.035-5.838 7.196-8.851 10.727A50.985 50.985 0 002.339 96.263a50.943 50.943 0 007.07 42.465 51.048 51.048 0 0016.112 15.069c-10.2 13.991-6.622 36.021 7.485 46.074 8.098 5.77 18.9 7.984 25.072 15.775 2.624 3.318 4.143 7.359 6.421 10.921 7.746 12.134 24.957 17.067 37.97 10.92l69.123-17.528a91.202 91.202 0 0064.961-20.658c6.628-5.552 12.581-12.226 15.449-20.398 2.867-8.173 2.187-17.886-3.323-24.53 13.043-13.408 11.154-38.102-3.718-49.393z" fill="#E9E9E9"/><path d="M41.826 179.932c-.11-1.16-.066-2.33.134-3.479l-2.557-1.974 2.225-4.858 3.159.664a13.24 13.24 0 012.56-2.374l-.423-3.196 5.02-1.86 1.76 2.702a13.184 13.184 0 013.482.133l1.975-2.561 4.853 2.222-.7 3.159a13.033 13.033 0 012.364 2.557l3.2-.425 1.853 5.022-2.707 1.763c.121 1.15.092 2.311-.088 3.454l2.557 1.974-2.23 4.856-3.16-.664a12.873 12.873 0 01-2.557 2.369l.421 3.201-5.02 1.86-1.764-2.71c-1.16.114-2.33.071-3.478-.125l-1.976 2.561-4.85-2.227.663-3.165a12.975 12.975 0 01-2.365-2.557l-3.194.427-1.853-5.021 2.704-1.771-.008.043zm7.648.512a5.717 5.717 0 005.155 3.731 5.74 5.74 0 004.417-9.632 5.72 5.72 0 00-6.19-1.471 5.74 5.74 0 00-3.218 2.986 5.727 5.727 0 00-.164 4.386z" fill="#fff"/><path d="M177.278 51.735a7.153 7.153 0 011.713-.783l.316-1.717 2.892-.11.449 1.687a6.932 6.932 0 011.762.65l1.44-.983 2.12 1.96-.875 1.504a7.15 7.15 0 01.79 1.711l1.713.322.11 2.882-1.683.449a7.32 7.32 0 01-.656 1.765l.984 1.438-1.962 2.117-1.507-.873a7.149 7.149 0 01-1.713.782l-.322 1.717-2.886.11-.45-1.687a7.046 7.046 0 01-1.767-.65l-1.44.984-2.12-1.96.874-1.51a7.105 7.105 0 01-.82-1.706l-1.719-.321-.103-2.882 1.689-.455a6.754 6.754 0 01.656-1.76l-.978-1.425 1.962-2.118 1.531.862zm1.616 3.81a3.093 3.093 0 002.395 5.192 3.103 3.103 0 002.786-2.019 3.09 3.09 0 00-.801-3.343 3.103 3.103 0 00-4.398.17h.018zM78.676 211.537a9.12 9.12 0 01.07-2.45l-1.79-1.368 1.556-3.4 2.218.441a9.254 9.254 0 011.788-1.655l-.295-2.239 3.5-1.301 1.228 1.887a9.107 9.107 0 012.434.094l1.371-1.798 3.393 1.559-.443 2.22a9.103 9.103 0 011.655 1.783l2.233-.301 1.301 3.504-1.89 1.236c.069.819.03 1.644-.118 2.453l1.787 1.373-1.553 3.395-2.218-.441a9.262 9.262 0 01-1.784 1.658l.302 2.215-3.506 1.298-1.228-1.888c-.8.075-1.605.041-2.396-.102l-1.371 1.798-3.393-1.559.443-2.22a9.074 9.074 0 01-1.655-1.783l-2.219.301-1.301-3.504 1.895-1.233-.014.027zm5.34.358a4.002 4.002 0 007.395.268 4.014 4.014 0 00-.704-4.397 4.004 4.004 0 00-4.328-1.028 4.018 4.018 0 00-2.363 5.157z" fill="#78C081"/><path d="M182.755 185.579a9.119 9.119 0 012.218-1.013l.413-2.221 3.736-.139.607 2.178a9.138 9.138 0 012.285.843l1.865-1.274 2.74 2.536-1.13 1.954c.418.691.745 1.433.972 2.208l2.217.419.146 3.725-2.181.607a9.249 9.249 0 01-.845 2.281l1.276 1.863-2.539 2.736-1.956-1.128a9.127 9.127 0 01-2.193.964l-.414 2.221-3.736.139-.607-2.178a9.1 9.1 0 01-2.285-.843l-1.859 1.274-2.746-2.536 1.137-1.954a9.093 9.093 0 01-1.021-2.208l-2.218-.413-.145-3.731 2.187-.607a9.021 9.021 0 01.844-2.281l-1.276-1.863 2.54-2.736 1.95 1.129.018.048zm2.096 4.927a3.999 3.999 0 00.84 6.133 4.016 4.016 0 004.451-.167 3.997 3.997 0 001.55-4.171 4.01 4.01 0 00-6.841-1.795zm-130.777-81.4a7.843 7.843 0 00-4.981-4.605c-1.932-.552-4.21-.334-5.717-1.662-.717-.607-1.142-1.529-1.774-2.245a7.238 7.238 0 00-4.544-2.124c-5.674-.764-10.88 3.113-12.946 7.651-2.321 1.535-4.684 3.1-6.434 5.26-1.75 2.16-2.83 5.042-2.187 7.742.48 1.984 1.823 3.677 2.315 5.655.443 1.82.146 3.713.291 5.569.146 1.857.936 3.895 2.673 4.575 2.139.831 4.794-.74 6.774.431 1.343.794 1.774 2.536 2.874 3.64 1.901 1.923 5.109 1.432 7.673.546a41.507 41.507 0 008.462-4.035 16.796 16.796 0 004.648-3.968 7.688 7.688 0 001.628-5.739c-.207-1.214-.802-2.391-.875-3.641-.14-2.196 1.312-4.131 2.09-6.188a9.496 9.496 0 00.03-6.862z" fill="#fff"/><path d="M49.834 132.926l-5.547 3.816-.006.006 5.674 2.008-.121-5.83z" fill="#F5F5F5"/><path d="M31.754 119.177a2.279 2.279 0 01-1.41 2.108 2.285 2.285 0 01-2.984-2.981 2.28 2.28 0 012.11-1.408 2.28 2.28 0 012.284 2.281zm7.102 0a2.287 2.287 0 01-2.733 2.251 2.292 2.292 0 01-1.803-1.796 2.284 2.284 0 01.973-2.35 2.29 2.29 0 013.563 1.895zm7.096 0a2.279 2.279 0 01-1.41 2.108 2.285 2.285 0 01-2.985-2.981 2.28 2.28 0 012.11-1.408 2.28 2.28 0 012.284 2.281z" fill="#495E4C"/><path d="M227.975 70.585c-.517-.83-1.616-1.031-2.594-1.116a42.49 42.49 0 00-10.602.37c-1.215.194-3.001.085-3.122-1.165a1.754 1.754 0 011.288-1.608c1.215-.46 2.533-.242 3.815-.273 1.282-.03 2.734-.455 3.25-1.626.784-1.777-1.251-3.64-3.177-3.9-1.926-.262-3.949.248-5.802-.328l-4.052.084a35.244 35.244 0 00-8.858 1.287c-.808.224-1.761.655-1.822 1.486-.061.831.784 1.378 1.172 2.1.784 1.456-.492 3.282-2.041 3.852-1.549.57-3.268.346-4.915.467-1.646.122-3.481.82-4.027 2.379-.432 1.213.085 2.627-.292 3.87-.48 1.584-2.23 2.427-3.858 2.707-1.628.279-3.353.242-4.86.934a5.354 5.354 0 00-3.024 5.938 5.352 5.352 0 005.114 4.279c1.166 0 2.315-.322 3.475-.382a3.982 3.982 0 012.43.606 6.114 6.114 0 001.265 3.42 6.131 6.131 0 002.988 2.096c1.61.43 3.335.157 4.963.503 1.628.346 3.311 1.73 3.001 3.361-.225 1.171-1.385 2.027-1.476 3.21-.116 1.45 1.458 2.506 2.91 2.639 1.452.134 2.898-.315 4.35-.23 1.452.084 3.074 1.007 3.11 2.457.037 1.62-1.871 2.76-1.901 4.374-.031 1.353 1.263 2.354 2.527 2.84 1.263.485 2.685.74 3.681 1.656.997.916 1.161 2.876-.079 3.422 2.005-.067 3.178-2.973 1.823-4.411-.863-.892-2.309-1.135-2.971-2.184-.741-1.165-.097-2.779.972-3.64 1.069-.862 2.43-1.256 3.706-1.821 1.276-.564 2.521-1.462 2.849-2.803.486-2.008-1.44-3.913-3.463-4.362-2.023-.449-4.118.061-6.184.182s-4.417-.297-5.583-2.008l6.755-3.21a2.548 2.548 0 001.501-1.298c.377-1.159-.948-2.105-2.059-2.609l-4.399-1.996a2.51 2.51 0 00-.176-.783c2.673-1.092 5.692-.673 8.554-.285 2.861.388 5.917.692 8.505-.607 2.588-1.298 4.253-4.805 2.582-7.165-.893-1.268-2.625-2.142-2.667-3.701 0-1.286 1.215-2.257 2.43-2.67 1.215-.412 2.564-.497 3.694-1.116 1.13-.619 1.974-2.154 1.294-3.222z" fill="#fff"/><path d="M195.892 80.13a2.186 2.186 0 002.187-2.185 2.186 2.186 0 00-2.187-2.184 2.186 2.186 0 00-2.187 2.184c0 1.206.979 2.184 2.187 2.184zm8.973-2.185a2.187 2.187 0 11-4.208-.836 2.187 2.187 0 014.208.836zm4.605 2.185a2.186 2.186 0 002.187-2.185 2.186 2.186 0 00-2.187-2.184 2.186 2.186 0 00-2.187 2.184c0 1.206.979 2.184 2.187 2.184z" fill="#495E4C"/><path d="M56.383 27.63a12.472 12.472 0 00-6.888 2.037 12.449 12.449 0 00-4.617 5.497 12.43 12.43 0 002.453 13.519c-5.978 1.274-9.781 8.27-8.208 14.155 1.574 5.885 7.898 9.907 13.973 9.489 6.075-.419 11.543-4.854 13.785-10.551a12.427 12.427 0 004.385 5.91 12.453 12.453 0 0018.815-5.182c2.692 5.005 10.359 5.837 14.751 2.233 4.392-3.604 5.395-10.315 3.293-15.575-2.102-5.26-6.786-9.18-11.932-11.57 3.287-2.96 3.7-8.385 1.355-12.134-2.345-3.75-6.956-5.764-11.397-5.534-4.441.231-8.584 2.47-11.707 5.594a9.104 9.104 0 00-3.737-4.588 9.122 9.122 0 00-11.141 1.173 9.096 9.096 0 00-2.697 5.266" fill="#fff"/><path d="M63.132 38.466l5.71 10.041a1.865 1.865 0 002.346.8 1.87 1.87 0 001.045-2.353l-3.925-10.952a1.472 1.472 0 00-1.449-.972c-.208.008-.412.06-.598.154l-2.51 1.268a1.465 1.465 0 00-.795 1.456c.02.196.08.386.176.558zm13.645 15.338a2.812 2.812 0 01-1.388 2.803 2.822 2.822 0 01-4.076-1.535 2.81 2.81 0 01.81-3.02 2.82 2.82 0 014.654 1.752z" fill="#495E4C"/><path d="M81.594 32.49l.189 9.968a1.606 1.606 0 001.446 1.571 1.611 1.611 0 001.761-1.353l1.556-9.938a1.266 1.266 0 00-1.215-1.462l-2.43-.073a1.27 1.27 0 00-1.306 1.287zm4.022 17.249a2.427 2.427 0 01-2.203 1.556 2.434 2.434 0 01-2.284-1.436 2.424 2.424 0 011.677-3.355 2.433 2.433 0 012.76 1.376 2.424 2.424 0 01.05 1.858z" fill="#E0E0E0"/><path d="M201.557 140.326l-5.17 14.561a2.516 2.516 0 001.245 3.082 2.512 2.512 0 003.305-1.013l7.679-13.59a1.967 1.967 0 00-.966-2.785l-3.487-1.432a1.977 1.977 0 00-2.199.496c-.18.197-.319.429-.407.681zm-3.572 27.242a3.78 3.78 0 01-4.055 1.065 3.767 3.767 0 011.742-7.294 3.771 3.771 0 013.056 4.96 3.775 3.775 0 01-.743 1.269zM117.966 33.412h4.921s0-4.533 4.295-4.611a4.006 4.006 0 013.858 2.785 5.236 5.236 0 01-.346 4.368c-.839 1.51-2.667 2.882-5.984 2.245v12.164h4.86v-7.129s6.828-1.929 6.828-10.18c0-7.888-6.458-9.708-9.222-9.708-2.102-.018-9.301.522-9.21 10.066zm11.677 19.457h-4.946v5.06h4.946v-5.06z" fill="#fff"/><path d="M242.44 120.755s.066-.067.206-.182c.221-.17.473-.295.741-.37a2.615 2.615 0 011.349 0 2.737 2.737 0 011.567.995c.49.641.766 1.42.79 2.226a5.554 5.554 0 01-.674 2.779 16.899 16.899 0 01-4.812 5.279 39.883 39.883 0 01-3.56 2.366c-1.282.77-2.642 1.559-4.113 2.299a29.002 29.002 0 01-4.769 1.924c-.872.269-1.764.472-2.667.606-.938.143-1.888.194-2.837.152a5.163 5.163 0 01-2.843-.728 2.055 2.055 0 01-.856-1.262 2.575 2.575 0 01.188-1.541 7.842 7.842 0 011.92-2.482 22.898 22.898 0 012.496-2.038c1.781-1.262 3.682-2.427 5.638-3.64 2-1.266 4.146-2.284 6.391-3.034a15.923 15.923 0 013.609-.71 9.95 9.95 0 013.748.352 5.276 5.276 0 013.092 2.251 4.189 4.189 0 01.073 3.865 6.675 6.675 0 01-2.74 2.912 16.233 16.233 0 01-3.772 1.596 25.262 25.262 0 01-8.329.801 62.301 62.301 0 01-8.578-1.214 38.155 38.155 0 01-4.32-1.056 17.965 17.965 0 01-2.102-.813 5.268 5.268 0 01-1.901-1.292 2.123 2.123 0 01-.51-1.08 2.021 2.021 0 01.2-1.213 4.087 4.087 0 011.671-1.638 10.784 10.784 0 014.477-1.281 54.795 54.795 0 019.465 0c1.604.146 3.199.385 4.775.716a25.01 25.01 0 012.369.607 6.547 6.547 0 012.279.989 2.433 2.433 0 011.02 2.275 3.102 3.102 0 01-.602 1.137 3.112 3.112 0 01-1.014.793 13.17 13.17 0 01-7.296 1.65 8.985 8.985 0 01-2.515-.467 3.843 3.843 0 01-2.06-1.572 2.713 2.713 0 010-2.584 4.558 4.558 0 014.435-2.361c.91.071 1.757.491 2.363 1.171a3.48 3.48 0 01.802 2.524c-.04.461-.192.904-.443 1.293-.26.381-.614.691-1.027.898a3.925 3.925 0 01-2.661.267 3.044 3.044 0 01-2.168-1.584 1.463 1.463 0 01.139-1.401 1.988 1.988 0 011.179-.771 5.475 5.475 0 012.685.322 8.53 8.53 0 012.46 1.11 4.63 4.63 0 011.714 2.117 3.225 3.225 0 01-.146 2.725 4.912 4.912 0 01-1.975 1.886 6.795 6.795 0 01-2.618.844 7.811 7.811 0 01-5.273-1.299 9.54 9.54 0 01-3.402-4.295 8.006 8.006 0 01-.365-5.461 4.559 4.559 0 011.634-2.281 7.008 7.008 0 012.558-1.11 19.93 19.93 0 015.468-.431c1.823.026 3.64.229 5.425.607a7.699 7.699 0 014.556 2.888c.529.762.842 1.653.905 2.578a6.522 6.522 0 01-.425 2.688 9.234 9.234 0 01-3.366 4.126c-.72.52-1.475.99-2.26 1.407-.772.43-1.569.813-2.387 1.147a9.294 9.294 0 01-5.206.649 15.193 15.193 0 01-8.597-5.527 9.705 9.705 0 01-1.749-4.793c-.144-1.7.086-3.41.674-5.012a11.964 11.964 0 012.637-4.247 13.694 13.694 0 014.015-2.9 14.531 14.531 0 014.727-1.292c1.64-.15 3.293.013 4.872.479a7.659 7.659 0 013.979 2.621 8.483 8.483 0 011.476 4.466 19.889 19.889 0 01-1.591 9.034 18.349 18.349 0 01-2.254 3.919 11.027 11.027 0 01-3.335 2.955 7.912 7.912 0 01-4.253.989 6.794 6.794 0 01-3.955-1.675 23.914 23.914 0 01-2.91-3.076 13.89 13.89 0 01-2.345-3.458 6.114 6.114 0 01-.462-2.02 5.9 5.9 0 01.292-2.039 10.675 10.675 0 012.029-3.458 12.511 12.511 0 016.428-4.217 9.414 9.414 0 017.235.983 10.923 10.923 0 014.313 5.521c.81 2.1 1.092 4.367.821 6.601a9.21 9.21 0 01-2.752 5.624 11.12 11.12 0 01-5.359 2.536 16.484 16.484 0 01-5.546.237 8.432 8.432 0 01-4.617-2.172 9.425 9.425 0 01-2.503-3.956 9.675 9.675 0 01-.407-4.247 12.208 12.208 0 012.904-6.467 15.016 15.016 0 014.082-3.295c.94-.527 1.926-.967 2.946-1.316.693-.237 1.057-.328 1.057-.328l-.267.091-.777.267a18.98 18.98 0 00-2.929 1.341 15.112 15.112 0 00-4.04 3.3 12.132 12.132 0 00-2.855 6.425 9.591 9.591 0 00.413 4.181 9.358 9.358 0 002.485 3.895 8.275 8.275 0 004.538 2.117 16.39 16.39 0 005.468-.248 11.019 11.019 0 005.261-2.494 9.063 9.063 0 002.679-5.521 13.558 13.558 0 00-.808-6.529 10.688 10.688 0 00-4.253-5.399 9.114 9.114 0 00-7.016-.941 12.225 12.225 0 00-6.294 4.144 10.351 10.351 0 00-1.981 3.38 5.692 5.692 0 00-.279 1.947c.04.666.192 1.32.449 1.936a13.513 13.513 0 002.254 3.409 23.811 23.811 0 002.88 3.034 6.573 6.573 0 003.809 1.62 7.702 7.702 0 004.119-.965 10.84 10.84 0 003.25-2.888 17.931 17.931 0 002.217-3.859 19.606 19.606 0 001.562-8.9 8.227 8.227 0 00-1.422-4.32 7.334 7.334 0 00-3.833-2.512 12.54 12.54 0 00-4.702-.473c-1.604.153-3.17.58-4.63 1.262a12.539 12.539 0 00-6.494 6.989 11.362 11.362 0 00-.656 4.854 9.374 9.374 0 001.695 4.69 14.819 14.819 0 008.402 5.4 8.908 8.908 0 005.036-.607 21.958 21.958 0 002.351-1.128 19.461 19.461 0 002.224-1.384 8.958 8.958 0 003.262-3.986 6.233 6.233 0 00.401-2.554 4.746 4.746 0 00-.851-2.427 7.369 7.369 0 00-4.374-2.761 27.655 27.655 0 00-5.358-.606 19.675 19.675 0 00-5.395.418 6.76 6.76 0 00-2.43 1.062 4.25 4.25 0 00-1.525 2.124 7.758 7.758 0 00.359 5.266 9.234 9.234 0 003.287 4.156 7.49 7.49 0 005.06 1.213 6.463 6.463 0 002.497-.8 4.628 4.628 0 001.823-1.79 2.917 2.917 0 00.133-2.464 4.327 4.327 0 00-1.598-1.971 8.358 8.358 0 00-2.375-1.068 5.31 5.31 0 00-2.521-.316 1.695 1.695 0 00-.996.643 1.154 1.154 0 00-.104 1.111 2.741 2.741 0 001.944 1.395 3.649 3.649 0 002.43-.236 2.36 2.36 0 001.307-1.948 3.074 3.074 0 00-.727-2.292 3.06 3.06 0 00-2.159-1.063 4.255 4.255 0 00-4.131 2.184 2.415 2.415 0 000 2.3 3.508 3.508 0 001.895 1.437 8.906 8.906 0 002.43.455c.827.048 1.657.02 2.479-.084a12.823 12.823 0 004.647-1.523 2.796 2.796 0 001.471-1.729 2.117 2.117 0 00-.906-1.984 6.277 6.277 0 00-2.175-.941 63.817 63.817 0 00-2.351-.607 41.378 41.378 0 00-4.738-.716 54.272 54.272 0 00-9.411-.036 10.494 10.494 0 00-4.362 1.214c-.657.344-1.2.874-1.561 1.522a1.733 1.733 0 00.267 1.966 5.065 5.065 0 001.823 1.214c.672.311 1.364.578 2.072.8 1.408.433 2.84.783 4.289 1.05a62.078 62.078 0 008.523 1.305 24.75 24.75 0 008.244-.789 15.521 15.521 0 003.706-1.559 6.441 6.441 0 002.649-2.797 3.976 3.976 0 00-.055-3.641 5.005 5.005 0 00-2.953-2.148 9.612 9.612 0 00-3.645-.345 15.99 15.99 0 00-3.566.691 29.555 29.555 0 00-6.342 2.997c-1.95 1.214-3.858 2.373-5.632 3.641-.872.613-1.7 1.286-2.478 2.014a7.681 7.681 0 00-1.878 2.427 2.38 2.38 0 00-.182 1.426c.107.47.387.884.784 1.159a4.964 4.964 0 002.74.697c.938.044 1.878-.005 2.806-.145a17.848 17.848 0 002.643-.607 28.982 28.982 0 004.751-1.905c1.464-.728 2.825-1.511 4.113-2.275a40.774 40.774 0 003.554-2.354 16.765 16.765 0 004.799-5.218 5.453 5.453 0 00.68-2.736 3.797 3.797 0 00-.759-2.191 2.733 2.733 0 00-1.531-.989 2.651 2.651 0 00-1.33 0 2.33 2.33 0 00-.972.504z" fill="#F5F5F5"/><path d="M178.225 17.407a3.493 3.493 0 011.513-.904 4.26 4.26 0 012.163 0c.992.226 1.875.79 2.497 1.595a6.132 6.132 0 011.257 3.556 8.918 8.918 0 01-1.087 4.435c-1.555 2.96-4.253 5.83-7.697 8.433a63.715 63.715 0 01-5.705 3.792c-2.059 1.214-4.252 2.494-6.591 3.677a46.874 46.874 0 01-7.637 3.112 28.46 28.46 0 01-4.252.94c-1.5.227-3.017.31-4.532.25a8.28 8.28 0 01-4.539-1.19 3.313 3.313 0 01-1.348-1.996 3.991 3.991 0 01.304-2.427 12.362 12.362 0 013.037-3.956 36.808 36.808 0 013.991-3.258c1.422-1.019 2.904-1.978 4.417-2.936 1.513-.959 3.038-1.936 4.617-2.888a47.167 47.167 0 0110.225-4.854 26.472 26.472 0 015.771-1.128 15.932 15.932 0 015.984.564 10.34 10.34 0 012.776 1.316 6.787 6.787 0 012.133 2.257 6.667 6.667 0 01.109 6.128 10.71 10.71 0 01-4.362 4.636 25.744 25.744 0 01-6.02 2.536 40.022 40.022 0 01-13.323 1.28 99.341 99.341 0 01-13.73-1.99 63.613 63.613 0 01-6.907-1.687 29.364 29.364 0 01-3.348-1.304 8.572 8.572 0 01-3.037-2.057 3.327 3.327 0 01-.76-1.68 3.106 3.106 0 01.322-1.851 6.528 6.528 0 012.637-2.59 17.106 17.106 0 017.138-2.027 87.795 87.795 0 0115.152.042 66.05 66.05 0 017.636 1.153c1.27.26 2.533.607 3.791.928 1.304.286 2.542.82 3.645 1.572.54.411.978.94 1.282 1.547.322.617.433 1.322.316 2.008a3.602 3.602 0 01-.954 1.79 7.01 7.01 0 01-1.592 1.244 20.99 20.99 0 01-7.588 2.5 21.997 21.997 0 01-4.046.133 14.153 14.153 0 01-4.046-.753 6 6 0 01-3.25-2.475 3.91 3.91 0 01-.51-2.033 4.9 4.9 0 01.528-2.026 7.198 7.198 0 017.011-3.72 5.329 5.329 0 013.731 1.848 5.308 5.308 0 011.257 3.965 4.157 4.157 0 01-2.303 3.44 6.21 6.21 0 01-4.204.413 4.796 4.796 0 01-3.402-2.476 2.237 2.237 0 01.213-2.16 3.093 3.093 0 011.822-1.213 5.226 5.226 0 012.169 0c.711.128 1.397.316 2.084.51 1.393.377 2.716.975 3.918 1.771a7.282 7.282 0 012.716 3.35c.264.688.386 1.423.358 2.16a5.073 5.073 0 01-.607 2.123 7.733 7.733 0 01-3.111 3.033 9.99 9.99 0 01-2.004.88c-.7.224-1.42.377-2.151.455a12.43 12.43 0 01-8.384-2.063 15.142 15.142 0 01-5.413-6.843 14.586 14.586 0 01-1.057-4.302 10.82 10.82 0 01.474-4.417 7.28 7.28 0 012.582-3.64 11.42 11.42 0 014.071-1.766 31.78 31.78 0 018.76-.68c2.91.146 5.832.262 8.675.971 2.843.71 5.553 2.172 7.242 4.587a8.13 8.13 0 011.446 4.102 10.209 10.209 0 01-.669 4.247c-1.014 2.73-3.074 4.908-5.364 6.57a31.695 31.695 0 01-3.609 2.251 35.428 35.428 0 01-3.815 1.82c-1.311.53-2.679.908-4.076 1.123a13.067 13.067 0 01-4.21-.091 21.817 21.817 0 01-7.661-3.18 21.672 21.672 0 01-6.075-5.575 15.452 15.452 0 01-2.783-7.633 19.093 19.093 0 012.844-11.624c.334-.577.759-1.098 1.136-1.65.376-.553.844-1.038 1.312-1.511a21.924 21.924 0 016.409-4.623 22.902 22.902 0 017.545-2.063c2.589-.225 5.196.04 7.685.782a12.153 12.153 0 016.337 4.169 13.611 13.611 0 012.345 7.116 31.896 31.896 0 01-2.546 14.434 29.067 29.067 0 01-3.602 6.256 17.53 17.53 0 01-5.316 4.714 12.673 12.673 0 01-6.792 1.583 10.159 10.159 0 01-3.384-.831 12.519 12.519 0 01-2.91-1.82 38.628 38.628 0 01-4.659-4.915 21.988 21.988 0 01-3.645-5.545 10.002 10.002 0 01-.736-3.216 9.366 9.366 0 01.468-3.233 16.929 16.929 0 013.232-5.515 19.981 19.981 0 0110.261-6.735 14.963 14.963 0 0111.543 1.565 15.549 15.549 0 014.216 3.89 20.146 20.146 0 012.667 4.914c1.3 3.37 1.745 7.01 1.294 10.593a16.615 16.615 0 01-1.434 4.945 13.423 13.423 0 01-2.952 4.04c-2.43 2.252-5.553 3.422-8.548 4.047a26.489 26.489 0 01-8.87.377 14.304 14.304 0 01-4.034-1.214 12.972 12.972 0 01-3.341-2.263 15.173 15.173 0 01-4.016-6.328 15.524 15.524 0 01-.656-6.777 18.626 18.626 0 011.714-5.861 20.65 20.65 0 012.922-4.514 24.24 24.24 0 016.524-5.272 28.52 28.52 0 014.721-2.124 21.859 21.859 0 011.683-.528l-.42.14c-.285.085-.704.224-1.251.419a29.331 29.331 0 00-4.702 2.147 24.224 24.224 0 00-6.482 5.279 20.373 20.373 0 00-2.904 4.483 18.527 18.527 0 00-1.689 5.825 15.389 15.389 0 00.662 6.716 15.001 15.001 0 003.991 6.262 13.324 13.324 0 007.29 3.41c2.938.367 5.917.234 8.809-.395 2.977-.607 6.076-1.82 8.457-4.01a13.39 13.39 0 002.904-3.98 16.535 16.535 0 001.409-4.897 21.738 21.738 0 00-1.288-10.49A20.25 20.25 0 00173.791 22a15.379 15.379 0 00-4.156-3.828c-3.262-2.05-7.484-2.512-11.366-1.529a19.74 19.74 0 00-10.128 6.674 16.712 16.712 0 00-3.183 5.46 8.928 8.928 0 00-.449 3.15 9.508 9.508 0 00.716 3.13 21.857 21.857 0 003.645 5.46 37.69 37.69 0 004.624 4.854 10.571 10.571 0 006.148 2.609 12.364 12.364 0 006.64-1.553 17.304 17.304 0 005.237-4.642 29.316 29.316 0 003.56-6.2 31.685 31.685 0 002.515-14.3 13.34 13.34 0 00-2.297-6.972 11.867 11.867 0 00-6.184-4.059 20.41 20.41 0 00-7.631-.746 22.614 22.614 0 00-7.442 2.033 21.746 21.746 0 00-6.318 4.562c-.461.467-.862.989-1.294 1.486-.431.498-.789 1.056-1.118 1.627a18.83 18.83 0 00-2.776 11.424 15.156 15.156 0 002.728 7.487 21.458 21.458 0 005.978 5.497 21.561 21.561 0 007.545 3.191 12.82 12.82 0 004.113.085c1.39-.207 2.75-.578 4.052-1.104a34.864 34.864 0 003.785-1.82 31.993 31.993 0 003.572-2.233c2.26-1.638 4.253-3.774 5.249-6.425a10.01 10.01 0 00.656-4.132 7.748 7.748 0 00-1.379-3.925 10.213 10.213 0 00-3.104-2.858 14.162 14.162 0 00-3.955-1.608 45.18 45.18 0 00-8.609-.958 31.274 31.274 0 00-8.669.673c-1.42.305-2.766.886-3.961 1.711a6.977 6.977 0 00-2.473 3.458 10.565 10.565 0 00-.455 4.29 14.205 14.205 0 001.033 4.21 14.796 14.796 0 005.303 6.674 12.091 12.091 0 008.147 2.051 10.6 10.6 0 002.09-.449 9.27 9.27 0 001.95-.85 7.399 7.399 0 002.983-2.906 4.769 4.769 0 00.556-1.987 4.74 4.74 0 00-.338-2.035 6.977 6.977 0 00-2.594-3.204 13.308 13.308 0 00-3.839-1.717c-1.343-.37-2.752-.819-4.089-.51a2.793 2.793 0 00-1.646 1.069 1.92 1.92 0 00-.182 1.862 3.588 3.588 0 001.312 1.499 5.363 5.363 0 001.877.795 5.886 5.886 0 003.985-.383 3.824 3.824 0 002.139-3.191 5.001 5.001 0 00-4.708-5.46 6.894 6.894 0 00-6.683 3.55 4.497 4.497 0 00-.498 1.892 3.631 3.631 0 00.474 1.875 5.678 5.678 0 003.086 2.341 14.08 14.08 0 003.894.729c1.33.079 2.664.036 3.985-.128a20.681 20.681 0 007.479-2.463 6.816 6.816 0 001.525-1.213 3.256 3.256 0 00.875-1.657 3.513 3.513 0 00-.297-1.825 3.514 3.514 0 00-1.186-1.42 10.182 10.182 0 00-3.517-1.518 59.007 59.007 0 00-3.773-.928 66.531 66.531 0 00-7.606-1.147 87.71 87.71 0 00-15.091-.054 16.8 16.8 0 00-7.022 1.99 6.288 6.288 0 00-2.534 2.475 2.824 2.824 0 00-.291 1.687c.087.578.343 1.118.735 1.553a8.241 8.241 0 002.916 1.984c1.084.497 2.198.927 3.335 1.286a63.393 63.393 0 006.877 1.68 98.2 98.2 0 0013.693 1.997 39.913 39.913 0 0013.232-1.262 25.41 25.41 0 005.96-2.506 10.39 10.39 0 004.252-4.52 6.41 6.41 0 00-.091-5.91 6.563 6.563 0 00-2.059-2.183 10.339 10.339 0 00-2.716-1.293 15.652 15.652 0 00-5.893-.552 26.107 26.107 0 00-5.723 1.11 47.132 47.132 0 00-10.181 4.818c-1.574.946-3.105 1.923-4.618 2.882-1.512.958-2.995 1.91-4.404 2.924a35.09 35.09 0 00-3.979 3.24 12.202 12.202 0 00-3.038 3.883 3.893 3.893 0 00-.291 2.324c.168.767.625 1.44 1.275 1.88a8.102 8.102 0 004.423 1.135 23.075 23.075 0 004.502-.242 28.578 28.578 0 004.252-.929 46.997 46.997 0 007.612-3.033c2.352-1.171 4.533-2.427 6.592-3.64a64.386 64.386 0 005.698-3.774c3.439-2.591 6.13-5.461 7.685-8.38a8.836 8.836 0 001.094-4.392 6.068 6.068 0 00-1.215-3.525 4.45 4.45 0 00-4.581-1.59 3.599 3.599 0 00-1.525.82zM67.961 88.406s-.115 0-.334-.036l-.984-.152a14.513 14.513 0 01-3.645-1.055 6.9 6.9 0 01-2.242-1.626 5.142 5.142 0 01-1.367-2.973 3.514 3.514 0 01.34-1.82 3.91 3.91 0 011.325-1.463 3.12 3.12 0 012.029-.51 2.601 2.601 0 011.823 1.214 3.74 3.74 0 01.498 2.251 5.763 5.763 0 01-.68 2.306c-.2.367-.445.707-.73 1.013-.28.32-.584.615-.911.886a8.889 8.889 0 01-2.266 1.268 9.125 9.125 0 01-2.637.534 8.518 8.518 0 01-2.758-.28 8.022 8.022 0 01-2.588-1.213 7.064 7.064 0 01-1.968-2.178 8.908 8.908 0 01-1.087-5.891 8.294 8.294 0 011.075-2.955c.278-.46.606-.886.978-1.274.363-.412.802-.75 1.294-.995a2.245 2.245 0 011.67-.2c.282.095.539.25.754.455.2.218.349.48.431.764a3.545 3.545 0 010 1.693 7.105 7.105 0 01-.553 1.584 39.196 39.196 0 01-1.695 2.875 14.602 14.602 0 01-2.156 2.633 8.414 8.414 0 01-2.898 1.82c-1.077.4-2.25.468-3.366.195a6.234 6.234 0 01-2.861-1.687 8.674 8.674 0 01-1.823-2.718 18.263 18.263 0 01-1.123-6.195 15.173 15.173 0 01.054-3.064 4.317 4.317 0 011.319-2.772c.396-.33.879-.54 1.39-.607a3.04 3.04 0 011.483.17 3.929 3.929 0 012.126 1.917c.395.86.542 1.81.425 2.749a8.23 8.23 0 01-.71 2.59c-.35.793-.79 1.542-1.313 2.233-.508.66-1.08 1.27-1.707 1.82a12.58 12.58 0 01-4.052 2.348 11.276 11.276 0 01-4.191.637 10.948 10.948 0 01-3.7-.8 12.23 12.23 0 01-4.86-3.556 11.289 11.289 0 01-1.902-3.325c-.12-.31-.22-.629-.298-.952-.054-.213-.079-.328-.079-.328s.116.449.438 1.256a11.523 11.523 0 001.944 3.24 12.24 12.24 0 004.817 3.47 10.85 10.85 0 003.646.765 11.26 11.26 0 004.112-.643 12.15 12.15 0 005.62-4.102c.506-.679.932-1.414 1.27-2.19a7.831 7.831 0 00.686-2.506 4.849 4.849 0 00-.407-2.603 3.644 3.644 0 00-1.974-1.771 2.567 2.567 0 00-2.588.406A4.027 4.027 0 0039.87 71.6a14.545 14.545 0 00-.049 3.034c.017 2.07.39 4.123 1.106 6.067a8.257 8.257 0 001.774 2.609 5.888 5.888 0 002.716 1.608c1.054.256 2.16.19 3.177-.188A8.263 8.263 0 0051.388 83c1.623-1.534 2.734-3.518 3.78-5.417.512-.924.702-1.99.54-3.034-.078-.224-.2-.43-.359-.607a1.672 1.672 0 00-.607-.376 1.94 1.94 0 00-1.44.176 4.044 4.044 0 00-1.215.934c-.354.37-.667.778-.936 1.214a7.88 7.88 0 00-1.032 2.845 8.594 8.594 0 001.032 5.698 7.09 7.09 0 004.38 3.27 8.516 8.516 0 007.43-1.45 6.605 6.605 0 001.586-1.82 5.517 5.517 0 00.632-2.24 3.497 3.497 0 00-.45-2.117 2.428 2.428 0 00-1.682-1.092 2.895 2.895 0 00-1.89.467 3.72 3.72 0 00-1.282 1.396 3.279 3.279 0 00-.334 1.717 5.015 5.015 0 001.306 2.888 6.84 6.84 0 002.175 1.614 14.77 14.77 0 003.645 1.098l.978.188.316.054zm80.332 114.18h-37.305a2.665 2.665 0 00-2.666 2.664v.212a2.665 2.665 0 002.666 2.663h37.305a2.665 2.665 0 002.666-2.663v-.212a2.665 2.665 0 00-2.666-2.664zm-29.746 8.854h22.979s-3.057 6.104-11.963 6.104c-9.287 0-11.016-6.104-11.016-6.104z" fill="#495E4C"/><path d="M140.914 82.43a8.11 8.11 0 00-8.188-3.693 8.107 8.107 0 00-6.573 6.118 8.1 8.1 0 007.539 9.969 8.116 8.116 0 004.546-1.161l.101-.068-5.491 22.489 17.696 4.309-.072-.101a8.048 8.048 0 01.421-8.899 8.074 8.074 0 018.37-3.072 8.063 8.063 0 016.088 6.509 8.054 8.054 0 01-3.636 8.135l-.169.106 19.019 4.637c4.115-9.168 6.496-21.457 1.449-35.502a49.977 49.977 0 00-12.812-19.826 50.05 50.05 0 00-20.488-11.744l-2.203-.536-5.491 22.504-.106-.174z" fill="#E9E9E9"/><path d="M140.914 82.43c.04.054.077.11.111.169.193-.893 2.149-9.008 5.424-22.513v-.073h.072l1.811.44c.619.14 1.232.347 1.86.535a50.62 50.62 0 013.806 1.414 50.158 50.158 0 017.853 4.11 53.208 53.208 0 017.708 6.046 53.42 53.42 0 016.815 8.154c.516.763.966 1.578 1.448 2.37l.73 1.206c.222.415.425.844.642 1.269l1.285 2.571 1.096 2.702a48.25 48.25 0 013.053 11.643 45.786 45.786 0 01-.184 12.646c-.145 1.071-.386 2.133-.599 3.204-.212 1.071-.517 2.123-.845 3.175a51.185 51.185 0 01-2.323 6.238l-.039.097h-.101L167.26 124.6l-5.747-1.38-.295-.072.261-.159a7.944 7.944 0 003.197-3.643 7.874 7.874 0 00.609-2.355 7.487 7.487 0 00-.116-2.412 8.638 8.638 0 00-.324-1.163 8.954 8.954 0 00-.512-1.091 7.644 7.644 0 00-1.449-1.891 7.957 7.957 0 00-12.19 1.448 7.612 7.612 0 00-.937 2.06 7.39 7.39 0 00-.333 2.214 7.939 7.939 0 001.227 4.203l.154.251-.28-.068-17.691-4.318-.106-.029.024-.106c2.014-8.203 3.863-15.744 5.506-22.484l.14.096a8.192 8.192 0 01-4.106 1.255 8.011 8.011 0 01-3.965-.932 8.147 8.147 0 01-4.165-5.394 8.122 8.122 0 011.398-6.668 8.323 8.323 0 014.477-3.01 8.922 8.922 0 012.313-.256 9.14 9.14 0 012.019.328 7.982 7.982 0 014.183 2.895c.137.175.261.36.372.555l-.097-.136a8.294 8.294 0 00-1.666-1.8 8.122 8.122 0 00-2.811-1.447 9.095 9.095 0 00-2-.309 8.732 8.732 0 00-2.289.261 8.213 8.213 0 00-4.405 2.991A7.995 7.995 0 00130.4 93.89a7.87 7.87 0 007.896-.328l.193-.12-.053.217c-1.642 6.755-3.472 14.267-5.472 22.494l-.077-.131 17.691 4.299-.121.184a8.16 8.16 0 01-1.27-4.343 7.485 7.485 0 01.338-2.282c.214-.752.54-1.468.966-2.123a8.237 8.237 0 013.545-3.044 8.212 8.212 0 019.022 1.519 8.014 8.014 0 011.502 1.93c.2.363.376.739.527 1.125.139.39.251.79.333 1.196.176.818.219 1.659.125 2.49a8.13 8.13 0 01-1.227 3.573 8.16 8.16 0 01-2.709 2.637l-.034-.232 5.748 1.399 13.272 3.238-.145.067a51.613 51.613 0 002.313-6.209c.329-1.047.58-2.104.841-3.161.26-1.056.454-2.118.594-3.179.649-4.164.714-8.398.193-12.579a47.995 47.995 0 00-3.019-11.633l-1.091-2.692c-.425-.86-.855-1.713-1.275-2.562-.213-.42-.416-.85-.638-1.26l-.724-1.201c-.483-.796-.937-1.607-1.449-2.364a48.762 48.762 0 00-14.436-14.147 50.238 50.238 0 00-7.815-4.11 48.29 48.29 0 00-3.791-1.42c-.628-.188-1.231-.395-1.85-.54l-1.806-.424.087-.053c-3.313 13.51-5.313 21.6-5.559 22.484l-.111-.174z" fill="#495E4C"/><path d="M157.523 140.808l.135-.14a7.942 7.942 0 00-1.329-12.185 7.958 7.958 0 00-11.724 3.612 7.94 7.94 0 001.718 8.636l.087.077h-18.884v21.176l.077-.091a7.844 7.844 0 015.554-2.311 7.936 7.936 0 017.901 7.086 7.926 7.926 0 01-6.228 8.592 7.932 7.932 0 01-7.164-2.038l-.14-.14v24.279h21.294s.966-8.101 1.932-14.258c.966-6.156 14.754-18.716 18.71-23.951 1.594-2.108 5.53-9.022 7.245-18.335l-19.184-.009z" fill="#E9E9E9"/><path d="M164.023 165.227a2.52 2.52 0 00-2.869-1.448c-.768.193-1.449.758-2.255.671a2.225 2.225 0 01-1.594-1.337c-.328-.646-.507-1.365-.894-1.978a1.886 1.886 0 00-1.782-1.013c-.932.154-1.516 1.298-2.463 1.317a1.71 1.71 0 01-.787-.261 1.715 1.715 0 01-.575-.598c-.314-.482-.507-.994-.831-1.447a3.382 3.382 0 00-4.675-.652c-.908.459-1.874 1.979-2.004 3.528-.391 4.68-2.217 5.519-2.217 5.519a7.922 7.922 0 01-4.821 7.295 7.935 7.935 0 01-8.605-1.577l-.141-.14v24.279h21.295s.966-8.101 1.932-14.258l-.034-.154c.015-.064.026-.128.034-.193.627-4.405 13.286-17.553 13.286-17.553z" fill="#5CCD6A"/><path d="M157.523 140.807l19.203-.067h.082v.082a54.465 54.465 0 01-3.69 11.951 37.018 37.018 0 01-3.531 6.398c-1.56 2.022-3.38 3.942-5.254 5.959-1.874 2.017-3.806 4.091-5.743 6.272a65.83 65.83 0 00-5.588 7.098 14.425 14.425 0 00-2.023 4.188c-.295 1.549-.483 3.16-.734 4.767a500.948 500.948 0 00-1.29 9.901v.106H127.4v-24.685l.213.217a7.775 7.775 0 006.607 2.23c.79-.1 1.558-.329 2.274-.676a8.306 8.306 0 001.034-.579c.322-.227.63-.473.922-.738a7.795 7.795 0 00.565-10.881 7.801 7.801 0 00-3.308-2.214 7.528 7.528 0 00-2.178-.42 7.263 7.263 0 00-2.193.203 7.773 7.773 0 00-3.723 2.142l-.208.212v-21.572h18.99l-.058.159a7.969 7.969 0 01-2.159-3.642 7.873 7.873 0 010-4.015 7.985 7.985 0 0115.596.483c.117.662.158 1.335.12 2.007a7.838 7.838 0 01-1.912 4.637c-.14.169-.261.284-.334.362l-.12.115.111-.12c.072-.087.183-.203.323-.372a7.865 7.865 0 001.855-4.627 6.476 6.476 0 000-.965 7.685 7.685 0 00-.874-3.165 7.853 7.853 0 00-7.886-4.191 7.854 7.854 0 00-6.714 5.884 7.754 7.754 0 000 3.933 7.85 7.85 0 002.115 3.551l.159.159h-19.106l.106-.106v21.177l-.202-.078a7.995 7.995 0 013.839-2.219 8.15 8.15 0 014.506.222 8.05 8.05 0 014.916 4.785 8.043 8.043 0 01-.569 6.833 7.789 7.789 0 01-1.512 1.887 9.598 9.598 0 01-.966.762 8.854 8.854 0 01-1.067.599 7.589 7.589 0 01-2.347.694 7.947 7.947 0 01-2.463-.033 8.042 8.042 0 01-4.347-2.263l.217-.092v24.279l-.121-.121h21.295l-.121.107a565.6 565.6 0 011.304-9.911c.237-1.616.439-3.204.739-4.781a14.706 14.706 0 012.057-4.261 66.76 66.76 0 015.617-7.117c1.932-2.2 3.888-4.274 5.757-6.272 1.869-1.997 3.7-3.932 5.25-5.935a36.909 36.909 0 003.526-6.354 54.71 54.71 0 003.714-11.908l.063.077-19.179-.058z" fill="#495E4C"/><path d="M143.347 155.957a1.833 1.833 0 01-1.135 1.699 1.846 1.846 0 01-2.006-.399 1.84 1.84 0 01.279-2.828 1.841 1.841 0 012.862 1.528z" fill="#5CCD6A"/><path d="M133.891 175.296c-1.874.154-3.951-.603-4.83-2.278l-1.448.637c0 .965 1.202 2.861 2.086 3.223a8.378 8.378 0 005.622.425 5.856 5.856 0 003.796-4.232c-1.657 1.207-3.352 2.07-5.226 2.225z" fill="#000" opacity=".2"/><path d="M116.567 88.481a7.913 7.913 0 015.772 1.327l.15.121-3.545-22.446-2.193.348a49.093 49.093 0 00-20.987 9.823 49.03 49.03 0 00-14.135 18.35c-6.07 13.321-4.738 25.543-1.449 34.826l2.338-.371 18.208-2.871-.116.164a7.94 7.94 0 003.217 11.826 7.957 7.957 0 0011.016-5.393 7.947 7.947 0 00-3.042-8.262l-.102-.063.507-.082 15.595-2.48-3.545-22.431-.067.101a7.848 7.848 0 01-5.125 3.151 7.941 7.941 0 01-5.675-1.579 7.926 7.926 0 01-1.724-10.794 7.94 7.94 0 014.902-3.264z" fill="#5CCD6A"/><path d="M116.567 88.481l-.531.12a4.9 4.9 0 00-.642.184c-.126.044-.261.082-.406.14l-.454.198a7.872 7.872 0 00-2.14 1.447 7.986 7.986 0 00-1.931 2.924 8.363 8.363 0 00-.31.965 7.75 7.75 0 00-.169 1.071 7.444 7.444 0 00.121 2.316 7.837 7.837 0 002.966 4.714 7.854 7.854 0 005.351 1.559 7.674 7.674 0 003.168-.965 7.821 7.821 0 002.584-2.34l.121-.174.034.207c1.048 6.606 2.245 14.147 3.564 22.432v.101h-.102l-16.073 2.543.044-.208a7.965 7.965 0 012.762 3.378 7.24 7.24 0 01.575 2.166 7.766 7.766 0 01-.039 2.268 8.142 8.142 0 01-.69 2.185 8.423 8.423 0 01-1.299 1.93 8.096 8.096 0 01-3.995 2.389 7.962 7.962 0 01-4.738-.251 8.113 8.113 0 01-3.815-2.943 7.165 7.165 0 01-1.087-2.215 7.773 7.773 0 01-.372-2.451 8.024 8.024 0 011.56-4.704l.121.197-13.286 2.094-7.245 1.144h-.106l-.034-.101a48.474 48.474 0 01-2.632-12.333 44.454 44.454 0 01-.063-6.157c.087-1.013.145-2.026.3-3.025.067-.482.115-.999.207-1.491l.275-1.476a45.89 45.89 0 013.705-11.064l1.275-2.533.319-.627c.11-.207.241-.4.357-.603l.73-1.192c.236-.396.482-.791.719-1.182l.357-.589.401-.554 1.599-2.21c.251-.372.555-.705.84-1.047l.865-1.018.855-1.014c.29-.328.613-.627.917-.94.614-.618 1.208-1.25 1.83-1.839l1.933-1.684a51.254 51.254 0 018.036-5.486 52.506 52.506 0 018.211-3.55 41.967 41.967 0 017.862-1.854h.078v.078a33556.5 33556.5 0 003.501 22.45v.092l-.063-.024a7.947 7.947 0 00-5.534-1.51l-.377.038s.121-.024.377-.058a7.15 7.15 0 011.154-.053 7.912 7.912 0 014.424 1.52l-.063.038c-.744-4.656-1.961-12.27-3.588-22.435l.091.067a41.31 41.31 0 00-7.824 1.862 49.052 49.052 0 00-16.189 9.028l-1.908 1.679c-.623.589-1.212 1.22-1.825 1.834-.3.313-.618.612-.908.965-.29.352-.565.67-.85 1.008l-.86 1.013c-.298.334-.579.684-.84 1.047l-1.584 2.196-.401.53-.358.584-.715 1.182-.72 1.187c-.12.198-.245.396-.356.598l-.314.628c-.425.834-.846 1.674-1.27 2.518a45.804 45.804 0 00-3.68 11.016c-.088.482-.18.965-.271 1.447-.092.483-.14.965-.208 1.486-.155.965-.213 1.998-.295 3.006a44.06 44.06 0 00.063 6.123 48.254 48.254 0 002.623 12.27l-.135-.082 7.244-1.144 13.291-2.094.3-.048-.179.241a7.715 7.715 0 00-1.154 6.938c.117.384.263.758.434 1.12.181.357.388.701.619 1.028a7.873 7.873 0 003.699 2.856 8.237 8.237 0 002.285.482 8.455 8.455 0 002.308-.226 7.913 7.913 0 002.121-.874 7.857 7.857 0 003.018-3.305 8.28 8.28 0 00.671-2.123 7.65 7.65 0 00.039-2.2 7.311 7.311 0 00-.555-2.104 7.836 7.836 0 00-2.671-3.285l-.237-.164.28-.044 16.098-2.494-.087.12c-1.319-8.323-2.488-15.859-3.521-22.46l.15.029a8.004 8.004 0 01-2.647 2.388 7.745 7.745 0 01-3.236.965 7.986 7.986 0 01-5.438-1.602 7.963 7.963 0 01-2.999-4.805 7.628 7.628 0 01-.112-2.35c.055-.71.218-1.408.483-2.07a7.86 7.86 0 014.154-4.376l.459-.198.41-.13c.211-.074.427-.13.647-.169.363-.082.546-.082.546-.082z" fill="#495E4C"/><path d="M127.188 197.423h-19.256s-.966-8.101-1.932-14.258c-.966-6.157-14.755-18.716-18.71-23.956-1.594-2.108-5.53-9.018-7.245-18.335h18.189l-.14.145a7.95 7.95 0 00-1.624 8.66 7.964 7.964 0 0014.683-.081 7.946 7.946 0 00-1.719-8.642l-.087-.082 17.701.131v21.176s1.651-2.513 5.636-2.412c3.984.101 6.993 2.933 7.636 5.79.642 2.856.106 8.246-5.265 9.698-5.37 1.452-8.065-2.331-8.065-2.331l.058 24.608" fill="#fff"/><path d="M127.023 196.342c.068 0 .125.27.125.603 0 .333-.053.603-.125.603-.073 0-.126-.27-.126-.603 0-.333.053-.603.126-.603zm-.015-4.936c.123.399.167.819.131 1.235.042.416-.001.836-.126 1.235a3.184 3.184 0 01-.125-1.235 3.125 3.125 0 01.12-1.235zm-.009-4.936c.122.4.165.82.126 1.236.042.415.001.835-.121 1.235a3.13 3.13 0 01-.131-1.235 3.097 3.097 0 01.126-1.236zm-.014-4.935c.125.399.17.819.13 1.235.043.416 0 .836-.125 1.235a3.203 3.203 0 01-.126-1.235 3.144 3.144 0 01.121-1.235zm-.01-4.936c.122.399.165.819.126 1.235.042.415.001.835-.121 1.235a3.228 3.228 0 01-.131-1.235 3.092 3.092 0 01.126-1.235zm.826-2.804c0 .029-.145-.038-.319-.173a3.128 3.128 0 01-.295-.256l-.159-.169-.082-.096-.039-.049v-.024l.227-.072c.042.406 0 .817-.126 1.206a3.029 3.029 0 01-.173-1.245l.227-.072v.024l.038.048.073.092.14.169.246.289c.179.193.242.304.242.328zm4.279 1.771a3.228 3.228 0 01-2.284-.536c.392.027.779.107 1.149.237.39.05.772.15 1.135.299zm4.569-.932c.039.058-.411.367-1.043.579a2.384 2.384 0 01-1.179.189c0-.078.483-.222 1.097-.425.357-.165.736-.28 1.125-.343zm3.143-3.392a2.12 2.12 0 01-.449 1.11c-.357.56-.778.912-.821.864-.044-.048.27-.483.608-1.004.338-.521.594-.998.662-.97zm.671-4.597c.161.37.219.777.17 1.177.035.403-.04.809-.218 1.173a4.117 4.117 0 01-.034-1.178 4.013 4.013 0 01.082-1.172zm-1.897-4.232c.049-.048.483.299.841.849.264.309.432.688.483 1.091-.063.029-.324-.425-.686-.965-.362-.54-.691-.926-.638-.975zm-4.004-2.374c.405-.023.808.067 1.164.261.614.251 1.044.583 1.005.641a4.335 4.335 0 01-1.101-.41 4.518 4.518 0 01-1.068-.492zm-4.656.121a2.108 2.108 0 011.126-.41c.39-.11.803-.11 1.193 0-.373.13-.761.208-1.155.231a5.03 5.03 0 01-1.164.179zm-2.883.806c.125.389.168.8.126 1.206l-.232-.072v-.024l.039-.053.077-.097.159-.169c.091-.095.189-.182.295-.26.174-.135.299-.193.324-.169.024.024-.063.135-.203.299-.14.164-.174.203-.247.285l-.14.173-.067.092-.034.048v.024l-.232-.067c-.038-.41.008-.824.135-1.216zm0-5.361a7.22 7.22 0 010 2.678 7.178 7.178 0 010-2.678zm0-5.366a7.22 7.22 0 010 2.678 7.178 7.178 0 010-2.678zm0-5.355a7.22 7.22 0 010 2.678 7.178 7.178 0 010-2.678zm-1.207-3.898a3.061 3.061 0 011.207-.116l.126.126v.839c-.024.217-.058.352-.092.352-.034 0-.067-.135-.087-.352 0-.111 0-.241-.029-.386v-.453l.126.125a2.964 2.964 0 01-1.251-.135zm-4.366-.029a2.38 2.38 0 011.091-.121 2.52 2.52 0 011.092.135 2.513 2.513 0 01-1.092.116 2.558 2.558 0 01-1.091-.13zm-4.371-.034a4.927 4.927 0 012.188 0 2.429 2.429 0 01-1.096.121 2.53 2.53 0 01-1.092-.121zm-4.366-.029c.35-.125.723-.166 1.092-.121.369-.039.743.007 1.091.135a2.509 2.509 0 01-1.091.116 2.563 2.563 0 01-1.092-.13zm-2.588.874c-.029 0-.14-.063-.3-.213a4.367 4.367 0 01-.27-.265l-.15-.164-.077-.087-.044-.039c-.072.193.106-.27.087-.222.408-.036.818.01 1.208.136a2.959 2.959 0 01-1.208.115c0 .049.16-.415.082-.217v.024l.044.044.082.091.145.179c.091.116.174.222.236.314.126.159.194.279.165.304zm1.588 4.317a4.609 4.609 0 01-.271-1.134 4.306 4.306 0 01-.198-1.148c.25.317.404.699.445 1.1.121.384.13.794.024 1.182zm-1.105 4.473c.244-.739.541-1.46.888-2.157a3.374 3.374 0 01-.888 2.157zm-3.411 3.098c-.029-.068.421-.328.966-.68.546-.353.937-.671.966-.618.029.053-.299.483-.845.825-.31.257-.687.421-1.087.473zm-4.559.68a2.89 2.89 0 011.164-.043 2.713 2.713 0 011.169.043c-.37.148-.766.219-1.164.208-.4.014-.799-.057-1.169-.208zm-4.168-1.964c.049-.053.483.261.966.613s.966.613.966.68a2.143 2.143 0 01-1.086-.482c-.541-.353-.894-.763-.846-.811zm-2.371-3.947c.208.329.37.685.483 1.057.184.344.322.71.41 1.09-.057.039-.39-.386-.642-.994a2.08 2.08 0 01-.251-1.153zm.227-4.602a4.27 4.27 0 01-.189 1.149c-.035.388-.124.77-.265 1.133-.13-.79.03-1.601.454-2.282zm.675-2.958c.39-.122.801-.165 1.208-.125.038.096-.087-.213.092.217l-.044.043-.082.082-.15.169-.265.27c-.155.15-.27.232-.295.212-.024-.019.034-.144.16-.323a8.7 8.7 0 01.227-.318l.144-.179a.703.703 0 01.083-.091l.043-.044c.179.43.048.121.087.212a2.94 2.94 0 01-1.208-.125zm-4.186 0c0-.068.27-.125.604-.125.333 0 .603.057.603.125s-.27.125-.603.125c-.334 0-.604-.053-.604-.125z" fill="#495E4C"/><path d="M127.25 197.422h-5.221l-14.03.102h-.087v-.087a452.411 452.411 0 00-1.806-13.254c-.184-2.461-1.599-4.656-3.077-6.755a77.03 77.03 0 00-5.051-6.215c-2.372-2.678-4.777-5.206-7.052-7.676-1.13-1.24-2.24-2.461-3.255-3.715-.5-.621-.957-1.276-1.367-1.959a37.387 37.387 0 01-1.154-2.017 51.512 51.512 0 01-3.328-7.903 52.541 52.541 0 01-1.835-7.059v-.102h.101l9.09.039 2.415.024h.845-3.26l-9.09.039.082-.102a53.54 53.54 0 001.826 7.006 51.57 51.57 0 003.342 7.86c.358.671.734 1.346 1.15 2.007.407.674.86 1.318 1.357 1.93 1.004 1.24 2.115 2.456 3.25 3.691 2.275 2.471 4.685 4.994 7.056 7.682a75.787 75.787 0 015.062 6.301 27.37 27.37 0 012.038 3.286c.288.565.528 1.154.715 1.761.164.6.284 1.211.357 1.828.725 4.825 1.29 9.308 1.768 13.274l-.102-.092 14.036.044 3.863.029h1.01c.236.024.352.033.352.033z" fill="#495E4C"/><path d="M125.981 197.423c0-.072.27-.125.603-.125.334 0 .604.053.604.125 0 .073-.27.126-.604.126-.333 0-.603-.058-.603-.126zm-4.811 0a5.815 5.815 0 012.415 0 5.815 5.815 0 01-2.415 0zm-4.816 0a5.815 5.815 0 012.415 0 5.815 5.815 0 01-2.415 0zm-4.811 0a5.815 5.815 0 012.415 0 5.815 5.815 0 01-2.415 0zm-3.761-1.197c.034 0 .082.126.135.338 0 .111.049.236.073.381.024.145.024.155.034.222v.236c-.058-.048.12.116-.126-.11.407-.043.818 0 1.207.125-.39.122-.8.165-1.207.125 0-.255-.164-.057-.126-.115v-.845c-.038-.217-.024-.352.01-.357zm-.638-4.975c.277.798.388 1.644.324 2.485a6.35 6.35 0 01-.324-2.485zm-.685-4.955c.181.383.283.798.299 1.221.099.413.117.84.053 1.259a6.355 6.355 0 01-.352-2.48zm-1.005-4.892c.274.332.457.729.531 1.153.136.405.173.837.106 1.259-.082 0-.183-.545-.347-1.196a4.9 4.9 0 01-.29-1.216zm-2.561-4.294c.326.268.599.596.802.965.27.327.47.704.589 1.11-.058.039-.415-.396-.801-.965a3.171 3.171 0 01-.59-1.11zm-3.105-3.932c.054-.044.454.357.894.892.299.301.537.656.7 1.047-.058.044-.454-.357-.893-.887a3.231 3.231 0 01-.7-1.052zm-3.312-3.758c.048-.044.483.333.927.849.313.287.565.633.744 1.018-.053.048-.483-.333-.932-.849-.45-.516-.807-.97-.74-1.018zm-3.4-3.683c.048-.048.483.324.966.835.317.282.576.623.763 1.004-.053.043-.483-.328-.966-.835-.483-.507-.811-.955-.763-1.004zm-3.396-3.686c.049-.048.483.328.937.84.312.286.567.628.754 1.008-.053.048-.483-.328-.942-.839-.459-.512-.782-.965-.749-1.009zm-2.4-2.842c.053-.043.265.135.483.396.217.261.328.483.275.55-.053.068-.266-.135-.483-.396-.217-.26-.324-.506-.275-.55z" fill="#495E4C"/></g><defs><clipPath id="clip0_86_2007"><path fill="#fff" transform="translate(.492 .206)" d="M0 0h279v246H0z"/></clipPath></defs></svg>