<svg width="95" height="121" fill="none" xmlns="http://www.w3.org/2000/svg"><path d="M80.736 17.9C71.804 5.691 58.828 0 45.28 0c0 0-33.17 0-42.993 29.527C-1.34 40.41-.534 52.225 3.86 62.822a60.869 60.869 0 006.2 11.46c8.565 12.292 35.22 45.896 35.22 45.896h5.797c7.425-10.277 26.172-44.426 31.783-55.36 7.046-13.74 8.126-32.894-2.124-46.918zM50.815 72.522a28.452 28.452 0 01-15.745-4.747A28.211 28.211 0 0124.632 55.13a28.028 28.028 0 01-1.614-16.28 28.127 28.127 0 017.756-14.429 28.388 28.388 0 0114.51-7.711 28.488 28.488 0 0116.373 1.604 28.302 28.302 0 0112.717 10.38 28.063 28.063 0 014.774 15.655 28.096 28.096 0 01-8.3 19.92 28.419 28.419 0 01-20.033 8.253z" fill="#71D281"/><path d="M86.568 18.132C77.64 5.924 64.661.232 51.113.232c0 0-33.17 0-42.993 29.528C4.492 40.642 5.3 52.458 9.696 63.055a60.734 60.734 0 006.196 11.459c8.565 12.3 35.221 45.892 35.221 45.892s30.8-42.129 37.58-55.355c7.046-13.748 8.13-32.894-2.125-46.919zM50.843 72.754A28.451 28.451 0 0135.1 68.006 28.211 28.211 0 0124.663 55.36a28.028 28.028 0 01-1.612-16.28 28.127 28.127 0 017.755-14.426 28.387 28.387 0 0114.509-7.712 28.485 28.485 0 0116.372 1.604 28.303 28.303 0 0112.717 10.378 28.063 28.063 0 014.776 15.654 27.83 27.83 0 01-2.1 10.815 27.956 27.956 0 01-6.138 9.17 28.14 28.14 0 01-9.222 6.103 28.267 28.267 0 01-10.877 2.088z" fill="#8EEE9E"/><path d="M50.815 16.172a28.448 28.448 0 00-16.35 5.164 28.194 28.194 0 00-10.358 13.598 24.195 24.195 0 0110.562-11.272 24.397 24.397 0 0115.269-2.624 24.324 24.324 0 0113.754 7.094 24.084 24.084 0 016.639 13.921 24.028 24.028 0 01-3.182 15.079 24.238 24.238 0 01-11.706 10.094 24.407 24.407 0 01-15.462.998 24.288 24.288 0 01-12.92-8.504 28.276 28.276 0 0010.742 9.657 28.467 28.467 0 0027.977-1.118 28.24 28.24 0 009.928-10.482 28.045 28.045 0 003.422-13.992 28.053 28.053 0 00-3.978-13.845 28.257 28.257 0 00-10.338-10.082 28.458 28.458 0 00-13.999-3.686z" fill="#71D281"/></svg>