<svg width="223" height="253" fill="none" xmlns="http://www.w3.org/2000/svg"><g opacity=".5"><path d="M169.933 20.512l37.997-1.579a12.333 12.333 0 018.947 3.314 12.294 12.294 0 013.895 8.703l1.343 58.63a12.315 12.315 0 01-3.08 8.422 12.339 12.339 0 01-7.977 4.108 4.084 4.084 0 00-3.665 4.221l4.739 123.873a15.356 15.356 0 01-4.051 10.994 15.387 15.387 0 01-10.631 4.944l-145.124 6.39a4.096 4.096 0 01-3.904-2.382 4.079 4.079 0 01-.369-1.563l-6.42-214.994a4.092 4.092 0 013.798-4.205l124.502-8.877z" fill="#5CCD6A"/><path d="M47.935 244.5l.118 4.072 156.276-14.36-2.986-215.026s-37.91 5.744-38.628 5.744c-.719 0-114.78 219.57-114.78 219.57z" fill="#000" opacity=".3"/><path d="M150.149 8.969l45.35-2.762 4.683 222.869L40.558 245.25 17.054 23.55 150.149 8.968z" fill="#EBEBEB"/><path d="M150.149 8.968l-2.369.285-6.903.788-26.505 2.951L17.07 23.7l.134-.166c6.318 59.396 14.516 136.56 23.56 221.709l-.222-.181 35.778-3.622 123.87-12.553-.173.197a529683.78 529683.78 0 01-4.613-222.876l.103.095-33.756 1.988-8.687.505c-1.943.11-2.931.15-2.931.15s.988-.08 2.931-.205l8.687-.553 33.748-2.098h.103v.102c.971 45.502 2.693 125.451 4.738 222.869v.181h-.181l-123.8 12.593-35.777 3.621h-.206v-.205C31.365 160.109 23.198 82.945 16.92 23.541v-.15h.15l97.302-10.588 26.513-2.864 6.911-.734a46.716 46.716 0 002.353-.237z" fill="#495E4C"/><path d="M9.124 16.148l21.609 224.297L197.9 224.72 173.796.581 9.124 16.148z" fill="#fff"/><path d="M9.124 16.18L173.78.4h.166v.166c6.776 62.922 15.124 140.441 24.143 224.13v.206h-.205l-1.185.118-165.95 15.614h-.182v-.181C17.86 107.656 9.282 17.758 9.124 16.18c.158 1.633 8.885 91.524 21.79 224.281l-.197-.166L196.7 224.657l1.185-.11-.189.221C188.707 141.023 180.382 63.52 173.63.598l.181.15L9.124 16.18z" fill="#495E4C"/><path d="M140.784 196.508a24.6 24.6 0 014.184-13.668 24.64 24.64 0 0111.08-9.042 24.667 24.667 0 0126.843 5.4 24.598 24.598 0 015.277 26.842 24.63 24.63 0 01-9.104 11.026 24.673 24.673 0 01-13.702 4.114 24.68 24.68 0 01-17.396-7.259 24.632 24.632 0 01-7.182-17.413zm48.825.11a24.157 24.157 0 00-4.043-13.438 24.19 24.19 0 00-10.834-8.929 24.218 24.218 0 00-13.975-1.41 24.195 24.195 0 00-12.403 6.584 24.147 24.147 0 00-5.308 26.326 24.179 24.179 0 008.885 10.867 24.206 24.206 0 0013.431 4.104 24.23 24.23 0 0017.113-7.043 24.182 24.182 0 007.134-17.061z" fill="#E0E0E0"/><path d="M143.619 196.508a21.459 21.459 0 013.652-11.918 21.484 21.484 0 019.664-7.882 21.512 21.512 0 0123.407 4.711 21.456 21.456 0 01-3.333 33.021 21.512 21.512 0 01-11.947 3.592 21.524 21.524 0 01-15.178-6.332 21.482 21.482 0 01-6.265-15.192zm39.814.094a18.296 18.296 0 00-3.063-10.178 18.318 18.318 0 00-8.207-6.763 18.333 18.333 0 00-19.979 3.92 18.296 18.296 0 00-4.019 19.941 18.333 18.333 0 0016.905 11.338 18.35 18.35 0 0012.94-5.347 18.31 18.31 0 005.391-12.911h.032z" fill="#E0E0E0"/><path d="M148.879 196.847a15.663 15.663 0 011.706-7.101l2.828 1.428a12.619 12.619 0 00-1.367 5.697 12.721 12.721 0 0012.958 12.749 12.742 12.742 0 006.408-1.861l1.651 2.698a15.91 15.91 0 01-22.025-5.565 15.878 15.878 0 01-2.159-8.045zm8.562-14.076a15.916 15.916 0 0119.026 3.34 15.878 15.878 0 011.769 19.218l-2.685-1.697a12.705 12.705 0 00-1.418-15.383 12.736 12.736 0 00-15.231-2.669l-1.461-2.809z" fill="#E0E0E0"/><path d="M169.831 58.289c0 .11-31.529 3.156-70.45 6.848-38.92 3.693-70.488 6.557-70.496 6.446-.008-.11 31.528-3.156 70.457-6.856 38.929-3.7 70.481-6.557 70.489-6.438zm-76.476-1.768c0 .11-14.548 1.578-32.515 3.275-17.968 1.696-32.54 2.974-32.555 2.864-.016-.11 14.548-1.578 32.515-3.274 17.968-1.697 32.54-2.967 32.555-2.865zm77.092 10.944c0 .11-31.537 3.156-70.45 6.848-38.912 3.693-70.488 6.557-70.496 6.446-.008-.11 31.528-3.156 70.457-6.848 38.929-3.693 70.481-6.596 70.489-6.446zm.616 9.097c0 .118-31.536 3.156-70.449 6.857-38.913 3.7-70.489 6.556-70.497 6.438-.008-.118 31.528-3.156 70.457-6.849 38.929-3.692 70.481-6.556 70.489-6.446zm.616 9.145c0 .11-31.536 3.156-70.449 6.848-38.913 3.692-70.49 6.557-70.497 6.47-.008-.087 31.528-3.156 70.457-6.857 38.929-3.7 70.481-6.556 70.489-6.462zm.616 9.136c0 .11-31.536 3.156-70.457 6.849-38.921 3.692-70.481 6.556-70.497 6.446-.016-.111 31.529-3.156 70.457-6.857 38.929-3.7 70.481-6.548 70.497-6.438zm.608 9.137c0 .118-31.528 3.156-70.449 6.856-38.921 3.7-70.489 6.557-70.489 6.438 0-.118 31.528-3.156 70.457-6.848 38.929-3.693 70.473-6.557 70.481-6.446zm.616 9.144c0 .111-31.118 3.156-69.501 6.762-38.384 3.606-69.565 6.47-69.573 6.359-.008-.11 31.118-3.156 69.541-6.769 38.423-3.614 69.525-6.47 69.533-6.352zm-54.306 17.579c0 .111-18.789 1.894-41.977 3.945-23.188 2.051-42.01 3.685-42.017 3.574-.008-.11 18.781-1.893 41.977-3.984 23.196-2.091 42.001-3.653 42.017-3.535zm-22.825 75.539c0 .11-11.428 1.175-25.55 2.367-14.12 1.191-25.565 2.083-25.58 1.964-.017-.118 11.427-1.175 25.549-2.367 14.121-1.191 25.573-2.083 25.581-1.964zm-21.972 8.718c0 .119-6.405.789-14.327 1.428-7.921.639-14.358 1.121-14.374 1.01-.016-.11 6.413-.749 14.335-1.42 7.922-.671 14.358-1.128 14.366-1.018z" fill="#495E4C"/><path d="M72.655 150.641c0 .119-7.535.947-16.862 1.87-9.327.923-16.894 1.578-16.901 1.46-.008-.118 7.534-.955 16.861-1.87 9.328-.915 16.894-1.57 16.902-1.46z" fill="#5CCD6A"/><path d="M27.29 202.494l15.345-2.959 8.577-12.923-24.452 8.024.53 7.858z" fill="#000" opacity=".3"/><path d="M.373 185.98l40.975-3.874 9.864 4.506-7.874 8.844-41.622 4.482L.373 185.98z" fill="#5CCD6A"/><path d="M124.615 149.631l.143.048c.138.047.271.111.394.189.494.301.939.677 1.319 1.113a18.991 18.991 0 013.325 5.72 24.063 24.063 0 011.722 10.296 16.016 16.016 0 01-.561 3.156 21.068 21.068 0 01-5.639 9.066 21.763 21.763 0 01-6.768 4.418 18.512 18.512 0 01-8.648 1.365 18.96 18.96 0 01-15.18-10.833 15.767 15.767 0 01-1.374-5.018c-.22-1.781-.03-3.589.552-5.286a8.548 8.548 0 013.16-4.419 5.99 5.99 0 015.433-.646 8.28 8.28 0 014.336 3.589 13.124 13.124 0 011.714 5.468 23.776 23.776 0 01-1.682 11.48 22.645 22.645 0 01-6.974 9.271 20.85 20.85 0 01-10.457 4.197 19.512 19.512 0 01-10.733-1.743 18.304 18.304 0 01-7.63-7.101 17.779 17.779 0 01-2.582-9.563 13.03 13.03 0 01.924-4.734 9.315 9.315 0 012.693-3.787 5.588 5.588 0 014.289-1.263 6.417 6.417 0 013.775 2.099 8.127 8.127 0 011.895 3.708 10.36 10.36 0 010 3.945 20.421 20.421 0 01-2.811 6.786 32.329 32.329 0 01-3.95 5.247 35.995 35.995 0 01-4.2 3.866 36.466 36.466 0 01-3.997 2.651 30.675 30.675 0 01-6.066 2.675 23.2 23.2 0 01-2.227.623s.19-.071.56-.182c.372-.11.933-.252 1.644-.52a32.239 32.239 0 006.01-2.73 37.358 37.358 0 003.949-2.675 35.728 35.728 0 004.146-3.866 32.247 32.247 0 003.933-5.16 20.415 20.415 0 002.749-6.707 10.105 10.105 0 000-3.866 7.714 7.714 0 00-1.832-3.55 6.13 6.13 0 00-3.586-1.989 5.249 5.249 0 00-4.02 1.208 9.01 9.01 0 00-2.59 3.653 12.611 12.611 0 00-.885 4.584 17.476 17.476 0 002.567 9.373 18.037 18.037 0 007.479 6.928 19.294 19.294 0 0010.512 1.696 20.541 20.541 0 0010.267-4.127 22.165 22.165 0 006.816-9.128 23.537 23.537 0 001.659-11.283 12.987 12.987 0 00-1.659-5.302 7.931 7.931 0 00-4.115-3.416 5.915 5.915 0 00-2.638-.316 5.776 5.776 0 00-2.448.915 8.142 8.142 0 00-3.009 4.213 11.33 11.33 0 00-.537 5.121c.15 1.692.585 3.345 1.287 4.892a18.64 18.64 0 0014.864 10.651c2.897.242 5.811-.21 8.498-1.317a21.545 21.545 0 006.69-4.34 20.724 20.724 0 005.568-8.939c.295-1.006.483-2.04.561-3.085a23.944 23.944 0 00-1.635-10.257 19.272 19.272 0 00-3.238-5.72 6.118 6.118 0 00-1.272-1.137c-.3-.142-.498-.181-.49-.205z" fill="#495E4C"/><path d="M137.236 39.258s0-.134-.055-.387c-.055-.252-.079-.639-.134-1.12-.111-.994-.269-2.454-.482-4.34l-1.769-16.269.134.11-85.297 8.98.181-.221c.79 7.59 1.58 14.99 2.306 22.131l-.22-.181 60.868-6.257 17.929-1.815 4.833-.481 1.256-.118h.442l-.41.055-1.233.142-4.786.529-17.873 1.925-60.971 6.422h-.206v-.197c-.79-7.101-1.524-14.541-2.322-22.131v-.206h.206l85.273-8.86h.127v.118c.703 7.014 1.263 12.561 1.642 16.364.182 1.878.324 3.322.419 4.316.047.481.079.844.103 1.104.023.26.039.387.039.387z" fill="#455A64"/><path d="M55.59 40.995l-.865-9.14 4.596-.436c1.106-.105 1.934.058 2.484.49.55.421.874 1.155.973 2.2.099 1.044-.082 1.83-.541 2.356-.46.518-1.244.83-2.35.935l-3.016.285.3 3.16-1.58.15zm1.14-4.798l2.925-.277c.584-.056 1-.214 1.247-.474.246-.27.345-.665.296-1.188-.05-.53-.222-.901-.514-1.11-.283-.21-.721-.288-1.313-.232l-2.925.277.284 3.004zm10.158 3.846c-.888.084-1.556-.019-2.006-.31-.45-.3-.709-.811-.777-1.534-.071-.749.105-1.301.528-1.657.43-.366 1.16-.598 2.187-.695L69 35.64c-.068-.538-.257-.915-.568-1.132-.302-.226-.758-.31-1.368-.252-.496.047-.871.166-1.125.357-.255.182-.41.456-.463.82l-1.475.14c.045-.82.303-1.438.773-1.851.47-.422 1.209-.681 2.219-.777 1.132-.107 1.972.046 2.52.46.558.412.885 1.128.981 2.146l.379 3.996-1.489.141-.073-.77c-.449.64-1.256 1.015-2.423 1.125zm-1.313-2.036c.053.557.567.79 1.542.697.67-.063 1.164-.233 1.48-.51.317-.275.494-.678.531-1.209l-.022-.235-1.79.17c-1.218.115-1.799.477-1.74 1.087zm6.485-.707l1.475-.14c.241.601.884.852 1.93.753 1.044-.099 1.544-.379 1.5-.84-.038-.41-.684-.643-1.937-.7-1.084-.037-1.863-.192-2.336-.463-.466-.281-.73-.744-.79-1.388-.066-.688.117-1.219.547-1.593.439-.376 1.159-.61 2.16-.706 1.018-.096 1.801.01 2.349.318.547.308.914.844 1.1 1.608l-1.475.14c-.127-.322-.34-.538-.641-.65-.293-.122-.705-.158-1.236-.107-.957.09-1.416.353-1.374.789.02.217.176.378.467.482.299.095.753.157 1.362.188 1.156.057 1.966.217 2.43.48.472.255.738.7.799 1.335.066.705-.127 1.26-.58 1.662-.454.403-1.208.655-2.261.755-1.028.097-1.82-.008-2.376-.315-.547-.309-.918-.844-1.114-1.608zm11.003 1.21c-1.184.113-2.073-.084-2.665-.59-.593-.506-.947-1.373-1.063-2.6-.117-1.228.069-2.146.556-2.754.486-.608 1.322-.969 2.506-1.08 1.053-.1 1.866.038 2.437.414.572.376.962 1.024 1.173 1.944l-1.476.14c-.139-.444-.366-.751-.68-.924-.316-.172-.747-.232-1.296-.18-.679.064-1.154.28-1.427.65-.273.359-.375.909-.305 1.649s.274 1.265.61 1.576c.337.302.844.42 1.523.356.54-.051.948-.19 1.225-.42.285-.237.455-.582.508-1.035l1.476-.14c-.026.933-.288 1.643-.786 2.13-.491.477-1.263.765-2.316.865zm7.073-.67c-.888.085-1.557-.019-2.006-.31-.45-.3-.71-.811-.778-1.534-.07-.748.105-1.301.528-1.657.431-.366 1.16-.598 2.188-.695l2.18-.207c-.068-.538-.258-.915-.568-1.132-.303-.226-.759-.31-1.368-.252-.496.047-.871.166-1.126.357-.255.182-.409.456-.462.821l-1.476.14c.045-.821.303-1.439.773-1.852.47-.422 1.21-.681 2.22-.777 1.131-.107 1.971.046 2.52.46.557.412.884 1.128.98 2.146l.38 3.996-1.49.141-.072-.77c-.449.64-1.257 1.015-2.423 1.125zm-1.313-2.036c.053.557.567.79 1.542.697.67-.063 1.163-.233 1.48-.509.316-.276.493-.68.53-1.21l-.022-.235-1.789.17c-1.218.115-1.799.478-1.741 1.087zm7.024 1.376l-.928-9.793 1.476-.14.928 9.794-1.476.14zm5.254-9.72l1.671-.158 4.039 7.167 2.621-7.798 1.671-.159-3.234 9.53-1.802.17-4.966-8.752zm10.867 4.768c-.116-1.22.075-2.133.57-2.742.495-.618 1.352-.985 2.571-1.1 1.218-.116 2.124.08 2.717.585.592.506.947 1.373 1.063 2.6.009.096.015.25.017.46l-5.367.509c.11.604.335 1.031.675 1.28.348.248.832.343 1.45.284.914-.087 1.472-.451 1.675-1.094l1.541-.146c-.096.843-.411 1.457-.946 1.842-.534.384-1.254.62-2.16.705-1.218.116-2.129-.08-2.73-.584-.601-.506-.96-1.372-1.076-2.6zm1.479-.8l3.878-.367c-.131-.55-.364-.927-.7-1.133-.336-.213-.796-.293-1.38-.238-.583.056-1.024.22-1.323.495-.29.273-.449.688-.475 1.244zm6.534-3.385l1.476-.14.077.81c.42-.664 1.174-1.047 2.262-1.15.967-.092 1.695.085 2.185.53.498.436.798 1.185.898 2.247l.367 3.866-1.476.14-.366-3.866c-.055-.574-.238-.979-.55-1.213-.303-.234-.755-.323-1.356-.266-.679.064-1.155.276-1.429.636-.264.358-.361.912-.29 1.66l.321 3.396-1.475.14-.644-6.79zm10.325-.979l1.972-.187.131 1.385-1.972.186.277 2.926c.037.383.155.652.354.81.199.156.508.215.926.175l.888-.084.131 1.384-.927.088c-.914.087-1.598-.033-2.05-.36-.445-.335-.705-.903-.781-1.704l-.293-3.095-1.071.102-.131-1.385 1.07-.1-.141-1.49 1.476-.14.141 1.49z" fill="#78C081"/></g></svg>