<svg width="17" height="13" viewBox="0 0 17 13" fill="none" xmlns="http://www.w3.org/2000/svg">
<path d="M13.7249 0C14.3548 0 14.9589 0.263392 15.4043 0.732233C15.8497 1.20107 16.0999 1.83696 16.0999 2.5V10.5C16.0999 11.163 15.8497 11.7989 15.4043 12.2678C14.9589 12.7366 14.3548 13 13.7249 13H3.2749C2.64501 13 2.04092 12.7366 1.59552 12.2678C1.15012 11.7989 0.899902 11.163 0.899902 10.5V2.5C0.899902 1.83696 1.15012 1.20107 1.59552 0.732233C2.04092 0.263392 2.64501 0 3.2749 0H13.7249ZM15.1499 3.961L8.7412 7.931C8.68061 7.96845 8.61289 7.99128 8.54291 7.99785C8.47293 8.00442 8.40243 7.99457 8.3365 7.969L8.2586 7.931L1.8499 3.963V10.5C1.8499 10.8978 2.00004 11.2794 2.26728 11.5607C2.53451 11.842 2.89697 12 3.2749 12H13.7249C14.1028 12 14.4653 11.842 14.7325 11.5607C14.9998 11.2794 15.1499 10.8978 15.1499 10.5V3.961ZM13.7249 1H3.2749C2.89697 1 2.53451 1.15804 2.26728 1.43934C2.00004 1.72064 1.8499 2.10218 1.8499 2.5V2.802L8.4999 6.92L15.1499 2.8V2.5C15.1499 2.10218 14.9998 1.72064 14.7325 1.43934C14.4653 1.15804 14.1028 1 13.7249 1Z" fill="white"/>
</svg>
