<svg width="117" height="117" fill="none" xmlns="http://www.w3.org/2000/svg"><path d="M59 62.698c-2.658 0-4.834-2.165-4.834-4.81 0-2.646 2.176-4.81 4.834-4.81 2.658 0 4.833 2.164 4.833 4.81 0 2.645-2.175 4.81-4.833 4.81zm0-24.05c-10.15 0-19.334 7.744-19.334 19.72 0 7.986 6.453 17.438 19.334 28.38 12.88-10.942 19.333-20.394 19.333-28.38 0-11.976-9.183-19.72-19.333-19.72z" fill="#fff"/><path d="M91.5 61.205c0 18.134-14.772 32.84-33 32.84s-33-14.706-33-32.84c0-18.134 14.772-32.84 33-32.84s33 14.706 33 32.84z" stroke="#fff"/><path d="M116.5 58.22c0 31.875-25.965 57.719-58 57.719S.5 90.095.5 58.219C.5 26.344 26.465.5 58.5.5s58 25.844 58 57.72z" stroke="#fff"/></svg>