<svg width="10" height="8" viewBox="0 0 10 8" fill="none" xmlns="http://www.w3.org/2000/svg">
<g clip-path="url(#clip0_538_3563)">
<path d="M8.75 3.87891C8.94531 3.98568 9.11947 4.10677 9.27246 4.24219C9.42546 4.3776 9.55729 4.52604 9.66797 4.6875C9.77865 4.84896 9.86003 5.01953 9.91211 5.19922C9.96419 5.37891 9.99349 5.5625 10 5.75C10 6.0599 9.92676 6.35156 9.78027 6.625C9.63379 6.89844 9.43197 7.13672 9.1748 7.33984C8.91764 7.54297 8.61979 7.70312 8.28125 7.82031C7.94271 7.9375 7.57812 7.9974 7.1875 8C6.89128 8 6.60482 7.96484 6.32812 7.89453C6.05143 7.82422 5.79753 7.72266 5.56641 7.58984C5.33529 7.45703 5.13021 7.29818 4.95117 7.11328C4.77214 6.92839 4.63379 6.72396 4.53613 6.5H0.625V0.5H1.875V0H2.5V0.5H6.875V0H7.5V0.5H8.75V3.87891ZM1.25 1V2H8.125V1H7.5V1.5H6.875V1H2.5V1.5H1.875V1H1.25ZM4.38965 6C4.37988 5.91927 4.375 5.83594 4.375 5.75C4.375 5.52604 4.41406 5.30859 4.49219 5.09766C4.57031 4.88672 4.68913 4.6875 4.84863 4.5H4.375V4H5V4.33594C5.13346 4.20312 5.28158 4.08594 5.44434 3.98438C5.6071 3.88281 5.78288 3.79557 5.97168 3.72266C6.16048 3.64974 6.35742 3.59505 6.5625 3.55859C6.76758 3.52214 6.97591 3.5026 7.1875 3.5C7.51302 3.5 7.82552 3.54297 8.125 3.62891V2.5H1.25V6H4.38965ZM7.1875 7.5C7.49023 7.5 7.77344 7.45443 8.03711 7.36328C8.30078 7.27214 8.5319 7.14714 8.73047 6.98828C8.92904 6.82943 9.08529 6.64453 9.19922 6.43359C9.31315 6.22266 9.37174 5.99479 9.375 5.75C9.375 5.50781 9.31803 5.28125 9.2041 5.07031C9.09017 4.85938 8.93392 4.67448 8.73535 4.51562C8.53678 4.35677 8.30566 4.23177 8.04199 4.14062C7.77832 4.04948 7.49349 4.0026 7.1875 4C6.88477 4 6.60156 4.04557 6.33789 4.13672C6.07422 4.22786 5.8431 4.35286 5.64453 4.51172C5.44596 4.67057 5.28971 4.85547 5.17578 5.06641C5.06185 5.27734 5.00326 5.50521 5 5.75C5 5.99219 5.05697 6.21875 5.1709 6.42969C5.28483 6.64062 5.44108 6.82552 5.63965 6.98438C5.83822 7.14323 6.06934 7.26823 6.33301 7.35938C6.59668 7.45052 6.88151 7.4974 7.1875 7.5ZM7.5 5.5H8.4375V6H6.875V4.5H7.5V5.5ZM1.875 4H2.5V4.5H1.875V4ZM3.125 4H3.75V4.5H3.125V4ZM3.125 3H3.75V3.5H3.125V3ZM1.875 5H2.5V5.5H1.875V5ZM3.125 5H3.75V5.5H3.125V5ZM5 3.5H4.375V3H5V3.5ZM6.25 3.5H5.625V3H6.25V3.5ZM7.5 3.5H6.875V3H7.5V3.5Z" fill="white"/>
</g>
<defs>
<clipPath id="clip0_538_3563">
<rect width="10" height="8" fill="white"/>
</clipPath>
</defs>
</svg>
